G04 #@! TF.FileFunction,Legend,Top*
%FSLAX46Y46*%
G04 Gerber Fmt 4.6, Leading zero omitted, Abs format (unit mm)*
G04 Created by KiCad (PCBNEW 4.0.6-e0-6349~52~ubuntu17.04.1) date Sun Oct 15 13:20:49 2017*
%MOMM*%
%LPD*%
G01*
G04 APERTURE LIST*
%ADD10C,0.150000*%
%ADD11C,0.100000*%
%ADD12C,0.120000*%
G04 APERTURE END LIST*
D10*
D11*
X180000000Y-20000000D02*
X180000000Y-90000000D01*
X85000000Y-20000000D02*
X180000000Y-20000000D01*
X180000000Y-90000000D02*
X85000000Y-90000000D01*
X85000000Y-90000000D02*
X85000000Y-20000000D01*
X85000000Y-90000000D02*
X180000000Y-90000000D01*
D10*
X147574000Y-49530000D02*
G75*
G03X147574000Y-49530000I-4064000J0D01*
G01*
X162560000Y-42545000D02*
X161290000Y-42545000D01*
X160020000Y-41275000D02*
X161290000Y-41275000D01*
X161290000Y-41275000D02*
X161290000Y-43815000D01*
X161290000Y-43815000D02*
X160020000Y-43815000D01*
X160020000Y-40005000D02*
X160020000Y-45085000D01*
X160020000Y-45085000D02*
X143510000Y-45085000D01*
X143510000Y-45085000D02*
X143510000Y-40005000D01*
X143510000Y-40005000D02*
X160020000Y-40005000D01*
X143510000Y-42545000D02*
X142240000Y-42545000D01*
X157480000Y-45085000D02*
X157480000Y-40005000D01*
X158750000Y-40005000D02*
X158750000Y-45085000D01*
X103124000Y-74930000D02*
G75*
G03X103124000Y-74930000I-4064000J0D01*
G01*
X125730000Y-42545000D02*
X124460000Y-42545000D01*
X123190000Y-41275000D02*
X124460000Y-41275000D01*
X124460000Y-41275000D02*
X124460000Y-43815000D01*
X124460000Y-43815000D02*
X123190000Y-43815000D01*
X123190000Y-40005000D02*
X123190000Y-45085000D01*
X123190000Y-45085000D02*
X106680000Y-45085000D01*
X106680000Y-45085000D02*
X106680000Y-40005000D01*
X106680000Y-40005000D02*
X123190000Y-40005000D01*
X106680000Y-42545000D02*
X105410000Y-42545000D01*
X120650000Y-45085000D02*
X120650000Y-40005000D01*
X121920000Y-40005000D02*
X121920000Y-45085000D01*
X101854000Y-49530000D02*
G75*
G03X101854000Y-49530000I-4064000J0D01*
G01*
X148844000Y-74930000D02*
G75*
G03X148844000Y-74930000I-4064000J0D01*
G01*
D12*
X140970000Y-21590000D02*
X140970000Y-29210000D01*
X125730000Y-21590000D02*
X125730000Y-29210000D01*
X140970000Y-22860000D02*
X125730000Y-22860000D01*
X140970000Y-29210000D02*
X125730000Y-29210000D01*
X140970000Y-21590000D02*
X125730000Y-21590000D01*
X96790000Y-55760000D02*
X95020000Y-55760000D01*
X95020000Y-55760000D02*
X95020000Y-66160000D01*
X95020000Y-66160000D02*
X100560000Y-66160000D01*
X100560000Y-66160000D02*
X100560000Y-55760000D01*
X100560000Y-55760000D02*
X98790000Y-55760000D01*
X98790000Y-55760000D02*
G75*
G02X96790000Y-55760000I-1000000J0D01*
G01*
X142510000Y-55760000D02*
X140740000Y-55760000D01*
X140740000Y-55760000D02*
X140740000Y-66160000D01*
X140740000Y-66160000D02*
X146280000Y-66160000D01*
X146280000Y-66160000D02*
X146280000Y-55760000D01*
X146280000Y-55760000D02*
X144510000Y-55760000D01*
X144510000Y-55760000D02*
G75*
G02X142510000Y-55760000I-1000000J0D01*
G01*
X151190000Y-39530000D02*
X151190000Y-21430000D01*
X151150000Y-39530000D02*
X151150000Y-21430000D01*
X151110000Y-39530000D02*
X151110000Y-21430000D01*
X151070000Y-39530000D02*
X151070000Y-21430000D01*
X151030000Y-39529000D02*
X151030000Y-21431000D01*
X150990000Y-39528000D02*
X150990000Y-21432000D01*
X150950000Y-39527000D02*
X150950000Y-21433000D01*
X150910000Y-39526000D02*
X150910000Y-21434000D01*
X150870000Y-39525000D02*
X150870000Y-21435000D01*
X150830000Y-39523000D02*
X150830000Y-21437000D01*
X150790000Y-39522000D02*
X150790000Y-21438000D01*
X150750000Y-39520000D02*
X150750000Y-21440000D01*
X150710000Y-39518000D02*
X150710000Y-21442000D01*
X150670000Y-39516000D02*
X150670000Y-21444000D01*
X150630000Y-39513000D02*
X150630000Y-21447000D01*
X150590000Y-39511000D02*
X150590000Y-21449000D01*
X150550000Y-39508000D02*
X150550000Y-21452000D01*
X150510000Y-39505000D02*
X150510000Y-21455000D01*
X150469000Y-39502000D02*
X150469000Y-21458000D01*
X150429000Y-39499000D02*
X150429000Y-21461000D01*
X150389000Y-39495000D02*
X150389000Y-21465000D01*
X150349000Y-39492000D02*
X150349000Y-21468000D01*
X150309000Y-39488000D02*
X150309000Y-21472000D01*
X150269000Y-39484000D02*
X150269000Y-21476000D01*
X150229000Y-39480000D02*
X150229000Y-21480000D01*
X150189000Y-39475000D02*
X150189000Y-21485000D01*
X150149000Y-39471000D02*
X150149000Y-21489000D01*
X150109000Y-39466000D02*
X150109000Y-21494000D01*
X150069000Y-39461000D02*
X150069000Y-21499000D01*
X150029000Y-39456000D02*
X150029000Y-21504000D01*
X149989000Y-39451000D02*
X149989000Y-21509000D01*
X149949000Y-39446000D02*
X149949000Y-21514000D01*
X149909000Y-39440000D02*
X149909000Y-21520000D01*
X149869000Y-39434000D02*
X149869000Y-21526000D01*
X149829000Y-39428000D02*
X149829000Y-21532000D01*
X149789000Y-39422000D02*
X149789000Y-21538000D01*
X149749000Y-39416000D02*
X149749000Y-21544000D01*
X149709000Y-39409000D02*
X149709000Y-21551000D01*
X149669000Y-39403000D02*
X149669000Y-21557000D01*
X149629000Y-39396000D02*
X149629000Y-21564000D01*
X149589000Y-39389000D02*
X149589000Y-21571000D01*
X149549000Y-39381000D02*
X149549000Y-21579000D01*
X149509000Y-39374000D02*
X149509000Y-21586000D01*
X149469000Y-39366000D02*
X149469000Y-21594000D01*
X149429000Y-39358000D02*
X149429000Y-21602000D01*
X149389000Y-39350000D02*
X149389000Y-21610000D01*
X149349000Y-39342000D02*
X149349000Y-21618000D01*
X149309000Y-39334000D02*
X149309000Y-21626000D01*
X149269000Y-39325000D02*
X149269000Y-21635000D01*
X149229000Y-39317000D02*
X149229000Y-21643000D01*
X149189000Y-39308000D02*
X149189000Y-21652000D01*
X149149000Y-39299000D02*
X149149000Y-21661000D01*
X149109000Y-39289000D02*
X149109000Y-21671000D01*
X149069000Y-39280000D02*
X149069000Y-21680000D01*
X149029000Y-39270000D02*
X149029000Y-21690000D01*
X148989000Y-39260000D02*
X148989000Y-21700000D01*
X148949000Y-39250000D02*
X148949000Y-21710000D01*
X148909000Y-39240000D02*
X148909000Y-21720000D01*
X148869000Y-39229000D02*
X148869000Y-21731000D01*
X148829000Y-39219000D02*
X148829000Y-21741000D01*
X148789000Y-39208000D02*
X148789000Y-31860000D01*
X148789000Y-29100000D02*
X148789000Y-21752000D01*
X148749000Y-39197000D02*
X148749000Y-31860000D01*
X148749000Y-29100000D02*
X148749000Y-21763000D01*
X148709000Y-39186000D02*
X148709000Y-31860000D01*
X148709000Y-29100000D02*
X148709000Y-21774000D01*
X148669000Y-39174000D02*
X148669000Y-31860000D01*
X148669000Y-29100000D02*
X148669000Y-21786000D01*
X148629000Y-39163000D02*
X148629000Y-31860000D01*
X148629000Y-29100000D02*
X148629000Y-21797000D01*
X148589000Y-39151000D02*
X148589000Y-31860000D01*
X148589000Y-29100000D02*
X148589000Y-21809000D01*
X148549000Y-39139000D02*
X148549000Y-31860000D01*
X148549000Y-29100000D02*
X148549000Y-21821000D01*
X148509000Y-39126000D02*
X148509000Y-31860000D01*
X148509000Y-29100000D02*
X148509000Y-21834000D01*
X148469000Y-39114000D02*
X148469000Y-31860000D01*
X148469000Y-29100000D02*
X148469000Y-21846000D01*
X148429000Y-39101000D02*
X148429000Y-31860000D01*
X148429000Y-29100000D02*
X148429000Y-21859000D01*
X148389000Y-39089000D02*
X148389000Y-31860000D01*
X148389000Y-29100000D02*
X148389000Y-21871000D01*
X148349000Y-39075000D02*
X148349000Y-31860000D01*
X148349000Y-29100000D02*
X148349000Y-21885000D01*
X148309000Y-39062000D02*
X148309000Y-31860000D01*
X148309000Y-29100000D02*
X148309000Y-21898000D01*
X148269000Y-39049000D02*
X148269000Y-31860000D01*
X148269000Y-29100000D02*
X148269000Y-21911000D01*
X148229000Y-39035000D02*
X148229000Y-31860000D01*
X148229000Y-29100000D02*
X148229000Y-21925000D01*
X148189000Y-39021000D02*
X148189000Y-31860000D01*
X148189000Y-29100000D02*
X148189000Y-21939000D01*
X148149000Y-39007000D02*
X148149000Y-31860000D01*
X148149000Y-29100000D02*
X148149000Y-21953000D01*
X148109000Y-38993000D02*
X148109000Y-31860000D01*
X148109000Y-29100000D02*
X148109000Y-21967000D01*
X148069000Y-38978000D02*
X148069000Y-31860000D01*
X148069000Y-29100000D02*
X148069000Y-21982000D01*
X148029000Y-38964000D02*
X148029000Y-31860000D01*
X148029000Y-29100000D02*
X148029000Y-21996000D01*
X147989000Y-38949000D02*
X147989000Y-31860000D01*
X147989000Y-29100000D02*
X147989000Y-22011000D01*
X147949000Y-38933000D02*
X147949000Y-31860000D01*
X147949000Y-29100000D02*
X147949000Y-22027000D01*
X147909000Y-38918000D02*
X147909000Y-31860000D01*
X147909000Y-29100000D02*
X147909000Y-22042000D01*
X147869000Y-38903000D02*
X147869000Y-31860000D01*
X147869000Y-29100000D02*
X147869000Y-22057000D01*
X147829000Y-38887000D02*
X147829000Y-31860000D01*
X147829000Y-29100000D02*
X147829000Y-22073000D01*
X147789000Y-38871000D02*
X147789000Y-31860000D01*
X147789000Y-29100000D02*
X147789000Y-22089000D01*
X147749000Y-38854000D02*
X147749000Y-31860000D01*
X147749000Y-29100000D02*
X147749000Y-22106000D01*
X147709000Y-38838000D02*
X147709000Y-31860000D01*
X147709000Y-29100000D02*
X147709000Y-22122000D01*
X147669000Y-38821000D02*
X147669000Y-31860000D01*
X147669000Y-29100000D02*
X147669000Y-22139000D01*
X147629000Y-38804000D02*
X147629000Y-31860000D01*
X147629000Y-29100000D02*
X147629000Y-22156000D01*
X147589000Y-38787000D02*
X147589000Y-31860000D01*
X147589000Y-29100000D02*
X147589000Y-22173000D01*
X147549000Y-38770000D02*
X147549000Y-31860000D01*
X147549000Y-29100000D02*
X147549000Y-22190000D01*
X147509000Y-38752000D02*
X147509000Y-31860000D01*
X147509000Y-29100000D02*
X147509000Y-22208000D01*
X147469000Y-38734000D02*
X147469000Y-31860000D01*
X147469000Y-29100000D02*
X147469000Y-22226000D01*
X147429000Y-38716000D02*
X147429000Y-31860000D01*
X147429000Y-29100000D02*
X147429000Y-22244000D01*
X147389000Y-38698000D02*
X147389000Y-31860000D01*
X147389000Y-29100000D02*
X147389000Y-22262000D01*
X147349000Y-38680000D02*
X147349000Y-31860000D01*
X147349000Y-29100000D02*
X147349000Y-22280000D01*
X147309000Y-38661000D02*
X147309000Y-31860000D01*
X147309000Y-29100000D02*
X147309000Y-22299000D01*
X147269000Y-38642000D02*
X147269000Y-31860000D01*
X147269000Y-29100000D02*
X147269000Y-22318000D01*
X147229000Y-38623000D02*
X147229000Y-31860000D01*
X147229000Y-29100000D02*
X147229000Y-22337000D01*
X147189000Y-38603000D02*
X147189000Y-31860000D01*
X147189000Y-29100000D02*
X147189000Y-22357000D01*
X147149000Y-38583000D02*
X147149000Y-31860000D01*
X147149000Y-29100000D02*
X147149000Y-22377000D01*
X147109000Y-38563000D02*
X147109000Y-31860000D01*
X147109000Y-29100000D02*
X147109000Y-22397000D01*
X147069000Y-38543000D02*
X147069000Y-31860000D01*
X147069000Y-29100000D02*
X147069000Y-22417000D01*
X147029000Y-38523000D02*
X147029000Y-31860000D01*
X147029000Y-29100000D02*
X147029000Y-22437000D01*
X146989000Y-38502000D02*
X146989000Y-31860000D01*
X146989000Y-29100000D02*
X146989000Y-22458000D01*
X146949000Y-38481000D02*
X146949000Y-31860000D01*
X146949000Y-29100000D02*
X146949000Y-22479000D01*
X146909000Y-38460000D02*
X146909000Y-31860000D01*
X146909000Y-29100000D02*
X146909000Y-22500000D01*
X146869000Y-38438000D02*
X146869000Y-31860000D01*
X146869000Y-29100000D02*
X146869000Y-22522000D01*
X146829000Y-38417000D02*
X146829000Y-31860000D01*
X146829000Y-29100000D02*
X146829000Y-22543000D01*
X146789000Y-38395000D02*
X146789000Y-31860000D01*
X146789000Y-29100000D02*
X146789000Y-22565000D01*
X146749000Y-38372000D02*
X146749000Y-31860000D01*
X146749000Y-29100000D02*
X146749000Y-22588000D01*
X146709000Y-38350000D02*
X146709000Y-31860000D01*
X146709000Y-29100000D02*
X146709000Y-22610000D01*
X146669000Y-38327000D02*
X146669000Y-31860000D01*
X146669000Y-29100000D02*
X146669000Y-22633000D01*
X146629000Y-38304000D02*
X146629000Y-31860000D01*
X146629000Y-29100000D02*
X146629000Y-22656000D01*
X146589000Y-38281000D02*
X146589000Y-31860000D01*
X146589000Y-29100000D02*
X146589000Y-22679000D01*
X146549000Y-38257000D02*
X146549000Y-31860000D01*
X146549000Y-29100000D02*
X146549000Y-22703000D01*
X146509000Y-38233000D02*
X146509000Y-31860000D01*
X146509000Y-29100000D02*
X146509000Y-22727000D01*
X146469000Y-38209000D02*
X146469000Y-31860000D01*
X146469000Y-29100000D02*
X146469000Y-22751000D01*
X146429000Y-38185000D02*
X146429000Y-31860000D01*
X146429000Y-29100000D02*
X146429000Y-22775000D01*
X146389000Y-38160000D02*
X146389000Y-31860000D01*
X146389000Y-29100000D02*
X146389000Y-22800000D01*
X146349000Y-38135000D02*
X146349000Y-31860000D01*
X146349000Y-29100000D02*
X146349000Y-22825000D01*
X146309000Y-38110000D02*
X146309000Y-31860000D01*
X146309000Y-29100000D02*
X146309000Y-22850000D01*
X146269000Y-38084000D02*
X146269000Y-31860000D01*
X146269000Y-29100000D02*
X146269000Y-22876000D01*
X146229000Y-38058000D02*
X146229000Y-31860000D01*
X146229000Y-29100000D02*
X146229000Y-22902000D01*
X146189000Y-38032000D02*
X146189000Y-31860000D01*
X146189000Y-29100000D02*
X146189000Y-22928000D01*
X146149000Y-38005000D02*
X146149000Y-31860000D01*
X146149000Y-29100000D02*
X146149000Y-22955000D01*
X146109000Y-37979000D02*
X146109000Y-31860000D01*
X146109000Y-29100000D02*
X146109000Y-22981000D01*
X146069000Y-37951000D02*
X146069000Y-31860000D01*
X146069000Y-29100000D02*
X146069000Y-23009000D01*
X146029000Y-37924000D02*
X146029000Y-23036000D01*
X145989000Y-37896000D02*
X145989000Y-23064000D01*
X145949000Y-37868000D02*
X145949000Y-23092000D01*
X145909000Y-37840000D02*
X145909000Y-23120000D01*
X145869000Y-37811000D02*
X145869000Y-23149000D01*
X145829000Y-37782000D02*
X145829000Y-23178000D01*
X145789000Y-37753000D02*
X145789000Y-23207000D01*
X145749000Y-37723000D02*
X145749000Y-23237000D01*
X145709000Y-37693000D02*
X145709000Y-23267000D01*
X145669000Y-37663000D02*
X145669000Y-23297000D01*
X145629000Y-37632000D02*
X145629000Y-23328000D01*
X145589000Y-37601000D02*
X145589000Y-23359000D01*
X145549000Y-37569000D02*
X145549000Y-23391000D01*
X145509000Y-37537000D02*
X145509000Y-23423000D01*
X145469000Y-37505000D02*
X145469000Y-23455000D01*
X145429000Y-37473000D02*
X145429000Y-23487000D01*
X145389000Y-37440000D02*
X145389000Y-23520000D01*
X145349000Y-37406000D02*
X145349000Y-23554000D01*
X145309000Y-37373000D02*
X145309000Y-23587000D01*
X145269000Y-37338000D02*
X145269000Y-23622000D01*
X145229000Y-37304000D02*
X145229000Y-23656000D01*
X145189000Y-37269000D02*
X145189000Y-23691000D01*
X145149000Y-37234000D02*
X145149000Y-23726000D01*
X145109000Y-37198000D02*
X145109000Y-23762000D01*
X145069000Y-37162000D02*
X145069000Y-23798000D01*
X145029000Y-37125000D02*
X145029000Y-23835000D01*
X144989000Y-37088000D02*
X144989000Y-23872000D01*
X144949000Y-37050000D02*
X144949000Y-23910000D01*
X144909000Y-37012000D02*
X144909000Y-23948000D01*
X144869000Y-36974000D02*
X144869000Y-23986000D01*
X144829000Y-36935000D02*
X144829000Y-24025000D01*
X144789000Y-36896000D02*
X144789000Y-24064000D01*
X144749000Y-36856000D02*
X144749000Y-24104000D01*
X144709000Y-36815000D02*
X144709000Y-24145000D01*
X144669000Y-36774000D02*
X144669000Y-24186000D01*
X144629000Y-36733000D02*
X144629000Y-24227000D01*
X144589000Y-36691000D02*
X144589000Y-24269000D01*
X144549000Y-36648000D02*
X144549000Y-24312000D01*
X144509000Y-36605000D02*
X144509000Y-24355000D01*
X144469000Y-36562000D02*
X144469000Y-24398000D01*
X144429000Y-36518000D02*
X144429000Y-24442000D01*
X144389000Y-36473000D02*
X144389000Y-24487000D01*
X144349000Y-36427000D02*
X144349000Y-24533000D01*
X144309000Y-36381000D02*
X144309000Y-24579000D01*
X144269000Y-36335000D02*
X144269000Y-24625000D01*
X144229000Y-36287000D02*
X144229000Y-24673000D01*
X144189000Y-36239000D02*
X144189000Y-24721000D01*
X144149000Y-36191000D02*
X144149000Y-24769000D01*
X144109000Y-36142000D02*
X144109000Y-24818000D01*
X144069000Y-36091000D02*
X144069000Y-24869000D01*
X144029000Y-36041000D02*
X144029000Y-24919000D01*
X143989000Y-35989000D02*
X143989000Y-24971000D01*
X143949000Y-35937000D02*
X143949000Y-25023000D01*
X143909000Y-35884000D02*
X143909000Y-25076000D01*
X143869000Y-35830000D02*
X143869000Y-25130000D01*
X143829000Y-35775000D02*
X143829000Y-25185000D01*
X143789000Y-35720000D02*
X143789000Y-25240000D01*
X143749000Y-35663000D02*
X143749000Y-25297000D01*
X143709000Y-35606000D02*
X143709000Y-25354000D01*
X143669000Y-35547000D02*
X143669000Y-25413000D01*
X143629000Y-35488000D02*
X143629000Y-25472000D01*
X143589000Y-35427000D02*
X143589000Y-25533000D01*
X143549000Y-35366000D02*
X143549000Y-25594000D01*
X143509000Y-35303000D02*
X143509000Y-25657000D01*
X143469000Y-35239000D02*
X143469000Y-25721000D01*
X143429000Y-35174000D02*
X143429000Y-25786000D01*
X143389000Y-35108000D02*
X143389000Y-25852000D01*
X143349000Y-35041000D02*
X143349000Y-25919000D01*
X143309000Y-34972000D02*
X143309000Y-25988000D01*
X143269000Y-34902000D02*
X143269000Y-26058000D01*
X143229000Y-34830000D02*
X143229000Y-26130000D01*
X143189000Y-34757000D02*
X143189000Y-26203000D01*
X143149000Y-34682000D02*
X143149000Y-26278000D01*
X143109000Y-34605000D02*
X143109000Y-26355000D01*
X143069000Y-34526000D02*
X143069000Y-26434000D01*
X143029000Y-34446000D02*
X143029000Y-26514000D01*
X142990000Y-34363000D02*
X142990000Y-26597000D01*
X142950000Y-34279000D02*
X142950000Y-26681000D01*
X142910000Y-34191000D02*
X142910000Y-26769000D01*
X142870000Y-34102000D02*
X142870000Y-26858000D01*
X142830000Y-34010000D02*
X142830000Y-26950000D01*
X142790000Y-33914000D02*
X142790000Y-27046000D01*
X142750000Y-33816000D02*
X142750000Y-27144000D01*
X142710000Y-33714000D02*
X142710000Y-27246000D01*
X142670000Y-33609000D02*
X142670000Y-27351000D01*
X142630000Y-33499000D02*
X142630000Y-27461000D01*
X142590000Y-33385000D02*
X142590000Y-27575000D01*
X142550000Y-33265000D02*
X142550000Y-27695000D01*
X142510000Y-33140000D02*
X142510000Y-27820000D01*
X142470000Y-33008000D02*
X142470000Y-27952000D01*
X142430000Y-32868000D02*
X142430000Y-28092000D01*
X142390000Y-32718000D02*
X142390000Y-28242000D01*
X142350000Y-32558000D02*
X142350000Y-28402000D01*
X142310000Y-32383000D02*
X142310000Y-28577000D01*
X142270000Y-32190000D02*
X142270000Y-28770000D01*
X142230000Y-31972000D02*
X142230000Y-28988000D01*
X142190000Y-31716000D02*
X142190000Y-29244000D01*
X142150000Y-31393000D02*
X142150000Y-29567000D01*
X142110000Y-30867000D02*
X142110000Y-30093000D01*
X158140000Y-30480000D02*
X156340000Y-30480000D01*
X157240000Y-31380000D02*
X157240000Y-29580000D01*
X160280000Y-30480000D02*
G75*
G03X160280000Y-30480000I-9090000J0D01*
G01*
X114360000Y-39530000D02*
X114360000Y-21430000D01*
X114320000Y-39530000D02*
X114320000Y-21430000D01*
X114280000Y-39530000D02*
X114280000Y-21430000D01*
X114240000Y-39530000D02*
X114240000Y-21430000D01*
X114200000Y-39529000D02*
X114200000Y-21431000D01*
X114160000Y-39528000D02*
X114160000Y-21432000D01*
X114120000Y-39527000D02*
X114120000Y-21433000D01*
X114080000Y-39526000D02*
X114080000Y-21434000D01*
X114040000Y-39525000D02*
X114040000Y-21435000D01*
X114000000Y-39523000D02*
X114000000Y-21437000D01*
X113960000Y-39522000D02*
X113960000Y-21438000D01*
X113920000Y-39520000D02*
X113920000Y-21440000D01*
X113880000Y-39518000D02*
X113880000Y-21442000D01*
X113840000Y-39516000D02*
X113840000Y-21444000D01*
X113800000Y-39513000D02*
X113800000Y-21447000D01*
X113760000Y-39511000D02*
X113760000Y-21449000D01*
X113720000Y-39508000D02*
X113720000Y-21452000D01*
X113680000Y-39505000D02*
X113680000Y-21455000D01*
X113639000Y-39502000D02*
X113639000Y-21458000D01*
X113599000Y-39499000D02*
X113599000Y-21461000D01*
X113559000Y-39495000D02*
X113559000Y-21465000D01*
X113519000Y-39492000D02*
X113519000Y-21468000D01*
X113479000Y-39488000D02*
X113479000Y-21472000D01*
X113439000Y-39484000D02*
X113439000Y-21476000D01*
X113399000Y-39480000D02*
X113399000Y-21480000D01*
X113359000Y-39475000D02*
X113359000Y-21485000D01*
X113319000Y-39471000D02*
X113319000Y-21489000D01*
X113279000Y-39466000D02*
X113279000Y-21494000D01*
X113239000Y-39461000D02*
X113239000Y-21499000D01*
X113199000Y-39456000D02*
X113199000Y-21504000D01*
X113159000Y-39451000D02*
X113159000Y-21509000D01*
X113119000Y-39446000D02*
X113119000Y-21514000D01*
X113079000Y-39440000D02*
X113079000Y-21520000D01*
X113039000Y-39434000D02*
X113039000Y-21526000D01*
X112999000Y-39428000D02*
X112999000Y-21532000D01*
X112959000Y-39422000D02*
X112959000Y-21538000D01*
X112919000Y-39416000D02*
X112919000Y-21544000D01*
X112879000Y-39409000D02*
X112879000Y-21551000D01*
X112839000Y-39403000D02*
X112839000Y-21557000D01*
X112799000Y-39396000D02*
X112799000Y-21564000D01*
X112759000Y-39389000D02*
X112759000Y-21571000D01*
X112719000Y-39381000D02*
X112719000Y-21579000D01*
X112679000Y-39374000D02*
X112679000Y-21586000D01*
X112639000Y-39366000D02*
X112639000Y-21594000D01*
X112599000Y-39358000D02*
X112599000Y-21602000D01*
X112559000Y-39350000D02*
X112559000Y-21610000D01*
X112519000Y-39342000D02*
X112519000Y-21618000D01*
X112479000Y-39334000D02*
X112479000Y-21626000D01*
X112439000Y-39325000D02*
X112439000Y-21635000D01*
X112399000Y-39317000D02*
X112399000Y-21643000D01*
X112359000Y-39308000D02*
X112359000Y-21652000D01*
X112319000Y-39299000D02*
X112319000Y-21661000D01*
X112279000Y-39289000D02*
X112279000Y-21671000D01*
X112239000Y-39280000D02*
X112239000Y-21680000D01*
X112199000Y-39270000D02*
X112199000Y-21690000D01*
X112159000Y-39260000D02*
X112159000Y-21700000D01*
X112119000Y-39250000D02*
X112119000Y-21710000D01*
X112079000Y-39240000D02*
X112079000Y-21720000D01*
X112039000Y-39229000D02*
X112039000Y-21731000D01*
X111999000Y-39219000D02*
X111999000Y-21741000D01*
X111959000Y-39208000D02*
X111959000Y-31860000D01*
X111959000Y-29100000D02*
X111959000Y-21752000D01*
X111919000Y-39197000D02*
X111919000Y-31860000D01*
X111919000Y-29100000D02*
X111919000Y-21763000D01*
X111879000Y-39186000D02*
X111879000Y-31860000D01*
X111879000Y-29100000D02*
X111879000Y-21774000D01*
X111839000Y-39174000D02*
X111839000Y-31860000D01*
X111839000Y-29100000D02*
X111839000Y-21786000D01*
X111799000Y-39163000D02*
X111799000Y-31860000D01*
X111799000Y-29100000D02*
X111799000Y-21797000D01*
X111759000Y-39151000D02*
X111759000Y-31860000D01*
X111759000Y-29100000D02*
X111759000Y-21809000D01*
X111719000Y-39139000D02*
X111719000Y-31860000D01*
X111719000Y-29100000D02*
X111719000Y-21821000D01*
X111679000Y-39126000D02*
X111679000Y-31860000D01*
X111679000Y-29100000D02*
X111679000Y-21834000D01*
X111639000Y-39114000D02*
X111639000Y-31860000D01*
X111639000Y-29100000D02*
X111639000Y-21846000D01*
X111599000Y-39101000D02*
X111599000Y-31860000D01*
X111599000Y-29100000D02*
X111599000Y-21859000D01*
X111559000Y-39089000D02*
X111559000Y-31860000D01*
X111559000Y-29100000D02*
X111559000Y-21871000D01*
X111519000Y-39075000D02*
X111519000Y-31860000D01*
X111519000Y-29100000D02*
X111519000Y-21885000D01*
X111479000Y-39062000D02*
X111479000Y-31860000D01*
X111479000Y-29100000D02*
X111479000Y-21898000D01*
X111439000Y-39049000D02*
X111439000Y-31860000D01*
X111439000Y-29100000D02*
X111439000Y-21911000D01*
X111399000Y-39035000D02*
X111399000Y-31860000D01*
X111399000Y-29100000D02*
X111399000Y-21925000D01*
X111359000Y-39021000D02*
X111359000Y-31860000D01*
X111359000Y-29100000D02*
X111359000Y-21939000D01*
X111319000Y-39007000D02*
X111319000Y-31860000D01*
X111319000Y-29100000D02*
X111319000Y-21953000D01*
X111279000Y-38993000D02*
X111279000Y-31860000D01*
X111279000Y-29100000D02*
X111279000Y-21967000D01*
X111239000Y-38978000D02*
X111239000Y-31860000D01*
X111239000Y-29100000D02*
X111239000Y-21982000D01*
X111199000Y-38964000D02*
X111199000Y-31860000D01*
X111199000Y-29100000D02*
X111199000Y-21996000D01*
X111159000Y-38949000D02*
X111159000Y-31860000D01*
X111159000Y-29100000D02*
X111159000Y-22011000D01*
X111119000Y-38933000D02*
X111119000Y-31860000D01*
X111119000Y-29100000D02*
X111119000Y-22027000D01*
X111079000Y-38918000D02*
X111079000Y-31860000D01*
X111079000Y-29100000D02*
X111079000Y-22042000D01*
X111039000Y-38903000D02*
X111039000Y-31860000D01*
X111039000Y-29100000D02*
X111039000Y-22057000D01*
X110999000Y-38887000D02*
X110999000Y-31860000D01*
X110999000Y-29100000D02*
X110999000Y-22073000D01*
X110959000Y-38871000D02*
X110959000Y-31860000D01*
X110959000Y-29100000D02*
X110959000Y-22089000D01*
X110919000Y-38854000D02*
X110919000Y-31860000D01*
X110919000Y-29100000D02*
X110919000Y-22106000D01*
X110879000Y-38838000D02*
X110879000Y-31860000D01*
X110879000Y-29100000D02*
X110879000Y-22122000D01*
X110839000Y-38821000D02*
X110839000Y-31860000D01*
X110839000Y-29100000D02*
X110839000Y-22139000D01*
X110799000Y-38804000D02*
X110799000Y-31860000D01*
X110799000Y-29100000D02*
X110799000Y-22156000D01*
X110759000Y-38787000D02*
X110759000Y-31860000D01*
X110759000Y-29100000D02*
X110759000Y-22173000D01*
X110719000Y-38770000D02*
X110719000Y-31860000D01*
X110719000Y-29100000D02*
X110719000Y-22190000D01*
X110679000Y-38752000D02*
X110679000Y-31860000D01*
X110679000Y-29100000D02*
X110679000Y-22208000D01*
X110639000Y-38734000D02*
X110639000Y-31860000D01*
X110639000Y-29100000D02*
X110639000Y-22226000D01*
X110599000Y-38716000D02*
X110599000Y-31860000D01*
X110599000Y-29100000D02*
X110599000Y-22244000D01*
X110559000Y-38698000D02*
X110559000Y-31860000D01*
X110559000Y-29100000D02*
X110559000Y-22262000D01*
X110519000Y-38680000D02*
X110519000Y-31860000D01*
X110519000Y-29100000D02*
X110519000Y-22280000D01*
X110479000Y-38661000D02*
X110479000Y-31860000D01*
X110479000Y-29100000D02*
X110479000Y-22299000D01*
X110439000Y-38642000D02*
X110439000Y-31860000D01*
X110439000Y-29100000D02*
X110439000Y-22318000D01*
X110399000Y-38623000D02*
X110399000Y-31860000D01*
X110399000Y-29100000D02*
X110399000Y-22337000D01*
X110359000Y-38603000D02*
X110359000Y-31860000D01*
X110359000Y-29100000D02*
X110359000Y-22357000D01*
X110319000Y-38583000D02*
X110319000Y-31860000D01*
X110319000Y-29100000D02*
X110319000Y-22377000D01*
X110279000Y-38563000D02*
X110279000Y-31860000D01*
X110279000Y-29100000D02*
X110279000Y-22397000D01*
X110239000Y-38543000D02*
X110239000Y-31860000D01*
X110239000Y-29100000D02*
X110239000Y-22417000D01*
X110199000Y-38523000D02*
X110199000Y-31860000D01*
X110199000Y-29100000D02*
X110199000Y-22437000D01*
X110159000Y-38502000D02*
X110159000Y-31860000D01*
X110159000Y-29100000D02*
X110159000Y-22458000D01*
X110119000Y-38481000D02*
X110119000Y-31860000D01*
X110119000Y-29100000D02*
X110119000Y-22479000D01*
X110079000Y-38460000D02*
X110079000Y-31860000D01*
X110079000Y-29100000D02*
X110079000Y-22500000D01*
X110039000Y-38438000D02*
X110039000Y-31860000D01*
X110039000Y-29100000D02*
X110039000Y-22522000D01*
X109999000Y-38417000D02*
X109999000Y-31860000D01*
X109999000Y-29100000D02*
X109999000Y-22543000D01*
X109959000Y-38395000D02*
X109959000Y-31860000D01*
X109959000Y-29100000D02*
X109959000Y-22565000D01*
X109919000Y-38372000D02*
X109919000Y-31860000D01*
X109919000Y-29100000D02*
X109919000Y-22588000D01*
X109879000Y-38350000D02*
X109879000Y-31860000D01*
X109879000Y-29100000D02*
X109879000Y-22610000D01*
X109839000Y-38327000D02*
X109839000Y-31860000D01*
X109839000Y-29100000D02*
X109839000Y-22633000D01*
X109799000Y-38304000D02*
X109799000Y-31860000D01*
X109799000Y-29100000D02*
X109799000Y-22656000D01*
X109759000Y-38281000D02*
X109759000Y-31860000D01*
X109759000Y-29100000D02*
X109759000Y-22679000D01*
X109719000Y-38257000D02*
X109719000Y-31860000D01*
X109719000Y-29100000D02*
X109719000Y-22703000D01*
X109679000Y-38233000D02*
X109679000Y-31860000D01*
X109679000Y-29100000D02*
X109679000Y-22727000D01*
X109639000Y-38209000D02*
X109639000Y-31860000D01*
X109639000Y-29100000D02*
X109639000Y-22751000D01*
X109599000Y-38185000D02*
X109599000Y-31860000D01*
X109599000Y-29100000D02*
X109599000Y-22775000D01*
X109559000Y-38160000D02*
X109559000Y-31860000D01*
X109559000Y-29100000D02*
X109559000Y-22800000D01*
X109519000Y-38135000D02*
X109519000Y-31860000D01*
X109519000Y-29100000D02*
X109519000Y-22825000D01*
X109479000Y-38110000D02*
X109479000Y-31860000D01*
X109479000Y-29100000D02*
X109479000Y-22850000D01*
X109439000Y-38084000D02*
X109439000Y-31860000D01*
X109439000Y-29100000D02*
X109439000Y-22876000D01*
X109399000Y-38058000D02*
X109399000Y-31860000D01*
X109399000Y-29100000D02*
X109399000Y-22902000D01*
X109359000Y-38032000D02*
X109359000Y-31860000D01*
X109359000Y-29100000D02*
X109359000Y-22928000D01*
X109319000Y-38005000D02*
X109319000Y-31860000D01*
X109319000Y-29100000D02*
X109319000Y-22955000D01*
X109279000Y-37979000D02*
X109279000Y-31860000D01*
X109279000Y-29100000D02*
X109279000Y-22981000D01*
X109239000Y-37951000D02*
X109239000Y-31860000D01*
X109239000Y-29100000D02*
X109239000Y-23009000D01*
X109199000Y-37924000D02*
X109199000Y-23036000D01*
X109159000Y-37896000D02*
X109159000Y-23064000D01*
X109119000Y-37868000D02*
X109119000Y-23092000D01*
X109079000Y-37840000D02*
X109079000Y-23120000D01*
X109039000Y-37811000D02*
X109039000Y-23149000D01*
X108999000Y-37782000D02*
X108999000Y-23178000D01*
X108959000Y-37753000D02*
X108959000Y-23207000D01*
X108919000Y-37723000D02*
X108919000Y-23237000D01*
X108879000Y-37693000D02*
X108879000Y-23267000D01*
X108839000Y-37663000D02*
X108839000Y-23297000D01*
X108799000Y-37632000D02*
X108799000Y-23328000D01*
X108759000Y-37601000D02*
X108759000Y-23359000D01*
X108719000Y-37569000D02*
X108719000Y-23391000D01*
X108679000Y-37537000D02*
X108679000Y-23423000D01*
X108639000Y-37505000D02*
X108639000Y-23455000D01*
X108599000Y-37473000D02*
X108599000Y-23487000D01*
X108559000Y-37440000D02*
X108559000Y-23520000D01*
X108519000Y-37406000D02*
X108519000Y-23554000D01*
X108479000Y-37373000D02*
X108479000Y-23587000D01*
X108439000Y-37338000D02*
X108439000Y-23622000D01*
X108399000Y-37304000D02*
X108399000Y-23656000D01*
X108359000Y-37269000D02*
X108359000Y-23691000D01*
X108319000Y-37234000D02*
X108319000Y-23726000D01*
X108279000Y-37198000D02*
X108279000Y-23762000D01*
X108239000Y-37162000D02*
X108239000Y-23798000D01*
X108199000Y-37125000D02*
X108199000Y-23835000D01*
X108159000Y-37088000D02*
X108159000Y-23872000D01*
X108119000Y-37050000D02*
X108119000Y-23910000D01*
X108079000Y-37012000D02*
X108079000Y-23948000D01*
X108039000Y-36974000D02*
X108039000Y-23986000D01*
X107999000Y-36935000D02*
X107999000Y-24025000D01*
X107959000Y-36896000D02*
X107959000Y-24064000D01*
X107919000Y-36856000D02*
X107919000Y-24104000D01*
X107879000Y-36815000D02*
X107879000Y-24145000D01*
X107839000Y-36774000D02*
X107839000Y-24186000D01*
X107799000Y-36733000D02*
X107799000Y-24227000D01*
X107759000Y-36691000D02*
X107759000Y-24269000D01*
X107719000Y-36648000D02*
X107719000Y-24312000D01*
X107679000Y-36605000D02*
X107679000Y-24355000D01*
X107639000Y-36562000D02*
X107639000Y-24398000D01*
X107599000Y-36518000D02*
X107599000Y-24442000D01*
X107559000Y-36473000D02*
X107559000Y-24487000D01*
X107519000Y-36427000D02*
X107519000Y-24533000D01*
X107479000Y-36381000D02*
X107479000Y-24579000D01*
X107439000Y-36335000D02*
X107439000Y-24625000D01*
X107399000Y-36287000D02*
X107399000Y-24673000D01*
X107359000Y-36239000D02*
X107359000Y-24721000D01*
X107319000Y-36191000D02*
X107319000Y-24769000D01*
X107279000Y-36142000D02*
X107279000Y-24818000D01*
X107239000Y-36091000D02*
X107239000Y-24869000D01*
X107199000Y-36041000D02*
X107199000Y-24919000D01*
X107159000Y-35989000D02*
X107159000Y-24971000D01*
X107119000Y-35937000D02*
X107119000Y-25023000D01*
X107079000Y-35884000D02*
X107079000Y-25076000D01*
X107039000Y-35830000D02*
X107039000Y-25130000D01*
X106999000Y-35775000D02*
X106999000Y-25185000D01*
X106959000Y-35720000D02*
X106959000Y-25240000D01*
X106919000Y-35663000D02*
X106919000Y-25297000D01*
X106879000Y-35606000D02*
X106879000Y-25354000D01*
X106839000Y-35547000D02*
X106839000Y-25413000D01*
X106799000Y-35488000D02*
X106799000Y-25472000D01*
X106759000Y-35427000D02*
X106759000Y-25533000D01*
X106719000Y-35366000D02*
X106719000Y-25594000D01*
X106679000Y-35303000D02*
X106679000Y-25657000D01*
X106639000Y-35239000D02*
X106639000Y-25721000D01*
X106599000Y-35174000D02*
X106599000Y-25786000D01*
X106559000Y-35108000D02*
X106559000Y-25852000D01*
X106519000Y-35041000D02*
X106519000Y-25919000D01*
X106479000Y-34972000D02*
X106479000Y-25988000D01*
X106439000Y-34902000D02*
X106439000Y-26058000D01*
X106399000Y-34830000D02*
X106399000Y-26130000D01*
X106359000Y-34757000D02*
X106359000Y-26203000D01*
X106319000Y-34682000D02*
X106319000Y-26278000D01*
X106279000Y-34605000D02*
X106279000Y-26355000D01*
X106239000Y-34526000D02*
X106239000Y-26434000D01*
X106199000Y-34446000D02*
X106199000Y-26514000D01*
X106160000Y-34363000D02*
X106160000Y-26597000D01*
X106120000Y-34279000D02*
X106120000Y-26681000D01*
X106080000Y-34191000D02*
X106080000Y-26769000D01*
X106040000Y-34102000D02*
X106040000Y-26858000D01*
X106000000Y-34010000D02*
X106000000Y-26950000D01*
X105960000Y-33914000D02*
X105960000Y-27046000D01*
X105920000Y-33816000D02*
X105920000Y-27144000D01*
X105880000Y-33714000D02*
X105880000Y-27246000D01*
X105840000Y-33609000D02*
X105840000Y-27351000D01*
X105800000Y-33499000D02*
X105800000Y-27461000D01*
X105760000Y-33385000D02*
X105760000Y-27575000D01*
X105720000Y-33265000D02*
X105720000Y-27695000D01*
X105680000Y-33140000D02*
X105680000Y-27820000D01*
X105640000Y-33008000D02*
X105640000Y-27952000D01*
X105600000Y-32868000D02*
X105600000Y-28092000D01*
X105560000Y-32718000D02*
X105560000Y-28242000D01*
X105520000Y-32558000D02*
X105520000Y-28402000D01*
X105480000Y-32383000D02*
X105480000Y-28577000D01*
X105440000Y-32190000D02*
X105440000Y-28770000D01*
X105400000Y-31972000D02*
X105400000Y-28988000D01*
X105360000Y-31716000D02*
X105360000Y-29244000D01*
X105320000Y-31393000D02*
X105320000Y-29567000D01*
X105280000Y-30867000D02*
X105280000Y-30093000D01*
X121310000Y-30480000D02*
X119510000Y-30480000D01*
X120410000Y-31380000D02*
X120410000Y-29580000D01*
X123450000Y-30480000D02*
G75*
G03X123450000Y-30480000I-9090000J0D01*
G01*
D10*
X88900000Y-62230000D02*
X88900000Y-63246000D01*
X88900000Y-63246000D02*
X89916000Y-63246000D01*
X89916000Y-63246000D02*
X89916000Y-70866000D01*
X89916000Y-70866000D02*
X87884000Y-70866000D01*
X87884000Y-70866000D02*
X87884000Y-63246000D01*
X87884000Y-63246000D02*
X88900000Y-63246000D01*
X88900000Y-72390000D02*
X88900000Y-71374000D01*
X89408000Y-70866000D02*
X89408000Y-71374000D01*
X89408000Y-71374000D02*
X88392000Y-71374000D01*
X88392000Y-71374000D02*
X88392000Y-70866000D01*
X88900000Y-49530000D02*
X88900000Y-50546000D01*
X88900000Y-50546000D02*
X89916000Y-50546000D01*
X89916000Y-50546000D02*
X89916000Y-58166000D01*
X89916000Y-58166000D02*
X87884000Y-58166000D01*
X87884000Y-58166000D02*
X87884000Y-50546000D01*
X87884000Y-50546000D02*
X88900000Y-50546000D01*
X88900000Y-59690000D02*
X88900000Y-58674000D01*
X89408000Y-58166000D02*
X89408000Y-58674000D01*
X89408000Y-58674000D02*
X88392000Y-58674000D01*
X88392000Y-58674000D02*
X88392000Y-58166000D01*
X134620000Y-49530000D02*
X134620000Y-50546000D01*
X134620000Y-50546000D02*
X135636000Y-50546000D01*
X135636000Y-50546000D02*
X135636000Y-58166000D01*
X135636000Y-58166000D02*
X133604000Y-58166000D01*
X133604000Y-58166000D02*
X133604000Y-50546000D01*
X133604000Y-50546000D02*
X134620000Y-50546000D01*
X134620000Y-59690000D02*
X134620000Y-58674000D01*
X135128000Y-58166000D02*
X135128000Y-58674000D01*
X135128000Y-58674000D02*
X134112000Y-58674000D01*
X134112000Y-58674000D02*
X134112000Y-58166000D01*
X134620000Y-62230000D02*
X134620000Y-63246000D01*
X134620000Y-63246000D02*
X135636000Y-63246000D01*
X135636000Y-63246000D02*
X135636000Y-70866000D01*
X135636000Y-70866000D02*
X133604000Y-70866000D01*
X133604000Y-70866000D02*
X133604000Y-63246000D01*
X133604000Y-63246000D02*
X134620000Y-63246000D01*
X134620000Y-72390000D02*
X134620000Y-71374000D01*
X135128000Y-70866000D02*
X135128000Y-71374000D01*
X135128000Y-71374000D02*
X134112000Y-71374000D01*
X134112000Y-71374000D02*
X134112000Y-70866000D01*
X104140000Y-50800000D02*
X104648000Y-50800000D01*
X111760000Y-50800000D02*
X111252000Y-50800000D01*
X111252000Y-50800000D02*
X111252000Y-49784000D01*
X111252000Y-49784000D02*
X104648000Y-49784000D01*
X104648000Y-49784000D02*
X104648000Y-51816000D01*
X104648000Y-51816000D02*
X111252000Y-51816000D01*
X111252000Y-51816000D02*
X111252000Y-50800000D01*
X104648000Y-50292000D02*
X105156000Y-49784000D01*
X149860000Y-50800000D02*
X150368000Y-50800000D01*
X157480000Y-50800000D02*
X156972000Y-50800000D01*
X156972000Y-50800000D02*
X156972000Y-49784000D01*
X156972000Y-49784000D02*
X150368000Y-49784000D01*
X150368000Y-49784000D02*
X150368000Y-51816000D01*
X150368000Y-51816000D02*
X156972000Y-51816000D01*
X156972000Y-51816000D02*
X156972000Y-50800000D01*
X150368000Y-50292000D02*
X150876000Y-49784000D01*
X139700000Y-76200000D02*
X139700000Y-75692000D01*
X139700000Y-68580000D02*
X139700000Y-69088000D01*
X139700000Y-69088000D02*
X138684000Y-69088000D01*
X138684000Y-69088000D02*
X138684000Y-75692000D01*
X138684000Y-75692000D02*
X140716000Y-75692000D01*
X140716000Y-75692000D02*
X140716000Y-69088000D01*
X140716000Y-69088000D02*
X139700000Y-69088000D01*
X139192000Y-75692000D02*
X138684000Y-75184000D01*
X93980000Y-68580000D02*
X93980000Y-69088000D01*
X93980000Y-76200000D02*
X93980000Y-75692000D01*
X93980000Y-75692000D02*
X94996000Y-75692000D01*
X94996000Y-75692000D02*
X94996000Y-69088000D01*
X94996000Y-69088000D02*
X92964000Y-69088000D01*
X92964000Y-69088000D02*
X92964000Y-75692000D01*
X92964000Y-75692000D02*
X93980000Y-75692000D01*
X94488000Y-69088000D02*
X94996000Y-69596000D01*
X106680000Y-68580000D02*
X106172000Y-68580000D01*
X99060000Y-68580000D02*
X99568000Y-68580000D01*
X99568000Y-68580000D02*
X99568000Y-69596000D01*
X99568000Y-69596000D02*
X106172000Y-69596000D01*
X106172000Y-69596000D02*
X106172000Y-67564000D01*
X106172000Y-67564000D02*
X99568000Y-67564000D01*
X99568000Y-67564000D02*
X99568000Y-68580000D01*
X106172000Y-69088000D02*
X105664000Y-69596000D01*
X104775000Y-54610000D02*
X104775000Y-55118000D01*
X104775000Y-62230000D02*
X104775000Y-61722000D01*
X104775000Y-61722000D02*
X105791000Y-61722000D01*
X105791000Y-61722000D02*
X105791000Y-55118000D01*
X105791000Y-55118000D02*
X103759000Y-55118000D01*
X103759000Y-55118000D02*
X103759000Y-61722000D01*
X103759000Y-61722000D02*
X104775000Y-61722000D01*
X105283000Y-55118000D02*
X105791000Y-55626000D01*
X104140000Y-76200000D02*
X104140000Y-76708000D01*
X104140000Y-83820000D02*
X104140000Y-83312000D01*
X104140000Y-83312000D02*
X105156000Y-83312000D01*
X105156000Y-83312000D02*
X105156000Y-76708000D01*
X105156000Y-76708000D02*
X103124000Y-76708000D01*
X103124000Y-76708000D02*
X103124000Y-83312000D01*
X103124000Y-83312000D02*
X104140000Y-83312000D01*
X104648000Y-76708000D02*
X105156000Y-77216000D01*
X150495000Y-54610000D02*
X150495000Y-55118000D01*
X150495000Y-62230000D02*
X150495000Y-61722000D01*
X150495000Y-61722000D02*
X151511000Y-61722000D01*
X151511000Y-61722000D02*
X151511000Y-55118000D01*
X151511000Y-55118000D02*
X149479000Y-55118000D01*
X149479000Y-55118000D02*
X149479000Y-61722000D01*
X149479000Y-61722000D02*
X150495000Y-61722000D01*
X151003000Y-55118000D02*
X151511000Y-55626000D01*
X149860000Y-76200000D02*
X149860000Y-76708000D01*
X149860000Y-83820000D02*
X149860000Y-83312000D01*
X149860000Y-83312000D02*
X150876000Y-83312000D01*
X150876000Y-83312000D02*
X150876000Y-76708000D01*
X150876000Y-76708000D02*
X148844000Y-76708000D01*
X148844000Y-76708000D02*
X148844000Y-83312000D01*
X148844000Y-83312000D02*
X149860000Y-83312000D01*
X150368000Y-76708000D02*
X150876000Y-77216000D01*
X152400000Y-68580000D02*
X151892000Y-68580000D01*
X144780000Y-68580000D02*
X145288000Y-68580000D01*
X145288000Y-68580000D02*
X145288000Y-69596000D01*
X145288000Y-69596000D02*
X151892000Y-69596000D01*
X151892000Y-69596000D02*
X151892000Y-67564000D01*
X151892000Y-67564000D02*
X145288000Y-67564000D01*
X145288000Y-67564000D02*
X145288000Y-68580000D01*
X151892000Y-69088000D02*
X151384000Y-69596000D01*
X91440000Y-63500000D02*
X91440000Y-64008000D01*
X91440000Y-71120000D02*
X91440000Y-70612000D01*
X91440000Y-70612000D02*
X92456000Y-70612000D01*
X92456000Y-70612000D02*
X92456000Y-64008000D01*
X92456000Y-64008000D02*
X90424000Y-64008000D01*
X90424000Y-64008000D02*
X90424000Y-70612000D01*
X90424000Y-70612000D02*
X91440000Y-70612000D01*
X91948000Y-64008000D02*
X92456000Y-64516000D01*
X107315000Y-54610000D02*
X107315000Y-55118000D01*
X107315000Y-62230000D02*
X107315000Y-61722000D01*
X107315000Y-61722000D02*
X108331000Y-61722000D01*
X108331000Y-61722000D02*
X108331000Y-55118000D01*
X108331000Y-55118000D02*
X106299000Y-55118000D01*
X106299000Y-55118000D02*
X106299000Y-61722000D01*
X106299000Y-61722000D02*
X107315000Y-61722000D01*
X107823000Y-55118000D02*
X108331000Y-55626000D01*
X91440000Y-58420000D02*
X91440000Y-57912000D01*
X91440000Y-50800000D02*
X91440000Y-51308000D01*
X91440000Y-51308000D02*
X90424000Y-51308000D01*
X90424000Y-51308000D02*
X90424000Y-57912000D01*
X90424000Y-57912000D02*
X92456000Y-57912000D01*
X92456000Y-57912000D02*
X92456000Y-51308000D01*
X92456000Y-51308000D02*
X91440000Y-51308000D01*
X90932000Y-57912000D02*
X90424000Y-57404000D01*
X104140000Y-73660000D02*
X104140000Y-73152000D01*
X104140000Y-66040000D02*
X104140000Y-66548000D01*
X104140000Y-66548000D02*
X103124000Y-66548000D01*
X103124000Y-66548000D02*
X103124000Y-73152000D01*
X103124000Y-73152000D02*
X105156000Y-73152000D01*
X105156000Y-73152000D02*
X105156000Y-66548000D01*
X105156000Y-66548000D02*
X104140000Y-66548000D01*
X103632000Y-73152000D02*
X103124000Y-72644000D01*
X149860000Y-66040000D02*
X149860000Y-66548000D01*
X149860000Y-73660000D02*
X149860000Y-73152000D01*
X149860000Y-73152000D02*
X150876000Y-73152000D01*
X150876000Y-73152000D02*
X150876000Y-66548000D01*
X150876000Y-66548000D02*
X148844000Y-66548000D01*
X148844000Y-66548000D02*
X148844000Y-73152000D01*
X148844000Y-73152000D02*
X149860000Y-73152000D01*
X150368000Y-66548000D02*
X150876000Y-67056000D01*
X137160000Y-58420000D02*
X137160000Y-57912000D01*
X137160000Y-50800000D02*
X137160000Y-51308000D01*
X137160000Y-51308000D02*
X136144000Y-51308000D01*
X136144000Y-51308000D02*
X136144000Y-57912000D01*
X136144000Y-57912000D02*
X138176000Y-57912000D01*
X138176000Y-57912000D02*
X138176000Y-51308000D01*
X138176000Y-51308000D02*
X137160000Y-51308000D01*
X136652000Y-57912000D02*
X136144000Y-57404000D01*
X153035000Y-62230000D02*
X153035000Y-61722000D01*
X153035000Y-54610000D02*
X153035000Y-55118000D01*
X153035000Y-55118000D02*
X152019000Y-55118000D01*
X152019000Y-55118000D02*
X152019000Y-61722000D01*
X152019000Y-61722000D02*
X154051000Y-61722000D01*
X154051000Y-61722000D02*
X154051000Y-55118000D01*
X154051000Y-55118000D02*
X153035000Y-55118000D01*
X152527000Y-61722000D02*
X152019000Y-61214000D01*
X137160000Y-63500000D02*
X137160000Y-64008000D01*
X137160000Y-71120000D02*
X137160000Y-70612000D01*
X137160000Y-70612000D02*
X138176000Y-70612000D01*
X138176000Y-70612000D02*
X138176000Y-64008000D01*
X138176000Y-64008000D02*
X136144000Y-64008000D01*
X136144000Y-64008000D02*
X136144000Y-70612000D01*
X136144000Y-70612000D02*
X137160000Y-70612000D01*
X137668000Y-64008000D02*
X138176000Y-64516000D01*
X128524000Y-50800000D02*
G75*
G03X128524000Y-50800000I-4064000J0D01*
G01*
X174244000Y-71120000D02*
G75*
G03X174244000Y-71120000I-4064000J0D01*
G01*
X174244000Y-50800000D02*
G75*
G03X174244000Y-50800000I-4064000J0D01*
G01*
X128524000Y-71120000D02*
G75*
G03X128524000Y-71120000I-4064000J0D01*
G01*
X109855000Y-54610000D02*
X110871000Y-54610000D01*
X110871000Y-54610000D02*
X110871000Y-53594000D01*
X110871000Y-53594000D02*
X118491000Y-53594000D01*
X118491000Y-53594000D02*
X118491000Y-55626000D01*
X118491000Y-55626000D02*
X110871000Y-55626000D01*
X110871000Y-55626000D02*
X110871000Y-54610000D01*
X120015000Y-54610000D02*
X118999000Y-54610000D01*
X118491000Y-54102000D02*
X118999000Y-54102000D01*
X118999000Y-54102000D02*
X118999000Y-55118000D01*
X118999000Y-55118000D02*
X118491000Y-55118000D01*
X119380000Y-67310000D02*
X118364000Y-67310000D01*
X118364000Y-67310000D02*
X118364000Y-68326000D01*
X118364000Y-68326000D02*
X110744000Y-68326000D01*
X110744000Y-68326000D02*
X110744000Y-66294000D01*
X110744000Y-66294000D02*
X118364000Y-66294000D01*
X118364000Y-66294000D02*
X118364000Y-67310000D01*
X109220000Y-67310000D02*
X110236000Y-67310000D01*
X110744000Y-67818000D02*
X110236000Y-67818000D01*
X110236000Y-67818000D02*
X110236000Y-66802000D01*
X110236000Y-66802000D02*
X110744000Y-66802000D01*
X155575000Y-54610000D02*
X156591000Y-54610000D01*
X156591000Y-54610000D02*
X156591000Y-53594000D01*
X156591000Y-53594000D02*
X164211000Y-53594000D01*
X164211000Y-53594000D02*
X164211000Y-55626000D01*
X164211000Y-55626000D02*
X156591000Y-55626000D01*
X156591000Y-55626000D02*
X156591000Y-54610000D01*
X165735000Y-54610000D02*
X164719000Y-54610000D01*
X164211000Y-54102000D02*
X164719000Y-54102000D01*
X164719000Y-54102000D02*
X164719000Y-55118000D01*
X164719000Y-55118000D02*
X164211000Y-55118000D01*
X165100000Y-67310000D02*
X164084000Y-67310000D01*
X164084000Y-67310000D02*
X164084000Y-68326000D01*
X164084000Y-68326000D02*
X156464000Y-68326000D01*
X156464000Y-68326000D02*
X156464000Y-66294000D01*
X156464000Y-66294000D02*
X164084000Y-66294000D01*
X164084000Y-66294000D02*
X164084000Y-67310000D01*
X154940000Y-67310000D02*
X155956000Y-67310000D01*
X156464000Y-67818000D02*
X155956000Y-67818000D01*
X155956000Y-67818000D02*
X155956000Y-66802000D01*
X155956000Y-66802000D02*
X156464000Y-66802000D01*
D12*
X116840000Y-85090000D02*
X106680000Y-85090000D01*
X116840000Y-86360000D02*
X116840000Y-78740000D01*
X116840000Y-78740000D02*
X106680000Y-78740000D01*
X106680000Y-78740000D02*
X106680000Y-86360000D01*
X106680000Y-86360000D02*
X116840000Y-86360000D01*
X162560000Y-85090000D02*
X152400000Y-85090000D01*
X162560000Y-86360000D02*
X162560000Y-78740000D01*
X162560000Y-78740000D02*
X152400000Y-78740000D01*
X152400000Y-78740000D02*
X152400000Y-86360000D01*
X152400000Y-86360000D02*
X162560000Y-86360000D01*
X96520000Y-85090000D02*
X86360000Y-85090000D01*
X96520000Y-86360000D02*
X96520000Y-78740000D01*
X96520000Y-78740000D02*
X86360000Y-78740000D01*
X86360000Y-78740000D02*
X86360000Y-86360000D01*
X86360000Y-86360000D02*
X96520000Y-86360000D01*
X142240000Y-85090000D02*
X132080000Y-85090000D01*
X142240000Y-86360000D02*
X142240000Y-78740000D01*
X142240000Y-78740000D02*
X132080000Y-78740000D01*
X132080000Y-78740000D02*
X132080000Y-86360000D01*
X132080000Y-86360000D02*
X142240000Y-86360000D01*
D10*
X143343334Y-47855143D02*
X143295715Y-47902762D01*
X143152858Y-47950381D01*
X143057620Y-47950381D01*
X142914762Y-47902762D01*
X142819524Y-47807524D01*
X142771905Y-47712286D01*
X142724286Y-47521810D01*
X142724286Y-47378952D01*
X142771905Y-47188476D01*
X142819524Y-47093238D01*
X142914762Y-46998000D01*
X143057620Y-46950381D01*
X143152858Y-46950381D01*
X143295715Y-46998000D01*
X143343334Y-47045619D01*
X143724286Y-47045619D02*
X143771905Y-46998000D01*
X143867143Y-46950381D01*
X144105239Y-46950381D01*
X144200477Y-46998000D01*
X144248096Y-47045619D01*
X144295715Y-47140857D01*
X144295715Y-47236095D01*
X144248096Y-47378952D01*
X143676667Y-47950381D01*
X144295715Y-47950381D01*
X146174508Y-49601429D02*
X146936413Y-49601429D01*
X146555461Y-49982381D02*
X146555461Y-49220476D01*
X150963334Y-41632143D02*
X150915715Y-41679762D01*
X150772858Y-41727381D01*
X150677620Y-41727381D01*
X150534762Y-41679762D01*
X150439524Y-41584524D01*
X150391905Y-41489286D01*
X150344286Y-41298810D01*
X150344286Y-41155952D01*
X150391905Y-40965476D01*
X150439524Y-40870238D01*
X150534762Y-40775000D01*
X150677620Y-40727381D01*
X150772858Y-40727381D01*
X150915715Y-40775000D01*
X150963334Y-40822619D01*
X151296667Y-40727381D02*
X151915715Y-40727381D01*
X151582381Y-41108333D01*
X151725239Y-41108333D01*
X151820477Y-41155952D01*
X151868096Y-41203571D01*
X151915715Y-41298810D01*
X151915715Y-41536905D01*
X151868096Y-41632143D01*
X151820477Y-41679762D01*
X151725239Y-41727381D01*
X151439524Y-41727381D01*
X151344286Y-41679762D01*
X151296667Y-41632143D01*
X98893334Y-73255143D02*
X98845715Y-73302762D01*
X98702858Y-73350381D01*
X98607620Y-73350381D01*
X98464762Y-73302762D01*
X98369524Y-73207524D01*
X98321905Y-73112286D01*
X98274286Y-72921810D01*
X98274286Y-72778952D01*
X98321905Y-72588476D01*
X98369524Y-72493238D01*
X98464762Y-72398000D01*
X98607620Y-72350381D01*
X98702858Y-72350381D01*
X98845715Y-72398000D01*
X98893334Y-72445619D01*
X99798096Y-72350381D02*
X99321905Y-72350381D01*
X99274286Y-72826571D01*
X99321905Y-72778952D01*
X99417143Y-72731333D01*
X99655239Y-72731333D01*
X99750477Y-72778952D01*
X99798096Y-72826571D01*
X99845715Y-72921810D01*
X99845715Y-73159905D01*
X99798096Y-73255143D01*
X99750477Y-73302762D01*
X99655239Y-73350381D01*
X99417143Y-73350381D01*
X99321905Y-73302762D01*
X99274286Y-73255143D01*
X101724508Y-75001429D02*
X102486413Y-75001429D01*
X102105461Y-75382381D02*
X102105461Y-74620476D01*
X114133334Y-41632143D02*
X114085715Y-41679762D01*
X113942858Y-41727381D01*
X113847620Y-41727381D01*
X113704762Y-41679762D01*
X113609524Y-41584524D01*
X113561905Y-41489286D01*
X113514286Y-41298810D01*
X113514286Y-41155952D01*
X113561905Y-40965476D01*
X113609524Y-40870238D01*
X113704762Y-40775000D01*
X113847620Y-40727381D01*
X113942858Y-40727381D01*
X114085715Y-40775000D01*
X114133334Y-40822619D01*
X114990477Y-40727381D02*
X114800000Y-40727381D01*
X114704762Y-40775000D01*
X114657143Y-40822619D01*
X114561905Y-40965476D01*
X114514286Y-41155952D01*
X114514286Y-41536905D01*
X114561905Y-41632143D01*
X114609524Y-41679762D01*
X114704762Y-41727381D01*
X114895239Y-41727381D01*
X114990477Y-41679762D01*
X115038096Y-41632143D01*
X115085715Y-41536905D01*
X115085715Y-41298810D01*
X115038096Y-41203571D01*
X114990477Y-41155952D01*
X114895239Y-41108333D01*
X114704762Y-41108333D01*
X114609524Y-41155952D01*
X114561905Y-41203571D01*
X114514286Y-41298810D01*
X97147143Y-47855143D02*
X97099524Y-47902762D01*
X96956667Y-47950381D01*
X96861429Y-47950381D01*
X96718571Y-47902762D01*
X96623333Y-47807524D01*
X96575714Y-47712286D01*
X96528095Y-47521810D01*
X96528095Y-47378952D01*
X96575714Y-47188476D01*
X96623333Y-47093238D01*
X96718571Y-46998000D01*
X96861429Y-46950381D01*
X96956667Y-46950381D01*
X97099524Y-46998000D01*
X97147143Y-47045619D01*
X98099524Y-47950381D02*
X97528095Y-47950381D01*
X97813809Y-47950381D02*
X97813809Y-46950381D01*
X97718571Y-47093238D01*
X97623333Y-47188476D01*
X97528095Y-47236095D01*
X99051905Y-47950381D02*
X98480476Y-47950381D01*
X98766190Y-47950381D02*
X98766190Y-46950381D01*
X98670952Y-47093238D01*
X98575714Y-47188476D01*
X98480476Y-47236095D01*
X100454508Y-49601429D02*
X101216413Y-49601429D01*
X100835461Y-49982381D02*
X100835461Y-49220476D01*
X144137143Y-73255143D02*
X144089524Y-73302762D01*
X143946667Y-73350381D01*
X143851429Y-73350381D01*
X143708571Y-73302762D01*
X143613333Y-73207524D01*
X143565714Y-73112286D01*
X143518095Y-72921810D01*
X143518095Y-72778952D01*
X143565714Y-72588476D01*
X143613333Y-72493238D01*
X143708571Y-72398000D01*
X143851429Y-72350381D01*
X143946667Y-72350381D01*
X144089524Y-72398000D01*
X144137143Y-72445619D01*
X145089524Y-73350381D02*
X144518095Y-73350381D01*
X144803809Y-73350381D02*
X144803809Y-72350381D01*
X144708571Y-72493238D01*
X144613333Y-72588476D01*
X144518095Y-72636095D01*
X145946667Y-72683714D02*
X145946667Y-73350381D01*
X145708571Y-72302762D02*
X145470476Y-73017048D01*
X146089524Y-73017048D01*
X147444508Y-75001429D02*
X148206413Y-75001429D01*
X147825461Y-75382381D02*
X147825461Y-74620476D01*
X132611905Y-29027381D02*
X132611905Y-28027381D01*
X133183334Y-29027381D02*
X132754762Y-28455952D01*
X133183334Y-28027381D02*
X132611905Y-28598810D01*
X134135715Y-29027381D02*
X133564286Y-29027381D01*
X133850000Y-29027381D02*
X133850000Y-28027381D01*
X133754762Y-28170238D01*
X133659524Y-28265476D01*
X133564286Y-28313095D01*
X97028095Y-54212381D02*
X97028095Y-55021905D01*
X97075714Y-55117143D01*
X97123333Y-55164762D01*
X97218571Y-55212381D01*
X97409048Y-55212381D01*
X97504286Y-55164762D01*
X97551905Y-55117143D01*
X97599524Y-55021905D01*
X97599524Y-54212381D01*
X98599524Y-55212381D02*
X98028095Y-55212381D01*
X98313809Y-55212381D02*
X98313809Y-54212381D01*
X98218571Y-54355238D01*
X98123333Y-54450476D01*
X98028095Y-54498095D01*
X142748095Y-54212381D02*
X142748095Y-55021905D01*
X142795714Y-55117143D01*
X142843333Y-55164762D01*
X142938571Y-55212381D01*
X143129048Y-55212381D01*
X143224286Y-55164762D01*
X143271905Y-55117143D01*
X143319524Y-55021905D01*
X143319524Y-54212381D01*
X143700476Y-54212381D02*
X144319524Y-54212381D01*
X143986190Y-54593333D01*
X144129048Y-54593333D01*
X144224286Y-54640952D01*
X144271905Y-54688571D01*
X144319524Y-54783810D01*
X144319524Y-55021905D01*
X144271905Y-55117143D01*
X144224286Y-55164762D01*
X144129048Y-55212381D01*
X143843333Y-55212381D01*
X143748095Y-55164762D01*
X143700476Y-55117143D01*
X154773334Y-36552143D02*
X154725715Y-36599762D01*
X154582858Y-36647381D01*
X154487620Y-36647381D01*
X154344762Y-36599762D01*
X154249524Y-36504524D01*
X154201905Y-36409286D01*
X154154286Y-36218810D01*
X154154286Y-36075952D01*
X154201905Y-35885476D01*
X154249524Y-35790238D01*
X154344762Y-35695000D01*
X154487620Y-35647381D01*
X154582858Y-35647381D01*
X154725715Y-35695000D01*
X154773334Y-35742619D01*
X155725715Y-36647381D02*
X155154286Y-36647381D01*
X155440000Y-36647381D02*
X155440000Y-35647381D01*
X155344762Y-35790238D01*
X155249524Y-35885476D01*
X155154286Y-35933095D01*
X117943334Y-36552143D02*
X117895715Y-36599762D01*
X117752858Y-36647381D01*
X117657620Y-36647381D01*
X117514762Y-36599762D01*
X117419524Y-36504524D01*
X117371905Y-36409286D01*
X117324286Y-36218810D01*
X117324286Y-36075952D01*
X117371905Y-35885476D01*
X117419524Y-35790238D01*
X117514762Y-35695000D01*
X117657620Y-35647381D01*
X117752858Y-35647381D01*
X117895715Y-35695000D01*
X117943334Y-35742619D01*
X118800477Y-35980714D02*
X118800477Y-36647381D01*
X118562381Y-35599762D02*
X118324286Y-36314048D01*
X118943334Y-36314048D01*
X89257143Y-64936666D02*
X89304762Y-64984285D01*
X89352381Y-65127142D01*
X89352381Y-65222380D01*
X89304762Y-65365238D01*
X89209524Y-65460476D01*
X89114286Y-65508095D01*
X88923810Y-65555714D01*
X88780952Y-65555714D01*
X88590476Y-65508095D01*
X88495238Y-65460476D01*
X88400000Y-65365238D01*
X88352381Y-65222380D01*
X88352381Y-65127142D01*
X88400000Y-64984285D01*
X88447619Y-64936666D01*
X88352381Y-64603333D02*
X88352381Y-63936666D01*
X89352381Y-64365238D01*
X89257143Y-52236666D02*
X89304762Y-52284285D01*
X89352381Y-52427142D01*
X89352381Y-52522380D01*
X89304762Y-52665238D01*
X89209524Y-52760476D01*
X89114286Y-52808095D01*
X88923810Y-52855714D01*
X88780952Y-52855714D01*
X88590476Y-52808095D01*
X88495238Y-52760476D01*
X88400000Y-52665238D01*
X88352381Y-52522380D01*
X88352381Y-52427142D01*
X88400000Y-52284285D01*
X88447619Y-52236666D01*
X88780952Y-51665238D02*
X88733333Y-51760476D01*
X88685714Y-51808095D01*
X88590476Y-51855714D01*
X88542857Y-51855714D01*
X88447619Y-51808095D01*
X88400000Y-51760476D01*
X88352381Y-51665238D01*
X88352381Y-51474761D01*
X88400000Y-51379523D01*
X88447619Y-51331904D01*
X88542857Y-51284285D01*
X88590476Y-51284285D01*
X88685714Y-51331904D01*
X88733333Y-51379523D01*
X88780952Y-51474761D01*
X88780952Y-51665238D01*
X88828571Y-51760476D01*
X88876190Y-51808095D01*
X88971429Y-51855714D01*
X89161905Y-51855714D01*
X89257143Y-51808095D01*
X89304762Y-51760476D01*
X89352381Y-51665238D01*
X89352381Y-51474761D01*
X89304762Y-51379523D01*
X89257143Y-51331904D01*
X89161905Y-51284285D01*
X88971429Y-51284285D01*
X88876190Y-51331904D01*
X88828571Y-51379523D01*
X88780952Y-51474761D01*
X134977143Y-52236666D02*
X135024762Y-52284285D01*
X135072381Y-52427142D01*
X135072381Y-52522380D01*
X135024762Y-52665238D01*
X134929524Y-52760476D01*
X134834286Y-52808095D01*
X134643810Y-52855714D01*
X134500952Y-52855714D01*
X134310476Y-52808095D01*
X134215238Y-52760476D01*
X134120000Y-52665238D01*
X134072381Y-52522380D01*
X134072381Y-52427142D01*
X134120000Y-52284285D01*
X134167619Y-52236666D01*
X135072381Y-51760476D02*
X135072381Y-51570000D01*
X135024762Y-51474761D01*
X134977143Y-51427142D01*
X134834286Y-51331904D01*
X134643810Y-51284285D01*
X134262857Y-51284285D01*
X134167619Y-51331904D01*
X134120000Y-51379523D01*
X134072381Y-51474761D01*
X134072381Y-51665238D01*
X134120000Y-51760476D01*
X134167619Y-51808095D01*
X134262857Y-51855714D01*
X134500952Y-51855714D01*
X134596190Y-51808095D01*
X134643810Y-51760476D01*
X134691429Y-51665238D01*
X134691429Y-51474761D01*
X134643810Y-51379523D01*
X134596190Y-51331904D01*
X134500952Y-51284285D01*
X134977143Y-66047857D02*
X135024762Y-66095476D01*
X135072381Y-66238333D01*
X135072381Y-66333571D01*
X135024762Y-66476429D01*
X134929524Y-66571667D01*
X134834286Y-66619286D01*
X134643810Y-66666905D01*
X134500952Y-66666905D01*
X134310476Y-66619286D01*
X134215238Y-66571667D01*
X134120000Y-66476429D01*
X134072381Y-66333571D01*
X134072381Y-66238333D01*
X134120000Y-66095476D01*
X134167619Y-66047857D01*
X135072381Y-65095476D02*
X135072381Y-65666905D01*
X135072381Y-65381191D02*
X134072381Y-65381191D01*
X134215238Y-65476429D01*
X134310476Y-65571667D01*
X134358095Y-65666905D01*
X134072381Y-64476429D02*
X134072381Y-64381190D01*
X134120000Y-64285952D01*
X134167619Y-64238333D01*
X134262857Y-64190714D01*
X134453333Y-64143095D01*
X134691429Y-64143095D01*
X134881905Y-64190714D01*
X134977143Y-64238333D01*
X135024762Y-64285952D01*
X135072381Y-64381190D01*
X135072381Y-64476429D01*
X135024762Y-64571667D01*
X134977143Y-64619286D01*
X134881905Y-64666905D01*
X134691429Y-64714524D01*
X134453333Y-64714524D01*
X134262857Y-64666905D01*
X134167619Y-64619286D01*
X134120000Y-64571667D01*
X134072381Y-64476429D01*
X107307143Y-49252143D02*
X107259524Y-49299762D01*
X107116667Y-49347381D01*
X107021429Y-49347381D01*
X106878571Y-49299762D01*
X106783333Y-49204524D01*
X106735714Y-49109286D01*
X106688095Y-48918810D01*
X106688095Y-48775952D01*
X106735714Y-48585476D01*
X106783333Y-48490238D01*
X106878571Y-48395000D01*
X107021429Y-48347381D01*
X107116667Y-48347381D01*
X107259524Y-48395000D01*
X107307143Y-48442619D01*
X108259524Y-49347381D02*
X107688095Y-49347381D01*
X107973809Y-49347381D02*
X107973809Y-48347381D01*
X107878571Y-48490238D01*
X107783333Y-48585476D01*
X107688095Y-48633095D01*
X108640476Y-48442619D02*
X108688095Y-48395000D01*
X108783333Y-48347381D01*
X109021429Y-48347381D01*
X109116667Y-48395000D01*
X109164286Y-48442619D01*
X109211905Y-48537857D01*
X109211905Y-48633095D01*
X109164286Y-48775952D01*
X108592857Y-49347381D01*
X109211905Y-49347381D01*
X153027143Y-49252143D02*
X152979524Y-49299762D01*
X152836667Y-49347381D01*
X152741429Y-49347381D01*
X152598571Y-49299762D01*
X152503333Y-49204524D01*
X152455714Y-49109286D01*
X152408095Y-48918810D01*
X152408095Y-48775952D01*
X152455714Y-48585476D01*
X152503333Y-48490238D01*
X152598571Y-48395000D01*
X152741429Y-48347381D01*
X152836667Y-48347381D01*
X152979524Y-48395000D01*
X153027143Y-48442619D01*
X153979524Y-49347381D02*
X153408095Y-49347381D01*
X153693809Y-49347381D02*
X153693809Y-48347381D01*
X153598571Y-48490238D01*
X153503333Y-48585476D01*
X153408095Y-48633095D01*
X154312857Y-48347381D02*
X154931905Y-48347381D01*
X154598571Y-48728333D01*
X154741429Y-48728333D01*
X154836667Y-48775952D01*
X154884286Y-48823571D01*
X154931905Y-48918810D01*
X154931905Y-49156905D01*
X154884286Y-49252143D01*
X154836667Y-49299762D01*
X154741429Y-49347381D01*
X154455714Y-49347381D01*
X154360476Y-49299762D01*
X154312857Y-49252143D01*
X141962143Y-71127857D02*
X142009762Y-71175476D01*
X142057381Y-71318333D01*
X142057381Y-71413571D01*
X142009762Y-71556429D01*
X141914524Y-71651667D01*
X141819286Y-71699286D01*
X141628810Y-71746905D01*
X141485952Y-71746905D01*
X141295476Y-71699286D01*
X141200238Y-71651667D01*
X141105000Y-71556429D01*
X141057381Y-71413571D01*
X141057381Y-71318333D01*
X141105000Y-71175476D01*
X141152619Y-71127857D01*
X142057381Y-70175476D02*
X142057381Y-70746905D01*
X142057381Y-70461191D02*
X141057381Y-70461191D01*
X141200238Y-70556429D01*
X141295476Y-70651667D01*
X141343095Y-70746905D01*
X141057381Y-69270714D02*
X141057381Y-69746905D01*
X141533571Y-69794524D01*
X141485952Y-69746905D01*
X141438333Y-69651667D01*
X141438333Y-69413571D01*
X141485952Y-69318333D01*
X141533571Y-69270714D01*
X141628810Y-69223095D01*
X141866905Y-69223095D01*
X141962143Y-69270714D01*
X142009762Y-69318333D01*
X142057381Y-69413571D01*
X142057381Y-69651667D01*
X142009762Y-69746905D01*
X141962143Y-69794524D01*
X96242143Y-71127857D02*
X96289762Y-71175476D01*
X96337381Y-71318333D01*
X96337381Y-71413571D01*
X96289762Y-71556429D01*
X96194524Y-71651667D01*
X96099286Y-71699286D01*
X95908810Y-71746905D01*
X95765952Y-71746905D01*
X95575476Y-71699286D01*
X95480238Y-71651667D01*
X95385000Y-71556429D01*
X95337381Y-71413571D01*
X95337381Y-71318333D01*
X95385000Y-71175476D01*
X95432619Y-71127857D01*
X96337381Y-70175476D02*
X96337381Y-70746905D01*
X96337381Y-70461191D02*
X95337381Y-70461191D01*
X95480238Y-70556429D01*
X95575476Y-70651667D01*
X95623095Y-70746905D01*
X95337381Y-69318333D02*
X95337381Y-69508810D01*
X95385000Y-69604048D01*
X95432619Y-69651667D01*
X95575476Y-69746905D01*
X95765952Y-69794524D01*
X96146905Y-69794524D01*
X96242143Y-69746905D01*
X96289762Y-69699286D01*
X96337381Y-69604048D01*
X96337381Y-69413571D01*
X96289762Y-69318333D01*
X96242143Y-69270714D01*
X96146905Y-69223095D01*
X95908810Y-69223095D01*
X95813571Y-69270714D01*
X95765952Y-69318333D01*
X95718333Y-69413571D01*
X95718333Y-69604048D01*
X95765952Y-69699286D01*
X95813571Y-69746905D01*
X95908810Y-69794524D01*
X103973334Y-69032381D02*
X103640000Y-68556190D01*
X103401905Y-69032381D02*
X103401905Y-68032381D01*
X103782858Y-68032381D01*
X103878096Y-68080000D01*
X103925715Y-68127619D01*
X103973334Y-68222857D01*
X103973334Y-68365714D01*
X103925715Y-68460952D01*
X103878096Y-68508571D01*
X103782858Y-68556190D01*
X103401905Y-68556190D01*
X104925715Y-69032381D02*
X104354286Y-69032381D01*
X104640000Y-69032381D02*
X104640000Y-68032381D01*
X104544762Y-68175238D01*
X104449524Y-68270476D01*
X104354286Y-68318095D01*
X105227381Y-57316666D02*
X104751190Y-57650000D01*
X105227381Y-57888095D02*
X104227381Y-57888095D01*
X104227381Y-57507142D01*
X104275000Y-57411904D01*
X104322619Y-57364285D01*
X104417857Y-57316666D01*
X104560714Y-57316666D01*
X104655952Y-57364285D01*
X104703571Y-57411904D01*
X104751190Y-57507142D01*
X104751190Y-57888095D01*
X104322619Y-56935714D02*
X104275000Y-56888095D01*
X104227381Y-56792857D01*
X104227381Y-56554761D01*
X104275000Y-56459523D01*
X104322619Y-56411904D01*
X104417857Y-56364285D01*
X104513095Y-56364285D01*
X104655952Y-56411904D01*
X105227381Y-56983333D01*
X105227381Y-56364285D01*
X106497381Y-80811666D02*
X106021190Y-81145000D01*
X106497381Y-81383095D02*
X105497381Y-81383095D01*
X105497381Y-81002142D01*
X105545000Y-80906904D01*
X105592619Y-80859285D01*
X105687857Y-80811666D01*
X105830714Y-80811666D01*
X105925952Y-80859285D01*
X105973571Y-80906904D01*
X106021190Y-81002142D01*
X106021190Y-81383095D01*
X105497381Y-80478333D02*
X105497381Y-79859285D01*
X105878333Y-80192619D01*
X105878333Y-80049761D01*
X105925952Y-79954523D01*
X105973571Y-79906904D01*
X106068810Y-79859285D01*
X106306905Y-79859285D01*
X106402143Y-79906904D01*
X106449762Y-79954523D01*
X106497381Y-80049761D01*
X106497381Y-80335476D01*
X106449762Y-80430714D01*
X106402143Y-80478333D01*
X150947381Y-56681666D02*
X150471190Y-57015000D01*
X150947381Y-57253095D02*
X149947381Y-57253095D01*
X149947381Y-56872142D01*
X149995000Y-56776904D01*
X150042619Y-56729285D01*
X150137857Y-56681666D01*
X150280714Y-56681666D01*
X150375952Y-56729285D01*
X150423571Y-56776904D01*
X150471190Y-56872142D01*
X150471190Y-57253095D01*
X150280714Y-55824523D02*
X150947381Y-55824523D01*
X149899762Y-56062619D02*
X150614048Y-56300714D01*
X150614048Y-55681666D01*
X152217381Y-80176666D02*
X151741190Y-80510000D01*
X152217381Y-80748095D02*
X151217381Y-80748095D01*
X151217381Y-80367142D01*
X151265000Y-80271904D01*
X151312619Y-80224285D01*
X151407857Y-80176666D01*
X151550714Y-80176666D01*
X151645952Y-80224285D01*
X151693571Y-80271904D01*
X151741190Y-80367142D01*
X151741190Y-80748095D01*
X151217381Y-79271904D02*
X151217381Y-79748095D01*
X151693571Y-79795714D01*
X151645952Y-79748095D01*
X151598333Y-79652857D01*
X151598333Y-79414761D01*
X151645952Y-79319523D01*
X151693571Y-79271904D01*
X151788810Y-79224285D01*
X152026905Y-79224285D01*
X152122143Y-79271904D01*
X152169762Y-79319523D01*
X152217381Y-79414761D01*
X152217381Y-79652857D01*
X152169762Y-79748095D01*
X152122143Y-79795714D01*
X149693334Y-69032381D02*
X149360000Y-68556190D01*
X149121905Y-69032381D02*
X149121905Y-68032381D01*
X149502858Y-68032381D01*
X149598096Y-68080000D01*
X149645715Y-68127619D01*
X149693334Y-68222857D01*
X149693334Y-68365714D01*
X149645715Y-68460952D01*
X149598096Y-68508571D01*
X149502858Y-68556190D01*
X149121905Y-68556190D01*
X150550477Y-68032381D02*
X150360000Y-68032381D01*
X150264762Y-68080000D01*
X150217143Y-68127619D01*
X150121905Y-68270476D01*
X150074286Y-68460952D01*
X150074286Y-68841905D01*
X150121905Y-68937143D01*
X150169524Y-68984762D01*
X150264762Y-69032381D01*
X150455239Y-69032381D01*
X150550477Y-68984762D01*
X150598096Y-68937143D01*
X150645715Y-68841905D01*
X150645715Y-68603810D01*
X150598096Y-68508571D01*
X150550477Y-68460952D01*
X150455239Y-68413333D01*
X150264762Y-68413333D01*
X150169524Y-68460952D01*
X150121905Y-68508571D01*
X150074286Y-68603810D01*
X91892381Y-66206666D02*
X91416190Y-66540000D01*
X91892381Y-66778095D02*
X90892381Y-66778095D01*
X90892381Y-66397142D01*
X90940000Y-66301904D01*
X90987619Y-66254285D01*
X91082857Y-66206666D01*
X91225714Y-66206666D01*
X91320952Y-66254285D01*
X91368571Y-66301904D01*
X91416190Y-66397142D01*
X91416190Y-66778095D01*
X90892381Y-65873333D02*
X90892381Y-65206666D01*
X91892381Y-65635238D01*
X107767381Y-57316666D02*
X107291190Y-57650000D01*
X107767381Y-57888095D02*
X106767381Y-57888095D01*
X106767381Y-57507142D01*
X106815000Y-57411904D01*
X106862619Y-57364285D01*
X106957857Y-57316666D01*
X107100714Y-57316666D01*
X107195952Y-57364285D01*
X107243571Y-57411904D01*
X107291190Y-57507142D01*
X107291190Y-57888095D01*
X107195952Y-56745238D02*
X107148333Y-56840476D01*
X107100714Y-56888095D01*
X107005476Y-56935714D01*
X106957857Y-56935714D01*
X106862619Y-56888095D01*
X106815000Y-56840476D01*
X106767381Y-56745238D01*
X106767381Y-56554761D01*
X106815000Y-56459523D01*
X106862619Y-56411904D01*
X106957857Y-56364285D01*
X107005476Y-56364285D01*
X107100714Y-56411904D01*
X107148333Y-56459523D01*
X107195952Y-56554761D01*
X107195952Y-56745238D01*
X107243571Y-56840476D01*
X107291190Y-56888095D01*
X107386429Y-56935714D01*
X107576905Y-56935714D01*
X107672143Y-56888095D01*
X107719762Y-56840476D01*
X107767381Y-56745238D01*
X107767381Y-56554761D01*
X107719762Y-56459523D01*
X107672143Y-56411904D01*
X107576905Y-56364285D01*
X107386429Y-56364285D01*
X107291190Y-56411904D01*
X107243571Y-56459523D01*
X107195952Y-56554761D01*
X91892381Y-53506666D02*
X91416190Y-53840000D01*
X91892381Y-54078095D02*
X90892381Y-54078095D01*
X90892381Y-53697142D01*
X90940000Y-53601904D01*
X90987619Y-53554285D01*
X91082857Y-53506666D01*
X91225714Y-53506666D01*
X91320952Y-53554285D01*
X91368571Y-53601904D01*
X91416190Y-53697142D01*
X91416190Y-54078095D01*
X91892381Y-53030476D02*
X91892381Y-52840000D01*
X91844762Y-52744761D01*
X91797143Y-52697142D01*
X91654286Y-52601904D01*
X91463810Y-52554285D01*
X91082857Y-52554285D01*
X90987619Y-52601904D01*
X90940000Y-52649523D01*
X90892381Y-52744761D01*
X90892381Y-52935238D01*
X90940000Y-53030476D01*
X90987619Y-53078095D01*
X91082857Y-53125714D01*
X91320952Y-53125714D01*
X91416190Y-53078095D01*
X91463810Y-53030476D01*
X91511429Y-52935238D01*
X91511429Y-52744761D01*
X91463810Y-52649523D01*
X91416190Y-52601904D01*
X91320952Y-52554285D01*
X106497381Y-71762857D02*
X106021190Y-72096191D01*
X106497381Y-72334286D02*
X105497381Y-72334286D01*
X105497381Y-71953333D01*
X105545000Y-71858095D01*
X105592619Y-71810476D01*
X105687857Y-71762857D01*
X105830714Y-71762857D01*
X105925952Y-71810476D01*
X105973571Y-71858095D01*
X106021190Y-71953333D01*
X106021190Y-72334286D01*
X106497381Y-70810476D02*
X106497381Y-71381905D01*
X106497381Y-71096191D02*
X105497381Y-71096191D01*
X105640238Y-71191429D01*
X105735476Y-71286667D01*
X105783095Y-71381905D01*
X105497381Y-70191429D02*
X105497381Y-70096190D01*
X105545000Y-70000952D01*
X105592619Y-69953333D01*
X105687857Y-69905714D01*
X105878333Y-69858095D01*
X106116429Y-69858095D01*
X106306905Y-69905714D01*
X106402143Y-69953333D01*
X106449762Y-70000952D01*
X106497381Y-70096190D01*
X106497381Y-70191429D01*
X106449762Y-70286667D01*
X106402143Y-70334286D01*
X106306905Y-70381905D01*
X106116429Y-70429524D01*
X105878333Y-70429524D01*
X105687857Y-70381905D01*
X105592619Y-70334286D01*
X105545000Y-70286667D01*
X105497381Y-70191429D01*
X152217381Y-71762857D02*
X151741190Y-72096191D01*
X152217381Y-72334286D02*
X151217381Y-72334286D01*
X151217381Y-71953333D01*
X151265000Y-71858095D01*
X151312619Y-71810476D01*
X151407857Y-71762857D01*
X151550714Y-71762857D01*
X151645952Y-71810476D01*
X151693571Y-71858095D01*
X151741190Y-71953333D01*
X151741190Y-72334286D01*
X152217381Y-70810476D02*
X152217381Y-71381905D01*
X152217381Y-71096191D02*
X151217381Y-71096191D01*
X151360238Y-71191429D01*
X151455476Y-71286667D01*
X151503095Y-71381905D01*
X152217381Y-69858095D02*
X152217381Y-70429524D01*
X152217381Y-70143810D02*
X151217381Y-70143810D01*
X151360238Y-70239048D01*
X151455476Y-70334286D01*
X151503095Y-70429524D01*
X137612381Y-53982857D02*
X137136190Y-54316191D01*
X137612381Y-54554286D02*
X136612381Y-54554286D01*
X136612381Y-54173333D01*
X136660000Y-54078095D01*
X136707619Y-54030476D01*
X136802857Y-53982857D01*
X136945714Y-53982857D01*
X137040952Y-54030476D01*
X137088571Y-54078095D01*
X137136190Y-54173333D01*
X137136190Y-54554286D01*
X137612381Y-53030476D02*
X137612381Y-53601905D01*
X137612381Y-53316191D02*
X136612381Y-53316191D01*
X136755238Y-53411429D01*
X136850476Y-53506667D01*
X136898095Y-53601905D01*
X136707619Y-52649524D02*
X136660000Y-52601905D01*
X136612381Y-52506667D01*
X136612381Y-52268571D01*
X136660000Y-52173333D01*
X136707619Y-52125714D01*
X136802857Y-52078095D01*
X136898095Y-52078095D01*
X137040952Y-52125714D01*
X137612381Y-52697143D01*
X137612381Y-52078095D01*
X153487381Y-57792857D02*
X153011190Y-58126191D01*
X153487381Y-58364286D02*
X152487381Y-58364286D01*
X152487381Y-57983333D01*
X152535000Y-57888095D01*
X152582619Y-57840476D01*
X152677857Y-57792857D01*
X152820714Y-57792857D01*
X152915952Y-57840476D01*
X152963571Y-57888095D01*
X153011190Y-57983333D01*
X153011190Y-58364286D01*
X153487381Y-56840476D02*
X153487381Y-57411905D01*
X153487381Y-57126191D02*
X152487381Y-57126191D01*
X152630238Y-57221429D01*
X152725476Y-57316667D01*
X152773095Y-57411905D01*
X152487381Y-56507143D02*
X152487381Y-55888095D01*
X152868333Y-56221429D01*
X152868333Y-56078571D01*
X152915952Y-55983333D01*
X152963571Y-55935714D01*
X153058810Y-55888095D01*
X153296905Y-55888095D01*
X153392143Y-55935714D01*
X153439762Y-55983333D01*
X153487381Y-56078571D01*
X153487381Y-56364286D01*
X153439762Y-56459524D01*
X153392143Y-56507143D01*
X137612381Y-66682857D02*
X137136190Y-67016191D01*
X137612381Y-67254286D02*
X136612381Y-67254286D01*
X136612381Y-66873333D01*
X136660000Y-66778095D01*
X136707619Y-66730476D01*
X136802857Y-66682857D01*
X136945714Y-66682857D01*
X137040952Y-66730476D01*
X137088571Y-66778095D01*
X137136190Y-66873333D01*
X137136190Y-67254286D01*
X137612381Y-65730476D02*
X137612381Y-66301905D01*
X137612381Y-66016191D02*
X136612381Y-66016191D01*
X136755238Y-66111429D01*
X136850476Y-66206667D01*
X136898095Y-66301905D01*
X136945714Y-64873333D02*
X137612381Y-64873333D01*
X136564762Y-65111429D02*
X137279048Y-65349524D01*
X137279048Y-64730476D01*
X126849143Y-51442857D02*
X126896762Y-51490476D01*
X126944381Y-51633333D01*
X126944381Y-51728571D01*
X126896762Y-51871429D01*
X126801524Y-51966667D01*
X126706286Y-52014286D01*
X126515810Y-52061905D01*
X126372952Y-52061905D01*
X126182476Y-52014286D01*
X126087238Y-51966667D01*
X125992000Y-51871429D01*
X125944381Y-51728571D01*
X125944381Y-51633333D01*
X125992000Y-51490476D01*
X126039619Y-51442857D01*
X126944381Y-50490476D02*
X126944381Y-51061905D01*
X126944381Y-50776191D02*
X125944381Y-50776191D01*
X126087238Y-50871429D01*
X126182476Y-50966667D01*
X126230095Y-51061905D01*
X125944381Y-50157143D02*
X125944381Y-49490476D01*
X126944381Y-49919048D01*
X124531429Y-54226412D02*
X124531429Y-53464507D01*
X124912381Y-53845459D02*
X124150476Y-53845459D01*
X172569143Y-71762857D02*
X172616762Y-71810476D01*
X172664381Y-71953333D01*
X172664381Y-72048571D01*
X172616762Y-72191429D01*
X172521524Y-72286667D01*
X172426286Y-72334286D01*
X172235810Y-72381905D01*
X172092952Y-72381905D01*
X171902476Y-72334286D01*
X171807238Y-72286667D01*
X171712000Y-72191429D01*
X171664381Y-72048571D01*
X171664381Y-71953333D01*
X171712000Y-71810476D01*
X171759619Y-71762857D01*
X172664381Y-70810476D02*
X172664381Y-71381905D01*
X172664381Y-71096191D02*
X171664381Y-71096191D01*
X171807238Y-71191429D01*
X171902476Y-71286667D01*
X171950095Y-71381905D01*
X172092952Y-70239048D02*
X172045333Y-70334286D01*
X171997714Y-70381905D01*
X171902476Y-70429524D01*
X171854857Y-70429524D01*
X171759619Y-70381905D01*
X171712000Y-70334286D01*
X171664381Y-70239048D01*
X171664381Y-70048571D01*
X171712000Y-69953333D01*
X171759619Y-69905714D01*
X171854857Y-69858095D01*
X171902476Y-69858095D01*
X171997714Y-69905714D01*
X172045333Y-69953333D01*
X172092952Y-70048571D01*
X172092952Y-70239048D01*
X172140571Y-70334286D01*
X172188190Y-70381905D01*
X172283429Y-70429524D01*
X172473905Y-70429524D01*
X172569143Y-70381905D01*
X172616762Y-70334286D01*
X172664381Y-70239048D01*
X172664381Y-70048571D01*
X172616762Y-69953333D01*
X172569143Y-69905714D01*
X172473905Y-69858095D01*
X172283429Y-69858095D01*
X172188190Y-69905714D01*
X172140571Y-69953333D01*
X172092952Y-70048571D01*
X170251429Y-74546412D02*
X170251429Y-73784507D01*
X170632381Y-74165459D02*
X169870476Y-74165459D01*
X172569143Y-51442857D02*
X172616762Y-51490476D01*
X172664381Y-51633333D01*
X172664381Y-51728571D01*
X172616762Y-51871429D01*
X172521524Y-51966667D01*
X172426286Y-52014286D01*
X172235810Y-52061905D01*
X172092952Y-52061905D01*
X171902476Y-52014286D01*
X171807238Y-51966667D01*
X171712000Y-51871429D01*
X171664381Y-51728571D01*
X171664381Y-51633333D01*
X171712000Y-51490476D01*
X171759619Y-51442857D01*
X172664381Y-50490476D02*
X172664381Y-51061905D01*
X172664381Y-50776191D02*
X171664381Y-50776191D01*
X171807238Y-50871429D01*
X171902476Y-50966667D01*
X171950095Y-51061905D01*
X172664381Y-50014286D02*
X172664381Y-49823810D01*
X172616762Y-49728571D01*
X172569143Y-49680952D01*
X172426286Y-49585714D01*
X172235810Y-49538095D01*
X171854857Y-49538095D01*
X171759619Y-49585714D01*
X171712000Y-49633333D01*
X171664381Y-49728571D01*
X171664381Y-49919048D01*
X171712000Y-50014286D01*
X171759619Y-50061905D01*
X171854857Y-50109524D01*
X172092952Y-50109524D01*
X172188190Y-50061905D01*
X172235810Y-50014286D01*
X172283429Y-49919048D01*
X172283429Y-49728571D01*
X172235810Y-49633333D01*
X172188190Y-49585714D01*
X172092952Y-49538095D01*
X170251429Y-54226412D02*
X170251429Y-53464507D01*
X170632381Y-53845459D02*
X169870476Y-53845459D01*
X126849143Y-71762857D02*
X126896762Y-71810476D01*
X126944381Y-71953333D01*
X126944381Y-72048571D01*
X126896762Y-72191429D01*
X126801524Y-72286667D01*
X126706286Y-72334286D01*
X126515810Y-72381905D01*
X126372952Y-72381905D01*
X126182476Y-72334286D01*
X126087238Y-72286667D01*
X125992000Y-72191429D01*
X125944381Y-72048571D01*
X125944381Y-71953333D01*
X125992000Y-71810476D01*
X126039619Y-71762857D01*
X126039619Y-71381905D02*
X125992000Y-71334286D01*
X125944381Y-71239048D01*
X125944381Y-71000952D01*
X125992000Y-70905714D01*
X126039619Y-70858095D01*
X126134857Y-70810476D01*
X126230095Y-70810476D01*
X126372952Y-70858095D01*
X126944381Y-71429524D01*
X126944381Y-70810476D01*
X125944381Y-70191429D02*
X125944381Y-70096190D01*
X125992000Y-70000952D01*
X126039619Y-69953333D01*
X126134857Y-69905714D01*
X126325333Y-69858095D01*
X126563429Y-69858095D01*
X126753905Y-69905714D01*
X126849143Y-69953333D01*
X126896762Y-70000952D01*
X126944381Y-70096190D01*
X126944381Y-70191429D01*
X126896762Y-70286667D01*
X126849143Y-70334286D01*
X126753905Y-70381905D01*
X126563429Y-70429524D01*
X126325333Y-70429524D01*
X126134857Y-70381905D01*
X126039619Y-70334286D01*
X125992000Y-70286667D01*
X125944381Y-70191429D01*
X124531429Y-74546412D02*
X124531429Y-73784507D01*
X124912381Y-74165459D02*
X124150476Y-74165459D01*
X114292143Y-53062143D02*
X114244524Y-53109762D01*
X114101667Y-53157381D01*
X114006429Y-53157381D01*
X113863571Y-53109762D01*
X113768333Y-53014524D01*
X113720714Y-52919286D01*
X113673095Y-52728810D01*
X113673095Y-52585952D01*
X113720714Y-52395476D01*
X113768333Y-52300238D01*
X113863571Y-52205000D01*
X114006429Y-52157381D01*
X114101667Y-52157381D01*
X114244524Y-52205000D01*
X114292143Y-52252619D01*
X114673095Y-52252619D02*
X114720714Y-52205000D01*
X114815952Y-52157381D01*
X115054048Y-52157381D01*
X115149286Y-52205000D01*
X115196905Y-52252619D01*
X115244524Y-52347857D01*
X115244524Y-52443095D01*
X115196905Y-52585952D01*
X114625476Y-53157381D01*
X115244524Y-53157381D01*
X116196905Y-53157381D02*
X115625476Y-53157381D01*
X115911190Y-53157381D02*
X115911190Y-52157381D01*
X115815952Y-52300238D01*
X115720714Y-52395476D01*
X115625476Y-52443095D01*
X116197143Y-67667143D02*
X116149524Y-67714762D01*
X116006667Y-67762381D01*
X115911429Y-67762381D01*
X115768571Y-67714762D01*
X115673333Y-67619524D01*
X115625714Y-67524286D01*
X115578095Y-67333810D01*
X115578095Y-67190952D01*
X115625714Y-67000476D01*
X115673333Y-66905238D01*
X115768571Y-66810000D01*
X115911429Y-66762381D01*
X116006667Y-66762381D01*
X116149524Y-66810000D01*
X116197143Y-66857619D01*
X116578095Y-66857619D02*
X116625714Y-66810000D01*
X116720952Y-66762381D01*
X116959048Y-66762381D01*
X117054286Y-66810000D01*
X117101905Y-66857619D01*
X117149524Y-66952857D01*
X117149524Y-67048095D01*
X117101905Y-67190952D01*
X116530476Y-67762381D01*
X117149524Y-67762381D01*
X117530476Y-66857619D02*
X117578095Y-66810000D01*
X117673333Y-66762381D01*
X117911429Y-66762381D01*
X118006667Y-66810000D01*
X118054286Y-66857619D01*
X118101905Y-66952857D01*
X118101905Y-67048095D01*
X118054286Y-67190952D01*
X117482857Y-67762381D01*
X118101905Y-67762381D01*
X160012143Y-53062143D02*
X159964524Y-53109762D01*
X159821667Y-53157381D01*
X159726429Y-53157381D01*
X159583571Y-53109762D01*
X159488333Y-53014524D01*
X159440714Y-52919286D01*
X159393095Y-52728810D01*
X159393095Y-52585952D01*
X159440714Y-52395476D01*
X159488333Y-52300238D01*
X159583571Y-52205000D01*
X159726429Y-52157381D01*
X159821667Y-52157381D01*
X159964524Y-52205000D01*
X160012143Y-52252619D01*
X160393095Y-52252619D02*
X160440714Y-52205000D01*
X160535952Y-52157381D01*
X160774048Y-52157381D01*
X160869286Y-52205000D01*
X160916905Y-52252619D01*
X160964524Y-52347857D01*
X160964524Y-52443095D01*
X160916905Y-52585952D01*
X160345476Y-53157381D01*
X160964524Y-53157381D01*
X161297857Y-52157381D02*
X161916905Y-52157381D01*
X161583571Y-52538333D01*
X161726429Y-52538333D01*
X161821667Y-52585952D01*
X161869286Y-52633571D01*
X161916905Y-52728810D01*
X161916905Y-52966905D01*
X161869286Y-53062143D01*
X161821667Y-53109762D01*
X161726429Y-53157381D01*
X161440714Y-53157381D01*
X161345476Y-53109762D01*
X161297857Y-53062143D01*
X161917143Y-67667143D02*
X161869524Y-67714762D01*
X161726667Y-67762381D01*
X161631429Y-67762381D01*
X161488571Y-67714762D01*
X161393333Y-67619524D01*
X161345714Y-67524286D01*
X161298095Y-67333810D01*
X161298095Y-67190952D01*
X161345714Y-67000476D01*
X161393333Y-66905238D01*
X161488571Y-66810000D01*
X161631429Y-66762381D01*
X161726667Y-66762381D01*
X161869524Y-66810000D01*
X161917143Y-66857619D01*
X162298095Y-66857619D02*
X162345714Y-66810000D01*
X162440952Y-66762381D01*
X162679048Y-66762381D01*
X162774286Y-66810000D01*
X162821905Y-66857619D01*
X162869524Y-66952857D01*
X162869524Y-67048095D01*
X162821905Y-67190952D01*
X162250476Y-67762381D01*
X162869524Y-67762381D01*
X163726667Y-67095714D02*
X163726667Y-67762381D01*
X163488571Y-66714762D02*
X163250476Y-67429048D01*
X163869524Y-67429048D01*
X111021905Y-80462381D02*
X111021905Y-79462381D01*
X111402858Y-79462381D01*
X111498096Y-79510000D01*
X111545715Y-79557619D01*
X111593334Y-79652857D01*
X111593334Y-79795714D01*
X111545715Y-79890952D01*
X111498096Y-79938571D01*
X111402858Y-79986190D01*
X111021905Y-79986190D01*
X112545715Y-80462381D02*
X111974286Y-80462381D01*
X112260000Y-80462381D02*
X112260000Y-79462381D01*
X112164762Y-79605238D01*
X112069524Y-79700476D01*
X111974286Y-79748095D01*
X156741905Y-80462381D02*
X156741905Y-79462381D01*
X157122858Y-79462381D01*
X157218096Y-79510000D01*
X157265715Y-79557619D01*
X157313334Y-79652857D01*
X157313334Y-79795714D01*
X157265715Y-79890952D01*
X157218096Y-79938571D01*
X157122858Y-79986190D01*
X156741905Y-79986190D01*
X157694286Y-79557619D02*
X157741905Y-79510000D01*
X157837143Y-79462381D01*
X158075239Y-79462381D01*
X158170477Y-79510000D01*
X158218096Y-79557619D01*
X158265715Y-79652857D01*
X158265715Y-79748095D01*
X158218096Y-79890952D01*
X157646667Y-80462381D01*
X158265715Y-80462381D01*
X90701905Y-80462381D02*
X90701905Y-79462381D01*
X91082858Y-79462381D01*
X91178096Y-79510000D01*
X91225715Y-79557619D01*
X91273334Y-79652857D01*
X91273334Y-79795714D01*
X91225715Y-79890952D01*
X91178096Y-79938571D01*
X91082858Y-79986190D01*
X90701905Y-79986190D01*
X91606667Y-79462381D02*
X92225715Y-79462381D01*
X91892381Y-79843333D01*
X92035239Y-79843333D01*
X92130477Y-79890952D01*
X92178096Y-79938571D01*
X92225715Y-80033810D01*
X92225715Y-80271905D01*
X92178096Y-80367143D01*
X92130477Y-80414762D01*
X92035239Y-80462381D01*
X91749524Y-80462381D01*
X91654286Y-80414762D01*
X91606667Y-80367143D01*
X136421905Y-80462381D02*
X136421905Y-79462381D01*
X136802858Y-79462381D01*
X136898096Y-79510000D01*
X136945715Y-79557619D01*
X136993334Y-79652857D01*
X136993334Y-79795714D01*
X136945715Y-79890952D01*
X136898096Y-79938571D01*
X136802858Y-79986190D01*
X136421905Y-79986190D01*
X137850477Y-79795714D02*
X137850477Y-80462381D01*
X137612381Y-79414762D02*
X137374286Y-80129048D01*
X137993334Y-80129048D01*
M02*
