G04 #@! TF.FileFunction,Copper,L1,Top,Signal*
%FSLAX46Y46*%
G04 Gerber Fmt 4.6, Leading zero omitted, Abs format (unit mm)*
G04 Created by KiCad (PCBNEW 4.0.6-e0-6349~52~ubuntu17.04.1) date Sun Oct 15 13:20:49 2017*
%MOMM*%
%LPD*%
G01*
G04 APERTURE LIST*
%ADD10C,0.150000*%
%ADD11C,0.100000*%
%ADD12R,1.651000X1.651000*%
%ADD13C,1.651000*%
%ADD14R,1.778000X1.778000*%
%ADD15C,1.778000*%
%ADD16R,3.000000X3.000000*%
%ADD17C,3.000000*%
%ADD18R,1.600000X1.600000*%
%ADD19O,1.600000X1.600000*%
%ADD20R,2.400000X2.400000*%
%ADD21C,2.400000*%
%ADD22R,1.397000X1.397000*%
%ADD23C,1.397000*%
%ADD24C,0.254000*%
G04 APERTURE END LIST*
D10*
D11*
X180000000Y-20000000D02*
X180000000Y-90000000D01*
X85000000Y-20000000D02*
X180000000Y-20000000D01*
X180000000Y-90000000D02*
X85000000Y-90000000D01*
X85000000Y-90000000D02*
X85000000Y-20000000D01*
X85000000Y-90000000D02*
X180000000Y-90000000D01*
D12*
X144780000Y-49530000D03*
D13*
X142240000Y-49530000D03*
D14*
X162560000Y-42545000D03*
D15*
X142240000Y-42545000D03*
D12*
X100330000Y-74930000D03*
D13*
X97790000Y-74930000D03*
D14*
X125730000Y-42545000D03*
D15*
X105410000Y-42545000D03*
D12*
X99060000Y-49530000D03*
D13*
X96520000Y-49530000D03*
D12*
X146050000Y-74930000D03*
D13*
X143510000Y-74930000D03*
D16*
X138430000Y-25400000D03*
D17*
X133350000Y-25400000D03*
X128270000Y-25400000D03*
D18*
X93980000Y-57150000D03*
D19*
X101600000Y-64770000D03*
X93980000Y-59690000D03*
X101600000Y-62230000D03*
X93980000Y-62230000D03*
X101600000Y-59690000D03*
X93980000Y-64770000D03*
X101600000Y-57150000D03*
D18*
X139700000Y-57150000D03*
D19*
X147320000Y-64770000D03*
X139700000Y-59690000D03*
X147320000Y-62230000D03*
X139700000Y-62230000D03*
X147320000Y-59690000D03*
X139700000Y-64770000D03*
X147320000Y-57150000D03*
D20*
X154940000Y-30480000D03*
D21*
X147440000Y-30480000D03*
D20*
X118110000Y-30480000D03*
D21*
X110610000Y-30480000D03*
D22*
X88900000Y-72390000D03*
D23*
X88900000Y-62230000D03*
D22*
X88900000Y-59690000D03*
D23*
X88900000Y-49530000D03*
D22*
X134620000Y-59690000D03*
D23*
X134620000Y-49530000D03*
D22*
X134620000Y-72390000D03*
D23*
X134620000Y-62230000D03*
X104140000Y-50800000D03*
X111760000Y-50800000D03*
X149860000Y-50800000D03*
X157480000Y-50800000D03*
X139700000Y-76200000D03*
X139700000Y-68580000D03*
X93980000Y-68580000D03*
X93980000Y-76200000D03*
X106680000Y-68580000D03*
X99060000Y-68580000D03*
X104775000Y-54610000D03*
X104775000Y-62230000D03*
X104140000Y-76200000D03*
X104140000Y-83820000D03*
X150495000Y-54610000D03*
X150495000Y-62230000D03*
X149860000Y-76200000D03*
X149860000Y-83820000D03*
X152400000Y-68580000D03*
X144780000Y-68580000D03*
X91440000Y-63500000D03*
X91440000Y-71120000D03*
X107315000Y-54610000D03*
X107315000Y-62230000D03*
X91440000Y-58420000D03*
X91440000Y-50800000D03*
X104140000Y-73660000D03*
X104140000Y-66040000D03*
X149860000Y-66040000D03*
X149860000Y-73660000D03*
X137160000Y-58420000D03*
X137160000Y-50800000D03*
X153035000Y-62230000D03*
X153035000Y-54610000D03*
X137160000Y-63500000D03*
X137160000Y-71120000D03*
D12*
X124460000Y-52070000D03*
D13*
X124460000Y-49530000D03*
D12*
X170180000Y-72390000D03*
D13*
X170180000Y-69850000D03*
D12*
X170180000Y-52070000D03*
D13*
X170180000Y-49530000D03*
D12*
X124460000Y-72390000D03*
D13*
X124460000Y-69850000D03*
D22*
X120015000Y-54610000D03*
D23*
X109855000Y-54610000D03*
D22*
X109220000Y-67310000D03*
D23*
X119380000Y-67310000D03*
D22*
X165735000Y-54610000D03*
D23*
X155575000Y-54610000D03*
D22*
X154940000Y-67310000D03*
D23*
X165100000Y-67310000D03*
D16*
X109220000Y-82550000D03*
D17*
X114300000Y-82550000D03*
D16*
X154940000Y-82550000D03*
D17*
X160020000Y-82550000D03*
D16*
X88900000Y-82550000D03*
D17*
X93980000Y-82550000D03*
D16*
X134620000Y-82550000D03*
D17*
X139700000Y-82550000D03*
D24*
G36*
X167513000Y-58293000D02*
X153670000Y-58293000D01*
X153620590Y-58303006D01*
X153578965Y-58331447D01*
X153551685Y-58373841D01*
X153543000Y-58420000D01*
X153543000Y-60464317D01*
X153399708Y-60404817D01*
X152673479Y-60404183D01*
X152002288Y-60681514D01*
X151850537Y-60833000D01*
X151679833Y-60833000D01*
X151530413Y-60683319D01*
X150859708Y-60404817D01*
X150133479Y-60404183D01*
X149462288Y-60681514D01*
X149310537Y-60833000D01*
X148867076Y-60833000D01*
X149138068Y-60427431D01*
X149284752Y-59690000D01*
X149138068Y-58952569D01*
X148720347Y-58327405D01*
X148366594Y-58091035D01*
X148551041Y-57887423D01*
X148711904Y-57499039D01*
X148589915Y-57277000D01*
X147447000Y-57277000D01*
X147447000Y-57297000D01*
X147193000Y-57297000D01*
X147193000Y-57277000D01*
X146050085Y-57277000D01*
X145928096Y-57499039D01*
X146088959Y-57887423D01*
X146273406Y-58091035D01*
X145919653Y-58327405D01*
X145501932Y-58952569D01*
X145355248Y-59690000D01*
X145501932Y-60427431D01*
X145772924Y-60833000D01*
X144272000Y-60833000D01*
X144272000Y-56800961D01*
X145928096Y-56800961D01*
X146050085Y-57023000D01*
X147193000Y-57023000D01*
X147193000Y-55879371D01*
X147447000Y-55879371D01*
X147447000Y-57023000D01*
X148589915Y-57023000D01*
X148711904Y-56800961D01*
X148551041Y-56412577D01*
X148175134Y-55997611D01*
X147669041Y-55758086D01*
X147447000Y-55879371D01*
X147193000Y-55879371D01*
X146970959Y-55758086D01*
X146464866Y-55997611D01*
X146088959Y-56412577D01*
X145928096Y-56800961D01*
X144272000Y-56800961D01*
X144272000Y-54971521D01*
X148669183Y-54971521D01*
X148946514Y-55642712D01*
X149459587Y-56156681D01*
X150130292Y-56435183D01*
X150856521Y-56435817D01*
X151527712Y-56158486D01*
X151764964Y-55921648D01*
X151999587Y-56156681D01*
X152670292Y-56435183D01*
X153396521Y-56435817D01*
X154067712Y-56158486D01*
X154304964Y-55921648D01*
X154539587Y-56156681D01*
X155210292Y-56435183D01*
X155936521Y-56435817D01*
X156607712Y-56158486D01*
X157121681Y-55645413D01*
X157400183Y-54974708D01*
X157400251Y-54895750D01*
X164401500Y-54895750D01*
X164401500Y-55434810D01*
X164498173Y-55668199D01*
X164676802Y-55846827D01*
X164910191Y-55943500D01*
X165449250Y-55943500D01*
X165608000Y-55784750D01*
X165608000Y-54737000D01*
X165862000Y-54737000D01*
X165862000Y-55784750D01*
X166020750Y-55943500D01*
X166559809Y-55943500D01*
X166793198Y-55846827D01*
X166971827Y-55668199D01*
X167068500Y-55434810D01*
X167068500Y-54895750D01*
X166909750Y-54737000D01*
X165862000Y-54737000D01*
X165608000Y-54737000D01*
X164560250Y-54737000D01*
X164401500Y-54895750D01*
X157400251Y-54895750D01*
X157400817Y-54248479D01*
X157209390Y-53785190D01*
X164401500Y-53785190D01*
X164401500Y-54324250D01*
X164560250Y-54483000D01*
X165608000Y-54483000D01*
X165608000Y-53435250D01*
X165862000Y-53435250D01*
X165862000Y-54483000D01*
X166909750Y-54483000D01*
X167068500Y-54324250D01*
X167068500Y-53785190D01*
X166971827Y-53551801D01*
X166793198Y-53373173D01*
X166559809Y-53276500D01*
X166020750Y-53276500D01*
X165862000Y-53435250D01*
X165608000Y-53435250D01*
X165449250Y-53276500D01*
X164910191Y-53276500D01*
X164676802Y-53373173D01*
X164498173Y-53551801D01*
X164401500Y-53785190D01*
X157209390Y-53785190D01*
X157123486Y-53577288D01*
X156610413Y-53063319D01*
X155939708Y-52784817D01*
X155213479Y-52784183D01*
X154542288Y-53061514D01*
X154305036Y-53298352D01*
X154070413Y-53063319D01*
X153399708Y-52784817D01*
X152673479Y-52784183D01*
X152002288Y-53061514D01*
X151765036Y-53298352D01*
X151530413Y-53063319D01*
X150859708Y-52784817D01*
X150133479Y-52784183D01*
X149462288Y-53061514D01*
X148948319Y-53574587D01*
X148669817Y-54245292D01*
X148669183Y-54971521D01*
X144272000Y-54971521D01*
X144272000Y-53340000D01*
X144261994Y-53290590D01*
X144233553Y-53248965D01*
X144191159Y-53221685D01*
X144145000Y-53213000D01*
X125841306Y-53213000D01*
X125920500Y-53021809D01*
X125920500Y-52355750D01*
X125761750Y-52197000D01*
X124587000Y-52197000D01*
X124587000Y-52217000D01*
X124333000Y-52217000D01*
X124333000Y-52197000D01*
X123158250Y-52197000D01*
X122999500Y-52355750D01*
X122999500Y-53021809D01*
X123078694Y-53213000D01*
X121920000Y-53213000D01*
X121870590Y-53223006D01*
X121828965Y-53251447D01*
X121801685Y-53293841D01*
X121793000Y-53340000D01*
X121793000Y-58293000D01*
X107950000Y-58293000D01*
X107900590Y-58303006D01*
X107858965Y-58331447D01*
X107831685Y-58373841D01*
X107823000Y-58420000D01*
X107823000Y-60464317D01*
X107679708Y-60404817D01*
X106953479Y-60404183D01*
X106282288Y-60681514D01*
X106130537Y-60833000D01*
X105959833Y-60833000D01*
X105810413Y-60683319D01*
X105139708Y-60404817D01*
X104413479Y-60404183D01*
X103742288Y-60681514D01*
X103590537Y-60833000D01*
X103147076Y-60833000D01*
X103418068Y-60427431D01*
X103564752Y-59690000D01*
X103418068Y-58952569D01*
X103000347Y-58327405D01*
X102646594Y-58091035D01*
X102831041Y-57887423D01*
X102991904Y-57499039D01*
X102869915Y-57277000D01*
X101727000Y-57277000D01*
X101727000Y-57297000D01*
X101473000Y-57297000D01*
X101473000Y-57277000D01*
X100330085Y-57277000D01*
X100208096Y-57499039D01*
X100368959Y-57887423D01*
X100553406Y-58091035D01*
X100199653Y-58327405D01*
X99781932Y-58952569D01*
X99635248Y-59690000D01*
X99781932Y-60427431D01*
X100052924Y-60833000D01*
X98552000Y-60833000D01*
X98552000Y-56800961D01*
X100208096Y-56800961D01*
X100330085Y-57023000D01*
X101473000Y-57023000D01*
X101473000Y-55879371D01*
X101727000Y-55879371D01*
X101727000Y-57023000D01*
X102869915Y-57023000D01*
X102991904Y-56800961D01*
X102831041Y-56412577D01*
X102455134Y-55997611D01*
X101949041Y-55758086D01*
X101727000Y-55879371D01*
X101473000Y-55879371D01*
X101250959Y-55758086D01*
X100744866Y-55997611D01*
X100368959Y-56412577D01*
X100208096Y-56800961D01*
X98552000Y-56800961D01*
X98552000Y-54971521D01*
X102949183Y-54971521D01*
X103226514Y-55642712D01*
X103739587Y-56156681D01*
X104410292Y-56435183D01*
X105136521Y-56435817D01*
X105807712Y-56158486D01*
X106044964Y-55921648D01*
X106279587Y-56156681D01*
X106950292Y-56435183D01*
X107676521Y-56435817D01*
X108347712Y-56158486D01*
X108584964Y-55921648D01*
X108819587Y-56156681D01*
X109490292Y-56435183D01*
X110216521Y-56435817D01*
X110887712Y-56158486D01*
X111401681Y-55645413D01*
X111680183Y-54974708D01*
X111680251Y-54895750D01*
X118681500Y-54895750D01*
X118681500Y-55434810D01*
X118778173Y-55668199D01*
X118956802Y-55846827D01*
X119190191Y-55943500D01*
X119729250Y-55943500D01*
X119888000Y-55784750D01*
X119888000Y-54737000D01*
X120142000Y-54737000D01*
X120142000Y-55784750D01*
X120300750Y-55943500D01*
X120839809Y-55943500D01*
X121073198Y-55846827D01*
X121251827Y-55668199D01*
X121348500Y-55434810D01*
X121348500Y-54895750D01*
X121189750Y-54737000D01*
X120142000Y-54737000D01*
X119888000Y-54737000D01*
X118840250Y-54737000D01*
X118681500Y-54895750D01*
X111680251Y-54895750D01*
X111680817Y-54248479D01*
X111489390Y-53785190D01*
X118681500Y-53785190D01*
X118681500Y-54324250D01*
X118840250Y-54483000D01*
X119888000Y-54483000D01*
X119888000Y-53435250D01*
X120142000Y-53435250D01*
X120142000Y-54483000D01*
X121189750Y-54483000D01*
X121348500Y-54324250D01*
X121348500Y-53785190D01*
X121251827Y-53551801D01*
X121073198Y-53373173D01*
X120839809Y-53276500D01*
X120300750Y-53276500D01*
X120142000Y-53435250D01*
X119888000Y-53435250D01*
X119729250Y-53276500D01*
X119190191Y-53276500D01*
X118956802Y-53373173D01*
X118778173Y-53551801D01*
X118681500Y-53785190D01*
X111489390Y-53785190D01*
X111403486Y-53577288D01*
X110890413Y-53063319D01*
X110219708Y-52784817D01*
X109493479Y-52784183D01*
X108822288Y-53061514D01*
X108585036Y-53298352D01*
X108350413Y-53063319D01*
X107679708Y-52784817D01*
X106953479Y-52784183D01*
X106282288Y-53061514D01*
X106045036Y-53298352D01*
X105810413Y-53063319D01*
X105139708Y-52784817D01*
X104413479Y-52784183D01*
X103742288Y-53061514D01*
X103228319Y-53574587D01*
X102949817Y-54245292D01*
X102949183Y-54971521D01*
X98552000Y-54971521D01*
X98552000Y-51734188D01*
X103385417Y-51734188D01*
X103447071Y-51969800D01*
X103947480Y-52145927D01*
X104477199Y-52117148D01*
X104832929Y-51969800D01*
X104894583Y-51734188D01*
X104140000Y-50979605D01*
X103385417Y-51734188D01*
X98552000Y-51734188D01*
X98552000Y-50990500D01*
X98774250Y-50990500D01*
X98933000Y-50831750D01*
X98933000Y-49657000D01*
X99187000Y-49657000D01*
X99187000Y-50831750D01*
X99345750Y-50990500D01*
X100011809Y-50990500D01*
X100245198Y-50893827D01*
X100423827Y-50715199D01*
X100468445Y-50607480D01*
X102794073Y-50607480D01*
X102822852Y-51137199D01*
X102970200Y-51492929D01*
X103205812Y-51554583D01*
X103960395Y-50800000D01*
X104319605Y-50800000D01*
X105074188Y-51554583D01*
X105309800Y-51492929D01*
X105426444Y-51161521D01*
X109934183Y-51161521D01*
X110211514Y-51832712D01*
X110724587Y-52346681D01*
X111395292Y-52625183D01*
X112121521Y-52625817D01*
X112792712Y-52348486D01*
X113306681Y-51835413D01*
X113585183Y-51164708D01*
X113585817Y-50438479D01*
X113370211Y-49916672D01*
X122507162Y-49916672D01*
X122803786Y-50634558D01*
X123083686Y-50914947D01*
X122999500Y-51118191D01*
X122999500Y-51784250D01*
X123158250Y-51943000D01*
X124333000Y-51943000D01*
X124333000Y-51923000D01*
X124587000Y-51923000D01*
X124587000Y-51943000D01*
X125761750Y-51943000D01*
X125920500Y-51784250D01*
X125920500Y-51118191D01*
X125836309Y-50914937D01*
X126114284Y-50637447D01*
X126412161Y-49920080D01*
X126412185Y-49891521D01*
X132794183Y-49891521D01*
X133071514Y-50562712D01*
X133584587Y-51076681D01*
X134255292Y-51355183D01*
X134981521Y-51355817D01*
X135351328Y-51203015D01*
X135611514Y-51832712D01*
X136124587Y-52346681D01*
X136795292Y-52625183D01*
X137521521Y-52625817D01*
X138192712Y-52348486D01*
X138706681Y-51835413D01*
X138748713Y-51734188D01*
X149105417Y-51734188D01*
X149167071Y-51969800D01*
X149667480Y-52145927D01*
X150197199Y-52117148D01*
X150552929Y-51969800D01*
X150614583Y-51734188D01*
X149860000Y-50979605D01*
X149105417Y-51734188D01*
X138748713Y-51734188D01*
X138985183Y-51164708D01*
X138985817Y-50438479D01*
X138770211Y-49916672D01*
X140287162Y-49916672D01*
X140583786Y-50634558D01*
X141132553Y-51184284D01*
X141849920Y-51482161D01*
X142626672Y-51482838D01*
X143344558Y-51186214D01*
X143624947Y-50906314D01*
X143828191Y-50990500D01*
X144494250Y-50990500D01*
X144653000Y-50831750D01*
X144653000Y-49657000D01*
X144907000Y-49657000D01*
X144907000Y-50831750D01*
X145065750Y-50990500D01*
X145731809Y-50990500D01*
X145965198Y-50893827D01*
X146143827Y-50715199D01*
X146188445Y-50607480D01*
X148514073Y-50607480D01*
X148542852Y-51137199D01*
X148690200Y-51492929D01*
X148925812Y-51554583D01*
X149680395Y-50800000D01*
X150039605Y-50800000D01*
X150794188Y-51554583D01*
X151029800Y-51492929D01*
X151146444Y-51161521D01*
X155654183Y-51161521D01*
X155931514Y-51832712D01*
X156444587Y-52346681D01*
X157115292Y-52625183D01*
X157841521Y-52625817D01*
X158512712Y-52348486D01*
X159026681Y-51835413D01*
X159305183Y-51164708D01*
X159305817Y-50438479D01*
X159028486Y-49767288D01*
X158515413Y-49253319D01*
X157844708Y-48974817D01*
X157118479Y-48974183D01*
X156447288Y-49251514D01*
X155933319Y-49764587D01*
X155654817Y-50435292D01*
X155654183Y-51161521D01*
X151146444Y-51161521D01*
X151205927Y-50992520D01*
X151177148Y-50462801D01*
X151029800Y-50107071D01*
X150794188Y-50045417D01*
X150039605Y-50800000D01*
X149680395Y-50800000D01*
X148925812Y-50045417D01*
X148690200Y-50107071D01*
X148514073Y-50607480D01*
X146188445Y-50607480D01*
X146240500Y-50481810D01*
X146240500Y-49865812D01*
X149105417Y-49865812D01*
X149860000Y-50620395D01*
X150614583Y-49865812D01*
X150552929Y-49630200D01*
X150052520Y-49454073D01*
X149522801Y-49482852D01*
X149167071Y-49630200D01*
X149105417Y-49865812D01*
X146240500Y-49865812D01*
X146240500Y-49815750D01*
X146081750Y-49657000D01*
X144907000Y-49657000D01*
X144653000Y-49657000D01*
X144633000Y-49657000D01*
X144633000Y-49403000D01*
X144653000Y-49403000D01*
X144653000Y-48228250D01*
X144907000Y-48228250D01*
X144907000Y-49403000D01*
X146081750Y-49403000D01*
X146240500Y-49244250D01*
X146240500Y-48578190D01*
X146143827Y-48344801D01*
X145965198Y-48166173D01*
X145731809Y-48069500D01*
X145065750Y-48069500D01*
X144907000Y-48228250D01*
X144653000Y-48228250D01*
X144494250Y-48069500D01*
X143828191Y-48069500D01*
X143624937Y-48153691D01*
X143347447Y-47875716D01*
X142630080Y-47577839D01*
X141853328Y-47577162D01*
X141135442Y-47873786D01*
X140585716Y-48422553D01*
X140287839Y-49139920D01*
X140287162Y-49916672D01*
X138770211Y-49916672D01*
X138708486Y-49767288D01*
X138195413Y-49253319D01*
X137524708Y-48974817D01*
X136798479Y-48974183D01*
X136428672Y-49126985D01*
X136168486Y-48497288D01*
X135655413Y-47983319D01*
X134984708Y-47704817D01*
X134258479Y-47704183D01*
X133587288Y-47981514D01*
X133073319Y-48494587D01*
X132794817Y-49165292D01*
X132794183Y-49891521D01*
X126412185Y-49891521D01*
X126412838Y-49143328D01*
X126116214Y-48425442D01*
X125567447Y-47875716D01*
X124850080Y-47577839D01*
X124073328Y-47577162D01*
X123355442Y-47873786D01*
X122805716Y-48422553D01*
X122507839Y-49139920D01*
X122507162Y-49916672D01*
X113370211Y-49916672D01*
X113308486Y-49767288D01*
X112795413Y-49253319D01*
X112124708Y-48974817D01*
X111398479Y-48974183D01*
X110727288Y-49251514D01*
X110213319Y-49764587D01*
X109934817Y-50435292D01*
X109934183Y-51161521D01*
X105426444Y-51161521D01*
X105485927Y-50992520D01*
X105457148Y-50462801D01*
X105309800Y-50107071D01*
X105074188Y-50045417D01*
X104319605Y-50800000D01*
X103960395Y-50800000D01*
X103205812Y-50045417D01*
X102970200Y-50107071D01*
X102794073Y-50607480D01*
X100468445Y-50607480D01*
X100520500Y-50481810D01*
X100520500Y-49865812D01*
X103385417Y-49865812D01*
X104140000Y-50620395D01*
X104894583Y-49865812D01*
X104832929Y-49630200D01*
X104332520Y-49454073D01*
X103802801Y-49482852D01*
X103447071Y-49630200D01*
X103385417Y-49865812D01*
X100520500Y-49865812D01*
X100520500Y-49815750D01*
X100361750Y-49657000D01*
X99187000Y-49657000D01*
X98933000Y-49657000D01*
X98913000Y-49657000D01*
X98913000Y-49403000D01*
X98933000Y-49403000D01*
X98933000Y-48228250D01*
X99187000Y-48228250D01*
X99187000Y-49403000D01*
X100361750Y-49403000D01*
X100520500Y-49244250D01*
X100520500Y-48578190D01*
X100423827Y-48344801D01*
X100245198Y-48166173D01*
X100011809Y-48069500D01*
X99345750Y-48069500D01*
X99187000Y-48228250D01*
X98933000Y-48228250D01*
X98774250Y-48069500D01*
X98552000Y-48069500D01*
X98552000Y-45847000D01*
X133350000Y-45847000D01*
X133399410Y-45836994D01*
X133441035Y-45808553D01*
X133468315Y-45766159D01*
X133477000Y-45720000D01*
X133477000Y-42944248D01*
X140223651Y-42944248D01*
X140529922Y-43685481D01*
X141096537Y-44253085D01*
X141837233Y-44560650D01*
X142639248Y-44561349D01*
X143380481Y-44255078D01*
X143948085Y-43688463D01*
X144255650Y-42947767D01*
X144255751Y-42830750D01*
X161036000Y-42830750D01*
X161036000Y-43560310D01*
X161132673Y-43793699D01*
X161311302Y-43972327D01*
X161544691Y-44069000D01*
X162274250Y-44069000D01*
X162433000Y-43910250D01*
X162433000Y-42672000D01*
X162687000Y-42672000D01*
X162687000Y-43910250D01*
X162845750Y-44069000D01*
X163575309Y-44069000D01*
X163808698Y-43972327D01*
X163987327Y-43793699D01*
X164084000Y-43560310D01*
X164084000Y-42830750D01*
X163925250Y-42672000D01*
X162687000Y-42672000D01*
X162433000Y-42672000D01*
X161194750Y-42672000D01*
X161036000Y-42830750D01*
X144255751Y-42830750D01*
X144256349Y-42145752D01*
X144001798Y-41529690D01*
X161036000Y-41529690D01*
X161036000Y-42259250D01*
X161194750Y-42418000D01*
X162433000Y-42418000D01*
X162433000Y-41179750D01*
X162687000Y-41179750D01*
X162687000Y-42418000D01*
X163925250Y-42418000D01*
X164084000Y-42259250D01*
X164084000Y-41529690D01*
X163987327Y-41296301D01*
X163808698Y-41117673D01*
X163575309Y-41021000D01*
X162845750Y-41021000D01*
X162687000Y-41179750D01*
X162433000Y-41179750D01*
X162274250Y-41021000D01*
X161544691Y-41021000D01*
X161311302Y-41117673D01*
X161132673Y-41296301D01*
X161036000Y-41529690D01*
X144001798Y-41529690D01*
X143950078Y-41404519D01*
X143383463Y-40836915D01*
X142642767Y-40529350D01*
X141840752Y-40528651D01*
X141099519Y-40834922D01*
X140531915Y-41401537D01*
X140224350Y-42142233D01*
X140223651Y-42944248D01*
X133477000Y-42944248D01*
X133477000Y-30940838D01*
X145112597Y-30940838D01*
X145466115Y-31796418D01*
X146120139Y-32451585D01*
X146975100Y-32806596D01*
X147900838Y-32807403D01*
X148756418Y-32453885D01*
X149411585Y-31799861D01*
X149766596Y-30944900D01*
X149766752Y-30765750D01*
X153105000Y-30765750D01*
X153105000Y-31806310D01*
X153201673Y-32039699D01*
X153380302Y-32218327D01*
X153613691Y-32315000D01*
X154654250Y-32315000D01*
X154813000Y-32156250D01*
X154813000Y-30607000D01*
X155067000Y-30607000D01*
X155067000Y-32156250D01*
X155225750Y-32315000D01*
X156266309Y-32315000D01*
X156499698Y-32218327D01*
X156678327Y-32039699D01*
X156775000Y-31806310D01*
X156775000Y-30765750D01*
X156616250Y-30607000D01*
X155067000Y-30607000D01*
X154813000Y-30607000D01*
X153263750Y-30607000D01*
X153105000Y-30765750D01*
X149766752Y-30765750D01*
X149767403Y-30019162D01*
X149413885Y-29163582D01*
X149404011Y-29153690D01*
X153105000Y-29153690D01*
X153105000Y-30194250D01*
X153263750Y-30353000D01*
X154813000Y-30353000D01*
X154813000Y-28803750D01*
X155067000Y-28803750D01*
X155067000Y-30353000D01*
X156616250Y-30353000D01*
X156775000Y-30194250D01*
X156775000Y-29153690D01*
X156678327Y-28920301D01*
X156499698Y-28741673D01*
X156266309Y-28645000D01*
X155225750Y-28645000D01*
X155067000Y-28803750D01*
X154813000Y-28803750D01*
X154654250Y-28645000D01*
X153613691Y-28645000D01*
X153380302Y-28741673D01*
X153201673Y-28920301D01*
X153105000Y-29153690D01*
X149404011Y-29153690D01*
X148759861Y-28508415D01*
X147904900Y-28153404D01*
X146979162Y-28152597D01*
X146123582Y-28506115D01*
X145468415Y-29160139D01*
X145113404Y-30015100D01*
X145112597Y-30940838D01*
X133477000Y-30940838D01*
X133477000Y-28027112D01*
X133870250Y-28027455D01*
X134836132Y-27628361D01*
X135575764Y-26890019D01*
X135976543Y-25924835D01*
X135976751Y-25685750D01*
X136295000Y-25685750D01*
X136295000Y-27026310D01*
X136391673Y-27259699D01*
X136570302Y-27438327D01*
X136803691Y-27535000D01*
X138144250Y-27535000D01*
X138303000Y-27376250D01*
X138303000Y-25527000D01*
X138557000Y-25527000D01*
X138557000Y-27376250D01*
X138715750Y-27535000D01*
X140056309Y-27535000D01*
X140289698Y-27438327D01*
X140468327Y-27259699D01*
X140565000Y-27026310D01*
X140565000Y-25685750D01*
X140406250Y-25527000D01*
X138557000Y-25527000D01*
X138303000Y-25527000D01*
X136453750Y-25527000D01*
X136295000Y-25685750D01*
X135976751Y-25685750D01*
X135977455Y-24879750D01*
X135578361Y-23913868D01*
X135438428Y-23773690D01*
X136295000Y-23773690D01*
X136295000Y-25114250D01*
X136453750Y-25273000D01*
X138303000Y-25273000D01*
X138303000Y-23423750D01*
X138557000Y-23423750D01*
X138557000Y-25273000D01*
X140406250Y-25273000D01*
X140565000Y-25114250D01*
X140565000Y-23773690D01*
X140468327Y-23540301D01*
X140289698Y-23361673D01*
X140056309Y-23265000D01*
X138715750Y-23265000D01*
X138557000Y-23423750D01*
X138303000Y-23423750D01*
X138144250Y-23265000D01*
X136803691Y-23265000D01*
X136570302Y-23361673D01*
X136391673Y-23540301D01*
X136295000Y-23773690D01*
X135438428Y-23773690D01*
X134840019Y-23174236D01*
X133874835Y-22773457D01*
X133477000Y-22773110D01*
X133477000Y-21717000D01*
X167513000Y-21717000D01*
X167513000Y-58293000D01*
X167513000Y-58293000D01*
G37*
X167513000Y-58293000D02*
X153670000Y-58293000D01*
X153620590Y-58303006D01*
X153578965Y-58331447D01*
X153551685Y-58373841D01*
X153543000Y-58420000D01*
X153543000Y-60464317D01*
X153399708Y-60404817D01*
X152673479Y-60404183D01*
X152002288Y-60681514D01*
X151850537Y-60833000D01*
X151679833Y-60833000D01*
X151530413Y-60683319D01*
X150859708Y-60404817D01*
X150133479Y-60404183D01*
X149462288Y-60681514D01*
X149310537Y-60833000D01*
X148867076Y-60833000D01*
X149138068Y-60427431D01*
X149284752Y-59690000D01*
X149138068Y-58952569D01*
X148720347Y-58327405D01*
X148366594Y-58091035D01*
X148551041Y-57887423D01*
X148711904Y-57499039D01*
X148589915Y-57277000D01*
X147447000Y-57277000D01*
X147447000Y-57297000D01*
X147193000Y-57297000D01*
X147193000Y-57277000D01*
X146050085Y-57277000D01*
X145928096Y-57499039D01*
X146088959Y-57887423D01*
X146273406Y-58091035D01*
X145919653Y-58327405D01*
X145501932Y-58952569D01*
X145355248Y-59690000D01*
X145501932Y-60427431D01*
X145772924Y-60833000D01*
X144272000Y-60833000D01*
X144272000Y-56800961D01*
X145928096Y-56800961D01*
X146050085Y-57023000D01*
X147193000Y-57023000D01*
X147193000Y-55879371D01*
X147447000Y-55879371D01*
X147447000Y-57023000D01*
X148589915Y-57023000D01*
X148711904Y-56800961D01*
X148551041Y-56412577D01*
X148175134Y-55997611D01*
X147669041Y-55758086D01*
X147447000Y-55879371D01*
X147193000Y-55879371D01*
X146970959Y-55758086D01*
X146464866Y-55997611D01*
X146088959Y-56412577D01*
X145928096Y-56800961D01*
X144272000Y-56800961D01*
X144272000Y-54971521D01*
X148669183Y-54971521D01*
X148946514Y-55642712D01*
X149459587Y-56156681D01*
X150130292Y-56435183D01*
X150856521Y-56435817D01*
X151527712Y-56158486D01*
X151764964Y-55921648D01*
X151999587Y-56156681D01*
X152670292Y-56435183D01*
X153396521Y-56435817D01*
X154067712Y-56158486D01*
X154304964Y-55921648D01*
X154539587Y-56156681D01*
X155210292Y-56435183D01*
X155936521Y-56435817D01*
X156607712Y-56158486D01*
X157121681Y-55645413D01*
X157400183Y-54974708D01*
X157400251Y-54895750D01*
X164401500Y-54895750D01*
X164401500Y-55434810D01*
X164498173Y-55668199D01*
X164676802Y-55846827D01*
X164910191Y-55943500D01*
X165449250Y-55943500D01*
X165608000Y-55784750D01*
X165608000Y-54737000D01*
X165862000Y-54737000D01*
X165862000Y-55784750D01*
X166020750Y-55943500D01*
X166559809Y-55943500D01*
X166793198Y-55846827D01*
X166971827Y-55668199D01*
X167068500Y-55434810D01*
X167068500Y-54895750D01*
X166909750Y-54737000D01*
X165862000Y-54737000D01*
X165608000Y-54737000D01*
X164560250Y-54737000D01*
X164401500Y-54895750D01*
X157400251Y-54895750D01*
X157400817Y-54248479D01*
X157209390Y-53785190D01*
X164401500Y-53785190D01*
X164401500Y-54324250D01*
X164560250Y-54483000D01*
X165608000Y-54483000D01*
X165608000Y-53435250D01*
X165862000Y-53435250D01*
X165862000Y-54483000D01*
X166909750Y-54483000D01*
X167068500Y-54324250D01*
X167068500Y-53785190D01*
X166971827Y-53551801D01*
X166793198Y-53373173D01*
X166559809Y-53276500D01*
X166020750Y-53276500D01*
X165862000Y-53435250D01*
X165608000Y-53435250D01*
X165449250Y-53276500D01*
X164910191Y-53276500D01*
X164676802Y-53373173D01*
X164498173Y-53551801D01*
X164401500Y-53785190D01*
X157209390Y-53785190D01*
X157123486Y-53577288D01*
X156610413Y-53063319D01*
X155939708Y-52784817D01*
X155213479Y-52784183D01*
X154542288Y-53061514D01*
X154305036Y-53298352D01*
X154070413Y-53063319D01*
X153399708Y-52784817D01*
X152673479Y-52784183D01*
X152002288Y-53061514D01*
X151765036Y-53298352D01*
X151530413Y-53063319D01*
X150859708Y-52784817D01*
X150133479Y-52784183D01*
X149462288Y-53061514D01*
X148948319Y-53574587D01*
X148669817Y-54245292D01*
X148669183Y-54971521D01*
X144272000Y-54971521D01*
X144272000Y-53340000D01*
X144261994Y-53290590D01*
X144233553Y-53248965D01*
X144191159Y-53221685D01*
X144145000Y-53213000D01*
X125841306Y-53213000D01*
X125920500Y-53021809D01*
X125920500Y-52355750D01*
X125761750Y-52197000D01*
X124587000Y-52197000D01*
X124587000Y-52217000D01*
X124333000Y-52217000D01*
X124333000Y-52197000D01*
X123158250Y-52197000D01*
X122999500Y-52355750D01*
X122999500Y-53021809D01*
X123078694Y-53213000D01*
X121920000Y-53213000D01*
X121870590Y-53223006D01*
X121828965Y-53251447D01*
X121801685Y-53293841D01*
X121793000Y-53340000D01*
X121793000Y-58293000D01*
X107950000Y-58293000D01*
X107900590Y-58303006D01*
X107858965Y-58331447D01*
X107831685Y-58373841D01*
X107823000Y-58420000D01*
X107823000Y-60464317D01*
X107679708Y-60404817D01*
X106953479Y-60404183D01*
X106282288Y-60681514D01*
X106130537Y-60833000D01*
X105959833Y-60833000D01*
X105810413Y-60683319D01*
X105139708Y-60404817D01*
X104413479Y-60404183D01*
X103742288Y-60681514D01*
X103590537Y-60833000D01*
X103147076Y-60833000D01*
X103418068Y-60427431D01*
X103564752Y-59690000D01*
X103418068Y-58952569D01*
X103000347Y-58327405D01*
X102646594Y-58091035D01*
X102831041Y-57887423D01*
X102991904Y-57499039D01*
X102869915Y-57277000D01*
X101727000Y-57277000D01*
X101727000Y-57297000D01*
X101473000Y-57297000D01*
X101473000Y-57277000D01*
X100330085Y-57277000D01*
X100208096Y-57499039D01*
X100368959Y-57887423D01*
X100553406Y-58091035D01*
X100199653Y-58327405D01*
X99781932Y-58952569D01*
X99635248Y-59690000D01*
X99781932Y-60427431D01*
X100052924Y-60833000D01*
X98552000Y-60833000D01*
X98552000Y-56800961D01*
X100208096Y-56800961D01*
X100330085Y-57023000D01*
X101473000Y-57023000D01*
X101473000Y-55879371D01*
X101727000Y-55879371D01*
X101727000Y-57023000D01*
X102869915Y-57023000D01*
X102991904Y-56800961D01*
X102831041Y-56412577D01*
X102455134Y-55997611D01*
X101949041Y-55758086D01*
X101727000Y-55879371D01*
X101473000Y-55879371D01*
X101250959Y-55758086D01*
X100744866Y-55997611D01*
X100368959Y-56412577D01*
X100208096Y-56800961D01*
X98552000Y-56800961D01*
X98552000Y-54971521D01*
X102949183Y-54971521D01*
X103226514Y-55642712D01*
X103739587Y-56156681D01*
X104410292Y-56435183D01*
X105136521Y-56435817D01*
X105807712Y-56158486D01*
X106044964Y-55921648D01*
X106279587Y-56156681D01*
X106950292Y-56435183D01*
X107676521Y-56435817D01*
X108347712Y-56158486D01*
X108584964Y-55921648D01*
X108819587Y-56156681D01*
X109490292Y-56435183D01*
X110216521Y-56435817D01*
X110887712Y-56158486D01*
X111401681Y-55645413D01*
X111680183Y-54974708D01*
X111680251Y-54895750D01*
X118681500Y-54895750D01*
X118681500Y-55434810D01*
X118778173Y-55668199D01*
X118956802Y-55846827D01*
X119190191Y-55943500D01*
X119729250Y-55943500D01*
X119888000Y-55784750D01*
X119888000Y-54737000D01*
X120142000Y-54737000D01*
X120142000Y-55784750D01*
X120300750Y-55943500D01*
X120839809Y-55943500D01*
X121073198Y-55846827D01*
X121251827Y-55668199D01*
X121348500Y-55434810D01*
X121348500Y-54895750D01*
X121189750Y-54737000D01*
X120142000Y-54737000D01*
X119888000Y-54737000D01*
X118840250Y-54737000D01*
X118681500Y-54895750D01*
X111680251Y-54895750D01*
X111680817Y-54248479D01*
X111489390Y-53785190D01*
X118681500Y-53785190D01*
X118681500Y-54324250D01*
X118840250Y-54483000D01*
X119888000Y-54483000D01*
X119888000Y-53435250D01*
X120142000Y-53435250D01*
X120142000Y-54483000D01*
X121189750Y-54483000D01*
X121348500Y-54324250D01*
X121348500Y-53785190D01*
X121251827Y-53551801D01*
X121073198Y-53373173D01*
X120839809Y-53276500D01*
X120300750Y-53276500D01*
X120142000Y-53435250D01*
X119888000Y-53435250D01*
X119729250Y-53276500D01*
X119190191Y-53276500D01*
X118956802Y-53373173D01*
X118778173Y-53551801D01*
X118681500Y-53785190D01*
X111489390Y-53785190D01*
X111403486Y-53577288D01*
X110890413Y-53063319D01*
X110219708Y-52784817D01*
X109493479Y-52784183D01*
X108822288Y-53061514D01*
X108585036Y-53298352D01*
X108350413Y-53063319D01*
X107679708Y-52784817D01*
X106953479Y-52784183D01*
X106282288Y-53061514D01*
X106045036Y-53298352D01*
X105810413Y-53063319D01*
X105139708Y-52784817D01*
X104413479Y-52784183D01*
X103742288Y-53061514D01*
X103228319Y-53574587D01*
X102949817Y-54245292D01*
X102949183Y-54971521D01*
X98552000Y-54971521D01*
X98552000Y-51734188D01*
X103385417Y-51734188D01*
X103447071Y-51969800D01*
X103947480Y-52145927D01*
X104477199Y-52117148D01*
X104832929Y-51969800D01*
X104894583Y-51734188D01*
X104140000Y-50979605D01*
X103385417Y-51734188D01*
X98552000Y-51734188D01*
X98552000Y-50990500D01*
X98774250Y-50990500D01*
X98933000Y-50831750D01*
X98933000Y-49657000D01*
X99187000Y-49657000D01*
X99187000Y-50831750D01*
X99345750Y-50990500D01*
X100011809Y-50990500D01*
X100245198Y-50893827D01*
X100423827Y-50715199D01*
X100468445Y-50607480D01*
X102794073Y-50607480D01*
X102822852Y-51137199D01*
X102970200Y-51492929D01*
X103205812Y-51554583D01*
X103960395Y-50800000D01*
X104319605Y-50800000D01*
X105074188Y-51554583D01*
X105309800Y-51492929D01*
X105426444Y-51161521D01*
X109934183Y-51161521D01*
X110211514Y-51832712D01*
X110724587Y-52346681D01*
X111395292Y-52625183D01*
X112121521Y-52625817D01*
X112792712Y-52348486D01*
X113306681Y-51835413D01*
X113585183Y-51164708D01*
X113585817Y-50438479D01*
X113370211Y-49916672D01*
X122507162Y-49916672D01*
X122803786Y-50634558D01*
X123083686Y-50914947D01*
X122999500Y-51118191D01*
X122999500Y-51784250D01*
X123158250Y-51943000D01*
X124333000Y-51943000D01*
X124333000Y-51923000D01*
X124587000Y-51923000D01*
X124587000Y-51943000D01*
X125761750Y-51943000D01*
X125920500Y-51784250D01*
X125920500Y-51118191D01*
X125836309Y-50914937D01*
X126114284Y-50637447D01*
X126412161Y-49920080D01*
X126412185Y-49891521D01*
X132794183Y-49891521D01*
X133071514Y-50562712D01*
X133584587Y-51076681D01*
X134255292Y-51355183D01*
X134981521Y-51355817D01*
X135351328Y-51203015D01*
X135611514Y-51832712D01*
X136124587Y-52346681D01*
X136795292Y-52625183D01*
X137521521Y-52625817D01*
X138192712Y-52348486D01*
X138706681Y-51835413D01*
X138748713Y-51734188D01*
X149105417Y-51734188D01*
X149167071Y-51969800D01*
X149667480Y-52145927D01*
X150197199Y-52117148D01*
X150552929Y-51969800D01*
X150614583Y-51734188D01*
X149860000Y-50979605D01*
X149105417Y-51734188D01*
X138748713Y-51734188D01*
X138985183Y-51164708D01*
X138985817Y-50438479D01*
X138770211Y-49916672D01*
X140287162Y-49916672D01*
X140583786Y-50634558D01*
X141132553Y-51184284D01*
X141849920Y-51482161D01*
X142626672Y-51482838D01*
X143344558Y-51186214D01*
X143624947Y-50906314D01*
X143828191Y-50990500D01*
X144494250Y-50990500D01*
X144653000Y-50831750D01*
X144653000Y-49657000D01*
X144907000Y-49657000D01*
X144907000Y-50831750D01*
X145065750Y-50990500D01*
X145731809Y-50990500D01*
X145965198Y-50893827D01*
X146143827Y-50715199D01*
X146188445Y-50607480D01*
X148514073Y-50607480D01*
X148542852Y-51137199D01*
X148690200Y-51492929D01*
X148925812Y-51554583D01*
X149680395Y-50800000D01*
X150039605Y-50800000D01*
X150794188Y-51554583D01*
X151029800Y-51492929D01*
X151146444Y-51161521D01*
X155654183Y-51161521D01*
X155931514Y-51832712D01*
X156444587Y-52346681D01*
X157115292Y-52625183D01*
X157841521Y-52625817D01*
X158512712Y-52348486D01*
X159026681Y-51835413D01*
X159305183Y-51164708D01*
X159305817Y-50438479D01*
X159028486Y-49767288D01*
X158515413Y-49253319D01*
X157844708Y-48974817D01*
X157118479Y-48974183D01*
X156447288Y-49251514D01*
X155933319Y-49764587D01*
X155654817Y-50435292D01*
X155654183Y-51161521D01*
X151146444Y-51161521D01*
X151205927Y-50992520D01*
X151177148Y-50462801D01*
X151029800Y-50107071D01*
X150794188Y-50045417D01*
X150039605Y-50800000D01*
X149680395Y-50800000D01*
X148925812Y-50045417D01*
X148690200Y-50107071D01*
X148514073Y-50607480D01*
X146188445Y-50607480D01*
X146240500Y-50481810D01*
X146240500Y-49865812D01*
X149105417Y-49865812D01*
X149860000Y-50620395D01*
X150614583Y-49865812D01*
X150552929Y-49630200D01*
X150052520Y-49454073D01*
X149522801Y-49482852D01*
X149167071Y-49630200D01*
X149105417Y-49865812D01*
X146240500Y-49865812D01*
X146240500Y-49815750D01*
X146081750Y-49657000D01*
X144907000Y-49657000D01*
X144653000Y-49657000D01*
X144633000Y-49657000D01*
X144633000Y-49403000D01*
X144653000Y-49403000D01*
X144653000Y-48228250D01*
X144907000Y-48228250D01*
X144907000Y-49403000D01*
X146081750Y-49403000D01*
X146240500Y-49244250D01*
X146240500Y-48578190D01*
X146143827Y-48344801D01*
X145965198Y-48166173D01*
X145731809Y-48069500D01*
X145065750Y-48069500D01*
X144907000Y-48228250D01*
X144653000Y-48228250D01*
X144494250Y-48069500D01*
X143828191Y-48069500D01*
X143624937Y-48153691D01*
X143347447Y-47875716D01*
X142630080Y-47577839D01*
X141853328Y-47577162D01*
X141135442Y-47873786D01*
X140585716Y-48422553D01*
X140287839Y-49139920D01*
X140287162Y-49916672D01*
X138770211Y-49916672D01*
X138708486Y-49767288D01*
X138195413Y-49253319D01*
X137524708Y-48974817D01*
X136798479Y-48974183D01*
X136428672Y-49126985D01*
X136168486Y-48497288D01*
X135655413Y-47983319D01*
X134984708Y-47704817D01*
X134258479Y-47704183D01*
X133587288Y-47981514D01*
X133073319Y-48494587D01*
X132794817Y-49165292D01*
X132794183Y-49891521D01*
X126412185Y-49891521D01*
X126412838Y-49143328D01*
X126116214Y-48425442D01*
X125567447Y-47875716D01*
X124850080Y-47577839D01*
X124073328Y-47577162D01*
X123355442Y-47873786D01*
X122805716Y-48422553D01*
X122507839Y-49139920D01*
X122507162Y-49916672D01*
X113370211Y-49916672D01*
X113308486Y-49767288D01*
X112795413Y-49253319D01*
X112124708Y-48974817D01*
X111398479Y-48974183D01*
X110727288Y-49251514D01*
X110213319Y-49764587D01*
X109934817Y-50435292D01*
X109934183Y-51161521D01*
X105426444Y-51161521D01*
X105485927Y-50992520D01*
X105457148Y-50462801D01*
X105309800Y-50107071D01*
X105074188Y-50045417D01*
X104319605Y-50800000D01*
X103960395Y-50800000D01*
X103205812Y-50045417D01*
X102970200Y-50107071D01*
X102794073Y-50607480D01*
X100468445Y-50607480D01*
X100520500Y-50481810D01*
X100520500Y-49865812D01*
X103385417Y-49865812D01*
X104140000Y-50620395D01*
X104894583Y-49865812D01*
X104832929Y-49630200D01*
X104332520Y-49454073D01*
X103802801Y-49482852D01*
X103447071Y-49630200D01*
X103385417Y-49865812D01*
X100520500Y-49865812D01*
X100520500Y-49815750D01*
X100361750Y-49657000D01*
X99187000Y-49657000D01*
X98933000Y-49657000D01*
X98913000Y-49657000D01*
X98913000Y-49403000D01*
X98933000Y-49403000D01*
X98933000Y-48228250D01*
X99187000Y-48228250D01*
X99187000Y-49403000D01*
X100361750Y-49403000D01*
X100520500Y-49244250D01*
X100520500Y-48578190D01*
X100423827Y-48344801D01*
X100245198Y-48166173D01*
X100011809Y-48069500D01*
X99345750Y-48069500D01*
X99187000Y-48228250D01*
X98933000Y-48228250D01*
X98774250Y-48069500D01*
X98552000Y-48069500D01*
X98552000Y-45847000D01*
X133350000Y-45847000D01*
X133399410Y-45836994D01*
X133441035Y-45808553D01*
X133468315Y-45766159D01*
X133477000Y-45720000D01*
X133477000Y-42944248D01*
X140223651Y-42944248D01*
X140529922Y-43685481D01*
X141096537Y-44253085D01*
X141837233Y-44560650D01*
X142639248Y-44561349D01*
X143380481Y-44255078D01*
X143948085Y-43688463D01*
X144255650Y-42947767D01*
X144255751Y-42830750D01*
X161036000Y-42830750D01*
X161036000Y-43560310D01*
X161132673Y-43793699D01*
X161311302Y-43972327D01*
X161544691Y-44069000D01*
X162274250Y-44069000D01*
X162433000Y-43910250D01*
X162433000Y-42672000D01*
X162687000Y-42672000D01*
X162687000Y-43910250D01*
X162845750Y-44069000D01*
X163575309Y-44069000D01*
X163808698Y-43972327D01*
X163987327Y-43793699D01*
X164084000Y-43560310D01*
X164084000Y-42830750D01*
X163925250Y-42672000D01*
X162687000Y-42672000D01*
X162433000Y-42672000D01*
X161194750Y-42672000D01*
X161036000Y-42830750D01*
X144255751Y-42830750D01*
X144256349Y-42145752D01*
X144001798Y-41529690D01*
X161036000Y-41529690D01*
X161036000Y-42259250D01*
X161194750Y-42418000D01*
X162433000Y-42418000D01*
X162433000Y-41179750D01*
X162687000Y-41179750D01*
X162687000Y-42418000D01*
X163925250Y-42418000D01*
X164084000Y-42259250D01*
X164084000Y-41529690D01*
X163987327Y-41296301D01*
X163808698Y-41117673D01*
X163575309Y-41021000D01*
X162845750Y-41021000D01*
X162687000Y-41179750D01*
X162433000Y-41179750D01*
X162274250Y-41021000D01*
X161544691Y-41021000D01*
X161311302Y-41117673D01*
X161132673Y-41296301D01*
X161036000Y-41529690D01*
X144001798Y-41529690D01*
X143950078Y-41404519D01*
X143383463Y-40836915D01*
X142642767Y-40529350D01*
X141840752Y-40528651D01*
X141099519Y-40834922D01*
X140531915Y-41401537D01*
X140224350Y-42142233D01*
X140223651Y-42944248D01*
X133477000Y-42944248D01*
X133477000Y-30940838D01*
X145112597Y-30940838D01*
X145466115Y-31796418D01*
X146120139Y-32451585D01*
X146975100Y-32806596D01*
X147900838Y-32807403D01*
X148756418Y-32453885D01*
X149411585Y-31799861D01*
X149766596Y-30944900D01*
X149766752Y-30765750D01*
X153105000Y-30765750D01*
X153105000Y-31806310D01*
X153201673Y-32039699D01*
X153380302Y-32218327D01*
X153613691Y-32315000D01*
X154654250Y-32315000D01*
X154813000Y-32156250D01*
X154813000Y-30607000D01*
X155067000Y-30607000D01*
X155067000Y-32156250D01*
X155225750Y-32315000D01*
X156266309Y-32315000D01*
X156499698Y-32218327D01*
X156678327Y-32039699D01*
X156775000Y-31806310D01*
X156775000Y-30765750D01*
X156616250Y-30607000D01*
X155067000Y-30607000D01*
X154813000Y-30607000D01*
X153263750Y-30607000D01*
X153105000Y-30765750D01*
X149766752Y-30765750D01*
X149767403Y-30019162D01*
X149413885Y-29163582D01*
X149404011Y-29153690D01*
X153105000Y-29153690D01*
X153105000Y-30194250D01*
X153263750Y-30353000D01*
X154813000Y-30353000D01*
X154813000Y-28803750D01*
X155067000Y-28803750D01*
X155067000Y-30353000D01*
X156616250Y-30353000D01*
X156775000Y-30194250D01*
X156775000Y-29153690D01*
X156678327Y-28920301D01*
X156499698Y-28741673D01*
X156266309Y-28645000D01*
X155225750Y-28645000D01*
X155067000Y-28803750D01*
X154813000Y-28803750D01*
X154654250Y-28645000D01*
X153613691Y-28645000D01*
X153380302Y-28741673D01*
X153201673Y-28920301D01*
X153105000Y-29153690D01*
X149404011Y-29153690D01*
X148759861Y-28508415D01*
X147904900Y-28153404D01*
X146979162Y-28152597D01*
X146123582Y-28506115D01*
X145468415Y-29160139D01*
X145113404Y-30015100D01*
X145112597Y-30940838D01*
X133477000Y-30940838D01*
X133477000Y-28027112D01*
X133870250Y-28027455D01*
X134836132Y-27628361D01*
X135575764Y-26890019D01*
X135976543Y-25924835D01*
X135976751Y-25685750D01*
X136295000Y-25685750D01*
X136295000Y-27026310D01*
X136391673Y-27259699D01*
X136570302Y-27438327D01*
X136803691Y-27535000D01*
X138144250Y-27535000D01*
X138303000Y-27376250D01*
X138303000Y-25527000D01*
X138557000Y-25527000D01*
X138557000Y-27376250D01*
X138715750Y-27535000D01*
X140056309Y-27535000D01*
X140289698Y-27438327D01*
X140468327Y-27259699D01*
X140565000Y-27026310D01*
X140565000Y-25685750D01*
X140406250Y-25527000D01*
X138557000Y-25527000D01*
X138303000Y-25527000D01*
X136453750Y-25527000D01*
X136295000Y-25685750D01*
X135976751Y-25685750D01*
X135977455Y-24879750D01*
X135578361Y-23913868D01*
X135438428Y-23773690D01*
X136295000Y-23773690D01*
X136295000Y-25114250D01*
X136453750Y-25273000D01*
X138303000Y-25273000D01*
X138303000Y-23423750D01*
X138557000Y-23423750D01*
X138557000Y-25273000D01*
X140406250Y-25273000D01*
X140565000Y-25114250D01*
X140565000Y-23773690D01*
X140468327Y-23540301D01*
X140289698Y-23361673D01*
X140056309Y-23265000D01*
X138715750Y-23265000D01*
X138557000Y-23423750D01*
X138303000Y-23423750D01*
X138144250Y-23265000D01*
X136803691Y-23265000D01*
X136570302Y-23361673D01*
X136391673Y-23540301D01*
X136295000Y-23773690D01*
X135438428Y-23773690D01*
X134840019Y-23174236D01*
X133874835Y-22773457D01*
X133477000Y-22773110D01*
X133477000Y-21717000D01*
X167513000Y-21717000D01*
X167513000Y-58293000D01*
G36*
X131953000Y-23134810D02*
X131863868Y-23171639D01*
X131124236Y-23909981D01*
X130723457Y-24875165D01*
X130722545Y-25920250D01*
X131121639Y-26886132D01*
X131859981Y-27625764D01*
X131953000Y-27664389D01*
X131953000Y-44323000D01*
X127318691Y-44323000D01*
X127420219Y-44257669D01*
X127677548Y-43881056D01*
X127768079Y-43434000D01*
X127768079Y-41656000D01*
X127689494Y-41238359D01*
X127442669Y-40854781D01*
X127066056Y-40597452D01*
X126619000Y-40506921D01*
X124841000Y-40506921D01*
X124423359Y-40585506D01*
X124039781Y-40832331D01*
X123782452Y-41208944D01*
X123691921Y-41656000D01*
X123691921Y-43434000D01*
X123770506Y-43851641D01*
X124017331Y-44235219D01*
X124145803Y-44323000D01*
X97155000Y-44323000D01*
X97105590Y-44333006D01*
X97063965Y-44361447D01*
X97036685Y-44403841D01*
X97028000Y-44450000D01*
X97028000Y-47626804D01*
X96910080Y-47577839D01*
X96133328Y-47577162D01*
X95415442Y-47873786D01*
X94865716Y-48422553D01*
X94567839Y-49139920D01*
X94567162Y-49916672D01*
X94863786Y-50634558D01*
X95412553Y-51184284D01*
X96129920Y-51482161D01*
X96906672Y-51482838D01*
X97028000Y-51432706D01*
X97028000Y-62230000D01*
X97038006Y-62279410D01*
X97066447Y-62321035D01*
X97108841Y-62348315D01*
X97155000Y-62357000D01*
X99660510Y-62357000D01*
X99781932Y-62967431D01*
X100137783Y-63500000D01*
X99781932Y-64032569D01*
X99635248Y-64770000D01*
X99781932Y-65507431D01*
X100199653Y-66132595D01*
X100824817Y-66550316D01*
X101562248Y-66697000D01*
X101637752Y-66697000D01*
X102375183Y-66550316D01*
X102375560Y-66550064D01*
X102591514Y-67072712D01*
X103104587Y-67586681D01*
X103775292Y-67865183D01*
X104501521Y-67865817D01*
X105103157Y-67617226D01*
X104854817Y-68215292D01*
X104854183Y-68941521D01*
X105131514Y-69612712D01*
X105644587Y-70126681D01*
X106315292Y-70405183D01*
X107041521Y-70405817D01*
X107712712Y-70128486D01*
X108226681Y-69615413D01*
X108424913Y-69138020D01*
X108521500Y-69157579D01*
X109918500Y-69157579D01*
X110336141Y-69078994D01*
X110719719Y-68832169D01*
X110725447Y-68823785D01*
X123613390Y-68823785D01*
X124460000Y-69670395D01*
X125306610Y-68823785D01*
X125229344Y-68575024D01*
X124710060Y-68387480D01*
X138354073Y-68387480D01*
X138382852Y-68917199D01*
X138530200Y-69272929D01*
X138765812Y-69334583D01*
X139520395Y-68580000D01*
X139879605Y-68580000D01*
X140634188Y-69334583D01*
X140869800Y-69272929D01*
X140986444Y-68941521D01*
X142954183Y-68941521D01*
X143231514Y-69612712D01*
X143744587Y-70126681D01*
X144415292Y-70405183D01*
X145141521Y-70405817D01*
X145812712Y-70128486D01*
X146326681Y-69615413D01*
X146605183Y-68944708D01*
X146605817Y-68218479D01*
X146328486Y-67547288D01*
X145815413Y-67033319D01*
X145144708Y-66754817D01*
X144418479Y-66754183D01*
X143747288Y-67031514D01*
X143233319Y-67544587D01*
X142954817Y-68215292D01*
X142954183Y-68941521D01*
X140986444Y-68941521D01*
X141045927Y-68772520D01*
X141017148Y-68242801D01*
X140869800Y-67887071D01*
X140634188Y-67825417D01*
X139879605Y-68580000D01*
X139520395Y-68580000D01*
X138765812Y-67825417D01*
X138530200Y-67887071D01*
X138354073Y-68387480D01*
X124710060Y-68387480D01*
X124682869Y-68377660D01*
X124102465Y-68404447D01*
X123690656Y-68575024D01*
X123613390Y-68823785D01*
X110725447Y-68823785D01*
X110977048Y-68455556D01*
X111019851Y-68244188D01*
X118625417Y-68244188D01*
X118687071Y-68479800D01*
X119187480Y-68655927D01*
X119717199Y-68627148D01*
X120072929Y-68479800D01*
X120134583Y-68244188D01*
X119380000Y-67489605D01*
X118625417Y-68244188D01*
X111019851Y-68244188D01*
X111067579Y-68008500D01*
X111067579Y-67117480D01*
X118034073Y-67117480D01*
X118062852Y-67647199D01*
X118210200Y-68002929D01*
X118445812Y-68064583D01*
X119200395Y-67310000D01*
X119559605Y-67310000D01*
X120314188Y-68064583D01*
X120549800Y-68002929D01*
X120675493Y-67645812D01*
X138945417Y-67645812D01*
X139700000Y-68400395D01*
X140454583Y-67645812D01*
X140392929Y-67410200D01*
X139892520Y-67234073D01*
X139362801Y-67262852D01*
X139007071Y-67410200D01*
X138945417Y-67645812D01*
X120675493Y-67645812D01*
X120725927Y-67502520D01*
X120697148Y-66972801D01*
X120549800Y-66617071D01*
X120314188Y-66555417D01*
X119559605Y-67310000D01*
X119200395Y-67310000D01*
X118445812Y-66555417D01*
X118210200Y-66617071D01*
X118034073Y-67117480D01*
X111067579Y-67117480D01*
X111067579Y-66611500D01*
X111023232Y-66375812D01*
X118625417Y-66375812D01*
X119380000Y-67130395D01*
X120134583Y-66375812D01*
X120072929Y-66140200D01*
X119572520Y-65964073D01*
X119042801Y-65992852D01*
X118687071Y-66140200D01*
X118625417Y-66375812D01*
X111023232Y-66375812D01*
X110988994Y-66193859D01*
X110742169Y-65810281D01*
X110365556Y-65552952D01*
X109918500Y-65462421D01*
X108521500Y-65462421D01*
X108103859Y-65541006D01*
X107720281Y-65787831D01*
X107462952Y-66164444D01*
X107372421Y-66611500D01*
X107372421Y-66890896D01*
X107044708Y-66754817D01*
X106318479Y-66754183D01*
X105716843Y-67002774D01*
X105965183Y-66404708D01*
X105965817Y-65678479D01*
X105688486Y-65007288D01*
X105175413Y-64493319D01*
X104504708Y-64214817D01*
X103778479Y-64214183D01*
X103478822Y-64337999D01*
X103418068Y-64032569D01*
X103062217Y-63500000D01*
X103224318Y-63257398D01*
X103226514Y-63262712D01*
X103739587Y-63776681D01*
X104410292Y-64055183D01*
X105136521Y-64055817D01*
X105807712Y-63778486D01*
X106044964Y-63541648D01*
X106279587Y-63776681D01*
X106950292Y-64055183D01*
X107676521Y-64055817D01*
X108347712Y-63778486D01*
X108861681Y-63265413D01*
X109140183Y-62594708D01*
X109140391Y-62357000D01*
X109220000Y-62357000D01*
X109269410Y-62346994D01*
X109311035Y-62318553D01*
X109338315Y-62276159D01*
X109347000Y-62230000D01*
X109347000Y-59817000D01*
X123190000Y-59817000D01*
X123239410Y-59806994D01*
X123281035Y-59778553D01*
X123308315Y-59736159D01*
X123317000Y-59690000D01*
X123317000Y-58991500D01*
X132772421Y-58991500D01*
X132772421Y-60388500D01*
X132851006Y-60806141D01*
X133090151Y-61177784D01*
X133073319Y-61194587D01*
X132794817Y-61865292D01*
X132794183Y-62591521D01*
X133071514Y-63262712D01*
X133584587Y-63776681D01*
X134255292Y-64055183D01*
X134981521Y-64055817D01*
X135351328Y-63903015D01*
X135611514Y-64532712D01*
X136124587Y-65046681D01*
X136795292Y-65325183D01*
X137521521Y-65325817D01*
X138192712Y-65048486D01*
X138344460Y-64897002D01*
X138430084Y-64897002D01*
X138308096Y-65119039D01*
X138468959Y-65507423D01*
X138844866Y-65922389D01*
X139350959Y-66161914D01*
X139573000Y-66040629D01*
X139573000Y-64897000D01*
X139827000Y-64897000D01*
X139827000Y-66040629D01*
X140049041Y-66161914D01*
X140555134Y-65922389D01*
X140931041Y-65507423D01*
X141091904Y-65119039D01*
X140969915Y-64897000D01*
X139827000Y-64897000D01*
X139573000Y-64897000D01*
X139553000Y-64897000D01*
X139553000Y-64643000D01*
X139573000Y-64643000D01*
X139573000Y-64623000D01*
X139827000Y-64623000D01*
X139827000Y-64643000D01*
X140969915Y-64643000D01*
X141091904Y-64420961D01*
X140931041Y-64032577D01*
X140746594Y-63828965D01*
X141100347Y-63592595D01*
X141518068Y-62967431D01*
X141664752Y-62230000D01*
X141518068Y-61492569D01*
X141162217Y-60960000D01*
X141518068Y-60427431D01*
X141664752Y-59690000D01*
X141518068Y-58952569D01*
X141350418Y-58701663D01*
X141558548Y-58397056D01*
X141649079Y-57950000D01*
X141649079Y-56350000D01*
X141570494Y-55932359D01*
X141323669Y-55548781D01*
X140947056Y-55291452D01*
X140500000Y-55200921D01*
X138900000Y-55200921D01*
X138482359Y-55279506D01*
X138098781Y-55526331D01*
X137841452Y-55902944D01*
X137750921Y-56350000D01*
X137750921Y-56688749D01*
X137524708Y-56594817D01*
X136798479Y-56594183D01*
X136127288Y-56871514D01*
X135613319Y-57384587D01*
X135415087Y-57861980D01*
X135318500Y-57842421D01*
X133921500Y-57842421D01*
X133503859Y-57921006D01*
X133120281Y-58167831D01*
X132862952Y-58544444D01*
X132772421Y-58991500D01*
X123317000Y-58991500D01*
X123317000Y-54737000D01*
X142748000Y-54737000D01*
X142748000Y-62230000D01*
X142758006Y-62279410D01*
X142786447Y-62321035D01*
X142828841Y-62348315D01*
X142875000Y-62357000D01*
X145380510Y-62357000D01*
X145501932Y-62967431D01*
X145857783Y-63500000D01*
X145501932Y-64032569D01*
X145355248Y-64770000D01*
X145501932Y-65507431D01*
X145919653Y-66132595D01*
X146544817Y-66550316D01*
X147282248Y-66697000D01*
X147357752Y-66697000D01*
X148095183Y-66550316D01*
X148095560Y-66550064D01*
X148311514Y-67072712D01*
X148824587Y-67586681D01*
X149495292Y-67865183D01*
X150221521Y-67865817D01*
X150823157Y-67617226D01*
X150574817Y-68215292D01*
X150574183Y-68941521D01*
X150851514Y-69612712D01*
X151364587Y-70126681D01*
X152035292Y-70405183D01*
X152761521Y-70405817D01*
X153432712Y-70128486D01*
X153946681Y-69615413D01*
X154144913Y-69138020D01*
X154241500Y-69157579D01*
X155638500Y-69157579D01*
X156056141Y-69078994D01*
X156439719Y-68832169D01*
X156445447Y-68823785D01*
X169333390Y-68823785D01*
X170180000Y-69670395D01*
X171026610Y-68823785D01*
X170949344Y-68575024D01*
X170402869Y-68377660D01*
X169822465Y-68404447D01*
X169410656Y-68575024D01*
X169333390Y-68823785D01*
X156445447Y-68823785D01*
X156697048Y-68455556D01*
X156739851Y-68244188D01*
X164345417Y-68244188D01*
X164407071Y-68479800D01*
X164907480Y-68655927D01*
X165437199Y-68627148D01*
X165792929Y-68479800D01*
X165854583Y-68244188D01*
X165100000Y-67489605D01*
X164345417Y-68244188D01*
X156739851Y-68244188D01*
X156787579Y-68008500D01*
X156787579Y-67117480D01*
X163754073Y-67117480D01*
X163782852Y-67647199D01*
X163930200Y-68002929D01*
X164165812Y-68064583D01*
X164920395Y-67310000D01*
X165279605Y-67310000D01*
X166034188Y-68064583D01*
X166269800Y-68002929D01*
X166445927Y-67502520D01*
X166417148Y-66972801D01*
X166269800Y-66617071D01*
X166034188Y-66555417D01*
X165279605Y-67310000D01*
X164920395Y-67310000D01*
X164165812Y-66555417D01*
X163930200Y-66617071D01*
X163754073Y-67117480D01*
X156787579Y-67117480D01*
X156787579Y-66611500D01*
X156743232Y-66375812D01*
X164345417Y-66375812D01*
X165100000Y-67130395D01*
X165854583Y-66375812D01*
X165792929Y-66140200D01*
X165292520Y-65964073D01*
X164762801Y-65992852D01*
X164407071Y-66140200D01*
X164345417Y-66375812D01*
X156743232Y-66375812D01*
X156708994Y-66193859D01*
X156462169Y-65810281D01*
X156085556Y-65552952D01*
X155638500Y-65462421D01*
X154241500Y-65462421D01*
X153823859Y-65541006D01*
X153440281Y-65787831D01*
X153182952Y-66164444D01*
X153092421Y-66611500D01*
X153092421Y-66890896D01*
X152764708Y-66754817D01*
X152038479Y-66754183D01*
X151436843Y-67002774D01*
X151685183Y-66404708D01*
X151685817Y-65678479D01*
X151408486Y-65007288D01*
X150895413Y-64493319D01*
X150224708Y-64214817D01*
X149498479Y-64214183D01*
X149198822Y-64337999D01*
X149138068Y-64032569D01*
X148782217Y-63500000D01*
X148944318Y-63257398D01*
X148946514Y-63262712D01*
X149459587Y-63776681D01*
X150130292Y-64055183D01*
X150856521Y-64055817D01*
X151527712Y-63778486D01*
X151764964Y-63541648D01*
X151999587Y-63776681D01*
X152670292Y-64055183D01*
X153396521Y-64055817D01*
X154067712Y-63778486D01*
X154581681Y-63265413D01*
X154860183Y-62594708D01*
X154860391Y-62357000D01*
X154940000Y-62357000D01*
X154989410Y-62346994D01*
X155031035Y-62318553D01*
X155058315Y-62276159D01*
X155067000Y-62230000D01*
X155067000Y-59817000D01*
X168910000Y-59817000D01*
X168959410Y-59806994D01*
X169001035Y-59778553D01*
X169028315Y-59736159D01*
X169037000Y-59690000D01*
X169037000Y-53980284D01*
X169354500Y-54044579D01*
X171005500Y-54044579D01*
X171423141Y-53965994D01*
X171806719Y-53719169D01*
X172064048Y-53342556D01*
X172154579Y-52895500D01*
X172154579Y-51244500D01*
X172075994Y-50826859D01*
X171881281Y-50524266D01*
X172132161Y-49920080D01*
X172132838Y-49143328D01*
X171836214Y-48425442D01*
X171287447Y-47875716D01*
X170570080Y-47577839D01*
X169793328Y-47577162D01*
X169075442Y-47873786D01*
X169037000Y-47912161D01*
X169037000Y-21717000D01*
X178823000Y-21717000D01*
X178823000Y-87503000D01*
X86487000Y-87503000D01*
X86487000Y-84712394D01*
X86576331Y-84851219D01*
X86952944Y-85108548D01*
X87400000Y-85199079D01*
X90400000Y-85199079D01*
X90817641Y-85120494D01*
X91201219Y-84873669D01*
X91458548Y-84497056D01*
X91549079Y-84050000D01*
X91549079Y-83545899D01*
X91751639Y-84036132D01*
X92489981Y-84775764D01*
X93455165Y-85176543D01*
X94500250Y-85177455D01*
X95466132Y-84778361D01*
X96064014Y-84181521D01*
X102314183Y-84181521D01*
X102591514Y-84852712D01*
X103104587Y-85366681D01*
X103775292Y-85645183D01*
X104501521Y-85645817D01*
X105172712Y-85368486D01*
X105686681Y-84855413D01*
X105965183Y-84184708D01*
X105965817Y-83458479D01*
X105688486Y-82787288D01*
X105175413Y-82273319D01*
X104504708Y-81994817D01*
X103778479Y-81994183D01*
X103107288Y-82271514D01*
X102593319Y-82784587D01*
X102314817Y-83455292D01*
X102314183Y-84181521D01*
X96064014Y-84181521D01*
X96205764Y-84040019D01*
X96606543Y-83074835D01*
X96607455Y-82029750D01*
X96208361Y-81063868D01*
X96194518Y-81050000D01*
X106570921Y-81050000D01*
X106570921Y-84050000D01*
X106649506Y-84467641D01*
X106896331Y-84851219D01*
X107272944Y-85108548D01*
X107720000Y-85199079D01*
X110720000Y-85199079D01*
X111137641Y-85120494D01*
X111521219Y-84873669D01*
X111778548Y-84497056D01*
X111869079Y-84050000D01*
X111869079Y-83545899D01*
X112071639Y-84036132D01*
X112809981Y-84775764D01*
X113775165Y-85176543D01*
X114820250Y-85177455D01*
X115786132Y-84778361D01*
X116525764Y-84040019D01*
X116926543Y-83074835D01*
X116927455Y-82029750D01*
X116528361Y-81063868D01*
X116514518Y-81050000D01*
X131970921Y-81050000D01*
X131970921Y-84050000D01*
X132049506Y-84467641D01*
X132296331Y-84851219D01*
X132672944Y-85108548D01*
X133120000Y-85199079D01*
X136120000Y-85199079D01*
X136537641Y-85120494D01*
X136921219Y-84873669D01*
X137178548Y-84497056D01*
X137269079Y-84050000D01*
X137269079Y-83545899D01*
X137471639Y-84036132D01*
X138209981Y-84775764D01*
X139175165Y-85176543D01*
X140220250Y-85177455D01*
X141186132Y-84778361D01*
X141784014Y-84181521D01*
X148034183Y-84181521D01*
X148311514Y-84852712D01*
X148824587Y-85366681D01*
X149495292Y-85645183D01*
X150221521Y-85645817D01*
X150892712Y-85368486D01*
X151406681Y-84855413D01*
X151685183Y-84184708D01*
X151685817Y-83458479D01*
X151408486Y-82787288D01*
X150895413Y-82273319D01*
X150224708Y-81994817D01*
X149498479Y-81994183D01*
X148827288Y-82271514D01*
X148313319Y-82784587D01*
X148034817Y-83455292D01*
X148034183Y-84181521D01*
X141784014Y-84181521D01*
X141925764Y-84040019D01*
X142326543Y-83074835D01*
X142327455Y-82029750D01*
X141928361Y-81063868D01*
X141914518Y-81050000D01*
X152290921Y-81050000D01*
X152290921Y-84050000D01*
X152369506Y-84467641D01*
X152616331Y-84851219D01*
X152992944Y-85108548D01*
X153440000Y-85199079D01*
X156440000Y-85199079D01*
X156857641Y-85120494D01*
X157241219Y-84873669D01*
X157498548Y-84497056D01*
X157589079Y-84050000D01*
X157589079Y-83545899D01*
X157791639Y-84036132D01*
X158529981Y-84775764D01*
X159495165Y-85176543D01*
X160540250Y-85177455D01*
X161506132Y-84778361D01*
X162245764Y-84040019D01*
X162646543Y-83074835D01*
X162647455Y-82029750D01*
X162248361Y-81063868D01*
X161510019Y-80324236D01*
X160544835Y-79923457D01*
X159499750Y-79922545D01*
X158533868Y-80321639D01*
X157794236Y-81059981D01*
X157589079Y-81554054D01*
X157589079Y-81050000D01*
X157510494Y-80632359D01*
X157263669Y-80248781D01*
X156887056Y-79991452D01*
X156440000Y-79900921D01*
X153440000Y-79900921D01*
X153022359Y-79979506D01*
X152638781Y-80226331D01*
X152381452Y-80602944D01*
X152290921Y-81050000D01*
X141914518Y-81050000D01*
X141190019Y-80324236D01*
X140224835Y-79923457D01*
X139179750Y-79922545D01*
X138213868Y-80321639D01*
X137474236Y-81059981D01*
X137269079Y-81554054D01*
X137269079Y-81050000D01*
X137190494Y-80632359D01*
X136943669Y-80248781D01*
X136567056Y-79991452D01*
X136120000Y-79900921D01*
X133120000Y-79900921D01*
X132702359Y-79979506D01*
X132318781Y-80226331D01*
X132061452Y-80602944D01*
X131970921Y-81050000D01*
X116514518Y-81050000D01*
X115790019Y-80324236D01*
X114824835Y-79923457D01*
X113779750Y-79922545D01*
X112813868Y-80321639D01*
X112074236Y-81059981D01*
X111869079Y-81554054D01*
X111869079Y-81050000D01*
X111790494Y-80632359D01*
X111543669Y-80248781D01*
X111167056Y-79991452D01*
X110720000Y-79900921D01*
X107720000Y-79900921D01*
X107302359Y-79979506D01*
X106918781Y-80226331D01*
X106661452Y-80602944D01*
X106570921Y-81050000D01*
X96194518Y-81050000D01*
X95470019Y-80324236D01*
X94504835Y-79923457D01*
X93459750Y-79922545D01*
X92493868Y-80321639D01*
X91754236Y-81059981D01*
X91549079Y-81554054D01*
X91549079Y-81050000D01*
X91470494Y-80632359D01*
X91223669Y-80248781D01*
X90847056Y-79991452D01*
X90400000Y-79900921D01*
X87400000Y-79900921D01*
X86982359Y-79979506D01*
X86598781Y-80226331D01*
X86487000Y-80389928D01*
X86487000Y-77134188D01*
X93225417Y-77134188D01*
X93287071Y-77369800D01*
X93787480Y-77545927D01*
X94317199Y-77517148D01*
X94672929Y-77369800D01*
X94734583Y-77134188D01*
X93980000Y-76379605D01*
X93225417Y-77134188D01*
X86487000Y-77134188D01*
X86487000Y-76007480D01*
X92634073Y-76007480D01*
X92662852Y-76537199D01*
X92810200Y-76892929D01*
X93045812Y-76954583D01*
X93800395Y-76200000D01*
X94159605Y-76200000D01*
X94914188Y-76954583D01*
X95149800Y-76892929D01*
X95325927Y-76392520D01*
X95297148Y-75862801D01*
X95149800Y-75507071D01*
X94914188Y-75445417D01*
X94159605Y-76200000D01*
X93800395Y-76200000D01*
X93045812Y-75445417D01*
X92810200Y-75507071D01*
X92634073Y-76007480D01*
X86487000Y-76007480D01*
X86487000Y-75265812D01*
X93225417Y-75265812D01*
X93980000Y-76020395D01*
X94734583Y-75265812D01*
X94672929Y-75030200D01*
X94172520Y-74854073D01*
X93642801Y-74882852D01*
X93287071Y-75030200D01*
X93225417Y-75265812D01*
X86487000Y-75265812D01*
X86487000Y-74707131D01*
X96317660Y-74707131D01*
X96344447Y-75287535D01*
X96515024Y-75699344D01*
X96763785Y-75776610D01*
X97610395Y-74930000D01*
X96763785Y-74083390D01*
X96515024Y-74160656D01*
X96317660Y-74707131D01*
X86487000Y-74707131D01*
X86487000Y-71691500D01*
X87052421Y-71691500D01*
X87052421Y-73088500D01*
X87131006Y-73506141D01*
X87377831Y-73889719D01*
X87754444Y-74147048D01*
X88201500Y-74237579D01*
X89598500Y-74237579D01*
X90016141Y-74158994D01*
X90399719Y-73912169D01*
X90405447Y-73903785D01*
X96943390Y-73903785D01*
X97790000Y-74750395D01*
X97804143Y-74736253D01*
X97983748Y-74915858D01*
X97969605Y-74930000D01*
X97983748Y-74944143D01*
X97804143Y-75123748D01*
X97790000Y-75109605D01*
X96943390Y-75956215D01*
X97020656Y-76204976D01*
X97567131Y-76402340D01*
X98147535Y-76375553D01*
X98476557Y-76239267D01*
X98680831Y-76556719D01*
X99057444Y-76814048D01*
X99504500Y-76904579D01*
X101155500Y-76904579D01*
X101573141Y-76825994D01*
X101956719Y-76579169D01*
X102214048Y-76202556D01*
X102304579Y-75755500D01*
X102304579Y-74104500D01*
X102288966Y-74021521D01*
X102314183Y-74021521D01*
X102591514Y-74692712D01*
X102828352Y-74929964D01*
X102593319Y-75164587D01*
X102314817Y-75835292D01*
X102314183Y-76561521D01*
X102591514Y-77232712D01*
X103104587Y-77746681D01*
X103775292Y-78025183D01*
X104501521Y-78025817D01*
X105172712Y-77748486D01*
X105686681Y-77235413D01*
X105965183Y-76564708D01*
X105965185Y-76561521D01*
X137874183Y-76561521D01*
X138151514Y-77232712D01*
X138664587Y-77746681D01*
X139335292Y-78025183D01*
X140061521Y-78025817D01*
X140732712Y-77748486D01*
X141246681Y-77235413D01*
X141525183Y-76564708D01*
X141525817Y-75838479D01*
X141248486Y-75167288D01*
X140789132Y-74707131D01*
X142037660Y-74707131D01*
X142064447Y-75287535D01*
X142235024Y-75699344D01*
X142483785Y-75776610D01*
X143330395Y-74930000D01*
X142483785Y-74083390D01*
X142235024Y-74160656D01*
X142037660Y-74707131D01*
X140789132Y-74707131D01*
X140735413Y-74653319D01*
X140064708Y-74374817D01*
X139338479Y-74374183D01*
X138667288Y-74651514D01*
X138153319Y-75164587D01*
X137874817Y-75835292D01*
X137874183Y-76561521D01*
X105965185Y-76561521D01*
X105965817Y-75838479D01*
X105688486Y-75167288D01*
X105451648Y-74930036D01*
X105686681Y-74695413D01*
X105965183Y-74024708D01*
X105965817Y-73298479D01*
X105688486Y-72627288D01*
X105175413Y-72113319D01*
X104504708Y-71834817D01*
X103778479Y-71834183D01*
X103107288Y-72111514D01*
X102593319Y-72624587D01*
X102314817Y-73295292D01*
X102314183Y-74021521D01*
X102288966Y-74021521D01*
X102225994Y-73686859D01*
X101979169Y-73303281D01*
X101602556Y-73045952D01*
X101155500Y-72955421D01*
X99504500Y-72955421D01*
X99086859Y-73034006D01*
X98703281Y-73280831D01*
X98469722Y-73622656D01*
X98012869Y-73457660D01*
X97432465Y-73484447D01*
X97020656Y-73655024D01*
X96943390Y-73903785D01*
X90405447Y-73903785D01*
X90657048Y-73535556D01*
X90747579Y-73088500D01*
X90747579Y-72809104D01*
X91075292Y-72945183D01*
X91801521Y-72945817D01*
X92472712Y-72668486D01*
X92986681Y-72155413D01*
X93232050Y-71564500D01*
X122485421Y-71564500D01*
X122485421Y-73215500D01*
X122564006Y-73633141D01*
X122810831Y-74016719D01*
X123187444Y-74274048D01*
X123634500Y-74364579D01*
X125285500Y-74364579D01*
X125703141Y-74285994D01*
X126086719Y-74039169D01*
X126344048Y-73662556D01*
X126434579Y-73215500D01*
X126434579Y-71691500D01*
X132772421Y-71691500D01*
X132772421Y-73088500D01*
X132851006Y-73506141D01*
X133097831Y-73889719D01*
X133474444Y-74147048D01*
X133921500Y-74237579D01*
X135318500Y-74237579D01*
X135736141Y-74158994D01*
X136119719Y-73912169D01*
X136125447Y-73903785D01*
X142663390Y-73903785D01*
X143510000Y-74750395D01*
X143524143Y-74736253D01*
X143703748Y-74915858D01*
X143689605Y-74930000D01*
X143703748Y-74944143D01*
X143524143Y-75123748D01*
X143510000Y-75109605D01*
X142663390Y-75956215D01*
X142740656Y-76204976D01*
X143287131Y-76402340D01*
X143867535Y-76375553D01*
X144196557Y-76239267D01*
X144400831Y-76556719D01*
X144777444Y-76814048D01*
X145224500Y-76904579D01*
X146875500Y-76904579D01*
X147293141Y-76825994D01*
X147676719Y-76579169D01*
X147934048Y-76202556D01*
X148024579Y-75755500D01*
X148024579Y-74104500D01*
X148008966Y-74021521D01*
X148034183Y-74021521D01*
X148311514Y-74692712D01*
X148548352Y-74929964D01*
X148313319Y-75164587D01*
X148034817Y-75835292D01*
X148034183Y-76561521D01*
X148311514Y-77232712D01*
X148824587Y-77746681D01*
X149495292Y-78025183D01*
X150221521Y-78025817D01*
X150892712Y-77748486D01*
X151406681Y-77235413D01*
X151685183Y-76564708D01*
X151685817Y-75838479D01*
X151408486Y-75167288D01*
X151171648Y-74930036D01*
X151406681Y-74695413D01*
X151685183Y-74024708D01*
X151685817Y-73298479D01*
X151408486Y-72627288D01*
X150895413Y-72113319D01*
X150224708Y-71834817D01*
X149498479Y-71834183D01*
X148827288Y-72111514D01*
X148313319Y-72624587D01*
X148034817Y-73295292D01*
X148034183Y-74021521D01*
X148008966Y-74021521D01*
X147945994Y-73686859D01*
X147699169Y-73303281D01*
X147322556Y-73045952D01*
X146875500Y-72955421D01*
X145224500Y-72955421D01*
X144806859Y-73034006D01*
X144423281Y-73280831D01*
X144189722Y-73622656D01*
X143732869Y-73457660D01*
X143152465Y-73484447D01*
X142740656Y-73655024D01*
X142663390Y-73903785D01*
X136125447Y-73903785D01*
X136377048Y-73535556D01*
X136467579Y-73088500D01*
X136467579Y-72809104D01*
X136795292Y-72945183D01*
X137521521Y-72945817D01*
X138192712Y-72668486D01*
X138706681Y-72155413D01*
X138952050Y-71564500D01*
X168205421Y-71564500D01*
X168205421Y-73215500D01*
X168284006Y-73633141D01*
X168530831Y-74016719D01*
X168907444Y-74274048D01*
X169354500Y-74364579D01*
X171005500Y-74364579D01*
X171423141Y-74285994D01*
X171806719Y-74039169D01*
X172064048Y-73662556D01*
X172154579Y-73215500D01*
X172154579Y-71564500D01*
X172075994Y-71146859D01*
X171829169Y-70763281D01*
X171487344Y-70529722D01*
X171652340Y-70072869D01*
X171625553Y-69492465D01*
X171454976Y-69080656D01*
X171206215Y-69003390D01*
X170359605Y-69850000D01*
X170373748Y-69864143D01*
X170194143Y-70043748D01*
X170180000Y-70029605D01*
X170165858Y-70043748D01*
X169986253Y-69864143D01*
X170000395Y-69850000D01*
X169153785Y-69003390D01*
X168905024Y-69080656D01*
X168707660Y-69627131D01*
X168734447Y-70207535D01*
X168870733Y-70536557D01*
X168553281Y-70740831D01*
X168295952Y-71117444D01*
X168205421Y-71564500D01*
X138952050Y-71564500D01*
X138985183Y-71484708D01*
X138985817Y-70758479D01*
X138708486Y-70087288D01*
X138195413Y-69573319D01*
X138053011Y-69514188D01*
X138945417Y-69514188D01*
X139007071Y-69749800D01*
X139507480Y-69925927D01*
X140037199Y-69897148D01*
X140392929Y-69749800D01*
X140454583Y-69514188D01*
X139700000Y-68759605D01*
X138945417Y-69514188D01*
X138053011Y-69514188D01*
X137524708Y-69294817D01*
X136798479Y-69294183D01*
X136127288Y-69571514D01*
X135613319Y-70084587D01*
X135415087Y-70561980D01*
X135318500Y-70542421D01*
X133921500Y-70542421D01*
X133503859Y-70621006D01*
X133120281Y-70867831D01*
X132862952Y-71244444D01*
X132772421Y-71691500D01*
X126434579Y-71691500D01*
X126434579Y-71564500D01*
X126355994Y-71146859D01*
X126109169Y-70763281D01*
X125767344Y-70529722D01*
X125932340Y-70072869D01*
X125905553Y-69492465D01*
X125734976Y-69080656D01*
X125486215Y-69003390D01*
X124639605Y-69850000D01*
X124653748Y-69864143D01*
X124474143Y-70043748D01*
X124460000Y-70029605D01*
X124445858Y-70043748D01*
X124266253Y-69864143D01*
X124280395Y-69850000D01*
X123433785Y-69003390D01*
X123185024Y-69080656D01*
X122987660Y-69627131D01*
X123014447Y-70207535D01*
X123150733Y-70536557D01*
X122833281Y-70740831D01*
X122575952Y-71117444D01*
X122485421Y-71564500D01*
X93232050Y-71564500D01*
X93265183Y-71484708D01*
X93265817Y-70758479D01*
X93017226Y-70156843D01*
X93615292Y-70405183D01*
X94341521Y-70405817D01*
X95012712Y-70128486D01*
X95526681Y-69615413D01*
X95805183Y-68944708D01*
X95805185Y-68941521D01*
X97234183Y-68941521D01*
X97511514Y-69612712D01*
X98024587Y-70126681D01*
X98695292Y-70405183D01*
X99421521Y-70405817D01*
X100092712Y-70128486D01*
X100606681Y-69615413D01*
X100885183Y-68944708D01*
X100885817Y-68218479D01*
X100608486Y-67547288D01*
X100095413Y-67033319D01*
X99424708Y-66754817D01*
X98698479Y-66754183D01*
X98027288Y-67031514D01*
X97513319Y-67544587D01*
X97234817Y-68215292D01*
X97234183Y-68941521D01*
X95805185Y-68941521D01*
X95805817Y-68218479D01*
X95528486Y-67547288D01*
X95015413Y-67033319D01*
X94344708Y-66754817D01*
X93618479Y-66754183D01*
X92947288Y-67031514D01*
X92433319Y-67544587D01*
X92154817Y-68215292D01*
X92154183Y-68941521D01*
X92402774Y-69543157D01*
X91804708Y-69294817D01*
X91078479Y-69294183D01*
X90407288Y-69571514D01*
X89893319Y-70084587D01*
X89695087Y-70561980D01*
X89598500Y-70542421D01*
X88201500Y-70542421D01*
X87783859Y-70621006D01*
X87400281Y-70867831D01*
X87142952Y-71244444D01*
X87052421Y-71691500D01*
X86487000Y-71691500D01*
X86487000Y-58991500D01*
X87052421Y-58991500D01*
X87052421Y-60388500D01*
X87131006Y-60806141D01*
X87370151Y-61177784D01*
X87353319Y-61194587D01*
X87074817Y-61865292D01*
X87074183Y-62591521D01*
X87351514Y-63262712D01*
X87864587Y-63776681D01*
X88535292Y-64055183D01*
X89261521Y-64055817D01*
X89631328Y-63903015D01*
X89891514Y-64532712D01*
X90404587Y-65046681D01*
X91075292Y-65325183D01*
X91801521Y-65325817D01*
X92472712Y-65048486D01*
X92624460Y-64897002D01*
X92710084Y-64897002D01*
X92588096Y-65119039D01*
X92748959Y-65507423D01*
X93124866Y-65922389D01*
X93630959Y-66161914D01*
X93853000Y-66040629D01*
X93853000Y-64897000D01*
X94107000Y-64897000D01*
X94107000Y-66040629D01*
X94329041Y-66161914D01*
X94835134Y-65922389D01*
X95211041Y-65507423D01*
X95371904Y-65119039D01*
X95249915Y-64897000D01*
X94107000Y-64897000D01*
X93853000Y-64897000D01*
X93833000Y-64897000D01*
X93833000Y-64643000D01*
X93853000Y-64643000D01*
X93853000Y-64623000D01*
X94107000Y-64623000D01*
X94107000Y-64643000D01*
X95249915Y-64643000D01*
X95371904Y-64420961D01*
X95211041Y-64032577D01*
X95026594Y-63828965D01*
X95380347Y-63592595D01*
X95798068Y-62967431D01*
X95944752Y-62230000D01*
X95798068Y-61492569D01*
X95442217Y-60960000D01*
X95798068Y-60427431D01*
X95944752Y-59690000D01*
X95798068Y-58952569D01*
X95630418Y-58701663D01*
X95838548Y-58397056D01*
X95929079Y-57950000D01*
X95929079Y-56350000D01*
X95850494Y-55932359D01*
X95603669Y-55548781D01*
X95227056Y-55291452D01*
X94780000Y-55200921D01*
X93180000Y-55200921D01*
X92762359Y-55279506D01*
X92378781Y-55526331D01*
X92121452Y-55902944D01*
X92030921Y-56350000D01*
X92030921Y-56688749D01*
X91804708Y-56594817D01*
X91078479Y-56594183D01*
X90407288Y-56871514D01*
X89893319Y-57384587D01*
X89695087Y-57861980D01*
X89598500Y-57842421D01*
X88201500Y-57842421D01*
X87783859Y-57921006D01*
X87400281Y-58167831D01*
X87142952Y-58544444D01*
X87052421Y-58991500D01*
X86487000Y-58991500D01*
X86487000Y-49891521D01*
X87074183Y-49891521D01*
X87351514Y-50562712D01*
X87864587Y-51076681D01*
X88535292Y-51355183D01*
X89261521Y-51355817D01*
X89631328Y-51203015D01*
X89891514Y-51832712D01*
X90404587Y-52346681D01*
X91075292Y-52625183D01*
X91801521Y-52625817D01*
X92472712Y-52348486D01*
X92986681Y-51835413D01*
X93265183Y-51164708D01*
X93265817Y-50438479D01*
X92988486Y-49767288D01*
X92475413Y-49253319D01*
X91804708Y-48974817D01*
X91078479Y-48974183D01*
X90708672Y-49126985D01*
X90448486Y-48497288D01*
X89935413Y-47983319D01*
X89264708Y-47704817D01*
X88538479Y-47704183D01*
X87867288Y-47981514D01*
X87353319Y-48494587D01*
X87074817Y-49165292D01*
X87074183Y-49891521D01*
X86487000Y-49891521D01*
X86487000Y-43617196D01*
X104517409Y-43617196D01*
X104602467Y-43872539D01*
X105171965Y-44080516D01*
X105777700Y-44054723D01*
X106217533Y-43872539D01*
X106302591Y-43617196D01*
X105410000Y-42724605D01*
X104517409Y-43617196D01*
X86487000Y-43617196D01*
X86487000Y-42306965D01*
X103874484Y-42306965D01*
X103900277Y-42912700D01*
X104082461Y-43352533D01*
X104337804Y-43437591D01*
X105230395Y-42545000D01*
X105589605Y-42545000D01*
X106482196Y-43437591D01*
X106737539Y-43352533D01*
X106945516Y-42783035D01*
X106919723Y-42177300D01*
X106737539Y-41737467D01*
X106482196Y-41652409D01*
X105589605Y-42545000D01*
X105230395Y-42545000D01*
X104337804Y-41652409D01*
X104082461Y-41737467D01*
X103874484Y-42306965D01*
X86487000Y-42306965D01*
X86487000Y-41472804D01*
X104517409Y-41472804D01*
X105410000Y-42365395D01*
X106302591Y-41472804D01*
X106217533Y-41217461D01*
X105648035Y-41009484D01*
X105042300Y-41035277D01*
X104602467Y-41217461D01*
X104517409Y-41472804D01*
X86487000Y-41472804D01*
X86487000Y-31777175D01*
X109492430Y-31777175D01*
X109615565Y-32064788D01*
X110297734Y-32324707D01*
X111027443Y-32303786D01*
X111604435Y-32064788D01*
X111727570Y-31777175D01*
X110610000Y-30659605D01*
X109492430Y-31777175D01*
X86487000Y-31777175D01*
X86487000Y-30167734D01*
X108765293Y-30167734D01*
X108786214Y-30897443D01*
X109025212Y-31474435D01*
X109312825Y-31597570D01*
X110430395Y-30480000D01*
X110789605Y-30480000D01*
X111907175Y-31597570D01*
X112194788Y-31474435D01*
X112454707Y-30792266D01*
X112433786Y-30062557D01*
X112194788Y-29485565D01*
X111907175Y-29362430D01*
X110789605Y-30480000D01*
X110430395Y-30480000D01*
X109312825Y-29362430D01*
X109025212Y-29485565D01*
X108765293Y-30167734D01*
X86487000Y-30167734D01*
X86487000Y-29182825D01*
X109492430Y-29182825D01*
X110610000Y-30300395D01*
X111630395Y-29280000D01*
X115760921Y-29280000D01*
X115760921Y-31680000D01*
X115839506Y-32097641D01*
X116086331Y-32481219D01*
X116462944Y-32738548D01*
X116910000Y-32829079D01*
X119310000Y-32829079D01*
X119727641Y-32750494D01*
X120111219Y-32503669D01*
X120368548Y-32127056D01*
X120459079Y-31680000D01*
X120459079Y-29280000D01*
X120380494Y-28862359D01*
X120133669Y-28478781D01*
X119757056Y-28221452D01*
X119310000Y-28130921D01*
X116910000Y-28130921D01*
X116492359Y-28209506D01*
X116108781Y-28456331D01*
X115851452Y-28832944D01*
X115760921Y-29280000D01*
X111630395Y-29280000D01*
X111727570Y-29182825D01*
X111604435Y-28895212D01*
X110922266Y-28635293D01*
X110192557Y-28656214D01*
X109615565Y-28895212D01*
X109492430Y-29182825D01*
X86487000Y-29182825D01*
X86487000Y-26913970D01*
X126935635Y-26913970D01*
X127095418Y-27232739D01*
X127886187Y-27542723D01*
X128735387Y-27526497D01*
X129444582Y-27232739D01*
X129604365Y-26913970D01*
X128270000Y-25579605D01*
X126935635Y-26913970D01*
X86487000Y-26913970D01*
X86487000Y-25016187D01*
X126127277Y-25016187D01*
X126143503Y-25865387D01*
X126437261Y-26574582D01*
X126756030Y-26734365D01*
X128090395Y-25400000D01*
X128449605Y-25400000D01*
X129783970Y-26734365D01*
X130102739Y-26574582D01*
X130412723Y-25783813D01*
X130396497Y-24934613D01*
X130102739Y-24225418D01*
X129783970Y-24065635D01*
X128449605Y-25400000D01*
X128090395Y-25400000D01*
X126756030Y-24065635D01*
X126437261Y-24225418D01*
X126127277Y-25016187D01*
X86487000Y-25016187D01*
X86487000Y-23886030D01*
X126935635Y-23886030D01*
X128270000Y-25220395D01*
X129604365Y-23886030D01*
X129444582Y-23567261D01*
X128653813Y-23257277D01*
X127804613Y-23273503D01*
X127095418Y-23567261D01*
X126935635Y-23886030D01*
X86487000Y-23886030D01*
X86487000Y-21717000D01*
X131953000Y-21717000D01*
X131953000Y-23134810D01*
X131953000Y-23134810D01*
G37*
X131953000Y-23134810D02*
X131863868Y-23171639D01*
X131124236Y-23909981D01*
X130723457Y-24875165D01*
X130722545Y-25920250D01*
X131121639Y-26886132D01*
X131859981Y-27625764D01*
X131953000Y-27664389D01*
X131953000Y-44323000D01*
X127318691Y-44323000D01*
X127420219Y-44257669D01*
X127677548Y-43881056D01*
X127768079Y-43434000D01*
X127768079Y-41656000D01*
X127689494Y-41238359D01*
X127442669Y-40854781D01*
X127066056Y-40597452D01*
X126619000Y-40506921D01*
X124841000Y-40506921D01*
X124423359Y-40585506D01*
X124039781Y-40832331D01*
X123782452Y-41208944D01*
X123691921Y-41656000D01*
X123691921Y-43434000D01*
X123770506Y-43851641D01*
X124017331Y-44235219D01*
X124145803Y-44323000D01*
X97155000Y-44323000D01*
X97105590Y-44333006D01*
X97063965Y-44361447D01*
X97036685Y-44403841D01*
X97028000Y-44450000D01*
X97028000Y-47626804D01*
X96910080Y-47577839D01*
X96133328Y-47577162D01*
X95415442Y-47873786D01*
X94865716Y-48422553D01*
X94567839Y-49139920D01*
X94567162Y-49916672D01*
X94863786Y-50634558D01*
X95412553Y-51184284D01*
X96129920Y-51482161D01*
X96906672Y-51482838D01*
X97028000Y-51432706D01*
X97028000Y-62230000D01*
X97038006Y-62279410D01*
X97066447Y-62321035D01*
X97108841Y-62348315D01*
X97155000Y-62357000D01*
X99660510Y-62357000D01*
X99781932Y-62967431D01*
X100137783Y-63500000D01*
X99781932Y-64032569D01*
X99635248Y-64770000D01*
X99781932Y-65507431D01*
X100199653Y-66132595D01*
X100824817Y-66550316D01*
X101562248Y-66697000D01*
X101637752Y-66697000D01*
X102375183Y-66550316D01*
X102375560Y-66550064D01*
X102591514Y-67072712D01*
X103104587Y-67586681D01*
X103775292Y-67865183D01*
X104501521Y-67865817D01*
X105103157Y-67617226D01*
X104854817Y-68215292D01*
X104854183Y-68941521D01*
X105131514Y-69612712D01*
X105644587Y-70126681D01*
X106315292Y-70405183D01*
X107041521Y-70405817D01*
X107712712Y-70128486D01*
X108226681Y-69615413D01*
X108424913Y-69138020D01*
X108521500Y-69157579D01*
X109918500Y-69157579D01*
X110336141Y-69078994D01*
X110719719Y-68832169D01*
X110725447Y-68823785D01*
X123613390Y-68823785D01*
X124460000Y-69670395D01*
X125306610Y-68823785D01*
X125229344Y-68575024D01*
X124710060Y-68387480D01*
X138354073Y-68387480D01*
X138382852Y-68917199D01*
X138530200Y-69272929D01*
X138765812Y-69334583D01*
X139520395Y-68580000D01*
X139879605Y-68580000D01*
X140634188Y-69334583D01*
X140869800Y-69272929D01*
X140986444Y-68941521D01*
X142954183Y-68941521D01*
X143231514Y-69612712D01*
X143744587Y-70126681D01*
X144415292Y-70405183D01*
X145141521Y-70405817D01*
X145812712Y-70128486D01*
X146326681Y-69615413D01*
X146605183Y-68944708D01*
X146605817Y-68218479D01*
X146328486Y-67547288D01*
X145815413Y-67033319D01*
X145144708Y-66754817D01*
X144418479Y-66754183D01*
X143747288Y-67031514D01*
X143233319Y-67544587D01*
X142954817Y-68215292D01*
X142954183Y-68941521D01*
X140986444Y-68941521D01*
X141045927Y-68772520D01*
X141017148Y-68242801D01*
X140869800Y-67887071D01*
X140634188Y-67825417D01*
X139879605Y-68580000D01*
X139520395Y-68580000D01*
X138765812Y-67825417D01*
X138530200Y-67887071D01*
X138354073Y-68387480D01*
X124710060Y-68387480D01*
X124682869Y-68377660D01*
X124102465Y-68404447D01*
X123690656Y-68575024D01*
X123613390Y-68823785D01*
X110725447Y-68823785D01*
X110977048Y-68455556D01*
X111019851Y-68244188D01*
X118625417Y-68244188D01*
X118687071Y-68479800D01*
X119187480Y-68655927D01*
X119717199Y-68627148D01*
X120072929Y-68479800D01*
X120134583Y-68244188D01*
X119380000Y-67489605D01*
X118625417Y-68244188D01*
X111019851Y-68244188D01*
X111067579Y-68008500D01*
X111067579Y-67117480D01*
X118034073Y-67117480D01*
X118062852Y-67647199D01*
X118210200Y-68002929D01*
X118445812Y-68064583D01*
X119200395Y-67310000D01*
X119559605Y-67310000D01*
X120314188Y-68064583D01*
X120549800Y-68002929D01*
X120675493Y-67645812D01*
X138945417Y-67645812D01*
X139700000Y-68400395D01*
X140454583Y-67645812D01*
X140392929Y-67410200D01*
X139892520Y-67234073D01*
X139362801Y-67262852D01*
X139007071Y-67410200D01*
X138945417Y-67645812D01*
X120675493Y-67645812D01*
X120725927Y-67502520D01*
X120697148Y-66972801D01*
X120549800Y-66617071D01*
X120314188Y-66555417D01*
X119559605Y-67310000D01*
X119200395Y-67310000D01*
X118445812Y-66555417D01*
X118210200Y-66617071D01*
X118034073Y-67117480D01*
X111067579Y-67117480D01*
X111067579Y-66611500D01*
X111023232Y-66375812D01*
X118625417Y-66375812D01*
X119380000Y-67130395D01*
X120134583Y-66375812D01*
X120072929Y-66140200D01*
X119572520Y-65964073D01*
X119042801Y-65992852D01*
X118687071Y-66140200D01*
X118625417Y-66375812D01*
X111023232Y-66375812D01*
X110988994Y-66193859D01*
X110742169Y-65810281D01*
X110365556Y-65552952D01*
X109918500Y-65462421D01*
X108521500Y-65462421D01*
X108103859Y-65541006D01*
X107720281Y-65787831D01*
X107462952Y-66164444D01*
X107372421Y-66611500D01*
X107372421Y-66890896D01*
X107044708Y-66754817D01*
X106318479Y-66754183D01*
X105716843Y-67002774D01*
X105965183Y-66404708D01*
X105965817Y-65678479D01*
X105688486Y-65007288D01*
X105175413Y-64493319D01*
X104504708Y-64214817D01*
X103778479Y-64214183D01*
X103478822Y-64337999D01*
X103418068Y-64032569D01*
X103062217Y-63500000D01*
X103224318Y-63257398D01*
X103226514Y-63262712D01*
X103739587Y-63776681D01*
X104410292Y-64055183D01*
X105136521Y-64055817D01*
X105807712Y-63778486D01*
X106044964Y-63541648D01*
X106279587Y-63776681D01*
X106950292Y-64055183D01*
X107676521Y-64055817D01*
X108347712Y-63778486D01*
X108861681Y-63265413D01*
X109140183Y-62594708D01*
X109140391Y-62357000D01*
X109220000Y-62357000D01*
X109269410Y-62346994D01*
X109311035Y-62318553D01*
X109338315Y-62276159D01*
X109347000Y-62230000D01*
X109347000Y-59817000D01*
X123190000Y-59817000D01*
X123239410Y-59806994D01*
X123281035Y-59778553D01*
X123308315Y-59736159D01*
X123317000Y-59690000D01*
X123317000Y-58991500D01*
X132772421Y-58991500D01*
X132772421Y-60388500D01*
X132851006Y-60806141D01*
X133090151Y-61177784D01*
X133073319Y-61194587D01*
X132794817Y-61865292D01*
X132794183Y-62591521D01*
X133071514Y-63262712D01*
X133584587Y-63776681D01*
X134255292Y-64055183D01*
X134981521Y-64055817D01*
X135351328Y-63903015D01*
X135611514Y-64532712D01*
X136124587Y-65046681D01*
X136795292Y-65325183D01*
X137521521Y-65325817D01*
X138192712Y-65048486D01*
X138344460Y-64897002D01*
X138430084Y-64897002D01*
X138308096Y-65119039D01*
X138468959Y-65507423D01*
X138844866Y-65922389D01*
X139350959Y-66161914D01*
X139573000Y-66040629D01*
X139573000Y-64897000D01*
X139827000Y-64897000D01*
X139827000Y-66040629D01*
X140049041Y-66161914D01*
X140555134Y-65922389D01*
X140931041Y-65507423D01*
X141091904Y-65119039D01*
X140969915Y-64897000D01*
X139827000Y-64897000D01*
X139573000Y-64897000D01*
X139553000Y-64897000D01*
X139553000Y-64643000D01*
X139573000Y-64643000D01*
X139573000Y-64623000D01*
X139827000Y-64623000D01*
X139827000Y-64643000D01*
X140969915Y-64643000D01*
X141091904Y-64420961D01*
X140931041Y-64032577D01*
X140746594Y-63828965D01*
X141100347Y-63592595D01*
X141518068Y-62967431D01*
X141664752Y-62230000D01*
X141518068Y-61492569D01*
X141162217Y-60960000D01*
X141518068Y-60427431D01*
X141664752Y-59690000D01*
X141518068Y-58952569D01*
X141350418Y-58701663D01*
X141558548Y-58397056D01*
X141649079Y-57950000D01*
X141649079Y-56350000D01*
X141570494Y-55932359D01*
X141323669Y-55548781D01*
X140947056Y-55291452D01*
X140500000Y-55200921D01*
X138900000Y-55200921D01*
X138482359Y-55279506D01*
X138098781Y-55526331D01*
X137841452Y-55902944D01*
X137750921Y-56350000D01*
X137750921Y-56688749D01*
X137524708Y-56594817D01*
X136798479Y-56594183D01*
X136127288Y-56871514D01*
X135613319Y-57384587D01*
X135415087Y-57861980D01*
X135318500Y-57842421D01*
X133921500Y-57842421D01*
X133503859Y-57921006D01*
X133120281Y-58167831D01*
X132862952Y-58544444D01*
X132772421Y-58991500D01*
X123317000Y-58991500D01*
X123317000Y-54737000D01*
X142748000Y-54737000D01*
X142748000Y-62230000D01*
X142758006Y-62279410D01*
X142786447Y-62321035D01*
X142828841Y-62348315D01*
X142875000Y-62357000D01*
X145380510Y-62357000D01*
X145501932Y-62967431D01*
X145857783Y-63500000D01*
X145501932Y-64032569D01*
X145355248Y-64770000D01*
X145501932Y-65507431D01*
X145919653Y-66132595D01*
X146544817Y-66550316D01*
X147282248Y-66697000D01*
X147357752Y-66697000D01*
X148095183Y-66550316D01*
X148095560Y-66550064D01*
X148311514Y-67072712D01*
X148824587Y-67586681D01*
X149495292Y-67865183D01*
X150221521Y-67865817D01*
X150823157Y-67617226D01*
X150574817Y-68215292D01*
X150574183Y-68941521D01*
X150851514Y-69612712D01*
X151364587Y-70126681D01*
X152035292Y-70405183D01*
X152761521Y-70405817D01*
X153432712Y-70128486D01*
X153946681Y-69615413D01*
X154144913Y-69138020D01*
X154241500Y-69157579D01*
X155638500Y-69157579D01*
X156056141Y-69078994D01*
X156439719Y-68832169D01*
X156445447Y-68823785D01*
X169333390Y-68823785D01*
X170180000Y-69670395D01*
X171026610Y-68823785D01*
X170949344Y-68575024D01*
X170402869Y-68377660D01*
X169822465Y-68404447D01*
X169410656Y-68575024D01*
X169333390Y-68823785D01*
X156445447Y-68823785D01*
X156697048Y-68455556D01*
X156739851Y-68244188D01*
X164345417Y-68244188D01*
X164407071Y-68479800D01*
X164907480Y-68655927D01*
X165437199Y-68627148D01*
X165792929Y-68479800D01*
X165854583Y-68244188D01*
X165100000Y-67489605D01*
X164345417Y-68244188D01*
X156739851Y-68244188D01*
X156787579Y-68008500D01*
X156787579Y-67117480D01*
X163754073Y-67117480D01*
X163782852Y-67647199D01*
X163930200Y-68002929D01*
X164165812Y-68064583D01*
X164920395Y-67310000D01*
X165279605Y-67310000D01*
X166034188Y-68064583D01*
X166269800Y-68002929D01*
X166445927Y-67502520D01*
X166417148Y-66972801D01*
X166269800Y-66617071D01*
X166034188Y-66555417D01*
X165279605Y-67310000D01*
X164920395Y-67310000D01*
X164165812Y-66555417D01*
X163930200Y-66617071D01*
X163754073Y-67117480D01*
X156787579Y-67117480D01*
X156787579Y-66611500D01*
X156743232Y-66375812D01*
X164345417Y-66375812D01*
X165100000Y-67130395D01*
X165854583Y-66375812D01*
X165792929Y-66140200D01*
X165292520Y-65964073D01*
X164762801Y-65992852D01*
X164407071Y-66140200D01*
X164345417Y-66375812D01*
X156743232Y-66375812D01*
X156708994Y-66193859D01*
X156462169Y-65810281D01*
X156085556Y-65552952D01*
X155638500Y-65462421D01*
X154241500Y-65462421D01*
X153823859Y-65541006D01*
X153440281Y-65787831D01*
X153182952Y-66164444D01*
X153092421Y-66611500D01*
X153092421Y-66890896D01*
X152764708Y-66754817D01*
X152038479Y-66754183D01*
X151436843Y-67002774D01*
X151685183Y-66404708D01*
X151685817Y-65678479D01*
X151408486Y-65007288D01*
X150895413Y-64493319D01*
X150224708Y-64214817D01*
X149498479Y-64214183D01*
X149198822Y-64337999D01*
X149138068Y-64032569D01*
X148782217Y-63500000D01*
X148944318Y-63257398D01*
X148946514Y-63262712D01*
X149459587Y-63776681D01*
X150130292Y-64055183D01*
X150856521Y-64055817D01*
X151527712Y-63778486D01*
X151764964Y-63541648D01*
X151999587Y-63776681D01*
X152670292Y-64055183D01*
X153396521Y-64055817D01*
X154067712Y-63778486D01*
X154581681Y-63265413D01*
X154860183Y-62594708D01*
X154860391Y-62357000D01*
X154940000Y-62357000D01*
X154989410Y-62346994D01*
X155031035Y-62318553D01*
X155058315Y-62276159D01*
X155067000Y-62230000D01*
X155067000Y-59817000D01*
X168910000Y-59817000D01*
X168959410Y-59806994D01*
X169001035Y-59778553D01*
X169028315Y-59736159D01*
X169037000Y-59690000D01*
X169037000Y-53980284D01*
X169354500Y-54044579D01*
X171005500Y-54044579D01*
X171423141Y-53965994D01*
X171806719Y-53719169D01*
X172064048Y-53342556D01*
X172154579Y-52895500D01*
X172154579Y-51244500D01*
X172075994Y-50826859D01*
X171881281Y-50524266D01*
X172132161Y-49920080D01*
X172132838Y-49143328D01*
X171836214Y-48425442D01*
X171287447Y-47875716D01*
X170570080Y-47577839D01*
X169793328Y-47577162D01*
X169075442Y-47873786D01*
X169037000Y-47912161D01*
X169037000Y-21717000D01*
X178823000Y-21717000D01*
X178823000Y-87503000D01*
X86487000Y-87503000D01*
X86487000Y-84712394D01*
X86576331Y-84851219D01*
X86952944Y-85108548D01*
X87400000Y-85199079D01*
X90400000Y-85199079D01*
X90817641Y-85120494D01*
X91201219Y-84873669D01*
X91458548Y-84497056D01*
X91549079Y-84050000D01*
X91549079Y-83545899D01*
X91751639Y-84036132D01*
X92489981Y-84775764D01*
X93455165Y-85176543D01*
X94500250Y-85177455D01*
X95466132Y-84778361D01*
X96064014Y-84181521D01*
X102314183Y-84181521D01*
X102591514Y-84852712D01*
X103104587Y-85366681D01*
X103775292Y-85645183D01*
X104501521Y-85645817D01*
X105172712Y-85368486D01*
X105686681Y-84855413D01*
X105965183Y-84184708D01*
X105965817Y-83458479D01*
X105688486Y-82787288D01*
X105175413Y-82273319D01*
X104504708Y-81994817D01*
X103778479Y-81994183D01*
X103107288Y-82271514D01*
X102593319Y-82784587D01*
X102314817Y-83455292D01*
X102314183Y-84181521D01*
X96064014Y-84181521D01*
X96205764Y-84040019D01*
X96606543Y-83074835D01*
X96607455Y-82029750D01*
X96208361Y-81063868D01*
X96194518Y-81050000D01*
X106570921Y-81050000D01*
X106570921Y-84050000D01*
X106649506Y-84467641D01*
X106896331Y-84851219D01*
X107272944Y-85108548D01*
X107720000Y-85199079D01*
X110720000Y-85199079D01*
X111137641Y-85120494D01*
X111521219Y-84873669D01*
X111778548Y-84497056D01*
X111869079Y-84050000D01*
X111869079Y-83545899D01*
X112071639Y-84036132D01*
X112809981Y-84775764D01*
X113775165Y-85176543D01*
X114820250Y-85177455D01*
X115786132Y-84778361D01*
X116525764Y-84040019D01*
X116926543Y-83074835D01*
X116927455Y-82029750D01*
X116528361Y-81063868D01*
X116514518Y-81050000D01*
X131970921Y-81050000D01*
X131970921Y-84050000D01*
X132049506Y-84467641D01*
X132296331Y-84851219D01*
X132672944Y-85108548D01*
X133120000Y-85199079D01*
X136120000Y-85199079D01*
X136537641Y-85120494D01*
X136921219Y-84873669D01*
X137178548Y-84497056D01*
X137269079Y-84050000D01*
X137269079Y-83545899D01*
X137471639Y-84036132D01*
X138209981Y-84775764D01*
X139175165Y-85176543D01*
X140220250Y-85177455D01*
X141186132Y-84778361D01*
X141784014Y-84181521D01*
X148034183Y-84181521D01*
X148311514Y-84852712D01*
X148824587Y-85366681D01*
X149495292Y-85645183D01*
X150221521Y-85645817D01*
X150892712Y-85368486D01*
X151406681Y-84855413D01*
X151685183Y-84184708D01*
X151685817Y-83458479D01*
X151408486Y-82787288D01*
X150895413Y-82273319D01*
X150224708Y-81994817D01*
X149498479Y-81994183D01*
X148827288Y-82271514D01*
X148313319Y-82784587D01*
X148034817Y-83455292D01*
X148034183Y-84181521D01*
X141784014Y-84181521D01*
X141925764Y-84040019D01*
X142326543Y-83074835D01*
X142327455Y-82029750D01*
X141928361Y-81063868D01*
X141914518Y-81050000D01*
X152290921Y-81050000D01*
X152290921Y-84050000D01*
X152369506Y-84467641D01*
X152616331Y-84851219D01*
X152992944Y-85108548D01*
X153440000Y-85199079D01*
X156440000Y-85199079D01*
X156857641Y-85120494D01*
X157241219Y-84873669D01*
X157498548Y-84497056D01*
X157589079Y-84050000D01*
X157589079Y-83545899D01*
X157791639Y-84036132D01*
X158529981Y-84775764D01*
X159495165Y-85176543D01*
X160540250Y-85177455D01*
X161506132Y-84778361D01*
X162245764Y-84040019D01*
X162646543Y-83074835D01*
X162647455Y-82029750D01*
X162248361Y-81063868D01*
X161510019Y-80324236D01*
X160544835Y-79923457D01*
X159499750Y-79922545D01*
X158533868Y-80321639D01*
X157794236Y-81059981D01*
X157589079Y-81554054D01*
X157589079Y-81050000D01*
X157510494Y-80632359D01*
X157263669Y-80248781D01*
X156887056Y-79991452D01*
X156440000Y-79900921D01*
X153440000Y-79900921D01*
X153022359Y-79979506D01*
X152638781Y-80226331D01*
X152381452Y-80602944D01*
X152290921Y-81050000D01*
X141914518Y-81050000D01*
X141190019Y-80324236D01*
X140224835Y-79923457D01*
X139179750Y-79922545D01*
X138213868Y-80321639D01*
X137474236Y-81059981D01*
X137269079Y-81554054D01*
X137269079Y-81050000D01*
X137190494Y-80632359D01*
X136943669Y-80248781D01*
X136567056Y-79991452D01*
X136120000Y-79900921D01*
X133120000Y-79900921D01*
X132702359Y-79979506D01*
X132318781Y-80226331D01*
X132061452Y-80602944D01*
X131970921Y-81050000D01*
X116514518Y-81050000D01*
X115790019Y-80324236D01*
X114824835Y-79923457D01*
X113779750Y-79922545D01*
X112813868Y-80321639D01*
X112074236Y-81059981D01*
X111869079Y-81554054D01*
X111869079Y-81050000D01*
X111790494Y-80632359D01*
X111543669Y-80248781D01*
X111167056Y-79991452D01*
X110720000Y-79900921D01*
X107720000Y-79900921D01*
X107302359Y-79979506D01*
X106918781Y-80226331D01*
X106661452Y-80602944D01*
X106570921Y-81050000D01*
X96194518Y-81050000D01*
X95470019Y-80324236D01*
X94504835Y-79923457D01*
X93459750Y-79922545D01*
X92493868Y-80321639D01*
X91754236Y-81059981D01*
X91549079Y-81554054D01*
X91549079Y-81050000D01*
X91470494Y-80632359D01*
X91223669Y-80248781D01*
X90847056Y-79991452D01*
X90400000Y-79900921D01*
X87400000Y-79900921D01*
X86982359Y-79979506D01*
X86598781Y-80226331D01*
X86487000Y-80389928D01*
X86487000Y-77134188D01*
X93225417Y-77134188D01*
X93287071Y-77369800D01*
X93787480Y-77545927D01*
X94317199Y-77517148D01*
X94672929Y-77369800D01*
X94734583Y-77134188D01*
X93980000Y-76379605D01*
X93225417Y-77134188D01*
X86487000Y-77134188D01*
X86487000Y-76007480D01*
X92634073Y-76007480D01*
X92662852Y-76537199D01*
X92810200Y-76892929D01*
X93045812Y-76954583D01*
X93800395Y-76200000D01*
X94159605Y-76200000D01*
X94914188Y-76954583D01*
X95149800Y-76892929D01*
X95325927Y-76392520D01*
X95297148Y-75862801D01*
X95149800Y-75507071D01*
X94914188Y-75445417D01*
X94159605Y-76200000D01*
X93800395Y-76200000D01*
X93045812Y-75445417D01*
X92810200Y-75507071D01*
X92634073Y-76007480D01*
X86487000Y-76007480D01*
X86487000Y-75265812D01*
X93225417Y-75265812D01*
X93980000Y-76020395D01*
X94734583Y-75265812D01*
X94672929Y-75030200D01*
X94172520Y-74854073D01*
X93642801Y-74882852D01*
X93287071Y-75030200D01*
X93225417Y-75265812D01*
X86487000Y-75265812D01*
X86487000Y-74707131D01*
X96317660Y-74707131D01*
X96344447Y-75287535D01*
X96515024Y-75699344D01*
X96763785Y-75776610D01*
X97610395Y-74930000D01*
X96763785Y-74083390D01*
X96515024Y-74160656D01*
X96317660Y-74707131D01*
X86487000Y-74707131D01*
X86487000Y-71691500D01*
X87052421Y-71691500D01*
X87052421Y-73088500D01*
X87131006Y-73506141D01*
X87377831Y-73889719D01*
X87754444Y-74147048D01*
X88201500Y-74237579D01*
X89598500Y-74237579D01*
X90016141Y-74158994D01*
X90399719Y-73912169D01*
X90405447Y-73903785D01*
X96943390Y-73903785D01*
X97790000Y-74750395D01*
X97804143Y-74736253D01*
X97983748Y-74915858D01*
X97969605Y-74930000D01*
X97983748Y-74944143D01*
X97804143Y-75123748D01*
X97790000Y-75109605D01*
X96943390Y-75956215D01*
X97020656Y-76204976D01*
X97567131Y-76402340D01*
X98147535Y-76375553D01*
X98476557Y-76239267D01*
X98680831Y-76556719D01*
X99057444Y-76814048D01*
X99504500Y-76904579D01*
X101155500Y-76904579D01*
X101573141Y-76825994D01*
X101956719Y-76579169D01*
X102214048Y-76202556D01*
X102304579Y-75755500D01*
X102304579Y-74104500D01*
X102288966Y-74021521D01*
X102314183Y-74021521D01*
X102591514Y-74692712D01*
X102828352Y-74929964D01*
X102593319Y-75164587D01*
X102314817Y-75835292D01*
X102314183Y-76561521D01*
X102591514Y-77232712D01*
X103104587Y-77746681D01*
X103775292Y-78025183D01*
X104501521Y-78025817D01*
X105172712Y-77748486D01*
X105686681Y-77235413D01*
X105965183Y-76564708D01*
X105965185Y-76561521D01*
X137874183Y-76561521D01*
X138151514Y-77232712D01*
X138664587Y-77746681D01*
X139335292Y-78025183D01*
X140061521Y-78025817D01*
X140732712Y-77748486D01*
X141246681Y-77235413D01*
X141525183Y-76564708D01*
X141525817Y-75838479D01*
X141248486Y-75167288D01*
X140789132Y-74707131D01*
X142037660Y-74707131D01*
X142064447Y-75287535D01*
X142235024Y-75699344D01*
X142483785Y-75776610D01*
X143330395Y-74930000D01*
X142483785Y-74083390D01*
X142235024Y-74160656D01*
X142037660Y-74707131D01*
X140789132Y-74707131D01*
X140735413Y-74653319D01*
X140064708Y-74374817D01*
X139338479Y-74374183D01*
X138667288Y-74651514D01*
X138153319Y-75164587D01*
X137874817Y-75835292D01*
X137874183Y-76561521D01*
X105965185Y-76561521D01*
X105965817Y-75838479D01*
X105688486Y-75167288D01*
X105451648Y-74930036D01*
X105686681Y-74695413D01*
X105965183Y-74024708D01*
X105965817Y-73298479D01*
X105688486Y-72627288D01*
X105175413Y-72113319D01*
X104504708Y-71834817D01*
X103778479Y-71834183D01*
X103107288Y-72111514D01*
X102593319Y-72624587D01*
X102314817Y-73295292D01*
X102314183Y-74021521D01*
X102288966Y-74021521D01*
X102225994Y-73686859D01*
X101979169Y-73303281D01*
X101602556Y-73045952D01*
X101155500Y-72955421D01*
X99504500Y-72955421D01*
X99086859Y-73034006D01*
X98703281Y-73280831D01*
X98469722Y-73622656D01*
X98012869Y-73457660D01*
X97432465Y-73484447D01*
X97020656Y-73655024D01*
X96943390Y-73903785D01*
X90405447Y-73903785D01*
X90657048Y-73535556D01*
X90747579Y-73088500D01*
X90747579Y-72809104D01*
X91075292Y-72945183D01*
X91801521Y-72945817D01*
X92472712Y-72668486D01*
X92986681Y-72155413D01*
X93232050Y-71564500D01*
X122485421Y-71564500D01*
X122485421Y-73215500D01*
X122564006Y-73633141D01*
X122810831Y-74016719D01*
X123187444Y-74274048D01*
X123634500Y-74364579D01*
X125285500Y-74364579D01*
X125703141Y-74285994D01*
X126086719Y-74039169D01*
X126344048Y-73662556D01*
X126434579Y-73215500D01*
X126434579Y-71691500D01*
X132772421Y-71691500D01*
X132772421Y-73088500D01*
X132851006Y-73506141D01*
X133097831Y-73889719D01*
X133474444Y-74147048D01*
X133921500Y-74237579D01*
X135318500Y-74237579D01*
X135736141Y-74158994D01*
X136119719Y-73912169D01*
X136125447Y-73903785D01*
X142663390Y-73903785D01*
X143510000Y-74750395D01*
X143524143Y-74736253D01*
X143703748Y-74915858D01*
X143689605Y-74930000D01*
X143703748Y-74944143D01*
X143524143Y-75123748D01*
X143510000Y-75109605D01*
X142663390Y-75956215D01*
X142740656Y-76204976D01*
X143287131Y-76402340D01*
X143867535Y-76375553D01*
X144196557Y-76239267D01*
X144400831Y-76556719D01*
X144777444Y-76814048D01*
X145224500Y-76904579D01*
X146875500Y-76904579D01*
X147293141Y-76825994D01*
X147676719Y-76579169D01*
X147934048Y-76202556D01*
X148024579Y-75755500D01*
X148024579Y-74104500D01*
X148008966Y-74021521D01*
X148034183Y-74021521D01*
X148311514Y-74692712D01*
X148548352Y-74929964D01*
X148313319Y-75164587D01*
X148034817Y-75835292D01*
X148034183Y-76561521D01*
X148311514Y-77232712D01*
X148824587Y-77746681D01*
X149495292Y-78025183D01*
X150221521Y-78025817D01*
X150892712Y-77748486D01*
X151406681Y-77235413D01*
X151685183Y-76564708D01*
X151685817Y-75838479D01*
X151408486Y-75167288D01*
X151171648Y-74930036D01*
X151406681Y-74695413D01*
X151685183Y-74024708D01*
X151685817Y-73298479D01*
X151408486Y-72627288D01*
X150895413Y-72113319D01*
X150224708Y-71834817D01*
X149498479Y-71834183D01*
X148827288Y-72111514D01*
X148313319Y-72624587D01*
X148034817Y-73295292D01*
X148034183Y-74021521D01*
X148008966Y-74021521D01*
X147945994Y-73686859D01*
X147699169Y-73303281D01*
X147322556Y-73045952D01*
X146875500Y-72955421D01*
X145224500Y-72955421D01*
X144806859Y-73034006D01*
X144423281Y-73280831D01*
X144189722Y-73622656D01*
X143732869Y-73457660D01*
X143152465Y-73484447D01*
X142740656Y-73655024D01*
X142663390Y-73903785D01*
X136125447Y-73903785D01*
X136377048Y-73535556D01*
X136467579Y-73088500D01*
X136467579Y-72809104D01*
X136795292Y-72945183D01*
X137521521Y-72945817D01*
X138192712Y-72668486D01*
X138706681Y-72155413D01*
X138952050Y-71564500D01*
X168205421Y-71564500D01*
X168205421Y-73215500D01*
X168284006Y-73633141D01*
X168530831Y-74016719D01*
X168907444Y-74274048D01*
X169354500Y-74364579D01*
X171005500Y-74364579D01*
X171423141Y-74285994D01*
X171806719Y-74039169D01*
X172064048Y-73662556D01*
X172154579Y-73215500D01*
X172154579Y-71564500D01*
X172075994Y-71146859D01*
X171829169Y-70763281D01*
X171487344Y-70529722D01*
X171652340Y-70072869D01*
X171625553Y-69492465D01*
X171454976Y-69080656D01*
X171206215Y-69003390D01*
X170359605Y-69850000D01*
X170373748Y-69864143D01*
X170194143Y-70043748D01*
X170180000Y-70029605D01*
X170165858Y-70043748D01*
X169986253Y-69864143D01*
X170000395Y-69850000D01*
X169153785Y-69003390D01*
X168905024Y-69080656D01*
X168707660Y-69627131D01*
X168734447Y-70207535D01*
X168870733Y-70536557D01*
X168553281Y-70740831D01*
X168295952Y-71117444D01*
X168205421Y-71564500D01*
X138952050Y-71564500D01*
X138985183Y-71484708D01*
X138985817Y-70758479D01*
X138708486Y-70087288D01*
X138195413Y-69573319D01*
X138053011Y-69514188D01*
X138945417Y-69514188D01*
X139007071Y-69749800D01*
X139507480Y-69925927D01*
X140037199Y-69897148D01*
X140392929Y-69749800D01*
X140454583Y-69514188D01*
X139700000Y-68759605D01*
X138945417Y-69514188D01*
X138053011Y-69514188D01*
X137524708Y-69294817D01*
X136798479Y-69294183D01*
X136127288Y-69571514D01*
X135613319Y-70084587D01*
X135415087Y-70561980D01*
X135318500Y-70542421D01*
X133921500Y-70542421D01*
X133503859Y-70621006D01*
X133120281Y-70867831D01*
X132862952Y-71244444D01*
X132772421Y-71691500D01*
X126434579Y-71691500D01*
X126434579Y-71564500D01*
X126355994Y-71146859D01*
X126109169Y-70763281D01*
X125767344Y-70529722D01*
X125932340Y-70072869D01*
X125905553Y-69492465D01*
X125734976Y-69080656D01*
X125486215Y-69003390D01*
X124639605Y-69850000D01*
X124653748Y-69864143D01*
X124474143Y-70043748D01*
X124460000Y-70029605D01*
X124445858Y-70043748D01*
X124266253Y-69864143D01*
X124280395Y-69850000D01*
X123433785Y-69003390D01*
X123185024Y-69080656D01*
X122987660Y-69627131D01*
X123014447Y-70207535D01*
X123150733Y-70536557D01*
X122833281Y-70740831D01*
X122575952Y-71117444D01*
X122485421Y-71564500D01*
X93232050Y-71564500D01*
X93265183Y-71484708D01*
X93265817Y-70758479D01*
X93017226Y-70156843D01*
X93615292Y-70405183D01*
X94341521Y-70405817D01*
X95012712Y-70128486D01*
X95526681Y-69615413D01*
X95805183Y-68944708D01*
X95805185Y-68941521D01*
X97234183Y-68941521D01*
X97511514Y-69612712D01*
X98024587Y-70126681D01*
X98695292Y-70405183D01*
X99421521Y-70405817D01*
X100092712Y-70128486D01*
X100606681Y-69615413D01*
X100885183Y-68944708D01*
X100885817Y-68218479D01*
X100608486Y-67547288D01*
X100095413Y-67033319D01*
X99424708Y-66754817D01*
X98698479Y-66754183D01*
X98027288Y-67031514D01*
X97513319Y-67544587D01*
X97234817Y-68215292D01*
X97234183Y-68941521D01*
X95805185Y-68941521D01*
X95805817Y-68218479D01*
X95528486Y-67547288D01*
X95015413Y-67033319D01*
X94344708Y-66754817D01*
X93618479Y-66754183D01*
X92947288Y-67031514D01*
X92433319Y-67544587D01*
X92154817Y-68215292D01*
X92154183Y-68941521D01*
X92402774Y-69543157D01*
X91804708Y-69294817D01*
X91078479Y-69294183D01*
X90407288Y-69571514D01*
X89893319Y-70084587D01*
X89695087Y-70561980D01*
X89598500Y-70542421D01*
X88201500Y-70542421D01*
X87783859Y-70621006D01*
X87400281Y-70867831D01*
X87142952Y-71244444D01*
X87052421Y-71691500D01*
X86487000Y-71691500D01*
X86487000Y-58991500D01*
X87052421Y-58991500D01*
X87052421Y-60388500D01*
X87131006Y-60806141D01*
X87370151Y-61177784D01*
X87353319Y-61194587D01*
X87074817Y-61865292D01*
X87074183Y-62591521D01*
X87351514Y-63262712D01*
X87864587Y-63776681D01*
X88535292Y-64055183D01*
X89261521Y-64055817D01*
X89631328Y-63903015D01*
X89891514Y-64532712D01*
X90404587Y-65046681D01*
X91075292Y-65325183D01*
X91801521Y-65325817D01*
X92472712Y-65048486D01*
X92624460Y-64897002D01*
X92710084Y-64897002D01*
X92588096Y-65119039D01*
X92748959Y-65507423D01*
X93124866Y-65922389D01*
X93630959Y-66161914D01*
X93853000Y-66040629D01*
X93853000Y-64897000D01*
X94107000Y-64897000D01*
X94107000Y-66040629D01*
X94329041Y-66161914D01*
X94835134Y-65922389D01*
X95211041Y-65507423D01*
X95371904Y-65119039D01*
X95249915Y-64897000D01*
X94107000Y-64897000D01*
X93853000Y-64897000D01*
X93833000Y-64897000D01*
X93833000Y-64643000D01*
X93853000Y-64643000D01*
X93853000Y-64623000D01*
X94107000Y-64623000D01*
X94107000Y-64643000D01*
X95249915Y-64643000D01*
X95371904Y-64420961D01*
X95211041Y-64032577D01*
X95026594Y-63828965D01*
X95380347Y-63592595D01*
X95798068Y-62967431D01*
X95944752Y-62230000D01*
X95798068Y-61492569D01*
X95442217Y-60960000D01*
X95798068Y-60427431D01*
X95944752Y-59690000D01*
X95798068Y-58952569D01*
X95630418Y-58701663D01*
X95838548Y-58397056D01*
X95929079Y-57950000D01*
X95929079Y-56350000D01*
X95850494Y-55932359D01*
X95603669Y-55548781D01*
X95227056Y-55291452D01*
X94780000Y-55200921D01*
X93180000Y-55200921D01*
X92762359Y-55279506D01*
X92378781Y-55526331D01*
X92121452Y-55902944D01*
X92030921Y-56350000D01*
X92030921Y-56688749D01*
X91804708Y-56594817D01*
X91078479Y-56594183D01*
X90407288Y-56871514D01*
X89893319Y-57384587D01*
X89695087Y-57861980D01*
X89598500Y-57842421D01*
X88201500Y-57842421D01*
X87783859Y-57921006D01*
X87400281Y-58167831D01*
X87142952Y-58544444D01*
X87052421Y-58991500D01*
X86487000Y-58991500D01*
X86487000Y-49891521D01*
X87074183Y-49891521D01*
X87351514Y-50562712D01*
X87864587Y-51076681D01*
X88535292Y-51355183D01*
X89261521Y-51355817D01*
X89631328Y-51203015D01*
X89891514Y-51832712D01*
X90404587Y-52346681D01*
X91075292Y-52625183D01*
X91801521Y-52625817D01*
X92472712Y-52348486D01*
X92986681Y-51835413D01*
X93265183Y-51164708D01*
X93265817Y-50438479D01*
X92988486Y-49767288D01*
X92475413Y-49253319D01*
X91804708Y-48974817D01*
X91078479Y-48974183D01*
X90708672Y-49126985D01*
X90448486Y-48497288D01*
X89935413Y-47983319D01*
X89264708Y-47704817D01*
X88538479Y-47704183D01*
X87867288Y-47981514D01*
X87353319Y-48494587D01*
X87074817Y-49165292D01*
X87074183Y-49891521D01*
X86487000Y-49891521D01*
X86487000Y-43617196D01*
X104517409Y-43617196D01*
X104602467Y-43872539D01*
X105171965Y-44080516D01*
X105777700Y-44054723D01*
X106217533Y-43872539D01*
X106302591Y-43617196D01*
X105410000Y-42724605D01*
X104517409Y-43617196D01*
X86487000Y-43617196D01*
X86487000Y-42306965D01*
X103874484Y-42306965D01*
X103900277Y-42912700D01*
X104082461Y-43352533D01*
X104337804Y-43437591D01*
X105230395Y-42545000D01*
X105589605Y-42545000D01*
X106482196Y-43437591D01*
X106737539Y-43352533D01*
X106945516Y-42783035D01*
X106919723Y-42177300D01*
X106737539Y-41737467D01*
X106482196Y-41652409D01*
X105589605Y-42545000D01*
X105230395Y-42545000D01*
X104337804Y-41652409D01*
X104082461Y-41737467D01*
X103874484Y-42306965D01*
X86487000Y-42306965D01*
X86487000Y-41472804D01*
X104517409Y-41472804D01*
X105410000Y-42365395D01*
X106302591Y-41472804D01*
X106217533Y-41217461D01*
X105648035Y-41009484D01*
X105042300Y-41035277D01*
X104602467Y-41217461D01*
X104517409Y-41472804D01*
X86487000Y-41472804D01*
X86487000Y-31777175D01*
X109492430Y-31777175D01*
X109615565Y-32064788D01*
X110297734Y-32324707D01*
X111027443Y-32303786D01*
X111604435Y-32064788D01*
X111727570Y-31777175D01*
X110610000Y-30659605D01*
X109492430Y-31777175D01*
X86487000Y-31777175D01*
X86487000Y-30167734D01*
X108765293Y-30167734D01*
X108786214Y-30897443D01*
X109025212Y-31474435D01*
X109312825Y-31597570D01*
X110430395Y-30480000D01*
X110789605Y-30480000D01*
X111907175Y-31597570D01*
X112194788Y-31474435D01*
X112454707Y-30792266D01*
X112433786Y-30062557D01*
X112194788Y-29485565D01*
X111907175Y-29362430D01*
X110789605Y-30480000D01*
X110430395Y-30480000D01*
X109312825Y-29362430D01*
X109025212Y-29485565D01*
X108765293Y-30167734D01*
X86487000Y-30167734D01*
X86487000Y-29182825D01*
X109492430Y-29182825D01*
X110610000Y-30300395D01*
X111630395Y-29280000D01*
X115760921Y-29280000D01*
X115760921Y-31680000D01*
X115839506Y-32097641D01*
X116086331Y-32481219D01*
X116462944Y-32738548D01*
X116910000Y-32829079D01*
X119310000Y-32829079D01*
X119727641Y-32750494D01*
X120111219Y-32503669D01*
X120368548Y-32127056D01*
X120459079Y-31680000D01*
X120459079Y-29280000D01*
X120380494Y-28862359D01*
X120133669Y-28478781D01*
X119757056Y-28221452D01*
X119310000Y-28130921D01*
X116910000Y-28130921D01*
X116492359Y-28209506D01*
X116108781Y-28456331D01*
X115851452Y-28832944D01*
X115760921Y-29280000D01*
X111630395Y-29280000D01*
X111727570Y-29182825D01*
X111604435Y-28895212D01*
X110922266Y-28635293D01*
X110192557Y-28656214D01*
X109615565Y-28895212D01*
X109492430Y-29182825D01*
X86487000Y-29182825D01*
X86487000Y-26913970D01*
X126935635Y-26913970D01*
X127095418Y-27232739D01*
X127886187Y-27542723D01*
X128735387Y-27526497D01*
X129444582Y-27232739D01*
X129604365Y-26913970D01*
X128270000Y-25579605D01*
X126935635Y-26913970D01*
X86487000Y-26913970D01*
X86487000Y-25016187D01*
X126127277Y-25016187D01*
X126143503Y-25865387D01*
X126437261Y-26574582D01*
X126756030Y-26734365D01*
X128090395Y-25400000D01*
X128449605Y-25400000D01*
X129783970Y-26734365D01*
X130102739Y-26574582D01*
X130412723Y-25783813D01*
X130396497Y-24934613D01*
X130102739Y-24225418D01*
X129783970Y-24065635D01*
X128449605Y-25400000D01*
X128090395Y-25400000D01*
X126756030Y-24065635D01*
X126437261Y-24225418D01*
X126127277Y-25016187D01*
X86487000Y-25016187D01*
X86487000Y-23886030D01*
X126935635Y-23886030D01*
X128270000Y-25220395D01*
X129604365Y-23886030D01*
X129444582Y-23567261D01*
X128653813Y-23257277D01*
X127804613Y-23273503D01*
X127095418Y-23567261D01*
X126935635Y-23886030D01*
X86487000Y-23886030D01*
X86487000Y-21717000D01*
X131953000Y-21717000D01*
X131953000Y-23134810D01*
M02*
