M48
;DRILL file {KiCad 4.0.7-e2-6376~60~ubuntu17.10.1} date Tue Mar 20 18:48:49 2018
;FORMAT={3:3/ absolute / metric / suppress leading zeros}
FMAT,2
METRIC,TZ
T1C0.800
T2C0.813
T3C1.200
T4C1.520
T5C3.200
%
G90
G05
M71
T1
X93980Y-57150
X93980Y-59690
X93980Y-62230
X93980Y-64770
X101600Y-57150
X101600Y-59690
X101600Y-62230
X101600Y-64770
X139700Y-57150
X139700Y-59690
X139700Y-62230
X139700Y-64770
X147320Y-57150
X147320Y-59690
X147320Y-62230
X147320Y-64770
T2
X88900Y-49530
X88900Y-59690
X88900Y-62230
X88900Y-72390
X91440Y-50800
X91440Y-58420
X91440Y-63500
X91440Y-71120
X93980Y-68580
X93980Y-76200
X96520Y-49530
X97790Y-74930
X99060Y-49530
X99060Y-68580
X100330Y-74930
X104140Y-50800
X104140Y-66040
X104140Y-73660
X104140Y-76200
X104140Y-83820
X104775Y-54610
X104775Y-62230
X105410Y-42545
X106680Y-68580
X107315Y-54610
X107315Y-62230
X109220Y-67310
X109855Y-54610
X111760Y-50800
X119380Y-67310
X120015Y-54610
X124460Y-49530
X124460Y-52070
X124460Y-69850
X124460Y-72390
X125730Y-42545
X134620Y-49530
X134620Y-59690
X134620Y-62230
X134620Y-72390
X137160Y-50800
X137160Y-58420
X137160Y-63500
X137160Y-71120
X139700Y-68580
X139700Y-76200
X142240Y-42545
X142240Y-49530
X143510Y-74930
X144780Y-49530
X144780Y-68580
X146050Y-74930
X149860Y-50800
X149860Y-66040
X149860Y-73660
X149860Y-76200
X149860Y-83820
X150495Y-54610
X150495Y-62230
X152400Y-68580
X153035Y-54610
X153035Y-62230
X154940Y-67310
X155575Y-54610
X157480Y-50800
X162560Y-42545
X165100Y-67310
X165735Y-54610
X170180Y-49530
X170180Y-52070
X170180Y-69850
X170180Y-72390
T3
X110610Y-30480
X118110Y-30480
X147440Y-30480
X154940Y-30480
T4
X95250Y-82550
X100330Y-82550
X109220Y-82550
X114300Y-82550
X128270Y-25400
X133350Y-25400
X134620Y-82550
X138430Y-25400
X139700Y-82550
X154940Y-82550
X160020Y-82550
T5
X88900Y-24130
X88900Y-85090
X175260Y-24130
X175260Y-85090
T0
M30
