G04 #@! TF.FileFunction,Soldermask,Top*
%FSLAX46Y46*%
G04 Gerber Fmt 4.6, Leading zero omitted, Abs format (unit mm)*
G04 Created by KiCad (PCBNEW 4.0.7-e2-6376~60~ubuntu17.10.1) date Tue Mar 20 18:45:29 2018*
%MOMM*%
%LPD*%
G01*
G04 APERTURE LIST*
%ADD10C,0.100000*%
%ADD11R,3.000000X3.000000*%
%ADD12C,3.000000*%
%ADD13R,1.651000X1.651000*%
%ADD14C,1.651000*%
%ADD15R,1.778000X1.778000*%
%ADD16C,1.778000*%
%ADD17R,1.600000X1.600000*%
%ADD18O,1.600000X1.600000*%
%ADD19R,2.400000X2.400000*%
%ADD20C,2.400000*%
%ADD21R,1.397000X1.397000*%
%ADD22C,1.397000*%
%ADD23C,5.700000*%
G04 APERTURE END LIST*
D10*
D11*
X95250000Y-82550000D03*
D12*
X100330000Y-82550000D03*
D13*
X144780000Y-49530000D03*
D14*
X142240000Y-49530000D03*
D15*
X162560000Y-42545000D03*
D16*
X142240000Y-42545000D03*
D13*
X100330000Y-74930000D03*
D14*
X97790000Y-74930000D03*
D15*
X125730000Y-42545000D03*
D16*
X105410000Y-42545000D03*
D13*
X99060000Y-49530000D03*
D14*
X96520000Y-49530000D03*
D13*
X146050000Y-74930000D03*
D14*
X143510000Y-74930000D03*
D11*
X138430000Y-25400000D03*
D12*
X133350000Y-25400000D03*
X128270000Y-25400000D03*
D17*
X93980000Y-57150000D03*
D18*
X101600000Y-64770000D03*
X93980000Y-59690000D03*
X101600000Y-62230000D03*
X93980000Y-62230000D03*
X101600000Y-59690000D03*
X93980000Y-64770000D03*
X101600000Y-57150000D03*
D17*
X139700000Y-57150000D03*
D18*
X147320000Y-64770000D03*
X139700000Y-59690000D03*
X147320000Y-62230000D03*
X139700000Y-62230000D03*
X147320000Y-59690000D03*
X139700000Y-64770000D03*
X147320000Y-57150000D03*
D19*
X154940000Y-30480000D03*
D20*
X147440000Y-30480000D03*
D19*
X118110000Y-30480000D03*
D20*
X110610000Y-30480000D03*
D21*
X88900000Y-72390000D03*
D22*
X88900000Y-62230000D03*
D21*
X88900000Y-59690000D03*
D22*
X88900000Y-49530000D03*
D21*
X134620000Y-59690000D03*
D22*
X134620000Y-49530000D03*
D21*
X134620000Y-72390000D03*
D22*
X134620000Y-62230000D03*
X104140000Y-50800000D03*
X111760000Y-50800000D03*
X149860000Y-50800000D03*
X157480000Y-50800000D03*
X139700000Y-76200000D03*
X139700000Y-68580000D03*
X93980000Y-68580000D03*
X93980000Y-76200000D03*
X106680000Y-68580000D03*
X99060000Y-68580000D03*
X104775000Y-54610000D03*
X104775000Y-62230000D03*
X104140000Y-76200000D03*
X104140000Y-83820000D03*
X150495000Y-54610000D03*
X150495000Y-62230000D03*
X149860000Y-76200000D03*
X149860000Y-83820000D03*
X152400000Y-68580000D03*
X144780000Y-68580000D03*
X91440000Y-63500000D03*
X91440000Y-71120000D03*
X107315000Y-54610000D03*
X107315000Y-62230000D03*
X91440000Y-58420000D03*
X91440000Y-50800000D03*
X104140000Y-73660000D03*
X104140000Y-66040000D03*
X149860000Y-66040000D03*
X149860000Y-73660000D03*
X137160000Y-58420000D03*
X137160000Y-50800000D03*
X153035000Y-62230000D03*
X153035000Y-54610000D03*
X137160000Y-63500000D03*
X137160000Y-71120000D03*
D13*
X124460000Y-52070000D03*
D14*
X124460000Y-49530000D03*
D13*
X170180000Y-72390000D03*
D14*
X170180000Y-69850000D03*
D13*
X170180000Y-52070000D03*
D14*
X170180000Y-49530000D03*
D13*
X124460000Y-72390000D03*
D14*
X124460000Y-69850000D03*
D21*
X120015000Y-54610000D03*
D22*
X109855000Y-54610000D03*
D21*
X109220000Y-67310000D03*
D22*
X119380000Y-67310000D03*
D21*
X165735000Y-54610000D03*
D22*
X155575000Y-54610000D03*
D21*
X154940000Y-67310000D03*
D22*
X165100000Y-67310000D03*
D11*
X109220000Y-82550000D03*
D12*
X114300000Y-82550000D03*
D11*
X154940000Y-82550000D03*
D12*
X160020000Y-82550000D03*
D11*
X134620000Y-82550000D03*
D12*
X139700000Y-82550000D03*
D23*
X175260000Y-24130000D03*
X88900000Y-24130000D03*
X88900000Y-85090000D03*
X175260000Y-85090000D03*
M02*
