G04 #@! TF.FileFunction,Copper,L2,Bot,Signal*
%FSLAX46Y46*%
G04 Gerber Fmt 4.6, Leading zero omitted, Abs format (unit mm)*
G04 Created by KiCad (PCBNEW 4.0.7-e2-6376~60~ubuntu17.10.1) date Tue Mar 20 18:45:29 2018*
%MOMM*%
%LPD*%
G01*
G04 APERTURE LIST*
%ADD10C,0.100000*%
%ADD11C,0.300000*%
%ADD12R,3.000000X3.000000*%
%ADD13C,3.000000*%
%ADD14R,4.600000X1.100000*%
%ADD15R,9.400000X10.800000*%
%ADD16R,1.651000X1.651000*%
%ADD17C,1.651000*%
%ADD18R,1.778000X1.778000*%
%ADD19C,1.778000*%
%ADD20R,1.600000X1.600000*%
%ADD21O,1.600000X1.600000*%
%ADD22R,2.400000X2.400000*%
%ADD23C,2.400000*%
%ADD24R,1.397000X1.397000*%
%ADD25C,1.397000*%
%ADD26C,5.700000*%
%ADD27C,1.100000*%
%ADD28C,1.150000*%
%ADD29C,1.000000*%
%ADD30C,1.250000*%
%ADD31C,0.254000*%
G04 APERTURE END LIST*
D10*
D11*
X101885000Y-29802143D02*
X101670714Y-29873571D01*
X101313571Y-29873571D01*
X101170714Y-29802143D01*
X101099285Y-29730714D01*
X101027857Y-29587857D01*
X101027857Y-29445000D01*
X101099285Y-29302143D01*
X101170714Y-29230714D01*
X101313571Y-29159286D01*
X101599285Y-29087857D01*
X101742143Y-29016429D01*
X101813571Y-28945000D01*
X101885000Y-28802143D01*
X101885000Y-28659286D01*
X101813571Y-28516429D01*
X101742143Y-28445000D01*
X101599285Y-28373571D01*
X101242143Y-28373571D01*
X101027857Y-28445000D01*
X100170714Y-29873571D02*
X100313572Y-29802143D01*
X100385000Y-29730714D01*
X100456429Y-29587857D01*
X100456429Y-29159286D01*
X100385000Y-29016429D01*
X100313572Y-28945000D01*
X100170714Y-28873571D01*
X99956429Y-28873571D01*
X99813572Y-28945000D01*
X99742143Y-29016429D01*
X99670714Y-29159286D01*
X99670714Y-29587857D01*
X99742143Y-29730714D01*
X99813572Y-29802143D01*
X99956429Y-29873571D01*
X100170714Y-29873571D01*
X98813571Y-29873571D02*
X98956429Y-29802143D01*
X99027857Y-29659286D01*
X99027857Y-28373571D01*
X98242143Y-29873571D02*
X98242143Y-28873571D01*
X98242143Y-28373571D02*
X98313572Y-28445000D01*
X98242143Y-28516429D01*
X98170715Y-28445000D01*
X98242143Y-28373571D01*
X98242143Y-28516429D01*
X96885000Y-29873571D02*
X96885000Y-28373571D01*
X96885000Y-29802143D02*
X97027857Y-29873571D01*
X97313571Y-29873571D01*
X97456429Y-29802143D01*
X97527857Y-29730714D01*
X97599286Y-29587857D01*
X97599286Y-29159286D01*
X97527857Y-29016429D01*
X97456429Y-28945000D01*
X97313571Y-28873571D01*
X97027857Y-28873571D01*
X96885000Y-28945000D01*
X95099286Y-29802143D02*
X94885000Y-29873571D01*
X94527857Y-29873571D01*
X94385000Y-29802143D01*
X94313571Y-29730714D01*
X94242143Y-29587857D01*
X94242143Y-29445000D01*
X94313571Y-29302143D01*
X94385000Y-29230714D01*
X94527857Y-29159286D01*
X94813571Y-29087857D01*
X94956429Y-29016429D01*
X95027857Y-28945000D01*
X95099286Y-28802143D01*
X95099286Y-28659286D01*
X95027857Y-28516429D01*
X94956429Y-28445000D01*
X94813571Y-28373571D01*
X94456429Y-28373571D01*
X94242143Y-28445000D01*
X93813572Y-28873571D02*
X93242143Y-28873571D01*
X93599286Y-28373571D02*
X93599286Y-29659286D01*
X93527858Y-29802143D01*
X93385000Y-29873571D01*
X93242143Y-29873571D01*
X92099286Y-29873571D02*
X92099286Y-29087857D01*
X92170715Y-28945000D01*
X92313572Y-28873571D01*
X92599286Y-28873571D01*
X92742143Y-28945000D01*
X92099286Y-29802143D02*
X92242143Y-29873571D01*
X92599286Y-29873571D01*
X92742143Y-29802143D01*
X92813572Y-29659286D01*
X92813572Y-29516429D01*
X92742143Y-29373571D01*
X92599286Y-29302143D01*
X92242143Y-29302143D01*
X92099286Y-29230714D01*
X91599286Y-28873571D02*
X91027857Y-28873571D01*
X91385000Y-28373571D02*
X91385000Y-29659286D01*
X91313572Y-29802143D01*
X91170714Y-29873571D01*
X91027857Y-29873571D01*
X89956429Y-29802143D02*
X90099286Y-29873571D01*
X90385000Y-29873571D01*
X90527857Y-29802143D01*
X90599286Y-29659286D01*
X90599286Y-29087857D01*
X90527857Y-28945000D01*
X90385000Y-28873571D01*
X90099286Y-28873571D01*
X89956429Y-28945000D01*
X89885000Y-29087857D01*
X89885000Y-29230714D01*
X90599286Y-29373571D01*
X104563571Y-32423571D02*
X104563571Y-30923571D01*
X104563571Y-31637857D02*
X103706428Y-31637857D01*
X103706428Y-32423571D02*
X103706428Y-30923571D01*
X102420714Y-32352143D02*
X102563571Y-32423571D01*
X102849285Y-32423571D01*
X102992142Y-32352143D01*
X103063571Y-32209286D01*
X103063571Y-31637857D01*
X102992142Y-31495000D01*
X102849285Y-31423571D01*
X102563571Y-31423571D01*
X102420714Y-31495000D01*
X102349285Y-31637857D01*
X102349285Y-31780714D01*
X103063571Y-31923571D01*
X101063571Y-32423571D02*
X101063571Y-31637857D01*
X101135000Y-31495000D01*
X101277857Y-31423571D01*
X101563571Y-31423571D01*
X101706428Y-31495000D01*
X101063571Y-32352143D02*
X101206428Y-32423571D01*
X101563571Y-32423571D01*
X101706428Y-32352143D01*
X101777857Y-32209286D01*
X101777857Y-32066429D01*
X101706428Y-31923571D01*
X101563571Y-31852143D01*
X101206428Y-31852143D01*
X101063571Y-31780714D01*
X99706428Y-32423571D02*
X99706428Y-30923571D01*
X99706428Y-32352143D02*
X99849285Y-32423571D01*
X100134999Y-32423571D01*
X100277857Y-32352143D01*
X100349285Y-32280714D01*
X100420714Y-32137857D01*
X100420714Y-31709286D01*
X100349285Y-31566429D01*
X100277857Y-31495000D01*
X100134999Y-31423571D01*
X99849285Y-31423571D01*
X99706428Y-31495000D01*
X98992142Y-31423571D02*
X98992142Y-32923571D01*
X98992142Y-31495000D02*
X98849285Y-31423571D01*
X98563571Y-31423571D01*
X98420714Y-31495000D01*
X98349285Y-31566429D01*
X98277856Y-31709286D01*
X98277856Y-32137857D01*
X98349285Y-32280714D01*
X98420714Y-32352143D01*
X98563571Y-32423571D01*
X98849285Y-32423571D01*
X98992142Y-32352143D01*
X97634999Y-32423571D02*
X97634999Y-30923571D01*
X96992142Y-32423571D02*
X96992142Y-31637857D01*
X97063571Y-31495000D01*
X97206428Y-31423571D01*
X97420713Y-31423571D01*
X97563571Y-31495000D01*
X97634999Y-31566429D01*
X96063570Y-32423571D02*
X96206428Y-32352143D01*
X96277856Y-32280714D01*
X96349285Y-32137857D01*
X96349285Y-31709286D01*
X96277856Y-31566429D01*
X96206428Y-31495000D01*
X96063570Y-31423571D01*
X95849285Y-31423571D01*
X95706428Y-31495000D01*
X95634999Y-31566429D01*
X95563570Y-31709286D01*
X95563570Y-32137857D01*
X95634999Y-32280714D01*
X95706428Y-32352143D01*
X95849285Y-32423571D01*
X96063570Y-32423571D01*
X94920713Y-31423571D02*
X94920713Y-32423571D01*
X94920713Y-31566429D02*
X94849285Y-31495000D01*
X94706427Y-31423571D01*
X94492142Y-31423571D01*
X94349285Y-31495000D01*
X94277856Y-31637857D01*
X94277856Y-32423571D01*
X92992142Y-32352143D02*
X93134999Y-32423571D01*
X93420713Y-32423571D01*
X93563570Y-32352143D01*
X93634999Y-32209286D01*
X93634999Y-31637857D01*
X93563570Y-31495000D01*
X93420713Y-31423571D01*
X93134999Y-31423571D01*
X92992142Y-31495000D01*
X92920713Y-31637857D01*
X92920713Y-31780714D01*
X93634999Y-31923571D01*
X91206428Y-31995000D02*
X90492142Y-31995000D01*
X91349285Y-32423571D02*
X90849285Y-30923571D01*
X90349285Y-32423571D01*
X89849285Y-32423571D02*
X89849285Y-31423571D01*
X89849285Y-31566429D02*
X89777857Y-31495000D01*
X89634999Y-31423571D01*
X89420714Y-31423571D01*
X89277857Y-31495000D01*
X89206428Y-31637857D01*
X89206428Y-32423571D01*
X89206428Y-31637857D02*
X89134999Y-31495000D01*
X88992142Y-31423571D01*
X88777857Y-31423571D01*
X88634999Y-31495000D01*
X88563571Y-31637857D01*
X88563571Y-32423571D01*
X87849285Y-31423571D02*
X87849285Y-32923571D01*
X87849285Y-31495000D02*
X87706428Y-31423571D01*
X87420714Y-31423571D01*
X87277857Y-31495000D01*
X87206428Y-31566429D01*
X87134999Y-31709286D01*
X87134999Y-32137857D01*
X87206428Y-32280714D01*
X87277857Y-32352143D01*
X87420714Y-32423571D01*
X87706428Y-32423571D01*
X87849285Y-32352143D01*
X98170714Y-33473571D02*
X97670714Y-34973571D01*
X97170714Y-33473571D01*
X96813571Y-33473571D02*
X95885000Y-33473571D01*
X96385000Y-34045000D01*
X96170714Y-34045000D01*
X96027857Y-34116429D01*
X95956428Y-34187857D01*
X95885000Y-34330714D01*
X95885000Y-34687857D01*
X95956428Y-34830714D01*
X96027857Y-34902143D01*
X96170714Y-34973571D01*
X96599286Y-34973571D01*
X96742143Y-34902143D01*
X96813571Y-34830714D01*
X95242143Y-34830714D02*
X95170715Y-34902143D01*
X95242143Y-34973571D01*
X95313572Y-34902143D01*
X95242143Y-34830714D01*
X95242143Y-34973571D01*
X94242143Y-33473571D02*
X94099286Y-33473571D01*
X93956429Y-33545000D01*
X93885000Y-33616429D01*
X93813571Y-33759286D01*
X93742143Y-34045000D01*
X93742143Y-34402143D01*
X93813571Y-34687857D01*
X93885000Y-34830714D01*
X93956429Y-34902143D01*
X94099286Y-34973571D01*
X94242143Y-34973571D01*
X94385000Y-34902143D01*
X94456429Y-34830714D01*
X94527857Y-34687857D01*
X94599286Y-34402143D01*
X94599286Y-34045000D01*
X94527857Y-33759286D01*
X94456429Y-33616429D01*
X94385000Y-33545000D01*
X94242143Y-33473571D01*
X99956429Y-37095000D02*
X99242143Y-37095000D01*
X100099286Y-37523571D02*
X99599286Y-36023571D01*
X99099286Y-37523571D01*
X98670715Y-37452143D02*
X98527858Y-37523571D01*
X98242143Y-37523571D01*
X98099286Y-37452143D01*
X98027858Y-37309286D01*
X98027858Y-37237857D01*
X98099286Y-37095000D01*
X98242143Y-37023571D01*
X98456429Y-37023571D01*
X98599286Y-36952143D01*
X98670715Y-36809286D01*
X98670715Y-36737857D01*
X98599286Y-36595000D01*
X98456429Y-36523571D01*
X98242143Y-36523571D01*
X98099286Y-36595000D01*
X96742143Y-36523571D02*
X96742143Y-37523571D01*
X97385000Y-36523571D02*
X97385000Y-37309286D01*
X97313572Y-37452143D01*
X97170714Y-37523571D01*
X96956429Y-37523571D01*
X96813572Y-37452143D01*
X96742143Y-37380714D01*
X96027857Y-37523571D02*
X96027857Y-36523571D01*
X96027857Y-36809286D02*
X95956429Y-36666429D01*
X95885000Y-36595000D01*
X95742143Y-36523571D01*
X95599286Y-36523571D01*
X94456429Y-37523571D02*
X94456429Y-36737857D01*
X94527858Y-36595000D01*
X94670715Y-36523571D01*
X94956429Y-36523571D01*
X95099286Y-36595000D01*
X94456429Y-37452143D02*
X94599286Y-37523571D01*
X94956429Y-37523571D01*
X95099286Y-37452143D01*
X95170715Y-37309286D01*
X95170715Y-37166429D01*
X95099286Y-37023571D01*
X94956429Y-36952143D01*
X94599286Y-36952143D01*
X94456429Y-36880714D01*
X93742143Y-36523571D02*
X93742143Y-37523571D01*
X93742143Y-36666429D02*
X93670715Y-36595000D01*
X93527857Y-36523571D01*
X93313572Y-36523571D01*
X93170715Y-36595000D01*
X93099286Y-36737857D01*
X93099286Y-37523571D01*
X92456429Y-37452143D02*
X92313572Y-37523571D01*
X92027857Y-37523571D01*
X91885000Y-37452143D01*
X91813572Y-37309286D01*
X91813572Y-37237857D01*
X91885000Y-37095000D01*
X92027857Y-37023571D01*
X92242143Y-37023571D01*
X92385000Y-36952143D01*
X92456429Y-36809286D01*
X92456429Y-36737857D01*
X92385000Y-36595000D01*
X92242143Y-36523571D01*
X92027857Y-36523571D01*
X91885000Y-36595000D01*
D12*
X95250000Y-82550000D03*
D13*
X100330000Y-82550000D03*
D14*
X118110000Y-57560000D03*
X118110000Y-59260000D03*
X118110000Y-62660000D03*
D15*
X127260000Y-60960000D03*
D14*
X118110000Y-60960000D03*
X118110000Y-64360000D03*
D16*
X144780000Y-49530000D03*
D17*
X142240000Y-49530000D03*
D18*
X162560000Y-42545000D03*
D19*
X142240000Y-42545000D03*
D16*
X100330000Y-74930000D03*
D17*
X97790000Y-74930000D03*
D18*
X125730000Y-42545000D03*
D19*
X105410000Y-42545000D03*
D16*
X99060000Y-49530000D03*
D17*
X96520000Y-49530000D03*
D16*
X146050000Y-74930000D03*
D17*
X143510000Y-74930000D03*
D12*
X138430000Y-25400000D03*
D13*
X133350000Y-25400000D03*
X128270000Y-25400000D03*
D20*
X93980000Y-57150000D03*
D21*
X101600000Y-64770000D03*
X93980000Y-59690000D03*
X101600000Y-62230000D03*
X93980000Y-62230000D03*
X101600000Y-59690000D03*
X93980000Y-64770000D03*
X101600000Y-57150000D03*
D20*
X139700000Y-57150000D03*
D21*
X147320000Y-64770000D03*
X139700000Y-59690000D03*
X147320000Y-62230000D03*
X139700000Y-62230000D03*
X147320000Y-59690000D03*
X139700000Y-64770000D03*
X147320000Y-57150000D03*
D22*
X154940000Y-30480000D03*
D23*
X147440000Y-30480000D03*
D22*
X118110000Y-30480000D03*
D23*
X110610000Y-30480000D03*
D24*
X88900000Y-72390000D03*
D25*
X88900000Y-62230000D03*
D24*
X88900000Y-59690000D03*
D25*
X88900000Y-49530000D03*
D24*
X134620000Y-59690000D03*
D25*
X134620000Y-49530000D03*
D24*
X134620000Y-72390000D03*
D25*
X134620000Y-62230000D03*
X104140000Y-50800000D03*
X111760000Y-50800000D03*
X149860000Y-50800000D03*
X157480000Y-50800000D03*
X139700000Y-76200000D03*
X139700000Y-68580000D03*
X93980000Y-68580000D03*
X93980000Y-76200000D03*
X106680000Y-68580000D03*
X99060000Y-68580000D03*
X104775000Y-54610000D03*
X104775000Y-62230000D03*
X104140000Y-76200000D03*
X104140000Y-83820000D03*
X150495000Y-54610000D03*
X150495000Y-62230000D03*
X149860000Y-76200000D03*
X149860000Y-83820000D03*
X152400000Y-68580000D03*
X144780000Y-68580000D03*
X91440000Y-63500000D03*
X91440000Y-71120000D03*
X107315000Y-54610000D03*
X107315000Y-62230000D03*
X91440000Y-58420000D03*
X91440000Y-50800000D03*
X104140000Y-73660000D03*
X104140000Y-66040000D03*
X149860000Y-66040000D03*
X149860000Y-73660000D03*
X137160000Y-58420000D03*
X137160000Y-50800000D03*
X153035000Y-62230000D03*
X153035000Y-54610000D03*
X137160000Y-63500000D03*
X137160000Y-71120000D03*
D16*
X124460000Y-52070000D03*
D17*
X124460000Y-49530000D03*
D16*
X170180000Y-72390000D03*
D17*
X170180000Y-69850000D03*
D16*
X170180000Y-52070000D03*
D17*
X170180000Y-49530000D03*
D16*
X124460000Y-72390000D03*
D17*
X124460000Y-69850000D03*
D24*
X120015000Y-54610000D03*
D25*
X109855000Y-54610000D03*
D24*
X109220000Y-67310000D03*
D25*
X119380000Y-67310000D03*
D24*
X165735000Y-54610000D03*
D25*
X155575000Y-54610000D03*
D24*
X154940000Y-67310000D03*
D25*
X165100000Y-67310000D03*
D14*
X163830000Y-57560000D03*
X163830000Y-59260000D03*
X163830000Y-62660000D03*
D15*
X172980000Y-60960000D03*
D14*
X163830000Y-60960000D03*
X163830000Y-64360000D03*
D12*
X109220000Y-82550000D03*
D13*
X114300000Y-82550000D03*
D12*
X154940000Y-82550000D03*
D13*
X160020000Y-82550000D03*
D12*
X134620000Y-82550000D03*
D13*
X139700000Y-82550000D03*
D26*
X175260000Y-24130000D03*
X88900000Y-24130000D03*
X88900000Y-85090000D03*
X175260000Y-85090000D03*
D27*
X118110000Y-57560000D02*
X118110000Y-56515000D01*
X122555000Y-52070000D02*
X124460000Y-52070000D01*
X118110000Y-56515000D02*
X122555000Y-52070000D01*
X167640000Y-52070000D02*
X167005000Y-52070000D01*
D28*
X170180000Y-52070000D02*
X168910000Y-52070000D01*
X167640000Y-52070000D02*
X168910000Y-52070000D01*
D27*
X165735000Y-53340000D02*
X165735000Y-54610000D01*
X167005000Y-52070000D02*
X165735000Y-53340000D01*
X165735000Y-54610000D02*
X165100000Y-54610000D01*
X165100000Y-54610000D02*
X163830000Y-55880000D01*
D28*
X163830000Y-55880000D02*
X163830000Y-57560000D01*
D29*
X163830000Y-64360000D02*
X169580000Y-64360000D01*
X169580000Y-64360000D02*
X172980000Y-60960000D01*
X118110000Y-64360000D02*
X123860000Y-64360000D01*
X123860000Y-64360000D02*
X127260000Y-60960000D01*
X165100000Y-67310000D02*
X165100000Y-65630000D01*
X165100000Y-65630000D02*
X163830000Y-64360000D01*
X119380000Y-67310000D02*
X119380000Y-65630000D01*
X119380000Y-65630000D02*
X118110000Y-64360000D01*
X118110000Y-60960000D02*
X127260000Y-60960000D01*
X163830000Y-60960000D02*
X172980000Y-60960000D01*
X91440000Y-62230000D02*
X91440000Y-63500000D01*
X91440000Y-62230000D02*
X88900000Y-62230000D01*
X93980000Y-62230000D02*
X91440000Y-62230000D01*
X91440000Y-58420000D02*
X91440000Y-59690000D01*
X88900000Y-59690000D02*
X91440000Y-59690000D01*
X91440000Y-59690000D02*
X93980000Y-59690000D01*
X107315000Y-54610000D02*
X107315000Y-50165000D01*
X106680000Y-49530000D02*
X104140000Y-46990000D01*
X104140000Y-46990000D02*
X91440000Y-46990000D01*
X91440000Y-46990000D02*
X88900000Y-49530000D01*
X107315000Y-50165000D02*
X106680000Y-49530000D01*
X88900000Y-49530000D02*
X88900000Y-54610000D01*
X92710000Y-55880000D02*
X93980000Y-57150000D01*
X91440000Y-54610000D02*
X92710000Y-55880000D01*
X88900000Y-54610000D02*
X91440000Y-54610000D01*
X137160000Y-59690000D02*
X139700000Y-59690000D01*
X134620000Y-59690000D02*
X137160000Y-59690000D01*
X137160000Y-58420000D02*
X137160000Y-59690000D01*
X153035000Y-54610000D02*
X153035000Y-50165000D01*
X152400000Y-49530000D02*
X149860000Y-46990000D01*
X149860000Y-46990000D02*
X137160000Y-46990000D01*
X137160000Y-46990000D02*
X134620000Y-49530000D01*
X153035000Y-50165000D02*
X152400000Y-49530000D01*
X134620000Y-54610000D02*
X137160000Y-54610000D01*
X137160000Y-54610000D02*
X138430000Y-55880000D01*
X138430000Y-55880000D02*
X139700000Y-57150000D01*
X134620000Y-49530000D02*
X134620000Y-54610000D01*
X137160000Y-62230000D02*
X137160000Y-63500000D01*
X139700000Y-62230000D02*
X137160000Y-62230000D01*
X137160000Y-62230000D02*
X134620000Y-62230000D01*
X107315000Y-62230000D02*
X106680000Y-62230000D01*
X106680000Y-68580000D02*
X106680000Y-62230000D01*
X106680000Y-62230000D02*
X104140000Y-62230000D01*
X104140000Y-62230000D02*
X101600000Y-62230000D01*
X153035000Y-62230000D02*
X152400000Y-62230000D01*
X152400000Y-68580000D02*
X152400000Y-62230000D01*
X149860000Y-62230000D02*
X147320000Y-62230000D01*
X152400000Y-62230000D02*
X149860000Y-62230000D01*
D27*
X118110000Y-62660000D02*
X112190000Y-62660000D01*
X109220000Y-59690000D02*
X101600000Y-59690000D01*
X112190000Y-62660000D02*
X109220000Y-59690000D01*
X163830000Y-62660000D02*
X157910000Y-62660000D01*
X154940000Y-59690000D02*
X147320000Y-59690000D01*
X157910000Y-62660000D02*
X154940000Y-59690000D01*
D30*
X114300000Y-82550000D02*
X114300000Y-80010000D01*
X104140000Y-69850000D02*
X105410000Y-71120000D01*
X104140000Y-69850000D02*
X104140000Y-66040000D01*
X114300000Y-80010000D02*
X105410000Y-71120000D01*
X104140000Y-66040000D02*
X102870000Y-64770000D01*
D29*
X102870000Y-64770000D02*
X101600000Y-64770000D01*
D30*
X160020000Y-82550000D02*
X160020000Y-80010000D01*
X149860000Y-69850000D02*
X149860000Y-66040000D01*
X160020000Y-80010000D02*
X149860000Y-69850000D01*
X147320000Y-64770000D02*
X148590000Y-64770000D01*
X148590000Y-64770000D02*
X149860000Y-66040000D01*
X91440000Y-71120000D02*
X91440000Y-78740000D01*
X100330000Y-80645000D02*
X100330000Y-81280000D01*
X98425000Y-78740000D02*
X100330000Y-80645000D01*
X94615000Y-78740000D02*
X98425000Y-78740000D01*
X91440000Y-78740000D02*
X94615000Y-78740000D01*
X100330000Y-81280000D02*
X102870000Y-83820000D01*
X102870000Y-83820000D02*
X104140000Y-83820000D01*
D27*
X113030000Y-58420000D02*
X111760000Y-57150000D01*
X111760000Y-57150000D02*
X104775000Y-57150000D01*
X104775000Y-57150000D02*
X102870000Y-55245000D01*
X102870000Y-55245000D02*
X99060000Y-55245000D01*
X99060000Y-55245000D02*
X97790000Y-56515000D01*
D29*
X102870000Y-55245000D02*
X99060000Y-55245000D01*
X99060000Y-55245000D02*
X97790000Y-56515000D01*
X97790000Y-68580000D02*
X97790000Y-56515000D01*
D27*
X113870000Y-59260000D02*
X118110000Y-59260000D01*
X113870000Y-59260000D02*
X113030000Y-58420000D01*
D29*
X104775000Y-57150000D02*
X102870000Y-55245000D01*
X111760000Y-57150000D02*
X104775000Y-57150000D01*
D30*
X96520000Y-69850000D02*
X97790000Y-68580000D01*
X99060000Y-68580000D02*
X97790000Y-68580000D01*
X96520000Y-69850000D02*
X95250000Y-71120000D01*
D29*
X95250000Y-71120000D02*
X91440000Y-71120000D01*
D27*
X144780000Y-55245000D02*
X143510000Y-56515000D01*
X148590000Y-55245000D02*
X147320000Y-55245000D01*
X147320000Y-55245000D02*
X144780000Y-55245000D01*
X150495000Y-57150000D02*
X148590000Y-55245000D01*
X143510000Y-56515000D02*
X143510000Y-68580000D01*
X150495000Y-57150000D02*
X156845000Y-57150000D01*
X156845000Y-57150000D02*
X158955000Y-59260000D01*
X158955000Y-59260000D02*
X163830000Y-59260000D01*
D29*
X156845000Y-57150000D02*
X150495000Y-57150000D01*
D27*
X163830000Y-59260000D02*
X158955000Y-59260000D01*
X158955000Y-59260000D02*
X156845000Y-57150000D01*
D30*
X149860000Y-83820000D02*
X140970000Y-83820000D01*
X140970000Y-83820000D02*
X139700000Y-82550000D01*
X142240000Y-69850000D02*
X143510000Y-68580000D01*
X137160000Y-71120000D02*
X140970000Y-71120000D01*
X140970000Y-71120000D02*
X142240000Y-69850000D01*
X143510000Y-68580000D02*
X144780000Y-68580000D01*
X139700000Y-82550000D02*
X139700000Y-81280000D01*
X139700000Y-81280000D02*
X137160000Y-78740000D01*
X137160000Y-78740000D02*
X137160000Y-71120000D01*
D29*
X144780000Y-68580000D02*
X143510000Y-68580000D01*
X140970000Y-71120000D02*
X142240000Y-69850000D01*
D31*
G36*
X171890429Y-21874269D02*
X171283692Y-23335455D01*
X171282311Y-24917604D01*
X171886498Y-26379846D01*
X173004269Y-27499571D01*
X174465455Y-28106308D01*
X176047604Y-28107689D01*
X177509846Y-27503502D01*
X178629571Y-26385731D01*
X178823000Y-25919902D01*
X178823000Y-55527693D01*
X178750494Y-55142359D01*
X178503669Y-54758781D01*
X178127056Y-54501452D01*
X177680000Y-54410921D01*
X168280000Y-54410921D01*
X167862359Y-54489506D01*
X167582579Y-54669539D01*
X167582579Y-53911500D01*
X167575066Y-53871570D01*
X167674636Y-53772000D01*
X168641008Y-53772000D01*
X168907444Y-53954048D01*
X169354500Y-54044579D01*
X171005500Y-54044579D01*
X171423141Y-53965994D01*
X171806719Y-53719169D01*
X172064048Y-53342556D01*
X172154579Y-52895500D01*
X172154579Y-51244500D01*
X172075994Y-50826859D01*
X171829169Y-50443281D01*
X171487344Y-50209722D01*
X171652340Y-49752869D01*
X171625553Y-49172465D01*
X171454976Y-48760656D01*
X171206215Y-48683390D01*
X170359605Y-49530000D01*
X170373748Y-49544143D01*
X170194143Y-49723748D01*
X170180000Y-49709605D01*
X170165858Y-49723748D01*
X169986253Y-49544143D01*
X170000395Y-49530000D01*
X169153785Y-48683390D01*
X168905024Y-48760656D01*
X168707660Y-49307131D01*
X168734447Y-49887535D01*
X168870733Y-50216557D01*
X168635383Y-50368000D01*
X167640000Y-50368000D01*
X167514317Y-50393000D01*
X167005000Y-50393000D01*
X166363240Y-50520654D01*
X165819182Y-50884182D01*
X164549182Y-52154182D01*
X164185654Y-52698240D01*
X164060733Y-53326260D01*
X163914182Y-53424182D01*
X162733055Y-54605309D01*
X162626504Y-54676504D01*
X162257557Y-55228673D01*
X162131795Y-55860921D01*
X161530000Y-55860921D01*
X161112359Y-55939506D01*
X160728781Y-56186331D01*
X160471452Y-56562944D01*
X160380921Y-57010000D01*
X160380921Y-57583000D01*
X159649636Y-57583000D01*
X158030818Y-55964182D01*
X157486760Y-55600654D01*
X156845000Y-55473000D01*
X156617608Y-55473000D01*
X156509190Y-55364582D01*
X156744800Y-55302929D01*
X156920927Y-54802520D01*
X156892148Y-54272801D01*
X156744800Y-53917071D01*
X156509188Y-53855417D01*
X155754605Y-54610000D01*
X155768748Y-54624143D01*
X155589143Y-54803748D01*
X155575000Y-54789605D01*
X155560858Y-54803748D01*
X155381253Y-54624143D01*
X155395395Y-54610000D01*
X155381253Y-54595858D01*
X155560858Y-54416253D01*
X155575000Y-54430395D01*
X156329583Y-53675812D01*
X156267929Y-53440200D01*
X155767520Y-53264073D01*
X155237801Y-53292852D01*
X154882071Y-53440200D01*
X154820418Y-53675810D01*
X154705163Y-53560555D01*
X154662000Y-53603718D01*
X154662000Y-51734188D01*
X156725417Y-51734188D01*
X156787071Y-51969800D01*
X157287480Y-52145927D01*
X157817199Y-52117148D01*
X158172929Y-51969800D01*
X158234583Y-51734188D01*
X157480000Y-50979605D01*
X156725417Y-51734188D01*
X154662000Y-51734188D01*
X154662000Y-50607480D01*
X156134073Y-50607480D01*
X156162852Y-51137199D01*
X156310200Y-51492929D01*
X156545812Y-51554583D01*
X157300395Y-50800000D01*
X157659605Y-50800000D01*
X158414188Y-51554583D01*
X158649800Y-51492929D01*
X158825927Y-50992520D01*
X158797148Y-50462801D01*
X158649800Y-50107071D01*
X158414188Y-50045417D01*
X157659605Y-50800000D01*
X157300395Y-50800000D01*
X156545812Y-50045417D01*
X156310200Y-50107071D01*
X156134073Y-50607480D01*
X154662000Y-50607480D01*
X154662000Y-50165005D01*
X154662001Y-50165000D01*
X154602489Y-49865812D01*
X156725417Y-49865812D01*
X157480000Y-50620395D01*
X158234583Y-49865812D01*
X158172929Y-49630200D01*
X157672520Y-49454073D01*
X157142801Y-49482852D01*
X156787071Y-49630200D01*
X156725417Y-49865812D01*
X154602489Y-49865812D01*
X154538152Y-49542374D01*
X154380968Y-49307131D01*
X154185463Y-49014537D01*
X154185460Y-49014535D01*
X153674711Y-48503785D01*
X169333390Y-48503785D01*
X170180000Y-49350395D01*
X171026610Y-48503785D01*
X170949344Y-48255024D01*
X170402869Y-48057660D01*
X169822465Y-48084447D01*
X169410656Y-48255024D01*
X169333390Y-48503785D01*
X153674711Y-48503785D01*
X153550463Y-48379537D01*
X153550460Y-48379535D01*
X151010463Y-45839537D01*
X150482626Y-45486848D01*
X149860000Y-45363000D01*
X137160000Y-45363000D01*
X136537374Y-45486848D01*
X136009537Y-45839537D01*
X136009535Y-45839540D01*
X134064910Y-47784164D01*
X133587288Y-47981514D01*
X133073319Y-48494587D01*
X132794817Y-49165292D01*
X132794183Y-49891521D01*
X132993000Y-50372694D01*
X132993000Y-54610000D01*
X133116848Y-55232626D01*
X133469537Y-55760463D01*
X133997374Y-56113152D01*
X134620000Y-56237000D01*
X136486074Y-56237000D01*
X136843296Y-56594222D01*
X136798479Y-56594183D01*
X136127288Y-56871514D01*
X135613319Y-57384587D01*
X135415087Y-57861980D01*
X135318500Y-57842421D01*
X133921500Y-57842421D01*
X133503859Y-57921006D01*
X133120281Y-58167831D01*
X133109079Y-58184226D01*
X133109079Y-55560000D01*
X133030494Y-55142359D01*
X132783669Y-54758781D01*
X132407056Y-54501452D01*
X131960000Y-54410921D01*
X122585715Y-54410921D01*
X123101388Y-53895248D01*
X123187444Y-53954048D01*
X123634500Y-54044579D01*
X125285500Y-54044579D01*
X125703141Y-53965994D01*
X126086719Y-53719169D01*
X126344048Y-53342556D01*
X126434579Y-52895500D01*
X126434579Y-51244500D01*
X126355994Y-50826859D01*
X126109169Y-50443281D01*
X125767344Y-50209722D01*
X125932340Y-49752869D01*
X125905553Y-49172465D01*
X125734976Y-48760656D01*
X125486215Y-48683390D01*
X124639605Y-49530000D01*
X124653748Y-49544143D01*
X124474143Y-49723748D01*
X124460000Y-49709605D01*
X124445858Y-49723748D01*
X124266253Y-49544143D01*
X124280395Y-49530000D01*
X123433785Y-48683390D01*
X123185024Y-48760656D01*
X122987660Y-49307131D01*
X123014447Y-49887535D01*
X123150733Y-50216557D01*
X122876532Y-50393000D01*
X122555000Y-50393000D01*
X121913240Y-50520654D01*
X121369182Y-50884182D01*
X119490943Y-52762421D01*
X119316500Y-52762421D01*
X118898859Y-52841006D01*
X118515281Y-53087831D01*
X118257952Y-53464444D01*
X118167421Y-53911500D01*
X118167421Y-54085943D01*
X116924182Y-55329182D01*
X116568885Y-55860921D01*
X115810000Y-55860921D01*
X115392359Y-55939506D01*
X115008781Y-56186331D01*
X114751452Y-56562944D01*
X114660921Y-57010000D01*
X114660921Y-57583000D01*
X114564636Y-57583000D01*
X112945818Y-55964182D01*
X112401760Y-55600654D01*
X111760000Y-55473000D01*
X110897608Y-55473000D01*
X110789190Y-55364582D01*
X111024800Y-55302929D01*
X111200927Y-54802520D01*
X111172148Y-54272801D01*
X111024800Y-53917071D01*
X110789188Y-53855417D01*
X110034605Y-54610000D01*
X110048748Y-54624143D01*
X109869143Y-54803748D01*
X109855000Y-54789605D01*
X109840858Y-54803748D01*
X109661253Y-54624143D01*
X109675395Y-54610000D01*
X109661253Y-54595858D01*
X109840858Y-54416253D01*
X109855000Y-54430395D01*
X110609583Y-53675812D01*
X110547929Y-53440200D01*
X110047520Y-53264073D01*
X109517801Y-53292852D01*
X109162071Y-53440200D01*
X109100418Y-53675810D01*
X108985163Y-53560555D01*
X108942000Y-53603718D01*
X108942000Y-51734188D01*
X111005417Y-51734188D01*
X111067071Y-51969800D01*
X111567480Y-52145927D01*
X112097199Y-52117148D01*
X112452929Y-51969800D01*
X112514583Y-51734188D01*
X111760000Y-50979605D01*
X111005417Y-51734188D01*
X108942000Y-51734188D01*
X108942000Y-50607480D01*
X110414073Y-50607480D01*
X110442852Y-51137199D01*
X110590200Y-51492929D01*
X110825812Y-51554583D01*
X111580395Y-50800000D01*
X111939605Y-50800000D01*
X112694188Y-51554583D01*
X112929800Y-51492929D01*
X113105927Y-50992520D01*
X113077148Y-50462801D01*
X112929800Y-50107071D01*
X112694188Y-50045417D01*
X111939605Y-50800000D01*
X111580395Y-50800000D01*
X110825812Y-50045417D01*
X110590200Y-50107071D01*
X110414073Y-50607480D01*
X108942000Y-50607480D01*
X108942000Y-50165005D01*
X108942001Y-50165000D01*
X108882489Y-49865812D01*
X111005417Y-49865812D01*
X111760000Y-50620395D01*
X112514583Y-49865812D01*
X112452929Y-49630200D01*
X111952520Y-49454073D01*
X111422801Y-49482852D01*
X111067071Y-49630200D01*
X111005417Y-49865812D01*
X108882489Y-49865812D01*
X108818152Y-49542374D01*
X108660968Y-49307131D01*
X108465463Y-49014537D01*
X108465460Y-49014535D01*
X107954711Y-48503785D01*
X123613390Y-48503785D01*
X124460000Y-49350395D01*
X125306610Y-48503785D01*
X125229344Y-48255024D01*
X124682869Y-48057660D01*
X124102465Y-48084447D01*
X123690656Y-48255024D01*
X123613390Y-48503785D01*
X107954711Y-48503785D01*
X107830463Y-48379537D01*
X107830460Y-48379535D01*
X105290463Y-45839537D01*
X104762626Y-45486848D01*
X104140000Y-45363000D01*
X91440000Y-45363000D01*
X90817374Y-45486848D01*
X90289537Y-45839537D01*
X90289535Y-45839540D01*
X88344910Y-47784164D01*
X87867288Y-47981514D01*
X87353319Y-48494587D01*
X87074817Y-49165292D01*
X87074183Y-49891521D01*
X87273000Y-50372694D01*
X87273000Y-54610000D01*
X87396848Y-55232626D01*
X87749537Y-55760463D01*
X88277374Y-56113152D01*
X88900000Y-56237000D01*
X90766074Y-56237000D01*
X91123296Y-56594222D01*
X91078479Y-56594183D01*
X90407288Y-56871514D01*
X89893319Y-57384587D01*
X89695087Y-57861980D01*
X89598500Y-57842421D01*
X88201500Y-57842421D01*
X87783859Y-57921006D01*
X87400281Y-58167831D01*
X87142952Y-58544444D01*
X87052421Y-58991500D01*
X87052421Y-60388500D01*
X87131006Y-60806141D01*
X87370151Y-61177784D01*
X87353319Y-61194587D01*
X87074817Y-61865292D01*
X87074183Y-62591521D01*
X87351514Y-63262712D01*
X87864587Y-63776681D01*
X88535292Y-64055183D01*
X89261521Y-64055817D01*
X89631328Y-63903015D01*
X89891514Y-64532712D01*
X90404587Y-65046681D01*
X91075292Y-65325183D01*
X91801521Y-65325817D01*
X92101178Y-65202001D01*
X92161932Y-65507431D01*
X92579653Y-66132595D01*
X93204817Y-66550316D01*
X93942248Y-66697000D01*
X94017752Y-66697000D01*
X94755183Y-66550316D01*
X95380347Y-66132595D01*
X95798068Y-65507431D01*
X95944752Y-64770000D01*
X95798068Y-64032569D01*
X95442217Y-63500000D01*
X95798068Y-62967431D01*
X95944752Y-62230000D01*
X95798068Y-61492569D01*
X95442217Y-60960000D01*
X95798068Y-60427431D01*
X95944752Y-59690000D01*
X95798068Y-58952569D01*
X95630418Y-58701663D01*
X95838548Y-58397056D01*
X95929079Y-57950000D01*
X95929079Y-56350000D01*
X95850494Y-55932359D01*
X95603669Y-55548781D01*
X95227056Y-55291452D01*
X94780000Y-55200921D01*
X94331847Y-55200921D01*
X92590463Y-53459537D01*
X92062626Y-53106848D01*
X91440000Y-52983000D01*
X90527000Y-52983000D01*
X90527000Y-51806282D01*
X90570163Y-51849445D01*
X90685418Y-51734190D01*
X90747071Y-51969800D01*
X91247480Y-52145927D01*
X91777199Y-52117148D01*
X92132929Y-51969800D01*
X92194583Y-51734188D01*
X91440000Y-50979605D01*
X91425858Y-50993748D01*
X91246253Y-50814143D01*
X91260395Y-50800000D01*
X91619605Y-50800000D01*
X92374188Y-51554583D01*
X92609800Y-51492929D01*
X92785927Y-50992520D01*
X92757148Y-50462801D01*
X92609800Y-50107071D01*
X92374188Y-50045417D01*
X91619605Y-50800000D01*
X91260395Y-50800000D01*
X91246253Y-50785858D01*
X91425858Y-50606253D01*
X91440000Y-50620395D01*
X92194583Y-49865812D01*
X92132929Y-49630200D01*
X91632520Y-49454073D01*
X91256419Y-49474506D01*
X92113925Y-48617000D01*
X95427392Y-48617000D01*
X95493783Y-48683391D01*
X95245024Y-48760656D01*
X95047660Y-49307131D01*
X95074447Y-49887535D01*
X95245024Y-50299344D01*
X95493785Y-50376610D01*
X96340395Y-49530000D01*
X96326253Y-49515858D01*
X96505858Y-49336253D01*
X96520000Y-49350395D01*
X96534143Y-49336253D01*
X96713748Y-49515858D01*
X96699605Y-49530000D01*
X96713748Y-49544143D01*
X96534143Y-49723748D01*
X96520000Y-49709605D01*
X95673390Y-50556215D01*
X95750656Y-50804976D01*
X96297131Y-51002340D01*
X96877535Y-50975553D01*
X97206557Y-50839267D01*
X97410831Y-51156719D01*
X97787444Y-51414048D01*
X98234500Y-51504579D01*
X99885500Y-51504579D01*
X100303141Y-51425994D01*
X100686719Y-51179169D01*
X100944048Y-50802556D01*
X101034579Y-50355500D01*
X101034579Y-48704500D01*
X101018115Y-48617000D01*
X103466074Y-48617000D01*
X103823296Y-48974222D01*
X103778479Y-48974183D01*
X103107288Y-49251514D01*
X102593319Y-49764587D01*
X102314817Y-50435292D01*
X102314183Y-51161521D01*
X102591514Y-51832712D01*
X103104587Y-52346681D01*
X103775292Y-52625183D01*
X104501521Y-52625817D01*
X105172712Y-52348486D01*
X105686681Y-51835413D01*
X105688000Y-51832237D01*
X105688000Y-53603718D01*
X105644837Y-53560555D01*
X105529582Y-53675810D01*
X105467929Y-53440200D01*
X104967520Y-53264073D01*
X104437801Y-53292852D01*
X104082071Y-53440200D01*
X104020417Y-53675812D01*
X104775000Y-54430395D01*
X104789143Y-54416253D01*
X104968748Y-54595858D01*
X104954605Y-54610000D01*
X104968748Y-54624143D01*
X104794763Y-54798127D01*
X104055818Y-54059182D01*
X104021941Y-54036546D01*
X103840812Y-53855417D01*
X103776175Y-53872331D01*
X103511760Y-53695654D01*
X102870000Y-53568000D01*
X99060000Y-53568000D01*
X98418240Y-53695654D01*
X97874182Y-54059182D01*
X96604182Y-55329182D01*
X96240654Y-55873240D01*
X96113000Y-56515000D01*
X96163000Y-56766367D01*
X96163000Y-67729298D01*
X95315304Y-68576994D01*
X95297148Y-68242801D01*
X95149800Y-67887071D01*
X94914188Y-67825417D01*
X94159605Y-68580000D01*
X94173748Y-68594143D01*
X93994143Y-68773748D01*
X93980000Y-68759605D01*
X93965858Y-68773748D01*
X93786253Y-68594143D01*
X93800395Y-68580000D01*
X93045812Y-67825417D01*
X92810200Y-67887071D01*
X92634073Y-68387480D01*
X92662852Y-68917199D01*
X92810200Y-69272929D01*
X93045810Y-69334582D01*
X92930555Y-69449837D01*
X92973718Y-69493000D01*
X92281984Y-69493000D01*
X91804708Y-69294817D01*
X91078479Y-69294183D01*
X90407288Y-69571514D01*
X89893319Y-70084587D01*
X89614817Y-70755292D01*
X89614554Y-71056500D01*
X89185750Y-71056500D01*
X89027000Y-71215250D01*
X89027000Y-72263000D01*
X89047000Y-72263000D01*
X89047000Y-72517000D01*
X89027000Y-72517000D01*
X89027000Y-73564750D01*
X89185750Y-73723500D01*
X89688000Y-73723500D01*
X89688000Y-78740000D01*
X89821363Y-79410461D01*
X90201149Y-79978851D01*
X90769539Y-80358637D01*
X91440000Y-80492000D01*
X93437797Y-80492000D01*
X93390302Y-80511673D01*
X93211673Y-80690301D01*
X93115000Y-80923690D01*
X93115000Y-82264250D01*
X93273750Y-82423000D01*
X95123000Y-82423000D01*
X95123000Y-82403000D01*
X95377000Y-82403000D01*
X95377000Y-82423000D01*
X97226250Y-82423000D01*
X97385000Y-82264250D01*
X97385000Y-80923690D01*
X97288327Y-80690301D01*
X97109698Y-80511673D01*
X97062203Y-80492000D01*
X97699298Y-80492000D01*
X98185829Y-80978531D01*
X98104236Y-81059981D01*
X97703457Y-82025165D01*
X97702545Y-83070250D01*
X98101639Y-84036132D01*
X98839981Y-84775764D01*
X99805165Y-85176543D01*
X100850250Y-85177455D01*
X101486755Y-84914457D01*
X101631149Y-85058851D01*
X102199539Y-85438637D01*
X102870000Y-85572000D01*
X103599048Y-85572000D01*
X103775292Y-85645183D01*
X104501521Y-85645817D01*
X105172712Y-85368486D01*
X105686681Y-84855413D01*
X105965183Y-84184708D01*
X105965817Y-83458479D01*
X105708511Y-82835750D01*
X107085000Y-82835750D01*
X107085000Y-84176310D01*
X107181673Y-84409699D01*
X107360302Y-84588327D01*
X107593691Y-84685000D01*
X108934250Y-84685000D01*
X109093000Y-84526250D01*
X109093000Y-82677000D01*
X109347000Y-82677000D01*
X109347000Y-84526250D01*
X109505750Y-84685000D01*
X110846309Y-84685000D01*
X111079698Y-84588327D01*
X111258327Y-84409699D01*
X111355000Y-84176310D01*
X111355000Y-82835750D01*
X111196250Y-82677000D01*
X109347000Y-82677000D01*
X109093000Y-82677000D01*
X107243750Y-82677000D01*
X107085000Y-82835750D01*
X105708511Y-82835750D01*
X105688486Y-82787288D01*
X105175413Y-82273319D01*
X104504708Y-81994817D01*
X103778479Y-81994183D01*
X103599829Y-82068000D01*
X103595702Y-82068000D01*
X102451392Y-80923690D01*
X107085000Y-80923690D01*
X107085000Y-82264250D01*
X107243750Y-82423000D01*
X109093000Y-82423000D01*
X109093000Y-80573750D01*
X109347000Y-80573750D01*
X109347000Y-82423000D01*
X111196250Y-82423000D01*
X111355000Y-82264250D01*
X111355000Y-80923690D01*
X111258327Y-80690301D01*
X111079698Y-80511673D01*
X110846309Y-80415000D01*
X109505750Y-80415000D01*
X109347000Y-80573750D01*
X109093000Y-80573750D01*
X108934250Y-80415000D01*
X107593691Y-80415000D01*
X107360302Y-80511673D01*
X107181673Y-80690301D01*
X107085000Y-80923690D01*
X102451392Y-80923690D01*
X102059478Y-80531776D01*
X101948637Y-79974538D01*
X101568851Y-79406149D01*
X99663851Y-77501149D01*
X99114656Y-77134188D01*
X103385417Y-77134188D01*
X103447071Y-77369800D01*
X103947480Y-77545927D01*
X104477199Y-77517148D01*
X104832929Y-77369800D01*
X104894583Y-77134188D01*
X104140000Y-76379605D01*
X103385417Y-77134188D01*
X99114656Y-77134188D01*
X99095462Y-77121363D01*
X98425000Y-76988000D01*
X95629416Y-76988000D01*
X95805183Y-76564708D01*
X95805817Y-75838479D01*
X95590211Y-75316672D01*
X95837162Y-75316672D01*
X96133786Y-76034558D01*
X96682553Y-76584284D01*
X97399920Y-76882161D01*
X98176672Y-76882838D01*
X98894558Y-76586214D01*
X99174947Y-76306314D01*
X99378191Y-76390500D01*
X100044250Y-76390500D01*
X100203000Y-76231750D01*
X100203000Y-75057000D01*
X100457000Y-75057000D01*
X100457000Y-76231750D01*
X100615750Y-76390500D01*
X101281809Y-76390500D01*
X101515198Y-76293827D01*
X101693827Y-76115199D01*
X101738445Y-76007480D01*
X102794073Y-76007480D01*
X102822852Y-76537199D01*
X102970200Y-76892929D01*
X103205812Y-76954583D01*
X103960395Y-76200000D01*
X104319605Y-76200000D01*
X105074188Y-76954583D01*
X105309800Y-76892929D01*
X105485927Y-76392520D01*
X105457148Y-75862801D01*
X105309800Y-75507071D01*
X105074188Y-75445417D01*
X104319605Y-76200000D01*
X103960395Y-76200000D01*
X103205812Y-75445417D01*
X102970200Y-75507071D01*
X102794073Y-76007480D01*
X101738445Y-76007480D01*
X101790500Y-75881810D01*
X101790500Y-75215750D01*
X101631750Y-75057000D01*
X100457000Y-75057000D01*
X100203000Y-75057000D01*
X100183000Y-75057000D01*
X100183000Y-74803000D01*
X100203000Y-74803000D01*
X100203000Y-73628250D01*
X100457000Y-73628250D01*
X100457000Y-74803000D01*
X101631750Y-74803000D01*
X101790500Y-74644250D01*
X101790500Y-74594188D01*
X103385417Y-74594188D01*
X103447071Y-74829800D01*
X103708629Y-74921859D01*
X103447071Y-75030200D01*
X103385417Y-75265812D01*
X104140000Y-76020395D01*
X104894583Y-75265812D01*
X104832929Y-75030200D01*
X104571371Y-74938141D01*
X104832929Y-74829800D01*
X104894583Y-74594188D01*
X104140000Y-73839605D01*
X103385417Y-74594188D01*
X101790500Y-74594188D01*
X101790500Y-73978190D01*
X101693827Y-73744801D01*
X101515198Y-73566173D01*
X101281809Y-73469500D01*
X100615750Y-73469500D01*
X100457000Y-73628250D01*
X100203000Y-73628250D01*
X100044250Y-73469500D01*
X99378191Y-73469500D01*
X99174937Y-73553691D01*
X99088877Y-73467480D01*
X102794073Y-73467480D01*
X102822852Y-73997199D01*
X102970200Y-74352929D01*
X103205812Y-74414583D01*
X103960395Y-73660000D01*
X103205812Y-72905417D01*
X102970200Y-72967071D01*
X102794073Y-73467480D01*
X99088877Y-73467480D01*
X98897447Y-73275716D01*
X98180080Y-72977839D01*
X97403328Y-72977162D01*
X96685442Y-73273786D01*
X96135716Y-73822553D01*
X95837839Y-74539920D01*
X95837162Y-75316672D01*
X95590211Y-75316672D01*
X95528486Y-75167288D01*
X95015413Y-74653319D01*
X94344708Y-74374817D01*
X93618479Y-74374183D01*
X93192000Y-74550401D01*
X93192000Y-72747000D01*
X94621582Y-72747000D01*
X95250000Y-72872000D01*
X95920462Y-72738637D01*
X96488851Y-72358851D01*
X98515702Y-70332000D01*
X98519048Y-70332000D01*
X98695292Y-70405183D01*
X99421521Y-70405817D01*
X100092712Y-70128486D01*
X100606681Y-69615413D01*
X100885183Y-68944708D01*
X100885817Y-68218479D01*
X100608486Y-67547288D01*
X100095413Y-67033319D01*
X99424708Y-66754817D01*
X99417000Y-66754810D01*
X99417000Y-57259636D01*
X99662217Y-57014419D01*
X99635248Y-57150000D01*
X99781932Y-57887431D01*
X100137783Y-58420000D01*
X99781932Y-58952569D01*
X99635248Y-59690000D01*
X99781932Y-60427431D01*
X100137783Y-60960000D01*
X99781932Y-61492569D01*
X99635248Y-62230000D01*
X99781932Y-62967431D01*
X100137783Y-63500000D01*
X99781932Y-64032569D01*
X99635248Y-64770000D01*
X99781932Y-65507431D01*
X100199653Y-66132595D01*
X100824817Y-66550316D01*
X101562248Y-66697000D01*
X101637752Y-66697000D01*
X102206222Y-66583924D01*
X102388000Y-66765702D01*
X102388000Y-69850000D01*
X102521363Y-70520462D01*
X102901149Y-71088851D01*
X104136994Y-72324696D01*
X103802801Y-72342852D01*
X103447071Y-72490200D01*
X103385417Y-72725812D01*
X104140000Y-73480395D01*
X104154143Y-73466253D01*
X104333748Y-73645858D01*
X104319605Y-73660000D01*
X105074188Y-74414583D01*
X105309800Y-74352929D01*
X105485927Y-73852520D01*
X105475650Y-73663352D01*
X112473606Y-80661308D01*
X112074236Y-81059981D01*
X111673457Y-82025165D01*
X111672545Y-83070250D01*
X112071639Y-84036132D01*
X112809981Y-84775764D01*
X113775165Y-85176543D01*
X114820250Y-85177455D01*
X115786132Y-84778361D01*
X116525764Y-84040019D01*
X116926543Y-83074835D01*
X116926751Y-82835750D01*
X132485000Y-82835750D01*
X132485000Y-84176310D01*
X132581673Y-84409699D01*
X132760302Y-84588327D01*
X132993691Y-84685000D01*
X134334250Y-84685000D01*
X134493000Y-84526250D01*
X134493000Y-82677000D01*
X134747000Y-82677000D01*
X134747000Y-84526250D01*
X134905750Y-84685000D01*
X136246309Y-84685000D01*
X136479698Y-84588327D01*
X136658327Y-84409699D01*
X136755000Y-84176310D01*
X136755000Y-82835750D01*
X136596250Y-82677000D01*
X134747000Y-82677000D01*
X134493000Y-82677000D01*
X132643750Y-82677000D01*
X132485000Y-82835750D01*
X116926751Y-82835750D01*
X116927455Y-82029750D01*
X116528361Y-81063868D01*
X116388428Y-80923690D01*
X132485000Y-80923690D01*
X132485000Y-82264250D01*
X132643750Y-82423000D01*
X134493000Y-82423000D01*
X134493000Y-80573750D01*
X134334250Y-80415000D01*
X132993691Y-80415000D01*
X132760302Y-80511673D01*
X132581673Y-80690301D01*
X132485000Y-80923690D01*
X116388428Y-80923690D01*
X116052000Y-80586675D01*
X116052000Y-80010000D01*
X115918637Y-79339539D01*
X115538851Y-78771149D01*
X109443452Y-72675750D01*
X122999500Y-72675750D01*
X122999500Y-73341809D01*
X123096173Y-73575198D01*
X123274801Y-73753827D01*
X123508190Y-73850500D01*
X124174250Y-73850500D01*
X124333000Y-73691750D01*
X124333000Y-72517000D01*
X124587000Y-72517000D01*
X124587000Y-73691750D01*
X124745750Y-73850500D01*
X125411810Y-73850500D01*
X125645199Y-73753827D01*
X125823827Y-73575198D01*
X125920500Y-73341809D01*
X125920500Y-72675750D01*
X133286500Y-72675750D01*
X133286500Y-73214809D01*
X133383173Y-73448198D01*
X133561801Y-73626827D01*
X133795190Y-73723500D01*
X134334250Y-73723500D01*
X134493000Y-73564750D01*
X134493000Y-72517000D01*
X133445250Y-72517000D01*
X133286500Y-72675750D01*
X125920500Y-72675750D01*
X125761750Y-72517000D01*
X124587000Y-72517000D01*
X124333000Y-72517000D01*
X123158250Y-72517000D01*
X122999500Y-72675750D01*
X109443452Y-72675750D01*
X107134925Y-70367223D01*
X107450882Y-70236672D01*
X122507162Y-70236672D01*
X122803786Y-70954558D01*
X123083686Y-71234947D01*
X122999500Y-71438191D01*
X122999500Y-72104250D01*
X123158250Y-72263000D01*
X124333000Y-72263000D01*
X124333000Y-72243000D01*
X124587000Y-72243000D01*
X124587000Y-72263000D01*
X125761750Y-72263000D01*
X125920500Y-72104250D01*
X125920500Y-71565191D01*
X133286500Y-71565191D01*
X133286500Y-72104250D01*
X133445250Y-72263000D01*
X134493000Y-72263000D01*
X134493000Y-71215250D01*
X134334250Y-71056500D01*
X133795190Y-71056500D01*
X133561801Y-71153173D01*
X133383173Y-71331802D01*
X133286500Y-71565191D01*
X125920500Y-71565191D01*
X125920500Y-71438191D01*
X125836309Y-71234937D01*
X126114284Y-70957447D01*
X126412161Y-70240080D01*
X126412838Y-69463328D01*
X126116214Y-68745442D01*
X125567447Y-68195716D01*
X124850080Y-67897839D01*
X124073328Y-67897162D01*
X123355442Y-68193786D01*
X122805716Y-68742553D01*
X122507839Y-69459920D01*
X122507162Y-70236672D01*
X107450882Y-70236672D01*
X107712712Y-70128486D01*
X108226681Y-69615413D01*
X108505183Y-68944708D01*
X108505446Y-68643500D01*
X108934250Y-68643500D01*
X109093000Y-68484750D01*
X109093000Y-67437000D01*
X109347000Y-67437000D01*
X109347000Y-68484750D01*
X109505750Y-68643500D01*
X110044809Y-68643500D01*
X110278198Y-68546827D01*
X110456827Y-68368199D01*
X110553500Y-68134810D01*
X110553500Y-67595750D01*
X110394750Y-67437000D01*
X109347000Y-67437000D01*
X109093000Y-67437000D01*
X109073000Y-67437000D01*
X109073000Y-67183000D01*
X109093000Y-67183000D01*
X109093000Y-66135250D01*
X109347000Y-66135250D01*
X109347000Y-67183000D01*
X110394750Y-67183000D01*
X110553500Y-67024250D01*
X110553500Y-66485190D01*
X110456827Y-66251801D01*
X110278198Y-66073173D01*
X110044809Y-65976500D01*
X109505750Y-65976500D01*
X109347000Y-66135250D01*
X109093000Y-66135250D01*
X108934250Y-65976500D01*
X108395191Y-65976500D01*
X108307000Y-66013030D01*
X108307000Y-63795308D01*
X108347712Y-63778486D01*
X108861681Y-63265413D01*
X109140183Y-62594708D01*
X109140718Y-61982354D01*
X111004182Y-63845818D01*
X111548240Y-64209346D01*
X112190000Y-64337000D01*
X114660921Y-64337000D01*
X114660921Y-64910000D01*
X114739506Y-65327641D01*
X114986331Y-65711219D01*
X115362944Y-65968548D01*
X115810000Y-66059079D01*
X117508153Y-66059079D01*
X117753000Y-66303926D01*
X117753000Y-66468016D01*
X117554817Y-66945292D01*
X117554183Y-67671521D01*
X117831514Y-68342712D01*
X118344587Y-68856681D01*
X119015292Y-69135183D01*
X119741521Y-69135817D01*
X120412712Y-68858486D01*
X120926681Y-68345413D01*
X121205183Y-67674708D01*
X121205817Y-66948479D01*
X121007000Y-66467306D01*
X121007000Y-65987000D01*
X121410921Y-65987000D01*
X121410921Y-66360000D01*
X121489506Y-66777641D01*
X121736331Y-67161219D01*
X122112944Y-67418548D01*
X122560000Y-67509079D01*
X131960000Y-67509079D01*
X132377641Y-67430494D01*
X132761219Y-67183669D01*
X133018548Y-66807056D01*
X133109079Y-66360000D01*
X133109079Y-63300343D01*
X133584587Y-63776681D01*
X134255292Y-64055183D01*
X134981521Y-64055817D01*
X135351328Y-63903015D01*
X135611514Y-64532712D01*
X136124587Y-65046681D01*
X136795292Y-65325183D01*
X137521521Y-65325817D01*
X137821178Y-65202001D01*
X137881932Y-65507431D01*
X138299653Y-66132595D01*
X138924817Y-66550316D01*
X139662248Y-66697000D01*
X139737752Y-66697000D01*
X140475183Y-66550316D01*
X141100347Y-66132595D01*
X141518068Y-65507431D01*
X141664752Y-64770000D01*
X141518068Y-64032569D01*
X141162217Y-63500000D01*
X141518068Y-62967431D01*
X141664752Y-62230000D01*
X141518068Y-61492569D01*
X141162217Y-60960000D01*
X141518068Y-60427431D01*
X141664752Y-59690000D01*
X141518068Y-58952569D01*
X141350418Y-58701663D01*
X141558548Y-58397056D01*
X141649079Y-57950000D01*
X141649079Y-56350000D01*
X141570494Y-55932359D01*
X141323669Y-55548781D01*
X140947056Y-55291452D01*
X140500000Y-55200921D01*
X140051847Y-55200921D01*
X138310463Y-53459537D01*
X137782626Y-53106848D01*
X137160000Y-52983000D01*
X136247000Y-52983000D01*
X136247000Y-51806282D01*
X136290163Y-51849445D01*
X136405418Y-51734190D01*
X136467071Y-51969800D01*
X136967480Y-52145927D01*
X137497199Y-52117148D01*
X137852929Y-51969800D01*
X137914583Y-51734188D01*
X137160000Y-50979605D01*
X137145858Y-50993748D01*
X136966253Y-50814143D01*
X136980395Y-50800000D01*
X137339605Y-50800000D01*
X138094188Y-51554583D01*
X138329800Y-51492929D01*
X138505927Y-50992520D01*
X138477148Y-50462801D01*
X138329800Y-50107071D01*
X138094188Y-50045417D01*
X137339605Y-50800000D01*
X136980395Y-50800000D01*
X136966253Y-50785858D01*
X137145858Y-50606253D01*
X137160000Y-50620395D01*
X137914583Y-49865812D01*
X137852929Y-49630200D01*
X137352520Y-49454073D01*
X136976419Y-49474506D01*
X137833925Y-48617000D01*
X141147392Y-48617000D01*
X141213783Y-48683391D01*
X140965024Y-48760656D01*
X140767660Y-49307131D01*
X140794447Y-49887535D01*
X140965024Y-50299344D01*
X141213785Y-50376610D01*
X142060395Y-49530000D01*
X142046253Y-49515858D01*
X142225858Y-49336253D01*
X142240000Y-49350395D01*
X142254143Y-49336253D01*
X142433748Y-49515858D01*
X142419605Y-49530000D01*
X142433748Y-49544143D01*
X142254143Y-49723748D01*
X142240000Y-49709605D01*
X141393390Y-50556215D01*
X141470656Y-50804976D01*
X142017131Y-51002340D01*
X142597535Y-50975553D01*
X142926557Y-50839267D01*
X143130831Y-51156719D01*
X143507444Y-51414048D01*
X143954500Y-51504579D01*
X145605500Y-51504579D01*
X146023141Y-51425994D01*
X146406719Y-51179169D01*
X146664048Y-50802556D01*
X146754579Y-50355500D01*
X146754579Y-48704500D01*
X146738115Y-48617000D01*
X149186074Y-48617000D01*
X149543296Y-48974222D01*
X149498479Y-48974183D01*
X148827288Y-49251514D01*
X148313319Y-49764587D01*
X148034817Y-50435292D01*
X148034183Y-51161521D01*
X148311514Y-51832712D01*
X148824587Y-52346681D01*
X149495292Y-52625183D01*
X150221521Y-52625817D01*
X150892712Y-52348486D01*
X151406681Y-51835413D01*
X151408000Y-51832237D01*
X151408000Y-53603718D01*
X151364837Y-53560555D01*
X151249582Y-53675810D01*
X151187929Y-53440200D01*
X150687520Y-53264073D01*
X150157801Y-53292852D01*
X149802071Y-53440200D01*
X149740417Y-53675812D01*
X150495000Y-54430395D01*
X150509143Y-54416253D01*
X150688748Y-54595858D01*
X150674605Y-54610000D01*
X150688748Y-54624143D01*
X150514763Y-54798127D01*
X149775818Y-54059182D01*
X149741941Y-54036546D01*
X149560812Y-53855417D01*
X149496175Y-53872331D01*
X149231760Y-53695654D01*
X148590000Y-53568000D01*
X144780000Y-53568000D01*
X144138240Y-53695654D01*
X143594182Y-54059182D01*
X142324182Y-55329182D01*
X141960654Y-55873240D01*
X141833000Y-56515000D01*
X141833000Y-67779298D01*
X141487223Y-68125075D01*
X141248486Y-67547288D01*
X140735413Y-67033319D01*
X140064708Y-66754817D01*
X139338479Y-66754183D01*
X138667288Y-67031514D01*
X138153319Y-67544587D01*
X137874817Y-68215292D01*
X137874183Y-68941521D01*
X138050401Y-69368000D01*
X137700952Y-69368000D01*
X137524708Y-69294817D01*
X136798479Y-69294183D01*
X136127288Y-69571514D01*
X135613319Y-70084587D01*
X135334817Y-70755292D01*
X135334554Y-71056500D01*
X134905750Y-71056500D01*
X134747000Y-71215250D01*
X134747000Y-72263000D01*
X134767000Y-72263000D01*
X134767000Y-72517000D01*
X134747000Y-72517000D01*
X134747000Y-73564750D01*
X134905750Y-73723500D01*
X135408000Y-73723500D01*
X135408000Y-78740000D01*
X135541363Y-79410462D01*
X135921149Y-79978851D01*
X136435779Y-80493481D01*
X136246309Y-80415000D01*
X134905750Y-80415000D01*
X134747000Y-80573750D01*
X134747000Y-82423000D01*
X136596250Y-82423000D01*
X136755000Y-82264250D01*
X136755000Y-80923690D01*
X136676519Y-80734221D01*
X137335762Y-81393464D01*
X137073457Y-82025165D01*
X137072545Y-83070250D01*
X137471639Y-84036132D01*
X138209981Y-84775764D01*
X139175165Y-85176543D01*
X139908245Y-85177183D01*
X140299538Y-85438637D01*
X140970000Y-85572000D01*
X149319048Y-85572000D01*
X149495292Y-85645183D01*
X150221521Y-85645817D01*
X150892712Y-85368486D01*
X151406681Y-84855413D01*
X151685183Y-84184708D01*
X151685817Y-83458479D01*
X151428511Y-82835750D01*
X152805000Y-82835750D01*
X152805000Y-84176310D01*
X152901673Y-84409699D01*
X153080302Y-84588327D01*
X153313691Y-84685000D01*
X154654250Y-84685000D01*
X154813000Y-84526250D01*
X154813000Y-82677000D01*
X155067000Y-82677000D01*
X155067000Y-84526250D01*
X155225750Y-84685000D01*
X156566309Y-84685000D01*
X156799698Y-84588327D01*
X156978327Y-84409699D01*
X157075000Y-84176310D01*
X157075000Y-82835750D01*
X156916250Y-82677000D01*
X155067000Y-82677000D01*
X154813000Y-82677000D01*
X152963750Y-82677000D01*
X152805000Y-82835750D01*
X151428511Y-82835750D01*
X151408486Y-82787288D01*
X150895413Y-82273319D01*
X150224708Y-81994817D01*
X149498479Y-81994183D01*
X149319829Y-82068000D01*
X142327422Y-82068000D01*
X142327455Y-82029750D01*
X141928361Y-81063868D01*
X141788428Y-80923690D01*
X152805000Y-80923690D01*
X152805000Y-82264250D01*
X152963750Y-82423000D01*
X154813000Y-82423000D01*
X154813000Y-80573750D01*
X155067000Y-80573750D01*
X155067000Y-82423000D01*
X156916250Y-82423000D01*
X157075000Y-82264250D01*
X157075000Y-80923690D01*
X156978327Y-80690301D01*
X156799698Y-80511673D01*
X156566309Y-80415000D01*
X155225750Y-80415000D01*
X155067000Y-80573750D01*
X154813000Y-80573750D01*
X154654250Y-80415000D01*
X153313691Y-80415000D01*
X153080302Y-80511673D01*
X152901673Y-80690301D01*
X152805000Y-80923690D01*
X141788428Y-80923690D01*
X141190019Y-80324236D01*
X141104190Y-80288597D01*
X140938851Y-80041149D01*
X138912000Y-78014298D01*
X138912000Y-77167608D01*
X138945418Y-77134190D01*
X139007071Y-77369800D01*
X139507480Y-77545927D01*
X140037199Y-77517148D01*
X140392929Y-77369800D01*
X140454583Y-77134188D01*
X149105417Y-77134188D01*
X149167071Y-77369800D01*
X149667480Y-77545927D01*
X150197199Y-77517148D01*
X150552929Y-77369800D01*
X150614583Y-77134188D01*
X149860000Y-76379605D01*
X149105417Y-77134188D01*
X140454583Y-77134188D01*
X139700000Y-76379605D01*
X139685858Y-76393748D01*
X139506253Y-76214143D01*
X139520395Y-76200000D01*
X139879605Y-76200000D01*
X140634188Y-76954583D01*
X140869800Y-76892929D01*
X141045927Y-76392520D01*
X141017148Y-75862801D01*
X140869800Y-75507071D01*
X140634188Y-75445417D01*
X139879605Y-76200000D01*
X139520395Y-76200000D01*
X139506253Y-76185858D01*
X139685858Y-76006253D01*
X139700000Y-76020395D01*
X140403723Y-75316672D01*
X141557162Y-75316672D01*
X141853786Y-76034558D01*
X142402553Y-76584284D01*
X143119920Y-76882161D01*
X143896672Y-76882838D01*
X144614558Y-76586214D01*
X144894947Y-76306314D01*
X145098191Y-76390500D01*
X145764250Y-76390500D01*
X145923000Y-76231750D01*
X145923000Y-75057000D01*
X146177000Y-75057000D01*
X146177000Y-76231750D01*
X146335750Y-76390500D01*
X147001809Y-76390500D01*
X147235198Y-76293827D01*
X147413827Y-76115199D01*
X147458445Y-76007480D01*
X148514073Y-76007480D01*
X148542852Y-76537199D01*
X148690200Y-76892929D01*
X148925812Y-76954583D01*
X149680395Y-76200000D01*
X150039605Y-76200000D01*
X150794188Y-76954583D01*
X151029800Y-76892929D01*
X151205927Y-76392520D01*
X151177148Y-75862801D01*
X151029800Y-75507071D01*
X150794188Y-75445417D01*
X150039605Y-76200000D01*
X149680395Y-76200000D01*
X148925812Y-75445417D01*
X148690200Y-75507071D01*
X148514073Y-76007480D01*
X147458445Y-76007480D01*
X147510500Y-75881810D01*
X147510500Y-75215750D01*
X147351750Y-75057000D01*
X146177000Y-75057000D01*
X145923000Y-75057000D01*
X145903000Y-75057000D01*
X145903000Y-74803000D01*
X145923000Y-74803000D01*
X145923000Y-73628250D01*
X146177000Y-73628250D01*
X146177000Y-74803000D01*
X147351750Y-74803000D01*
X147510500Y-74644250D01*
X147510500Y-74594188D01*
X149105417Y-74594188D01*
X149167071Y-74829800D01*
X149428629Y-74921859D01*
X149167071Y-75030200D01*
X149105417Y-75265812D01*
X149860000Y-76020395D01*
X150614583Y-75265812D01*
X150552929Y-75030200D01*
X150291371Y-74938141D01*
X150552929Y-74829800D01*
X150614583Y-74594188D01*
X149860000Y-73839605D01*
X149105417Y-74594188D01*
X147510500Y-74594188D01*
X147510500Y-73978190D01*
X147413827Y-73744801D01*
X147235198Y-73566173D01*
X147001809Y-73469500D01*
X146335750Y-73469500D01*
X146177000Y-73628250D01*
X145923000Y-73628250D01*
X145764250Y-73469500D01*
X145098191Y-73469500D01*
X144894937Y-73553691D01*
X144808877Y-73467480D01*
X148514073Y-73467480D01*
X148542852Y-73997199D01*
X148690200Y-74352929D01*
X148925812Y-74414583D01*
X149680395Y-73660000D01*
X148925812Y-72905417D01*
X148690200Y-72967071D01*
X148514073Y-73467480D01*
X144808877Y-73467480D01*
X144617447Y-73275716D01*
X143900080Y-72977839D01*
X143123328Y-72977162D01*
X142405442Y-73273786D01*
X141855716Y-73822553D01*
X141557839Y-74539920D01*
X141557162Y-75316672D01*
X140403723Y-75316672D01*
X140454583Y-75265812D01*
X140392929Y-75030200D01*
X139892520Y-74854073D01*
X139362801Y-74882852D01*
X139007071Y-75030200D01*
X138945418Y-75265810D01*
X138912000Y-75232392D01*
X138912000Y-72872000D01*
X140970000Y-72872000D01*
X141640462Y-72738637D01*
X142208851Y-72358851D01*
X144235702Y-70332000D01*
X144239048Y-70332000D01*
X144415292Y-70405183D01*
X145141521Y-70405817D01*
X145812712Y-70128486D01*
X146326681Y-69615413D01*
X146605183Y-68944708D01*
X146605817Y-68218479D01*
X146328486Y-67547288D01*
X145815413Y-67033319D01*
X145187000Y-66772378D01*
X145187000Y-57209636D01*
X145382217Y-57014419D01*
X145355248Y-57150000D01*
X145501932Y-57887431D01*
X145857783Y-58420000D01*
X145501932Y-58952569D01*
X145355248Y-59690000D01*
X145501932Y-60427431D01*
X145857783Y-60960000D01*
X145501932Y-61492569D01*
X145355248Y-62230000D01*
X145501932Y-62967431D01*
X145857783Y-63500000D01*
X145501932Y-64032569D01*
X145355248Y-64770000D01*
X145501932Y-65507431D01*
X145919653Y-66132595D01*
X146544817Y-66550316D01*
X147282248Y-66697000D01*
X147357752Y-66697000D01*
X147926222Y-66583924D01*
X148108000Y-66765702D01*
X148108000Y-69850000D01*
X148241363Y-70520462D01*
X148621149Y-71088851D01*
X149856994Y-72324696D01*
X149522801Y-72342852D01*
X149167071Y-72490200D01*
X149105417Y-72725812D01*
X149860000Y-73480395D01*
X149874143Y-73466253D01*
X150053748Y-73645858D01*
X150039605Y-73660000D01*
X150794188Y-74414583D01*
X151029800Y-74352929D01*
X151205927Y-73852520D01*
X151195650Y-73663352D01*
X158193606Y-80661308D01*
X157794236Y-81059981D01*
X157393457Y-82025165D01*
X157392545Y-83070250D01*
X157791639Y-84036132D01*
X158529981Y-84775764D01*
X159495165Y-85176543D01*
X160540250Y-85177455D01*
X161506132Y-84778361D01*
X162245764Y-84040019D01*
X162646543Y-83074835D01*
X162647455Y-82029750D01*
X162248361Y-81063868D01*
X161772000Y-80586675D01*
X161772000Y-80010000D01*
X161676124Y-79528000D01*
X161638637Y-79339538D01*
X161258851Y-78771149D01*
X155163452Y-72675750D01*
X168719500Y-72675750D01*
X168719500Y-73341809D01*
X168816173Y-73575198D01*
X168994801Y-73753827D01*
X169228190Y-73850500D01*
X169894250Y-73850500D01*
X170053000Y-73691750D01*
X170053000Y-72517000D01*
X170307000Y-72517000D01*
X170307000Y-73691750D01*
X170465750Y-73850500D01*
X171131810Y-73850500D01*
X171365199Y-73753827D01*
X171543827Y-73575198D01*
X171640500Y-73341809D01*
X171640500Y-72675750D01*
X171481750Y-72517000D01*
X170307000Y-72517000D01*
X170053000Y-72517000D01*
X168878250Y-72517000D01*
X168719500Y-72675750D01*
X155163452Y-72675750D01*
X152854925Y-70367223D01*
X153170882Y-70236672D01*
X168227162Y-70236672D01*
X168523786Y-70954558D01*
X168803686Y-71234947D01*
X168719500Y-71438191D01*
X168719500Y-72104250D01*
X168878250Y-72263000D01*
X170053000Y-72263000D01*
X170053000Y-72243000D01*
X170307000Y-72243000D01*
X170307000Y-72263000D01*
X171481750Y-72263000D01*
X171640500Y-72104250D01*
X171640500Y-71438191D01*
X171556309Y-71234937D01*
X171834284Y-70957447D01*
X172132161Y-70240080D01*
X172132838Y-69463328D01*
X171836214Y-68745442D01*
X171287447Y-68195716D01*
X170570080Y-67897839D01*
X169793328Y-67897162D01*
X169075442Y-68193786D01*
X168525716Y-68742553D01*
X168227839Y-69459920D01*
X168227162Y-70236672D01*
X153170882Y-70236672D01*
X153432712Y-70128486D01*
X153946681Y-69615413D01*
X154225183Y-68944708D01*
X154225446Y-68643500D01*
X154654250Y-68643500D01*
X154813000Y-68484750D01*
X154813000Y-67437000D01*
X155067000Y-67437000D01*
X155067000Y-68484750D01*
X155225750Y-68643500D01*
X155764809Y-68643500D01*
X155998198Y-68546827D01*
X156176827Y-68368199D01*
X156273500Y-68134810D01*
X156273500Y-67595750D01*
X156114750Y-67437000D01*
X155067000Y-67437000D01*
X154813000Y-67437000D01*
X154793000Y-67437000D01*
X154793000Y-67183000D01*
X154813000Y-67183000D01*
X154813000Y-66135250D01*
X155067000Y-66135250D01*
X155067000Y-67183000D01*
X156114750Y-67183000D01*
X156273500Y-67024250D01*
X156273500Y-66485190D01*
X156176827Y-66251801D01*
X155998198Y-66073173D01*
X155764809Y-65976500D01*
X155225750Y-65976500D01*
X155067000Y-66135250D01*
X154813000Y-66135250D01*
X154654250Y-65976500D01*
X154115191Y-65976500D01*
X154027000Y-66013030D01*
X154027000Y-63795308D01*
X154067712Y-63778486D01*
X154581681Y-63265413D01*
X154860183Y-62594708D01*
X154860718Y-61982354D01*
X156724182Y-63845818D01*
X157268240Y-64209346D01*
X157910000Y-64337000D01*
X160380921Y-64337000D01*
X160380921Y-64910000D01*
X160459506Y-65327641D01*
X160706331Y-65711219D01*
X161082944Y-65968548D01*
X161530000Y-66059079D01*
X163228153Y-66059079D01*
X163473000Y-66303926D01*
X163473000Y-66468016D01*
X163274817Y-66945292D01*
X163274183Y-67671521D01*
X163551514Y-68342712D01*
X164064587Y-68856681D01*
X164735292Y-69135183D01*
X165461521Y-69135817D01*
X166132712Y-68858486D01*
X166646681Y-68345413D01*
X166925183Y-67674708D01*
X166925817Y-66948479D01*
X166727000Y-66467306D01*
X166727000Y-65987000D01*
X167130921Y-65987000D01*
X167130921Y-66360000D01*
X167209506Y-66777641D01*
X167456331Y-67161219D01*
X167832944Y-67418548D01*
X168280000Y-67509079D01*
X177680000Y-67509079D01*
X178097641Y-67430494D01*
X178481219Y-67183669D01*
X178738548Y-66807056D01*
X178823000Y-66390019D01*
X178823000Y-83298773D01*
X178633502Y-82840154D01*
X177515731Y-81720429D01*
X176054545Y-81113692D01*
X174472396Y-81112311D01*
X173010154Y-81716498D01*
X171890429Y-82834269D01*
X171283692Y-84295455D01*
X171282311Y-85877604D01*
X171886498Y-87339846D01*
X173004269Y-88459571D01*
X173759091Y-88773000D01*
X90400805Y-88773000D01*
X91149846Y-88463502D01*
X92269571Y-87345731D01*
X92876308Y-85884545D01*
X92877689Y-84302396D01*
X92273502Y-82840154D01*
X92269106Y-82835750D01*
X93115000Y-82835750D01*
X93115000Y-84176310D01*
X93211673Y-84409699D01*
X93390302Y-84588327D01*
X93623691Y-84685000D01*
X94964250Y-84685000D01*
X95123000Y-84526250D01*
X95123000Y-82677000D01*
X95377000Y-82677000D01*
X95377000Y-84526250D01*
X95535750Y-84685000D01*
X96876309Y-84685000D01*
X97109698Y-84588327D01*
X97288327Y-84409699D01*
X97385000Y-84176310D01*
X97385000Y-82835750D01*
X97226250Y-82677000D01*
X95377000Y-82677000D01*
X95123000Y-82677000D01*
X93273750Y-82677000D01*
X93115000Y-82835750D01*
X92269106Y-82835750D01*
X91155731Y-81720429D01*
X89694545Y-81113692D01*
X88112396Y-81112311D01*
X86650154Y-81716498D01*
X86487000Y-81879367D01*
X86487000Y-72675750D01*
X87566500Y-72675750D01*
X87566500Y-73214809D01*
X87663173Y-73448198D01*
X87841801Y-73626827D01*
X88075190Y-73723500D01*
X88614250Y-73723500D01*
X88773000Y-73564750D01*
X88773000Y-72517000D01*
X87725250Y-72517000D01*
X87566500Y-72675750D01*
X86487000Y-72675750D01*
X86487000Y-71565191D01*
X87566500Y-71565191D01*
X87566500Y-72104250D01*
X87725250Y-72263000D01*
X88773000Y-72263000D01*
X88773000Y-71215250D01*
X88614250Y-71056500D01*
X88075190Y-71056500D01*
X87841801Y-71153173D01*
X87663173Y-71331802D01*
X87566500Y-71565191D01*
X86487000Y-71565191D01*
X86487000Y-67645812D01*
X93225417Y-67645812D01*
X93980000Y-68400395D01*
X94734583Y-67645812D01*
X94672929Y-67410200D01*
X94172520Y-67234073D01*
X93642801Y-67262852D01*
X93287071Y-67410200D01*
X93225417Y-67645812D01*
X86487000Y-67645812D01*
X86487000Y-42944248D01*
X103393651Y-42944248D01*
X103699922Y-43685481D01*
X104266537Y-44253085D01*
X105007233Y-44560650D01*
X105809248Y-44561349D01*
X106550481Y-44255078D01*
X107118085Y-43688463D01*
X107425650Y-42947767D01*
X107425751Y-42830750D01*
X124206000Y-42830750D01*
X124206000Y-43560310D01*
X124302673Y-43793699D01*
X124481302Y-43972327D01*
X124714691Y-44069000D01*
X125444250Y-44069000D01*
X125603000Y-43910250D01*
X125603000Y-42672000D01*
X125857000Y-42672000D01*
X125857000Y-43910250D01*
X126015750Y-44069000D01*
X126745309Y-44069000D01*
X126978698Y-43972327D01*
X127157327Y-43793699D01*
X127230437Y-43617196D01*
X141347409Y-43617196D01*
X141432467Y-43872539D01*
X142001965Y-44080516D01*
X142607700Y-44054723D01*
X143047533Y-43872539D01*
X143132591Y-43617196D01*
X142240000Y-42724605D01*
X141347409Y-43617196D01*
X127230437Y-43617196D01*
X127254000Y-43560310D01*
X127254000Y-42830750D01*
X127095250Y-42672000D01*
X125857000Y-42672000D01*
X125603000Y-42672000D01*
X124364750Y-42672000D01*
X124206000Y-42830750D01*
X107425751Y-42830750D01*
X107426349Y-42145752D01*
X107171798Y-41529690D01*
X124206000Y-41529690D01*
X124206000Y-42259250D01*
X124364750Y-42418000D01*
X125603000Y-42418000D01*
X125603000Y-41179750D01*
X125857000Y-41179750D01*
X125857000Y-42418000D01*
X127095250Y-42418000D01*
X127206285Y-42306965D01*
X140704484Y-42306965D01*
X140730277Y-42912700D01*
X140912461Y-43352533D01*
X141167804Y-43437591D01*
X142060395Y-42545000D01*
X142419605Y-42545000D01*
X143312196Y-43437591D01*
X143567539Y-43352533D01*
X143775516Y-42783035D01*
X143749723Y-42177300D01*
X143567539Y-41737467D01*
X143322977Y-41656000D01*
X160521921Y-41656000D01*
X160521921Y-43434000D01*
X160600506Y-43851641D01*
X160847331Y-44235219D01*
X161223944Y-44492548D01*
X161671000Y-44583079D01*
X163449000Y-44583079D01*
X163866641Y-44504494D01*
X164250219Y-44257669D01*
X164507548Y-43881056D01*
X164598079Y-43434000D01*
X164598079Y-41656000D01*
X164519494Y-41238359D01*
X164272669Y-40854781D01*
X163896056Y-40597452D01*
X163449000Y-40506921D01*
X161671000Y-40506921D01*
X161253359Y-40585506D01*
X160869781Y-40832331D01*
X160612452Y-41208944D01*
X160521921Y-41656000D01*
X143322977Y-41656000D01*
X143312196Y-41652409D01*
X142419605Y-42545000D01*
X142060395Y-42545000D01*
X141167804Y-41652409D01*
X140912461Y-41737467D01*
X140704484Y-42306965D01*
X127206285Y-42306965D01*
X127254000Y-42259250D01*
X127254000Y-41529690D01*
X127230438Y-41472804D01*
X141347409Y-41472804D01*
X142240000Y-42365395D01*
X143132591Y-41472804D01*
X143047533Y-41217461D01*
X142478035Y-41009484D01*
X141872300Y-41035277D01*
X141432467Y-41217461D01*
X141347409Y-41472804D01*
X127230438Y-41472804D01*
X127157327Y-41296301D01*
X126978698Y-41117673D01*
X126745309Y-41021000D01*
X126015750Y-41021000D01*
X125857000Y-41179750D01*
X125603000Y-41179750D01*
X125444250Y-41021000D01*
X124714691Y-41021000D01*
X124481302Y-41117673D01*
X124302673Y-41296301D01*
X124206000Y-41529690D01*
X107171798Y-41529690D01*
X107120078Y-41404519D01*
X106553463Y-40836915D01*
X105812767Y-40529350D01*
X105010752Y-40528651D01*
X104269519Y-40834922D01*
X103701915Y-41401537D01*
X103394350Y-42142233D01*
X103393651Y-42944248D01*
X86487000Y-42944248D01*
X86487000Y-39322000D01*
X106047715Y-39322000D01*
X106047715Y-30940838D01*
X108282597Y-30940838D01*
X108636115Y-31796418D01*
X109290139Y-32451585D01*
X110145100Y-32806596D01*
X111070838Y-32807403D01*
X111926418Y-32453885D01*
X112581585Y-31799861D01*
X112936596Y-30944900D01*
X112936752Y-30765750D01*
X116275000Y-30765750D01*
X116275000Y-31806310D01*
X116371673Y-32039699D01*
X116550302Y-32218327D01*
X116783691Y-32315000D01*
X117824250Y-32315000D01*
X117983000Y-32156250D01*
X117983000Y-30607000D01*
X118237000Y-30607000D01*
X118237000Y-32156250D01*
X118395750Y-32315000D01*
X119436309Y-32315000D01*
X119669698Y-32218327D01*
X119848327Y-32039699D01*
X119945000Y-31806310D01*
X119945000Y-31777175D01*
X146322430Y-31777175D01*
X146445565Y-32064788D01*
X147127734Y-32324707D01*
X147857443Y-32303786D01*
X148434435Y-32064788D01*
X148557570Y-31777175D01*
X147440000Y-30659605D01*
X146322430Y-31777175D01*
X119945000Y-31777175D01*
X119945000Y-30765750D01*
X119786250Y-30607000D01*
X118237000Y-30607000D01*
X117983000Y-30607000D01*
X116433750Y-30607000D01*
X116275000Y-30765750D01*
X112936752Y-30765750D01*
X112937403Y-30019162D01*
X112583885Y-29163582D01*
X112574011Y-29153690D01*
X116275000Y-29153690D01*
X116275000Y-30194250D01*
X116433750Y-30353000D01*
X117983000Y-30353000D01*
X117983000Y-28803750D01*
X118237000Y-28803750D01*
X118237000Y-30353000D01*
X119786250Y-30353000D01*
X119945000Y-30194250D01*
X119945000Y-30167734D01*
X145595293Y-30167734D01*
X145616214Y-30897443D01*
X145855212Y-31474435D01*
X146142825Y-31597570D01*
X147260395Y-30480000D01*
X147619605Y-30480000D01*
X148737175Y-31597570D01*
X149024788Y-31474435D01*
X149284707Y-30792266D01*
X149263786Y-30062557D01*
X149024788Y-29485565D01*
X148737175Y-29362430D01*
X147619605Y-30480000D01*
X147260395Y-30480000D01*
X146142825Y-29362430D01*
X145855212Y-29485565D01*
X145595293Y-30167734D01*
X119945000Y-30167734D01*
X119945000Y-29182825D01*
X146322430Y-29182825D01*
X147440000Y-30300395D01*
X148460395Y-29280000D01*
X152590921Y-29280000D01*
X152590921Y-31680000D01*
X152669506Y-32097641D01*
X152916331Y-32481219D01*
X153292944Y-32738548D01*
X153740000Y-32829079D01*
X156140000Y-32829079D01*
X156557641Y-32750494D01*
X156941219Y-32503669D01*
X157198548Y-32127056D01*
X157289079Y-31680000D01*
X157289079Y-29280000D01*
X157210494Y-28862359D01*
X156963669Y-28478781D01*
X156587056Y-28221452D01*
X156140000Y-28130921D01*
X153740000Y-28130921D01*
X153322359Y-28209506D01*
X152938781Y-28456331D01*
X152681452Y-28832944D01*
X152590921Y-29280000D01*
X148460395Y-29280000D01*
X148557570Y-29182825D01*
X148434435Y-28895212D01*
X147752266Y-28635293D01*
X147022557Y-28656214D01*
X146445565Y-28895212D01*
X146322430Y-29182825D01*
X119945000Y-29182825D01*
X119945000Y-29153690D01*
X119848327Y-28920301D01*
X119669698Y-28741673D01*
X119436309Y-28645000D01*
X118395750Y-28645000D01*
X118237000Y-28803750D01*
X117983000Y-28803750D01*
X117824250Y-28645000D01*
X116783691Y-28645000D01*
X116550302Y-28741673D01*
X116371673Y-28920301D01*
X116275000Y-29153690D01*
X112574011Y-29153690D01*
X111929861Y-28508415D01*
X111074900Y-28153404D01*
X110149162Y-28152597D01*
X109293582Y-28506115D01*
X108638415Y-29160139D01*
X108283404Y-30015100D01*
X108282597Y-30940838D01*
X106047715Y-30940838D01*
X106047715Y-26868000D01*
X91786459Y-26868000D01*
X92269571Y-26385731D01*
X92462855Y-25920250D01*
X125642545Y-25920250D01*
X126041639Y-26886132D01*
X126779981Y-27625764D01*
X127745165Y-28026543D01*
X128790250Y-28027455D01*
X129756132Y-27628361D01*
X130471771Y-26913970D01*
X132015635Y-26913970D01*
X132175418Y-27232739D01*
X132966187Y-27542723D01*
X133815387Y-27526497D01*
X134524582Y-27232739D01*
X134684365Y-26913970D01*
X133350000Y-25579605D01*
X132015635Y-26913970D01*
X130471771Y-26913970D01*
X130495764Y-26890019D01*
X130896543Y-25924835D01*
X130897335Y-25016187D01*
X131207277Y-25016187D01*
X131223503Y-25865387D01*
X131517261Y-26574582D01*
X131836030Y-26734365D01*
X133170395Y-25400000D01*
X133529605Y-25400000D01*
X134863970Y-26734365D01*
X135182739Y-26574582D01*
X135492723Y-25783813D01*
X135476497Y-24934613D01*
X135182739Y-24225418D01*
X134863970Y-24065635D01*
X133529605Y-25400000D01*
X133170395Y-25400000D01*
X131836030Y-24065635D01*
X131517261Y-24225418D01*
X131207277Y-25016187D01*
X130897335Y-25016187D01*
X130897455Y-24879750D01*
X130498361Y-23913868D01*
X130470572Y-23886030D01*
X132015635Y-23886030D01*
X133350000Y-25220395D01*
X134670395Y-23900000D01*
X135780921Y-23900000D01*
X135780921Y-26900000D01*
X135859506Y-27317641D01*
X136106331Y-27701219D01*
X136482944Y-27958548D01*
X136930000Y-28049079D01*
X139930000Y-28049079D01*
X140347641Y-27970494D01*
X140731219Y-27723669D01*
X140988548Y-27347056D01*
X141079079Y-26900000D01*
X141079079Y-23900000D01*
X141000494Y-23482359D01*
X140753669Y-23098781D01*
X140377056Y-22841452D01*
X139930000Y-22750921D01*
X136930000Y-22750921D01*
X136512359Y-22829506D01*
X136128781Y-23076331D01*
X135871452Y-23452944D01*
X135780921Y-23900000D01*
X134670395Y-23900000D01*
X134684365Y-23886030D01*
X134524582Y-23567261D01*
X133733813Y-23257277D01*
X132884613Y-23273503D01*
X132175418Y-23567261D01*
X132015635Y-23886030D01*
X130470572Y-23886030D01*
X129760019Y-23174236D01*
X128794835Y-22773457D01*
X127749750Y-22772545D01*
X126783868Y-23171639D01*
X126044236Y-23909981D01*
X125643457Y-24875165D01*
X125642545Y-25920250D01*
X92462855Y-25920250D01*
X92876308Y-24924545D01*
X92877689Y-23342396D01*
X92273502Y-21880154D01*
X91571575Y-21177000D01*
X172588917Y-21177000D01*
X171890429Y-21874269D01*
X171890429Y-21874269D01*
G37*
X171890429Y-21874269D02*
X171283692Y-23335455D01*
X171282311Y-24917604D01*
X171886498Y-26379846D01*
X173004269Y-27499571D01*
X174465455Y-28106308D01*
X176047604Y-28107689D01*
X177509846Y-27503502D01*
X178629571Y-26385731D01*
X178823000Y-25919902D01*
X178823000Y-55527693D01*
X178750494Y-55142359D01*
X178503669Y-54758781D01*
X178127056Y-54501452D01*
X177680000Y-54410921D01*
X168280000Y-54410921D01*
X167862359Y-54489506D01*
X167582579Y-54669539D01*
X167582579Y-53911500D01*
X167575066Y-53871570D01*
X167674636Y-53772000D01*
X168641008Y-53772000D01*
X168907444Y-53954048D01*
X169354500Y-54044579D01*
X171005500Y-54044579D01*
X171423141Y-53965994D01*
X171806719Y-53719169D01*
X172064048Y-53342556D01*
X172154579Y-52895500D01*
X172154579Y-51244500D01*
X172075994Y-50826859D01*
X171829169Y-50443281D01*
X171487344Y-50209722D01*
X171652340Y-49752869D01*
X171625553Y-49172465D01*
X171454976Y-48760656D01*
X171206215Y-48683390D01*
X170359605Y-49530000D01*
X170373748Y-49544143D01*
X170194143Y-49723748D01*
X170180000Y-49709605D01*
X170165858Y-49723748D01*
X169986253Y-49544143D01*
X170000395Y-49530000D01*
X169153785Y-48683390D01*
X168905024Y-48760656D01*
X168707660Y-49307131D01*
X168734447Y-49887535D01*
X168870733Y-50216557D01*
X168635383Y-50368000D01*
X167640000Y-50368000D01*
X167514317Y-50393000D01*
X167005000Y-50393000D01*
X166363240Y-50520654D01*
X165819182Y-50884182D01*
X164549182Y-52154182D01*
X164185654Y-52698240D01*
X164060733Y-53326260D01*
X163914182Y-53424182D01*
X162733055Y-54605309D01*
X162626504Y-54676504D01*
X162257557Y-55228673D01*
X162131795Y-55860921D01*
X161530000Y-55860921D01*
X161112359Y-55939506D01*
X160728781Y-56186331D01*
X160471452Y-56562944D01*
X160380921Y-57010000D01*
X160380921Y-57583000D01*
X159649636Y-57583000D01*
X158030818Y-55964182D01*
X157486760Y-55600654D01*
X156845000Y-55473000D01*
X156617608Y-55473000D01*
X156509190Y-55364582D01*
X156744800Y-55302929D01*
X156920927Y-54802520D01*
X156892148Y-54272801D01*
X156744800Y-53917071D01*
X156509188Y-53855417D01*
X155754605Y-54610000D01*
X155768748Y-54624143D01*
X155589143Y-54803748D01*
X155575000Y-54789605D01*
X155560858Y-54803748D01*
X155381253Y-54624143D01*
X155395395Y-54610000D01*
X155381253Y-54595858D01*
X155560858Y-54416253D01*
X155575000Y-54430395D01*
X156329583Y-53675812D01*
X156267929Y-53440200D01*
X155767520Y-53264073D01*
X155237801Y-53292852D01*
X154882071Y-53440200D01*
X154820418Y-53675810D01*
X154705163Y-53560555D01*
X154662000Y-53603718D01*
X154662000Y-51734188D01*
X156725417Y-51734188D01*
X156787071Y-51969800D01*
X157287480Y-52145927D01*
X157817199Y-52117148D01*
X158172929Y-51969800D01*
X158234583Y-51734188D01*
X157480000Y-50979605D01*
X156725417Y-51734188D01*
X154662000Y-51734188D01*
X154662000Y-50607480D01*
X156134073Y-50607480D01*
X156162852Y-51137199D01*
X156310200Y-51492929D01*
X156545812Y-51554583D01*
X157300395Y-50800000D01*
X157659605Y-50800000D01*
X158414188Y-51554583D01*
X158649800Y-51492929D01*
X158825927Y-50992520D01*
X158797148Y-50462801D01*
X158649800Y-50107071D01*
X158414188Y-50045417D01*
X157659605Y-50800000D01*
X157300395Y-50800000D01*
X156545812Y-50045417D01*
X156310200Y-50107071D01*
X156134073Y-50607480D01*
X154662000Y-50607480D01*
X154662000Y-50165005D01*
X154662001Y-50165000D01*
X154602489Y-49865812D01*
X156725417Y-49865812D01*
X157480000Y-50620395D01*
X158234583Y-49865812D01*
X158172929Y-49630200D01*
X157672520Y-49454073D01*
X157142801Y-49482852D01*
X156787071Y-49630200D01*
X156725417Y-49865812D01*
X154602489Y-49865812D01*
X154538152Y-49542374D01*
X154380968Y-49307131D01*
X154185463Y-49014537D01*
X154185460Y-49014535D01*
X153674711Y-48503785D01*
X169333390Y-48503785D01*
X170180000Y-49350395D01*
X171026610Y-48503785D01*
X170949344Y-48255024D01*
X170402869Y-48057660D01*
X169822465Y-48084447D01*
X169410656Y-48255024D01*
X169333390Y-48503785D01*
X153674711Y-48503785D01*
X153550463Y-48379537D01*
X153550460Y-48379535D01*
X151010463Y-45839537D01*
X150482626Y-45486848D01*
X149860000Y-45363000D01*
X137160000Y-45363000D01*
X136537374Y-45486848D01*
X136009537Y-45839537D01*
X136009535Y-45839540D01*
X134064910Y-47784164D01*
X133587288Y-47981514D01*
X133073319Y-48494587D01*
X132794817Y-49165292D01*
X132794183Y-49891521D01*
X132993000Y-50372694D01*
X132993000Y-54610000D01*
X133116848Y-55232626D01*
X133469537Y-55760463D01*
X133997374Y-56113152D01*
X134620000Y-56237000D01*
X136486074Y-56237000D01*
X136843296Y-56594222D01*
X136798479Y-56594183D01*
X136127288Y-56871514D01*
X135613319Y-57384587D01*
X135415087Y-57861980D01*
X135318500Y-57842421D01*
X133921500Y-57842421D01*
X133503859Y-57921006D01*
X133120281Y-58167831D01*
X133109079Y-58184226D01*
X133109079Y-55560000D01*
X133030494Y-55142359D01*
X132783669Y-54758781D01*
X132407056Y-54501452D01*
X131960000Y-54410921D01*
X122585715Y-54410921D01*
X123101388Y-53895248D01*
X123187444Y-53954048D01*
X123634500Y-54044579D01*
X125285500Y-54044579D01*
X125703141Y-53965994D01*
X126086719Y-53719169D01*
X126344048Y-53342556D01*
X126434579Y-52895500D01*
X126434579Y-51244500D01*
X126355994Y-50826859D01*
X126109169Y-50443281D01*
X125767344Y-50209722D01*
X125932340Y-49752869D01*
X125905553Y-49172465D01*
X125734976Y-48760656D01*
X125486215Y-48683390D01*
X124639605Y-49530000D01*
X124653748Y-49544143D01*
X124474143Y-49723748D01*
X124460000Y-49709605D01*
X124445858Y-49723748D01*
X124266253Y-49544143D01*
X124280395Y-49530000D01*
X123433785Y-48683390D01*
X123185024Y-48760656D01*
X122987660Y-49307131D01*
X123014447Y-49887535D01*
X123150733Y-50216557D01*
X122876532Y-50393000D01*
X122555000Y-50393000D01*
X121913240Y-50520654D01*
X121369182Y-50884182D01*
X119490943Y-52762421D01*
X119316500Y-52762421D01*
X118898859Y-52841006D01*
X118515281Y-53087831D01*
X118257952Y-53464444D01*
X118167421Y-53911500D01*
X118167421Y-54085943D01*
X116924182Y-55329182D01*
X116568885Y-55860921D01*
X115810000Y-55860921D01*
X115392359Y-55939506D01*
X115008781Y-56186331D01*
X114751452Y-56562944D01*
X114660921Y-57010000D01*
X114660921Y-57583000D01*
X114564636Y-57583000D01*
X112945818Y-55964182D01*
X112401760Y-55600654D01*
X111760000Y-55473000D01*
X110897608Y-55473000D01*
X110789190Y-55364582D01*
X111024800Y-55302929D01*
X111200927Y-54802520D01*
X111172148Y-54272801D01*
X111024800Y-53917071D01*
X110789188Y-53855417D01*
X110034605Y-54610000D01*
X110048748Y-54624143D01*
X109869143Y-54803748D01*
X109855000Y-54789605D01*
X109840858Y-54803748D01*
X109661253Y-54624143D01*
X109675395Y-54610000D01*
X109661253Y-54595858D01*
X109840858Y-54416253D01*
X109855000Y-54430395D01*
X110609583Y-53675812D01*
X110547929Y-53440200D01*
X110047520Y-53264073D01*
X109517801Y-53292852D01*
X109162071Y-53440200D01*
X109100418Y-53675810D01*
X108985163Y-53560555D01*
X108942000Y-53603718D01*
X108942000Y-51734188D01*
X111005417Y-51734188D01*
X111067071Y-51969800D01*
X111567480Y-52145927D01*
X112097199Y-52117148D01*
X112452929Y-51969800D01*
X112514583Y-51734188D01*
X111760000Y-50979605D01*
X111005417Y-51734188D01*
X108942000Y-51734188D01*
X108942000Y-50607480D01*
X110414073Y-50607480D01*
X110442852Y-51137199D01*
X110590200Y-51492929D01*
X110825812Y-51554583D01*
X111580395Y-50800000D01*
X111939605Y-50800000D01*
X112694188Y-51554583D01*
X112929800Y-51492929D01*
X113105927Y-50992520D01*
X113077148Y-50462801D01*
X112929800Y-50107071D01*
X112694188Y-50045417D01*
X111939605Y-50800000D01*
X111580395Y-50800000D01*
X110825812Y-50045417D01*
X110590200Y-50107071D01*
X110414073Y-50607480D01*
X108942000Y-50607480D01*
X108942000Y-50165005D01*
X108942001Y-50165000D01*
X108882489Y-49865812D01*
X111005417Y-49865812D01*
X111760000Y-50620395D01*
X112514583Y-49865812D01*
X112452929Y-49630200D01*
X111952520Y-49454073D01*
X111422801Y-49482852D01*
X111067071Y-49630200D01*
X111005417Y-49865812D01*
X108882489Y-49865812D01*
X108818152Y-49542374D01*
X108660968Y-49307131D01*
X108465463Y-49014537D01*
X108465460Y-49014535D01*
X107954711Y-48503785D01*
X123613390Y-48503785D01*
X124460000Y-49350395D01*
X125306610Y-48503785D01*
X125229344Y-48255024D01*
X124682869Y-48057660D01*
X124102465Y-48084447D01*
X123690656Y-48255024D01*
X123613390Y-48503785D01*
X107954711Y-48503785D01*
X107830463Y-48379537D01*
X107830460Y-48379535D01*
X105290463Y-45839537D01*
X104762626Y-45486848D01*
X104140000Y-45363000D01*
X91440000Y-45363000D01*
X90817374Y-45486848D01*
X90289537Y-45839537D01*
X90289535Y-45839540D01*
X88344910Y-47784164D01*
X87867288Y-47981514D01*
X87353319Y-48494587D01*
X87074817Y-49165292D01*
X87074183Y-49891521D01*
X87273000Y-50372694D01*
X87273000Y-54610000D01*
X87396848Y-55232626D01*
X87749537Y-55760463D01*
X88277374Y-56113152D01*
X88900000Y-56237000D01*
X90766074Y-56237000D01*
X91123296Y-56594222D01*
X91078479Y-56594183D01*
X90407288Y-56871514D01*
X89893319Y-57384587D01*
X89695087Y-57861980D01*
X89598500Y-57842421D01*
X88201500Y-57842421D01*
X87783859Y-57921006D01*
X87400281Y-58167831D01*
X87142952Y-58544444D01*
X87052421Y-58991500D01*
X87052421Y-60388500D01*
X87131006Y-60806141D01*
X87370151Y-61177784D01*
X87353319Y-61194587D01*
X87074817Y-61865292D01*
X87074183Y-62591521D01*
X87351514Y-63262712D01*
X87864587Y-63776681D01*
X88535292Y-64055183D01*
X89261521Y-64055817D01*
X89631328Y-63903015D01*
X89891514Y-64532712D01*
X90404587Y-65046681D01*
X91075292Y-65325183D01*
X91801521Y-65325817D01*
X92101178Y-65202001D01*
X92161932Y-65507431D01*
X92579653Y-66132595D01*
X93204817Y-66550316D01*
X93942248Y-66697000D01*
X94017752Y-66697000D01*
X94755183Y-66550316D01*
X95380347Y-66132595D01*
X95798068Y-65507431D01*
X95944752Y-64770000D01*
X95798068Y-64032569D01*
X95442217Y-63500000D01*
X95798068Y-62967431D01*
X95944752Y-62230000D01*
X95798068Y-61492569D01*
X95442217Y-60960000D01*
X95798068Y-60427431D01*
X95944752Y-59690000D01*
X95798068Y-58952569D01*
X95630418Y-58701663D01*
X95838548Y-58397056D01*
X95929079Y-57950000D01*
X95929079Y-56350000D01*
X95850494Y-55932359D01*
X95603669Y-55548781D01*
X95227056Y-55291452D01*
X94780000Y-55200921D01*
X94331847Y-55200921D01*
X92590463Y-53459537D01*
X92062626Y-53106848D01*
X91440000Y-52983000D01*
X90527000Y-52983000D01*
X90527000Y-51806282D01*
X90570163Y-51849445D01*
X90685418Y-51734190D01*
X90747071Y-51969800D01*
X91247480Y-52145927D01*
X91777199Y-52117148D01*
X92132929Y-51969800D01*
X92194583Y-51734188D01*
X91440000Y-50979605D01*
X91425858Y-50993748D01*
X91246253Y-50814143D01*
X91260395Y-50800000D01*
X91619605Y-50800000D01*
X92374188Y-51554583D01*
X92609800Y-51492929D01*
X92785927Y-50992520D01*
X92757148Y-50462801D01*
X92609800Y-50107071D01*
X92374188Y-50045417D01*
X91619605Y-50800000D01*
X91260395Y-50800000D01*
X91246253Y-50785858D01*
X91425858Y-50606253D01*
X91440000Y-50620395D01*
X92194583Y-49865812D01*
X92132929Y-49630200D01*
X91632520Y-49454073D01*
X91256419Y-49474506D01*
X92113925Y-48617000D01*
X95427392Y-48617000D01*
X95493783Y-48683391D01*
X95245024Y-48760656D01*
X95047660Y-49307131D01*
X95074447Y-49887535D01*
X95245024Y-50299344D01*
X95493785Y-50376610D01*
X96340395Y-49530000D01*
X96326253Y-49515858D01*
X96505858Y-49336253D01*
X96520000Y-49350395D01*
X96534143Y-49336253D01*
X96713748Y-49515858D01*
X96699605Y-49530000D01*
X96713748Y-49544143D01*
X96534143Y-49723748D01*
X96520000Y-49709605D01*
X95673390Y-50556215D01*
X95750656Y-50804976D01*
X96297131Y-51002340D01*
X96877535Y-50975553D01*
X97206557Y-50839267D01*
X97410831Y-51156719D01*
X97787444Y-51414048D01*
X98234500Y-51504579D01*
X99885500Y-51504579D01*
X100303141Y-51425994D01*
X100686719Y-51179169D01*
X100944048Y-50802556D01*
X101034579Y-50355500D01*
X101034579Y-48704500D01*
X101018115Y-48617000D01*
X103466074Y-48617000D01*
X103823296Y-48974222D01*
X103778479Y-48974183D01*
X103107288Y-49251514D01*
X102593319Y-49764587D01*
X102314817Y-50435292D01*
X102314183Y-51161521D01*
X102591514Y-51832712D01*
X103104587Y-52346681D01*
X103775292Y-52625183D01*
X104501521Y-52625817D01*
X105172712Y-52348486D01*
X105686681Y-51835413D01*
X105688000Y-51832237D01*
X105688000Y-53603718D01*
X105644837Y-53560555D01*
X105529582Y-53675810D01*
X105467929Y-53440200D01*
X104967520Y-53264073D01*
X104437801Y-53292852D01*
X104082071Y-53440200D01*
X104020417Y-53675812D01*
X104775000Y-54430395D01*
X104789143Y-54416253D01*
X104968748Y-54595858D01*
X104954605Y-54610000D01*
X104968748Y-54624143D01*
X104794763Y-54798127D01*
X104055818Y-54059182D01*
X104021941Y-54036546D01*
X103840812Y-53855417D01*
X103776175Y-53872331D01*
X103511760Y-53695654D01*
X102870000Y-53568000D01*
X99060000Y-53568000D01*
X98418240Y-53695654D01*
X97874182Y-54059182D01*
X96604182Y-55329182D01*
X96240654Y-55873240D01*
X96113000Y-56515000D01*
X96163000Y-56766367D01*
X96163000Y-67729298D01*
X95315304Y-68576994D01*
X95297148Y-68242801D01*
X95149800Y-67887071D01*
X94914188Y-67825417D01*
X94159605Y-68580000D01*
X94173748Y-68594143D01*
X93994143Y-68773748D01*
X93980000Y-68759605D01*
X93965858Y-68773748D01*
X93786253Y-68594143D01*
X93800395Y-68580000D01*
X93045812Y-67825417D01*
X92810200Y-67887071D01*
X92634073Y-68387480D01*
X92662852Y-68917199D01*
X92810200Y-69272929D01*
X93045810Y-69334582D01*
X92930555Y-69449837D01*
X92973718Y-69493000D01*
X92281984Y-69493000D01*
X91804708Y-69294817D01*
X91078479Y-69294183D01*
X90407288Y-69571514D01*
X89893319Y-70084587D01*
X89614817Y-70755292D01*
X89614554Y-71056500D01*
X89185750Y-71056500D01*
X89027000Y-71215250D01*
X89027000Y-72263000D01*
X89047000Y-72263000D01*
X89047000Y-72517000D01*
X89027000Y-72517000D01*
X89027000Y-73564750D01*
X89185750Y-73723500D01*
X89688000Y-73723500D01*
X89688000Y-78740000D01*
X89821363Y-79410461D01*
X90201149Y-79978851D01*
X90769539Y-80358637D01*
X91440000Y-80492000D01*
X93437797Y-80492000D01*
X93390302Y-80511673D01*
X93211673Y-80690301D01*
X93115000Y-80923690D01*
X93115000Y-82264250D01*
X93273750Y-82423000D01*
X95123000Y-82423000D01*
X95123000Y-82403000D01*
X95377000Y-82403000D01*
X95377000Y-82423000D01*
X97226250Y-82423000D01*
X97385000Y-82264250D01*
X97385000Y-80923690D01*
X97288327Y-80690301D01*
X97109698Y-80511673D01*
X97062203Y-80492000D01*
X97699298Y-80492000D01*
X98185829Y-80978531D01*
X98104236Y-81059981D01*
X97703457Y-82025165D01*
X97702545Y-83070250D01*
X98101639Y-84036132D01*
X98839981Y-84775764D01*
X99805165Y-85176543D01*
X100850250Y-85177455D01*
X101486755Y-84914457D01*
X101631149Y-85058851D01*
X102199539Y-85438637D01*
X102870000Y-85572000D01*
X103599048Y-85572000D01*
X103775292Y-85645183D01*
X104501521Y-85645817D01*
X105172712Y-85368486D01*
X105686681Y-84855413D01*
X105965183Y-84184708D01*
X105965817Y-83458479D01*
X105708511Y-82835750D01*
X107085000Y-82835750D01*
X107085000Y-84176310D01*
X107181673Y-84409699D01*
X107360302Y-84588327D01*
X107593691Y-84685000D01*
X108934250Y-84685000D01*
X109093000Y-84526250D01*
X109093000Y-82677000D01*
X109347000Y-82677000D01*
X109347000Y-84526250D01*
X109505750Y-84685000D01*
X110846309Y-84685000D01*
X111079698Y-84588327D01*
X111258327Y-84409699D01*
X111355000Y-84176310D01*
X111355000Y-82835750D01*
X111196250Y-82677000D01*
X109347000Y-82677000D01*
X109093000Y-82677000D01*
X107243750Y-82677000D01*
X107085000Y-82835750D01*
X105708511Y-82835750D01*
X105688486Y-82787288D01*
X105175413Y-82273319D01*
X104504708Y-81994817D01*
X103778479Y-81994183D01*
X103599829Y-82068000D01*
X103595702Y-82068000D01*
X102451392Y-80923690D01*
X107085000Y-80923690D01*
X107085000Y-82264250D01*
X107243750Y-82423000D01*
X109093000Y-82423000D01*
X109093000Y-80573750D01*
X109347000Y-80573750D01*
X109347000Y-82423000D01*
X111196250Y-82423000D01*
X111355000Y-82264250D01*
X111355000Y-80923690D01*
X111258327Y-80690301D01*
X111079698Y-80511673D01*
X110846309Y-80415000D01*
X109505750Y-80415000D01*
X109347000Y-80573750D01*
X109093000Y-80573750D01*
X108934250Y-80415000D01*
X107593691Y-80415000D01*
X107360302Y-80511673D01*
X107181673Y-80690301D01*
X107085000Y-80923690D01*
X102451392Y-80923690D01*
X102059478Y-80531776D01*
X101948637Y-79974538D01*
X101568851Y-79406149D01*
X99663851Y-77501149D01*
X99114656Y-77134188D01*
X103385417Y-77134188D01*
X103447071Y-77369800D01*
X103947480Y-77545927D01*
X104477199Y-77517148D01*
X104832929Y-77369800D01*
X104894583Y-77134188D01*
X104140000Y-76379605D01*
X103385417Y-77134188D01*
X99114656Y-77134188D01*
X99095462Y-77121363D01*
X98425000Y-76988000D01*
X95629416Y-76988000D01*
X95805183Y-76564708D01*
X95805817Y-75838479D01*
X95590211Y-75316672D01*
X95837162Y-75316672D01*
X96133786Y-76034558D01*
X96682553Y-76584284D01*
X97399920Y-76882161D01*
X98176672Y-76882838D01*
X98894558Y-76586214D01*
X99174947Y-76306314D01*
X99378191Y-76390500D01*
X100044250Y-76390500D01*
X100203000Y-76231750D01*
X100203000Y-75057000D01*
X100457000Y-75057000D01*
X100457000Y-76231750D01*
X100615750Y-76390500D01*
X101281809Y-76390500D01*
X101515198Y-76293827D01*
X101693827Y-76115199D01*
X101738445Y-76007480D01*
X102794073Y-76007480D01*
X102822852Y-76537199D01*
X102970200Y-76892929D01*
X103205812Y-76954583D01*
X103960395Y-76200000D01*
X104319605Y-76200000D01*
X105074188Y-76954583D01*
X105309800Y-76892929D01*
X105485927Y-76392520D01*
X105457148Y-75862801D01*
X105309800Y-75507071D01*
X105074188Y-75445417D01*
X104319605Y-76200000D01*
X103960395Y-76200000D01*
X103205812Y-75445417D01*
X102970200Y-75507071D01*
X102794073Y-76007480D01*
X101738445Y-76007480D01*
X101790500Y-75881810D01*
X101790500Y-75215750D01*
X101631750Y-75057000D01*
X100457000Y-75057000D01*
X100203000Y-75057000D01*
X100183000Y-75057000D01*
X100183000Y-74803000D01*
X100203000Y-74803000D01*
X100203000Y-73628250D01*
X100457000Y-73628250D01*
X100457000Y-74803000D01*
X101631750Y-74803000D01*
X101790500Y-74644250D01*
X101790500Y-74594188D01*
X103385417Y-74594188D01*
X103447071Y-74829800D01*
X103708629Y-74921859D01*
X103447071Y-75030200D01*
X103385417Y-75265812D01*
X104140000Y-76020395D01*
X104894583Y-75265812D01*
X104832929Y-75030200D01*
X104571371Y-74938141D01*
X104832929Y-74829800D01*
X104894583Y-74594188D01*
X104140000Y-73839605D01*
X103385417Y-74594188D01*
X101790500Y-74594188D01*
X101790500Y-73978190D01*
X101693827Y-73744801D01*
X101515198Y-73566173D01*
X101281809Y-73469500D01*
X100615750Y-73469500D01*
X100457000Y-73628250D01*
X100203000Y-73628250D01*
X100044250Y-73469500D01*
X99378191Y-73469500D01*
X99174937Y-73553691D01*
X99088877Y-73467480D01*
X102794073Y-73467480D01*
X102822852Y-73997199D01*
X102970200Y-74352929D01*
X103205812Y-74414583D01*
X103960395Y-73660000D01*
X103205812Y-72905417D01*
X102970200Y-72967071D01*
X102794073Y-73467480D01*
X99088877Y-73467480D01*
X98897447Y-73275716D01*
X98180080Y-72977839D01*
X97403328Y-72977162D01*
X96685442Y-73273786D01*
X96135716Y-73822553D01*
X95837839Y-74539920D01*
X95837162Y-75316672D01*
X95590211Y-75316672D01*
X95528486Y-75167288D01*
X95015413Y-74653319D01*
X94344708Y-74374817D01*
X93618479Y-74374183D01*
X93192000Y-74550401D01*
X93192000Y-72747000D01*
X94621582Y-72747000D01*
X95250000Y-72872000D01*
X95920462Y-72738637D01*
X96488851Y-72358851D01*
X98515702Y-70332000D01*
X98519048Y-70332000D01*
X98695292Y-70405183D01*
X99421521Y-70405817D01*
X100092712Y-70128486D01*
X100606681Y-69615413D01*
X100885183Y-68944708D01*
X100885817Y-68218479D01*
X100608486Y-67547288D01*
X100095413Y-67033319D01*
X99424708Y-66754817D01*
X99417000Y-66754810D01*
X99417000Y-57259636D01*
X99662217Y-57014419D01*
X99635248Y-57150000D01*
X99781932Y-57887431D01*
X100137783Y-58420000D01*
X99781932Y-58952569D01*
X99635248Y-59690000D01*
X99781932Y-60427431D01*
X100137783Y-60960000D01*
X99781932Y-61492569D01*
X99635248Y-62230000D01*
X99781932Y-62967431D01*
X100137783Y-63500000D01*
X99781932Y-64032569D01*
X99635248Y-64770000D01*
X99781932Y-65507431D01*
X100199653Y-66132595D01*
X100824817Y-66550316D01*
X101562248Y-66697000D01*
X101637752Y-66697000D01*
X102206222Y-66583924D01*
X102388000Y-66765702D01*
X102388000Y-69850000D01*
X102521363Y-70520462D01*
X102901149Y-71088851D01*
X104136994Y-72324696D01*
X103802801Y-72342852D01*
X103447071Y-72490200D01*
X103385417Y-72725812D01*
X104140000Y-73480395D01*
X104154143Y-73466253D01*
X104333748Y-73645858D01*
X104319605Y-73660000D01*
X105074188Y-74414583D01*
X105309800Y-74352929D01*
X105485927Y-73852520D01*
X105475650Y-73663352D01*
X112473606Y-80661308D01*
X112074236Y-81059981D01*
X111673457Y-82025165D01*
X111672545Y-83070250D01*
X112071639Y-84036132D01*
X112809981Y-84775764D01*
X113775165Y-85176543D01*
X114820250Y-85177455D01*
X115786132Y-84778361D01*
X116525764Y-84040019D01*
X116926543Y-83074835D01*
X116926751Y-82835750D01*
X132485000Y-82835750D01*
X132485000Y-84176310D01*
X132581673Y-84409699D01*
X132760302Y-84588327D01*
X132993691Y-84685000D01*
X134334250Y-84685000D01*
X134493000Y-84526250D01*
X134493000Y-82677000D01*
X134747000Y-82677000D01*
X134747000Y-84526250D01*
X134905750Y-84685000D01*
X136246309Y-84685000D01*
X136479698Y-84588327D01*
X136658327Y-84409699D01*
X136755000Y-84176310D01*
X136755000Y-82835750D01*
X136596250Y-82677000D01*
X134747000Y-82677000D01*
X134493000Y-82677000D01*
X132643750Y-82677000D01*
X132485000Y-82835750D01*
X116926751Y-82835750D01*
X116927455Y-82029750D01*
X116528361Y-81063868D01*
X116388428Y-80923690D01*
X132485000Y-80923690D01*
X132485000Y-82264250D01*
X132643750Y-82423000D01*
X134493000Y-82423000D01*
X134493000Y-80573750D01*
X134334250Y-80415000D01*
X132993691Y-80415000D01*
X132760302Y-80511673D01*
X132581673Y-80690301D01*
X132485000Y-80923690D01*
X116388428Y-80923690D01*
X116052000Y-80586675D01*
X116052000Y-80010000D01*
X115918637Y-79339539D01*
X115538851Y-78771149D01*
X109443452Y-72675750D01*
X122999500Y-72675750D01*
X122999500Y-73341809D01*
X123096173Y-73575198D01*
X123274801Y-73753827D01*
X123508190Y-73850500D01*
X124174250Y-73850500D01*
X124333000Y-73691750D01*
X124333000Y-72517000D01*
X124587000Y-72517000D01*
X124587000Y-73691750D01*
X124745750Y-73850500D01*
X125411810Y-73850500D01*
X125645199Y-73753827D01*
X125823827Y-73575198D01*
X125920500Y-73341809D01*
X125920500Y-72675750D01*
X133286500Y-72675750D01*
X133286500Y-73214809D01*
X133383173Y-73448198D01*
X133561801Y-73626827D01*
X133795190Y-73723500D01*
X134334250Y-73723500D01*
X134493000Y-73564750D01*
X134493000Y-72517000D01*
X133445250Y-72517000D01*
X133286500Y-72675750D01*
X125920500Y-72675750D01*
X125761750Y-72517000D01*
X124587000Y-72517000D01*
X124333000Y-72517000D01*
X123158250Y-72517000D01*
X122999500Y-72675750D01*
X109443452Y-72675750D01*
X107134925Y-70367223D01*
X107450882Y-70236672D01*
X122507162Y-70236672D01*
X122803786Y-70954558D01*
X123083686Y-71234947D01*
X122999500Y-71438191D01*
X122999500Y-72104250D01*
X123158250Y-72263000D01*
X124333000Y-72263000D01*
X124333000Y-72243000D01*
X124587000Y-72243000D01*
X124587000Y-72263000D01*
X125761750Y-72263000D01*
X125920500Y-72104250D01*
X125920500Y-71565191D01*
X133286500Y-71565191D01*
X133286500Y-72104250D01*
X133445250Y-72263000D01*
X134493000Y-72263000D01*
X134493000Y-71215250D01*
X134334250Y-71056500D01*
X133795190Y-71056500D01*
X133561801Y-71153173D01*
X133383173Y-71331802D01*
X133286500Y-71565191D01*
X125920500Y-71565191D01*
X125920500Y-71438191D01*
X125836309Y-71234937D01*
X126114284Y-70957447D01*
X126412161Y-70240080D01*
X126412838Y-69463328D01*
X126116214Y-68745442D01*
X125567447Y-68195716D01*
X124850080Y-67897839D01*
X124073328Y-67897162D01*
X123355442Y-68193786D01*
X122805716Y-68742553D01*
X122507839Y-69459920D01*
X122507162Y-70236672D01*
X107450882Y-70236672D01*
X107712712Y-70128486D01*
X108226681Y-69615413D01*
X108505183Y-68944708D01*
X108505446Y-68643500D01*
X108934250Y-68643500D01*
X109093000Y-68484750D01*
X109093000Y-67437000D01*
X109347000Y-67437000D01*
X109347000Y-68484750D01*
X109505750Y-68643500D01*
X110044809Y-68643500D01*
X110278198Y-68546827D01*
X110456827Y-68368199D01*
X110553500Y-68134810D01*
X110553500Y-67595750D01*
X110394750Y-67437000D01*
X109347000Y-67437000D01*
X109093000Y-67437000D01*
X109073000Y-67437000D01*
X109073000Y-67183000D01*
X109093000Y-67183000D01*
X109093000Y-66135250D01*
X109347000Y-66135250D01*
X109347000Y-67183000D01*
X110394750Y-67183000D01*
X110553500Y-67024250D01*
X110553500Y-66485190D01*
X110456827Y-66251801D01*
X110278198Y-66073173D01*
X110044809Y-65976500D01*
X109505750Y-65976500D01*
X109347000Y-66135250D01*
X109093000Y-66135250D01*
X108934250Y-65976500D01*
X108395191Y-65976500D01*
X108307000Y-66013030D01*
X108307000Y-63795308D01*
X108347712Y-63778486D01*
X108861681Y-63265413D01*
X109140183Y-62594708D01*
X109140718Y-61982354D01*
X111004182Y-63845818D01*
X111548240Y-64209346D01*
X112190000Y-64337000D01*
X114660921Y-64337000D01*
X114660921Y-64910000D01*
X114739506Y-65327641D01*
X114986331Y-65711219D01*
X115362944Y-65968548D01*
X115810000Y-66059079D01*
X117508153Y-66059079D01*
X117753000Y-66303926D01*
X117753000Y-66468016D01*
X117554817Y-66945292D01*
X117554183Y-67671521D01*
X117831514Y-68342712D01*
X118344587Y-68856681D01*
X119015292Y-69135183D01*
X119741521Y-69135817D01*
X120412712Y-68858486D01*
X120926681Y-68345413D01*
X121205183Y-67674708D01*
X121205817Y-66948479D01*
X121007000Y-66467306D01*
X121007000Y-65987000D01*
X121410921Y-65987000D01*
X121410921Y-66360000D01*
X121489506Y-66777641D01*
X121736331Y-67161219D01*
X122112944Y-67418548D01*
X122560000Y-67509079D01*
X131960000Y-67509079D01*
X132377641Y-67430494D01*
X132761219Y-67183669D01*
X133018548Y-66807056D01*
X133109079Y-66360000D01*
X133109079Y-63300343D01*
X133584587Y-63776681D01*
X134255292Y-64055183D01*
X134981521Y-64055817D01*
X135351328Y-63903015D01*
X135611514Y-64532712D01*
X136124587Y-65046681D01*
X136795292Y-65325183D01*
X137521521Y-65325817D01*
X137821178Y-65202001D01*
X137881932Y-65507431D01*
X138299653Y-66132595D01*
X138924817Y-66550316D01*
X139662248Y-66697000D01*
X139737752Y-66697000D01*
X140475183Y-66550316D01*
X141100347Y-66132595D01*
X141518068Y-65507431D01*
X141664752Y-64770000D01*
X141518068Y-64032569D01*
X141162217Y-63500000D01*
X141518068Y-62967431D01*
X141664752Y-62230000D01*
X141518068Y-61492569D01*
X141162217Y-60960000D01*
X141518068Y-60427431D01*
X141664752Y-59690000D01*
X141518068Y-58952569D01*
X141350418Y-58701663D01*
X141558548Y-58397056D01*
X141649079Y-57950000D01*
X141649079Y-56350000D01*
X141570494Y-55932359D01*
X141323669Y-55548781D01*
X140947056Y-55291452D01*
X140500000Y-55200921D01*
X140051847Y-55200921D01*
X138310463Y-53459537D01*
X137782626Y-53106848D01*
X137160000Y-52983000D01*
X136247000Y-52983000D01*
X136247000Y-51806282D01*
X136290163Y-51849445D01*
X136405418Y-51734190D01*
X136467071Y-51969800D01*
X136967480Y-52145927D01*
X137497199Y-52117148D01*
X137852929Y-51969800D01*
X137914583Y-51734188D01*
X137160000Y-50979605D01*
X137145858Y-50993748D01*
X136966253Y-50814143D01*
X136980395Y-50800000D01*
X137339605Y-50800000D01*
X138094188Y-51554583D01*
X138329800Y-51492929D01*
X138505927Y-50992520D01*
X138477148Y-50462801D01*
X138329800Y-50107071D01*
X138094188Y-50045417D01*
X137339605Y-50800000D01*
X136980395Y-50800000D01*
X136966253Y-50785858D01*
X137145858Y-50606253D01*
X137160000Y-50620395D01*
X137914583Y-49865812D01*
X137852929Y-49630200D01*
X137352520Y-49454073D01*
X136976419Y-49474506D01*
X137833925Y-48617000D01*
X141147392Y-48617000D01*
X141213783Y-48683391D01*
X140965024Y-48760656D01*
X140767660Y-49307131D01*
X140794447Y-49887535D01*
X140965024Y-50299344D01*
X141213785Y-50376610D01*
X142060395Y-49530000D01*
X142046253Y-49515858D01*
X142225858Y-49336253D01*
X142240000Y-49350395D01*
X142254143Y-49336253D01*
X142433748Y-49515858D01*
X142419605Y-49530000D01*
X142433748Y-49544143D01*
X142254143Y-49723748D01*
X142240000Y-49709605D01*
X141393390Y-50556215D01*
X141470656Y-50804976D01*
X142017131Y-51002340D01*
X142597535Y-50975553D01*
X142926557Y-50839267D01*
X143130831Y-51156719D01*
X143507444Y-51414048D01*
X143954500Y-51504579D01*
X145605500Y-51504579D01*
X146023141Y-51425994D01*
X146406719Y-51179169D01*
X146664048Y-50802556D01*
X146754579Y-50355500D01*
X146754579Y-48704500D01*
X146738115Y-48617000D01*
X149186074Y-48617000D01*
X149543296Y-48974222D01*
X149498479Y-48974183D01*
X148827288Y-49251514D01*
X148313319Y-49764587D01*
X148034817Y-50435292D01*
X148034183Y-51161521D01*
X148311514Y-51832712D01*
X148824587Y-52346681D01*
X149495292Y-52625183D01*
X150221521Y-52625817D01*
X150892712Y-52348486D01*
X151406681Y-51835413D01*
X151408000Y-51832237D01*
X151408000Y-53603718D01*
X151364837Y-53560555D01*
X151249582Y-53675810D01*
X151187929Y-53440200D01*
X150687520Y-53264073D01*
X150157801Y-53292852D01*
X149802071Y-53440200D01*
X149740417Y-53675812D01*
X150495000Y-54430395D01*
X150509143Y-54416253D01*
X150688748Y-54595858D01*
X150674605Y-54610000D01*
X150688748Y-54624143D01*
X150514763Y-54798127D01*
X149775818Y-54059182D01*
X149741941Y-54036546D01*
X149560812Y-53855417D01*
X149496175Y-53872331D01*
X149231760Y-53695654D01*
X148590000Y-53568000D01*
X144780000Y-53568000D01*
X144138240Y-53695654D01*
X143594182Y-54059182D01*
X142324182Y-55329182D01*
X141960654Y-55873240D01*
X141833000Y-56515000D01*
X141833000Y-67779298D01*
X141487223Y-68125075D01*
X141248486Y-67547288D01*
X140735413Y-67033319D01*
X140064708Y-66754817D01*
X139338479Y-66754183D01*
X138667288Y-67031514D01*
X138153319Y-67544587D01*
X137874817Y-68215292D01*
X137874183Y-68941521D01*
X138050401Y-69368000D01*
X137700952Y-69368000D01*
X137524708Y-69294817D01*
X136798479Y-69294183D01*
X136127288Y-69571514D01*
X135613319Y-70084587D01*
X135334817Y-70755292D01*
X135334554Y-71056500D01*
X134905750Y-71056500D01*
X134747000Y-71215250D01*
X134747000Y-72263000D01*
X134767000Y-72263000D01*
X134767000Y-72517000D01*
X134747000Y-72517000D01*
X134747000Y-73564750D01*
X134905750Y-73723500D01*
X135408000Y-73723500D01*
X135408000Y-78740000D01*
X135541363Y-79410462D01*
X135921149Y-79978851D01*
X136435779Y-80493481D01*
X136246309Y-80415000D01*
X134905750Y-80415000D01*
X134747000Y-80573750D01*
X134747000Y-82423000D01*
X136596250Y-82423000D01*
X136755000Y-82264250D01*
X136755000Y-80923690D01*
X136676519Y-80734221D01*
X137335762Y-81393464D01*
X137073457Y-82025165D01*
X137072545Y-83070250D01*
X137471639Y-84036132D01*
X138209981Y-84775764D01*
X139175165Y-85176543D01*
X139908245Y-85177183D01*
X140299538Y-85438637D01*
X140970000Y-85572000D01*
X149319048Y-85572000D01*
X149495292Y-85645183D01*
X150221521Y-85645817D01*
X150892712Y-85368486D01*
X151406681Y-84855413D01*
X151685183Y-84184708D01*
X151685817Y-83458479D01*
X151428511Y-82835750D01*
X152805000Y-82835750D01*
X152805000Y-84176310D01*
X152901673Y-84409699D01*
X153080302Y-84588327D01*
X153313691Y-84685000D01*
X154654250Y-84685000D01*
X154813000Y-84526250D01*
X154813000Y-82677000D01*
X155067000Y-82677000D01*
X155067000Y-84526250D01*
X155225750Y-84685000D01*
X156566309Y-84685000D01*
X156799698Y-84588327D01*
X156978327Y-84409699D01*
X157075000Y-84176310D01*
X157075000Y-82835750D01*
X156916250Y-82677000D01*
X155067000Y-82677000D01*
X154813000Y-82677000D01*
X152963750Y-82677000D01*
X152805000Y-82835750D01*
X151428511Y-82835750D01*
X151408486Y-82787288D01*
X150895413Y-82273319D01*
X150224708Y-81994817D01*
X149498479Y-81994183D01*
X149319829Y-82068000D01*
X142327422Y-82068000D01*
X142327455Y-82029750D01*
X141928361Y-81063868D01*
X141788428Y-80923690D01*
X152805000Y-80923690D01*
X152805000Y-82264250D01*
X152963750Y-82423000D01*
X154813000Y-82423000D01*
X154813000Y-80573750D01*
X155067000Y-80573750D01*
X155067000Y-82423000D01*
X156916250Y-82423000D01*
X157075000Y-82264250D01*
X157075000Y-80923690D01*
X156978327Y-80690301D01*
X156799698Y-80511673D01*
X156566309Y-80415000D01*
X155225750Y-80415000D01*
X155067000Y-80573750D01*
X154813000Y-80573750D01*
X154654250Y-80415000D01*
X153313691Y-80415000D01*
X153080302Y-80511673D01*
X152901673Y-80690301D01*
X152805000Y-80923690D01*
X141788428Y-80923690D01*
X141190019Y-80324236D01*
X141104190Y-80288597D01*
X140938851Y-80041149D01*
X138912000Y-78014298D01*
X138912000Y-77167608D01*
X138945418Y-77134190D01*
X139007071Y-77369800D01*
X139507480Y-77545927D01*
X140037199Y-77517148D01*
X140392929Y-77369800D01*
X140454583Y-77134188D01*
X149105417Y-77134188D01*
X149167071Y-77369800D01*
X149667480Y-77545927D01*
X150197199Y-77517148D01*
X150552929Y-77369800D01*
X150614583Y-77134188D01*
X149860000Y-76379605D01*
X149105417Y-77134188D01*
X140454583Y-77134188D01*
X139700000Y-76379605D01*
X139685858Y-76393748D01*
X139506253Y-76214143D01*
X139520395Y-76200000D01*
X139879605Y-76200000D01*
X140634188Y-76954583D01*
X140869800Y-76892929D01*
X141045927Y-76392520D01*
X141017148Y-75862801D01*
X140869800Y-75507071D01*
X140634188Y-75445417D01*
X139879605Y-76200000D01*
X139520395Y-76200000D01*
X139506253Y-76185858D01*
X139685858Y-76006253D01*
X139700000Y-76020395D01*
X140403723Y-75316672D01*
X141557162Y-75316672D01*
X141853786Y-76034558D01*
X142402553Y-76584284D01*
X143119920Y-76882161D01*
X143896672Y-76882838D01*
X144614558Y-76586214D01*
X144894947Y-76306314D01*
X145098191Y-76390500D01*
X145764250Y-76390500D01*
X145923000Y-76231750D01*
X145923000Y-75057000D01*
X146177000Y-75057000D01*
X146177000Y-76231750D01*
X146335750Y-76390500D01*
X147001809Y-76390500D01*
X147235198Y-76293827D01*
X147413827Y-76115199D01*
X147458445Y-76007480D01*
X148514073Y-76007480D01*
X148542852Y-76537199D01*
X148690200Y-76892929D01*
X148925812Y-76954583D01*
X149680395Y-76200000D01*
X150039605Y-76200000D01*
X150794188Y-76954583D01*
X151029800Y-76892929D01*
X151205927Y-76392520D01*
X151177148Y-75862801D01*
X151029800Y-75507071D01*
X150794188Y-75445417D01*
X150039605Y-76200000D01*
X149680395Y-76200000D01*
X148925812Y-75445417D01*
X148690200Y-75507071D01*
X148514073Y-76007480D01*
X147458445Y-76007480D01*
X147510500Y-75881810D01*
X147510500Y-75215750D01*
X147351750Y-75057000D01*
X146177000Y-75057000D01*
X145923000Y-75057000D01*
X145903000Y-75057000D01*
X145903000Y-74803000D01*
X145923000Y-74803000D01*
X145923000Y-73628250D01*
X146177000Y-73628250D01*
X146177000Y-74803000D01*
X147351750Y-74803000D01*
X147510500Y-74644250D01*
X147510500Y-74594188D01*
X149105417Y-74594188D01*
X149167071Y-74829800D01*
X149428629Y-74921859D01*
X149167071Y-75030200D01*
X149105417Y-75265812D01*
X149860000Y-76020395D01*
X150614583Y-75265812D01*
X150552929Y-75030200D01*
X150291371Y-74938141D01*
X150552929Y-74829800D01*
X150614583Y-74594188D01*
X149860000Y-73839605D01*
X149105417Y-74594188D01*
X147510500Y-74594188D01*
X147510500Y-73978190D01*
X147413827Y-73744801D01*
X147235198Y-73566173D01*
X147001809Y-73469500D01*
X146335750Y-73469500D01*
X146177000Y-73628250D01*
X145923000Y-73628250D01*
X145764250Y-73469500D01*
X145098191Y-73469500D01*
X144894937Y-73553691D01*
X144808877Y-73467480D01*
X148514073Y-73467480D01*
X148542852Y-73997199D01*
X148690200Y-74352929D01*
X148925812Y-74414583D01*
X149680395Y-73660000D01*
X148925812Y-72905417D01*
X148690200Y-72967071D01*
X148514073Y-73467480D01*
X144808877Y-73467480D01*
X144617447Y-73275716D01*
X143900080Y-72977839D01*
X143123328Y-72977162D01*
X142405442Y-73273786D01*
X141855716Y-73822553D01*
X141557839Y-74539920D01*
X141557162Y-75316672D01*
X140403723Y-75316672D01*
X140454583Y-75265812D01*
X140392929Y-75030200D01*
X139892520Y-74854073D01*
X139362801Y-74882852D01*
X139007071Y-75030200D01*
X138945418Y-75265810D01*
X138912000Y-75232392D01*
X138912000Y-72872000D01*
X140970000Y-72872000D01*
X141640462Y-72738637D01*
X142208851Y-72358851D01*
X144235702Y-70332000D01*
X144239048Y-70332000D01*
X144415292Y-70405183D01*
X145141521Y-70405817D01*
X145812712Y-70128486D01*
X146326681Y-69615413D01*
X146605183Y-68944708D01*
X146605817Y-68218479D01*
X146328486Y-67547288D01*
X145815413Y-67033319D01*
X145187000Y-66772378D01*
X145187000Y-57209636D01*
X145382217Y-57014419D01*
X145355248Y-57150000D01*
X145501932Y-57887431D01*
X145857783Y-58420000D01*
X145501932Y-58952569D01*
X145355248Y-59690000D01*
X145501932Y-60427431D01*
X145857783Y-60960000D01*
X145501932Y-61492569D01*
X145355248Y-62230000D01*
X145501932Y-62967431D01*
X145857783Y-63500000D01*
X145501932Y-64032569D01*
X145355248Y-64770000D01*
X145501932Y-65507431D01*
X145919653Y-66132595D01*
X146544817Y-66550316D01*
X147282248Y-66697000D01*
X147357752Y-66697000D01*
X147926222Y-66583924D01*
X148108000Y-66765702D01*
X148108000Y-69850000D01*
X148241363Y-70520462D01*
X148621149Y-71088851D01*
X149856994Y-72324696D01*
X149522801Y-72342852D01*
X149167071Y-72490200D01*
X149105417Y-72725812D01*
X149860000Y-73480395D01*
X149874143Y-73466253D01*
X150053748Y-73645858D01*
X150039605Y-73660000D01*
X150794188Y-74414583D01*
X151029800Y-74352929D01*
X151205927Y-73852520D01*
X151195650Y-73663352D01*
X158193606Y-80661308D01*
X157794236Y-81059981D01*
X157393457Y-82025165D01*
X157392545Y-83070250D01*
X157791639Y-84036132D01*
X158529981Y-84775764D01*
X159495165Y-85176543D01*
X160540250Y-85177455D01*
X161506132Y-84778361D01*
X162245764Y-84040019D01*
X162646543Y-83074835D01*
X162647455Y-82029750D01*
X162248361Y-81063868D01*
X161772000Y-80586675D01*
X161772000Y-80010000D01*
X161676124Y-79528000D01*
X161638637Y-79339538D01*
X161258851Y-78771149D01*
X155163452Y-72675750D01*
X168719500Y-72675750D01*
X168719500Y-73341809D01*
X168816173Y-73575198D01*
X168994801Y-73753827D01*
X169228190Y-73850500D01*
X169894250Y-73850500D01*
X170053000Y-73691750D01*
X170053000Y-72517000D01*
X170307000Y-72517000D01*
X170307000Y-73691750D01*
X170465750Y-73850500D01*
X171131810Y-73850500D01*
X171365199Y-73753827D01*
X171543827Y-73575198D01*
X171640500Y-73341809D01*
X171640500Y-72675750D01*
X171481750Y-72517000D01*
X170307000Y-72517000D01*
X170053000Y-72517000D01*
X168878250Y-72517000D01*
X168719500Y-72675750D01*
X155163452Y-72675750D01*
X152854925Y-70367223D01*
X153170882Y-70236672D01*
X168227162Y-70236672D01*
X168523786Y-70954558D01*
X168803686Y-71234947D01*
X168719500Y-71438191D01*
X168719500Y-72104250D01*
X168878250Y-72263000D01*
X170053000Y-72263000D01*
X170053000Y-72243000D01*
X170307000Y-72243000D01*
X170307000Y-72263000D01*
X171481750Y-72263000D01*
X171640500Y-72104250D01*
X171640500Y-71438191D01*
X171556309Y-71234937D01*
X171834284Y-70957447D01*
X172132161Y-70240080D01*
X172132838Y-69463328D01*
X171836214Y-68745442D01*
X171287447Y-68195716D01*
X170570080Y-67897839D01*
X169793328Y-67897162D01*
X169075442Y-68193786D01*
X168525716Y-68742553D01*
X168227839Y-69459920D01*
X168227162Y-70236672D01*
X153170882Y-70236672D01*
X153432712Y-70128486D01*
X153946681Y-69615413D01*
X154225183Y-68944708D01*
X154225446Y-68643500D01*
X154654250Y-68643500D01*
X154813000Y-68484750D01*
X154813000Y-67437000D01*
X155067000Y-67437000D01*
X155067000Y-68484750D01*
X155225750Y-68643500D01*
X155764809Y-68643500D01*
X155998198Y-68546827D01*
X156176827Y-68368199D01*
X156273500Y-68134810D01*
X156273500Y-67595750D01*
X156114750Y-67437000D01*
X155067000Y-67437000D01*
X154813000Y-67437000D01*
X154793000Y-67437000D01*
X154793000Y-67183000D01*
X154813000Y-67183000D01*
X154813000Y-66135250D01*
X155067000Y-66135250D01*
X155067000Y-67183000D01*
X156114750Y-67183000D01*
X156273500Y-67024250D01*
X156273500Y-66485190D01*
X156176827Y-66251801D01*
X155998198Y-66073173D01*
X155764809Y-65976500D01*
X155225750Y-65976500D01*
X155067000Y-66135250D01*
X154813000Y-66135250D01*
X154654250Y-65976500D01*
X154115191Y-65976500D01*
X154027000Y-66013030D01*
X154027000Y-63795308D01*
X154067712Y-63778486D01*
X154581681Y-63265413D01*
X154860183Y-62594708D01*
X154860718Y-61982354D01*
X156724182Y-63845818D01*
X157268240Y-64209346D01*
X157910000Y-64337000D01*
X160380921Y-64337000D01*
X160380921Y-64910000D01*
X160459506Y-65327641D01*
X160706331Y-65711219D01*
X161082944Y-65968548D01*
X161530000Y-66059079D01*
X163228153Y-66059079D01*
X163473000Y-66303926D01*
X163473000Y-66468016D01*
X163274817Y-66945292D01*
X163274183Y-67671521D01*
X163551514Y-68342712D01*
X164064587Y-68856681D01*
X164735292Y-69135183D01*
X165461521Y-69135817D01*
X166132712Y-68858486D01*
X166646681Y-68345413D01*
X166925183Y-67674708D01*
X166925817Y-66948479D01*
X166727000Y-66467306D01*
X166727000Y-65987000D01*
X167130921Y-65987000D01*
X167130921Y-66360000D01*
X167209506Y-66777641D01*
X167456331Y-67161219D01*
X167832944Y-67418548D01*
X168280000Y-67509079D01*
X177680000Y-67509079D01*
X178097641Y-67430494D01*
X178481219Y-67183669D01*
X178738548Y-66807056D01*
X178823000Y-66390019D01*
X178823000Y-83298773D01*
X178633502Y-82840154D01*
X177515731Y-81720429D01*
X176054545Y-81113692D01*
X174472396Y-81112311D01*
X173010154Y-81716498D01*
X171890429Y-82834269D01*
X171283692Y-84295455D01*
X171282311Y-85877604D01*
X171886498Y-87339846D01*
X173004269Y-88459571D01*
X173759091Y-88773000D01*
X90400805Y-88773000D01*
X91149846Y-88463502D01*
X92269571Y-87345731D01*
X92876308Y-85884545D01*
X92877689Y-84302396D01*
X92273502Y-82840154D01*
X92269106Y-82835750D01*
X93115000Y-82835750D01*
X93115000Y-84176310D01*
X93211673Y-84409699D01*
X93390302Y-84588327D01*
X93623691Y-84685000D01*
X94964250Y-84685000D01*
X95123000Y-84526250D01*
X95123000Y-82677000D01*
X95377000Y-82677000D01*
X95377000Y-84526250D01*
X95535750Y-84685000D01*
X96876309Y-84685000D01*
X97109698Y-84588327D01*
X97288327Y-84409699D01*
X97385000Y-84176310D01*
X97385000Y-82835750D01*
X97226250Y-82677000D01*
X95377000Y-82677000D01*
X95123000Y-82677000D01*
X93273750Y-82677000D01*
X93115000Y-82835750D01*
X92269106Y-82835750D01*
X91155731Y-81720429D01*
X89694545Y-81113692D01*
X88112396Y-81112311D01*
X86650154Y-81716498D01*
X86487000Y-81879367D01*
X86487000Y-72675750D01*
X87566500Y-72675750D01*
X87566500Y-73214809D01*
X87663173Y-73448198D01*
X87841801Y-73626827D01*
X88075190Y-73723500D01*
X88614250Y-73723500D01*
X88773000Y-73564750D01*
X88773000Y-72517000D01*
X87725250Y-72517000D01*
X87566500Y-72675750D01*
X86487000Y-72675750D01*
X86487000Y-71565191D01*
X87566500Y-71565191D01*
X87566500Y-72104250D01*
X87725250Y-72263000D01*
X88773000Y-72263000D01*
X88773000Y-71215250D01*
X88614250Y-71056500D01*
X88075190Y-71056500D01*
X87841801Y-71153173D01*
X87663173Y-71331802D01*
X87566500Y-71565191D01*
X86487000Y-71565191D01*
X86487000Y-67645812D01*
X93225417Y-67645812D01*
X93980000Y-68400395D01*
X94734583Y-67645812D01*
X94672929Y-67410200D01*
X94172520Y-67234073D01*
X93642801Y-67262852D01*
X93287071Y-67410200D01*
X93225417Y-67645812D01*
X86487000Y-67645812D01*
X86487000Y-42944248D01*
X103393651Y-42944248D01*
X103699922Y-43685481D01*
X104266537Y-44253085D01*
X105007233Y-44560650D01*
X105809248Y-44561349D01*
X106550481Y-44255078D01*
X107118085Y-43688463D01*
X107425650Y-42947767D01*
X107425751Y-42830750D01*
X124206000Y-42830750D01*
X124206000Y-43560310D01*
X124302673Y-43793699D01*
X124481302Y-43972327D01*
X124714691Y-44069000D01*
X125444250Y-44069000D01*
X125603000Y-43910250D01*
X125603000Y-42672000D01*
X125857000Y-42672000D01*
X125857000Y-43910250D01*
X126015750Y-44069000D01*
X126745309Y-44069000D01*
X126978698Y-43972327D01*
X127157327Y-43793699D01*
X127230437Y-43617196D01*
X141347409Y-43617196D01*
X141432467Y-43872539D01*
X142001965Y-44080516D01*
X142607700Y-44054723D01*
X143047533Y-43872539D01*
X143132591Y-43617196D01*
X142240000Y-42724605D01*
X141347409Y-43617196D01*
X127230437Y-43617196D01*
X127254000Y-43560310D01*
X127254000Y-42830750D01*
X127095250Y-42672000D01*
X125857000Y-42672000D01*
X125603000Y-42672000D01*
X124364750Y-42672000D01*
X124206000Y-42830750D01*
X107425751Y-42830750D01*
X107426349Y-42145752D01*
X107171798Y-41529690D01*
X124206000Y-41529690D01*
X124206000Y-42259250D01*
X124364750Y-42418000D01*
X125603000Y-42418000D01*
X125603000Y-41179750D01*
X125857000Y-41179750D01*
X125857000Y-42418000D01*
X127095250Y-42418000D01*
X127206285Y-42306965D01*
X140704484Y-42306965D01*
X140730277Y-42912700D01*
X140912461Y-43352533D01*
X141167804Y-43437591D01*
X142060395Y-42545000D01*
X142419605Y-42545000D01*
X143312196Y-43437591D01*
X143567539Y-43352533D01*
X143775516Y-42783035D01*
X143749723Y-42177300D01*
X143567539Y-41737467D01*
X143322977Y-41656000D01*
X160521921Y-41656000D01*
X160521921Y-43434000D01*
X160600506Y-43851641D01*
X160847331Y-44235219D01*
X161223944Y-44492548D01*
X161671000Y-44583079D01*
X163449000Y-44583079D01*
X163866641Y-44504494D01*
X164250219Y-44257669D01*
X164507548Y-43881056D01*
X164598079Y-43434000D01*
X164598079Y-41656000D01*
X164519494Y-41238359D01*
X164272669Y-40854781D01*
X163896056Y-40597452D01*
X163449000Y-40506921D01*
X161671000Y-40506921D01*
X161253359Y-40585506D01*
X160869781Y-40832331D01*
X160612452Y-41208944D01*
X160521921Y-41656000D01*
X143322977Y-41656000D01*
X143312196Y-41652409D01*
X142419605Y-42545000D01*
X142060395Y-42545000D01*
X141167804Y-41652409D01*
X140912461Y-41737467D01*
X140704484Y-42306965D01*
X127206285Y-42306965D01*
X127254000Y-42259250D01*
X127254000Y-41529690D01*
X127230438Y-41472804D01*
X141347409Y-41472804D01*
X142240000Y-42365395D01*
X143132591Y-41472804D01*
X143047533Y-41217461D01*
X142478035Y-41009484D01*
X141872300Y-41035277D01*
X141432467Y-41217461D01*
X141347409Y-41472804D01*
X127230438Y-41472804D01*
X127157327Y-41296301D01*
X126978698Y-41117673D01*
X126745309Y-41021000D01*
X126015750Y-41021000D01*
X125857000Y-41179750D01*
X125603000Y-41179750D01*
X125444250Y-41021000D01*
X124714691Y-41021000D01*
X124481302Y-41117673D01*
X124302673Y-41296301D01*
X124206000Y-41529690D01*
X107171798Y-41529690D01*
X107120078Y-41404519D01*
X106553463Y-40836915D01*
X105812767Y-40529350D01*
X105010752Y-40528651D01*
X104269519Y-40834922D01*
X103701915Y-41401537D01*
X103394350Y-42142233D01*
X103393651Y-42944248D01*
X86487000Y-42944248D01*
X86487000Y-39322000D01*
X106047715Y-39322000D01*
X106047715Y-30940838D01*
X108282597Y-30940838D01*
X108636115Y-31796418D01*
X109290139Y-32451585D01*
X110145100Y-32806596D01*
X111070838Y-32807403D01*
X111926418Y-32453885D01*
X112581585Y-31799861D01*
X112936596Y-30944900D01*
X112936752Y-30765750D01*
X116275000Y-30765750D01*
X116275000Y-31806310D01*
X116371673Y-32039699D01*
X116550302Y-32218327D01*
X116783691Y-32315000D01*
X117824250Y-32315000D01*
X117983000Y-32156250D01*
X117983000Y-30607000D01*
X118237000Y-30607000D01*
X118237000Y-32156250D01*
X118395750Y-32315000D01*
X119436309Y-32315000D01*
X119669698Y-32218327D01*
X119848327Y-32039699D01*
X119945000Y-31806310D01*
X119945000Y-31777175D01*
X146322430Y-31777175D01*
X146445565Y-32064788D01*
X147127734Y-32324707D01*
X147857443Y-32303786D01*
X148434435Y-32064788D01*
X148557570Y-31777175D01*
X147440000Y-30659605D01*
X146322430Y-31777175D01*
X119945000Y-31777175D01*
X119945000Y-30765750D01*
X119786250Y-30607000D01*
X118237000Y-30607000D01*
X117983000Y-30607000D01*
X116433750Y-30607000D01*
X116275000Y-30765750D01*
X112936752Y-30765750D01*
X112937403Y-30019162D01*
X112583885Y-29163582D01*
X112574011Y-29153690D01*
X116275000Y-29153690D01*
X116275000Y-30194250D01*
X116433750Y-30353000D01*
X117983000Y-30353000D01*
X117983000Y-28803750D01*
X118237000Y-28803750D01*
X118237000Y-30353000D01*
X119786250Y-30353000D01*
X119945000Y-30194250D01*
X119945000Y-30167734D01*
X145595293Y-30167734D01*
X145616214Y-30897443D01*
X145855212Y-31474435D01*
X146142825Y-31597570D01*
X147260395Y-30480000D01*
X147619605Y-30480000D01*
X148737175Y-31597570D01*
X149024788Y-31474435D01*
X149284707Y-30792266D01*
X149263786Y-30062557D01*
X149024788Y-29485565D01*
X148737175Y-29362430D01*
X147619605Y-30480000D01*
X147260395Y-30480000D01*
X146142825Y-29362430D01*
X145855212Y-29485565D01*
X145595293Y-30167734D01*
X119945000Y-30167734D01*
X119945000Y-29182825D01*
X146322430Y-29182825D01*
X147440000Y-30300395D01*
X148460395Y-29280000D01*
X152590921Y-29280000D01*
X152590921Y-31680000D01*
X152669506Y-32097641D01*
X152916331Y-32481219D01*
X153292944Y-32738548D01*
X153740000Y-32829079D01*
X156140000Y-32829079D01*
X156557641Y-32750494D01*
X156941219Y-32503669D01*
X157198548Y-32127056D01*
X157289079Y-31680000D01*
X157289079Y-29280000D01*
X157210494Y-28862359D01*
X156963669Y-28478781D01*
X156587056Y-28221452D01*
X156140000Y-28130921D01*
X153740000Y-28130921D01*
X153322359Y-28209506D01*
X152938781Y-28456331D01*
X152681452Y-28832944D01*
X152590921Y-29280000D01*
X148460395Y-29280000D01*
X148557570Y-29182825D01*
X148434435Y-28895212D01*
X147752266Y-28635293D01*
X147022557Y-28656214D01*
X146445565Y-28895212D01*
X146322430Y-29182825D01*
X119945000Y-29182825D01*
X119945000Y-29153690D01*
X119848327Y-28920301D01*
X119669698Y-28741673D01*
X119436309Y-28645000D01*
X118395750Y-28645000D01*
X118237000Y-28803750D01*
X117983000Y-28803750D01*
X117824250Y-28645000D01*
X116783691Y-28645000D01*
X116550302Y-28741673D01*
X116371673Y-28920301D01*
X116275000Y-29153690D01*
X112574011Y-29153690D01*
X111929861Y-28508415D01*
X111074900Y-28153404D01*
X110149162Y-28152597D01*
X109293582Y-28506115D01*
X108638415Y-29160139D01*
X108283404Y-30015100D01*
X108282597Y-30940838D01*
X106047715Y-30940838D01*
X106047715Y-26868000D01*
X91786459Y-26868000D01*
X92269571Y-26385731D01*
X92462855Y-25920250D01*
X125642545Y-25920250D01*
X126041639Y-26886132D01*
X126779981Y-27625764D01*
X127745165Y-28026543D01*
X128790250Y-28027455D01*
X129756132Y-27628361D01*
X130471771Y-26913970D01*
X132015635Y-26913970D01*
X132175418Y-27232739D01*
X132966187Y-27542723D01*
X133815387Y-27526497D01*
X134524582Y-27232739D01*
X134684365Y-26913970D01*
X133350000Y-25579605D01*
X132015635Y-26913970D01*
X130471771Y-26913970D01*
X130495764Y-26890019D01*
X130896543Y-25924835D01*
X130897335Y-25016187D01*
X131207277Y-25016187D01*
X131223503Y-25865387D01*
X131517261Y-26574582D01*
X131836030Y-26734365D01*
X133170395Y-25400000D01*
X133529605Y-25400000D01*
X134863970Y-26734365D01*
X135182739Y-26574582D01*
X135492723Y-25783813D01*
X135476497Y-24934613D01*
X135182739Y-24225418D01*
X134863970Y-24065635D01*
X133529605Y-25400000D01*
X133170395Y-25400000D01*
X131836030Y-24065635D01*
X131517261Y-24225418D01*
X131207277Y-25016187D01*
X130897335Y-25016187D01*
X130897455Y-24879750D01*
X130498361Y-23913868D01*
X130470572Y-23886030D01*
X132015635Y-23886030D01*
X133350000Y-25220395D01*
X134670395Y-23900000D01*
X135780921Y-23900000D01*
X135780921Y-26900000D01*
X135859506Y-27317641D01*
X136106331Y-27701219D01*
X136482944Y-27958548D01*
X136930000Y-28049079D01*
X139930000Y-28049079D01*
X140347641Y-27970494D01*
X140731219Y-27723669D01*
X140988548Y-27347056D01*
X141079079Y-26900000D01*
X141079079Y-23900000D01*
X141000494Y-23482359D01*
X140753669Y-23098781D01*
X140377056Y-22841452D01*
X139930000Y-22750921D01*
X136930000Y-22750921D01*
X136512359Y-22829506D01*
X136128781Y-23076331D01*
X135871452Y-23452944D01*
X135780921Y-23900000D01*
X134670395Y-23900000D01*
X134684365Y-23886030D01*
X134524582Y-23567261D01*
X133733813Y-23257277D01*
X132884613Y-23273503D01*
X132175418Y-23567261D01*
X132015635Y-23886030D01*
X130470572Y-23886030D01*
X129760019Y-23174236D01*
X128794835Y-22773457D01*
X127749750Y-22772545D01*
X126783868Y-23171639D01*
X126044236Y-23909981D01*
X125643457Y-24875165D01*
X125642545Y-25920250D01*
X92462855Y-25920250D01*
X92876308Y-24924545D01*
X92877689Y-23342396D01*
X92273502Y-21880154D01*
X91571575Y-21177000D01*
X172588917Y-21177000D01*
X171890429Y-21874269D01*
M02*
